<?xml version="1.0" encoding="UTF-8"?>
<!DOCTYPE svg PUBLIC "-//W3C//DTD SVG 1.0//EN" "http://www.w3.org/TR/2001/REC-SVG-20010904/DTD/svg10.dtd">
<!-- Creator: CorelDRAW X7 -->
<svg xmlns="http://www.w3.org/2000/svg" xml:space="preserve" width="600px" height="480px" version="1.0" style="shape-rendering:geometricPrecision; text-rendering:geometricPrecision; image-rendering:optimizeQuality; fill-rule:evenodd; clip-rule:evenodd"
viewBox="0 0 600 480"
 xmlns:xlink="http://www.w3.org/1999/xlink">
 <defs>
  <style type="text/css">
   <![CDATA[
    .str1 {stroke:white;stroke-width:3.99987}
    .str0 {stroke:black;stroke-width:0.755906}
    .fil71 {fill:none}
    .fil73 {fill:none;fill-rule:nonzero}
    .fil0 {fill:black}
    .fil70 {fill:#070707}
    .fil69 {fill:#0D0D0D}
    .fil68 {fill:#141414}
    .fil67 {fill:#1A1A1A}
    .fil66 {fill:#212121}
    .fil65 {fill:#282828}
    .fil64 {fill:#2E2E2E}
    .fil63 {fill:#353535}
    .fil62 {fill:#3C3C3C}
    .fil61 {fill:#424242}
    .fil60 {fill:#494949}
    .fil59 {fill:#4F4F4F}
    .fil58 {fill:#565656}
    .fil57 {fill:#5D5D5D}
    .fil56 {fill:#636363}
    .fil55 {fill:#6A6A6A}
    .fil54 {fill:#717171}
    .fil53 {fill:#767676}
    .fil52 {fill:#7A7A7A}
    .fil51 {fill:#7E7E7E}
    .fil50 {fill:#828282}
    .fil49 {fill:#868686}
    .fil48 {fill:#8A8A8A}
    .fil47 {fill:#8E8E8E}
    .fil46 {fill:#929292}
    .fil45 {fill:#969696}
    .fil44 {fill:#9A9A9A}
    .fil43 {fill:#9E9E9E}
    .fil42 {fill:#A2A2A2}
    .fil41 {fill:#A6A6A6}
    .fil40 {fill:#ABABAB}
    .fil39 {fill:#AFAFAF}
    .fil38 {fill:#B3B3B3}
    .fil37 {fill:#B7B7B7}
    .fil36 {fill:#BBBBBB}
    .fil35 {fill:#BFBFBF}
    .fil34 {fill:#C3C3C3}
    .fil33 {fill:#C7C7C7}
    .fil32 {fill:#CBCBCB}
    .fil31 {fill:#CFCFCF}
    .fil30 {fill:lightgrey}
    .fil29 {fill:#D7D7D7}
    .fil28 {fill:#DBDBDB}
    .fil27 {fill:#DFDFDF}
    .fil26 {fill:#E3E3E3}
    .fil25 {fill:#E7E7E7}
    .fil24 {fill:#E8E8E8}
    .fil23 {fill:#E9E9E9}
    .fil22 {fill:#EAEAEA}
    .fil21 {fill:#EBEBEB}
    .fil20 {fill:#ECECEC}
    .fil19 {fill:#EDEDED}
    .fil18 {fill:#EEEEEE}
    .fil17 {fill:#EFEFEF}
    .fil16 {fill:#F0F0F0}
    .fil15 {fill:#F1F1F1}
    .fil14 {fill:#F2F2F2}
    .fil13 {fill:#F3F3F3}
    .fil12 {fill:#F4F4F4}
    .fil11 {fill:whitesmoke}
    .fil10 {fill:#F6F6F6}
    .fil9 {fill:#F7F7F7}
    .fil8 {fill:#F8F8F8}
    .fil7 {fill:#F9F9F9}
    .fil6 {fill:#FAFAFA}
    .fil5 {fill:#FBFBFB}
    .fil4 {fill:#FCFCFC}
    .fil3 {fill:#FDFDFD}
    .fil2 {fill:#FEFEFE}
    .fil1 {fill:white}
    .fil72 {fill:#4D4D4D;fill-rule:nonzero}
   ]]>
  </style>
    <clipPath id="id0">
     <path d="M0 0l600 0 0 480 -600 0 0 -480z"/>
    </clipPath>
 </defs>
 <g id="Ebene_x0020_1">
  <metadata id="CorelCorpID_0Corel-Layer"/>
  <g>
   <g style="clip-path:url(#id0)">
    <path class="fil0" d="M0 0l600 0 0 480 -600 0 0 -480z"/>
    <path id="1" class="fil1" d="M298 239l4 0 0 2 -4 0 0 -2z"/>
    <path id="2" class="fil1" d="M299 239l0 2 2 0 0 -2 -2 0zm-2 -1l6 0 0 4 -6 0 0 -4z"/>
    <path id="3" class="fil1" d="M298 238l0 4 4 0 0 -4 -4 0zm-2 -1l8 0 0 6 -8 0 0 -6z"/>
    <path id="4" class="fil1" d="M296 237l0 6 8 0 0 -6 -8 0zm-1 -1l10 0 0 8 -10 0 0 -8z"/>
    <path id="5" class="fil1" d="M295 236l0 8 10 0 0 -8 -10 0zm-1 -1l12 0 0 10 -12 0 0 -10z"/>
    <path id="6" class="fil2" d="M294 235l0 10 12 0 0 -10 -12 0zm-2 -1l16 0 0 12 -16 0 0 -12z"/>
    <path id="7" class="fil2" d="M293 234l0 12 14 0 0 -12 -14 0zm-2 -1l18 0 0 14 -18 0 0 -14z"/>
    <path id="8" class="fil2" d="M292 233l0 14 16 0 0 -14 -16 0zm-2 -1l20 0 0 16 -20 0 0 -16z"/>
    <path id="9" class="fil2" d="M291 232l0 15 18 0 0 -15 -18 0zm-2 -1l22 0 0 18 -22 0 0 -18z"/>
    <path id="10" class="fil2" d="M289 232l0 16 22 0 0 -16 -22 0zm-1 -2l24 0 0 20 -24 0 0 -20z"/>
    <path id="11" class="fil2" d="M288 231l0 18 24 0 0 -18 -24 0zm-1 -2l26 0 0 22 -26 0 0 -22z"/>
    <path id="12" class="fil2" d="M287 230l0 20 26 0 0 -20 -26 0zm-2 -2l30 0 0 24 -30 0 0 -24z"/>
    <path id="13" class="fil2" d="M286 229l0 22 28 0 0 -22 -28 0zm-2 -2l32 0 0 26 -32 0 0 -26z"/>
    <path id="14" class="fil2" d="M285 228l0 24 30 0 0 -24 -30 0zm-2 -2l34 0 0 28 -34 0 0 -28z"/>
    <path id="15" class="fil3" d="M284 227l0 26 32 0 0 -26 -32 0zm-2 -2l36 0 0 30 -36 0 0 -30z"/>
    <path id="16" class="fil3" d="M282 226l0 28 36 0 0 -28 -36 0zm-1 -1l38 0 0 30 -38 0 0 -30z"/>
    <path id="17" class="fil3" d="M281 225l0 30 38 0 0 -30 -38 0zm-2 -1l42 0 0 32 -42 0 0 -32z"/>
    <path id="18" class="fil3" d="M280 224l0 32 40 0 0 -32 -40 0zm-2 -1l44 0 0 34 -44 0 0 -34z"/>
    <path id="19" class="fil3" d="M279 223l0 34 42 0 0 -34 -42 0zm-2 -1l46 0 0 36 -46 0 0 -36z"/>
    <path id="20" class="fil3" d="M278 222l0 36 44 0 0 -36 -44 0zm-2 -1l48 0 0 38 -48 0 0 -38z"/>
    <path id="21" class="fil3" d="M277 221l0 38 46 0 0 -38 -46 0zm-2 -1l50 0 0 40 -50 0 0 -40z"/>
    <path id="22" class="fil3" d="M275 220l0 40 50 0 0 -40 -50 0zm-1 -1l52 0 0 42 -52 0 0 -42z"/>
    <path id="23" class="fil4" d="M274 219l0 42 52 0 0 -42 -52 0zm-2 -1l56 0 0 44 -56 0 0 -44z"/>
    <path id="24" class="fil4" d="M273 218l0 44 54 0 0 -44 -54 0zm-2 -1l58 0 0 46 -58 0 0 -46z"/>
    <path id="25" class="fil4" d="M272 217l0 45 56 0 0 -45 -56 0zm-2 -1l60 0 0 48 -60 0 0 -48z"/>
    <path id="26" class="fil4" d="M271 217l0 46 58 0 0 -46 -58 0zm-2 -2l62 0 0 50 -62 0 0 -50z"/>
    <path id="27" class="fil4" d="M270 216l0 48 60 0 0 -48 -60 0zm-2 -2l64 0 0 52 -64 0 0 -52z"/>
    <path id="28" class="fil4" d="M268 215l0 50 64 0 0 -50 -64 0zm-1 -2l66 0 0 54 -66 0 0 -54z"/>
    <path id="29" class="fil4" d="M267 214l0 52 66 0 0 -52 -66 0zm-2 -2l70 0 0 56 -70 0 0 -56z"/>
    <path id="30" class="fil4" d="M266 213l0 54 68 0 0 -54 -68 0zm-2 -2l72 0 0 58 -72 0 0 -58z"/>
    <path id="31" class="fil4" d="M265 212l0 56 70 0 0 -56 -70 0zm-2 -2l74 0 0 60 -74 0 0 -60z"/>
    <path id="32" class="fil5" d="M264 211l0 58 72 0 0 -58 -72 0zm-2 -1l76 0 0 60 -76 0 0 -60z"/>
    <path id="33" class="fil5" d="M263 210l0 60 75 0 0 -60 -75 0zm-2 -1l78 0 0 62 -78 0 0 -62z"/>
    <path id="34" class="fil5" d="M261 209l0 62 78 0 0 -62 -78 0zm-1 -1l80 0 0 64 -80 0 0 -64z"/>
    <path id="35" class="fil5" d="M260 208l0 64 80 0 0 -64 -80 0zm-2 -1l84 0 0 66 -84 0 0 -66z"/>
    <path id="36" class="fil5" d="M259 207l0 66 82 0 0 -66 -82 0zm-2 -1l86 0 0 68 -86 0 0 -68z"/>
    <path id="37" class="fil5" d="M258 206l0 68 84 0 0 -68 -84 0zm-2 -1l88 0 0 70 -88 0 0 -70z"/>
    <path id="38" class="fil5" d="M257 205l0 70 86 0 0 -70 -86 0zm-2 -1l90 0 0 72 -90 0 0 -72z"/>
    <path id="39" class="fil5" d="M255 204l0 72 90 0 0 -72 -90 0zm-1 -1l92 0 0 74 -92 0 0 -74z"/>
    <path id="40" class="fil5" d="M254 203l0 74 92 0 0 -74 -92 0zm-1 -1l94 0 0 76 -94 0 0 -76z"/>
    <path id="41" class="fil6" d="M253 202l0 75 94 0 0 -75 -94 0zm-2 -1l98 0 0 78 -98 0 0 -78z"/>
    <path id="42" class="fil6" d="M252 202l0 76 96 0 0 -76 -96 0zm-2 -2l100 0 0 80 -100 0 0 -80z"/>
    <path id="43" class="fil6" d="M251 201l0 78 98 0 0 -78 -98 0zm-2 -2l102 0 0 82 -102 0 0 -82z"/>
    <path id="44" class="fil6" d="M250 200l0 80 100 0 0 -80 -100 0zm-2 -2l104 0 0 84 -104 0 0 -84z"/>
    <path id="45" class="fil6" d="M248 199l0 82 104 0 0 -82 -104 0zm-1 -2l106 0 0 86 -106 0 0 -86z"/>
    <path id="46" class="fil6" d="M247 198l0 84 106 0 0 -84 -106 0zm-1 -2l108 0 0 88 -108 0 0 -88z"/>
    <path id="47" class="fil6" d="M246 197l0 86 108 0 0 -86 -108 0zm-2 -2l112 0 0 90 -112 0 0 -90z"/>
    <path id="48" class="fil6" d="M245 196l0 88 110 0 0 -88 -110 0zm-2 -1l114 0 0 90 -114 0 0 -90z"/>
    <path id="49" class="fil7" d="M244 195l0 90 112 0 0 -90 -112 0zm-2 -1l116 0 0 92 -116 0 0 -92z"/>
    <path id="50" class="fil7" d="M243 194l0 92 114 0 0 -92 -114 0zm-2 -1l118 0 0 94 -118 0 0 -94z"/>
    <path id="51" class="fil7" d="M241 193l0 94 118 0 0 -94 -118 0zm-1 -1l120 0 0 96 -120 0 0 -96z"/>
    <path id="52" class="fil7" d="M240 192l0 96 120 0 0 -96 -120 0zm-2 -1l124 0 0 98 -124 0 0 -98z"/>
    <path id="53" class="fil7" d="M239 191l0 98 122 0 0 -98 -122 0zm-2 -1l126 0 0 100 -126 0 0 -100z"/>
    <path id="54" class="fil7" d="M238 190l0 100 124 0 0 -100 -124 0zm-2 -1l128 0 0 102 -128 0 0 -102z"/>
    <path id="55" class="fil7" d="M237 189l0 102 126 0 0 -102 -126 0zm-2 -1l130 0 0 104 -130 0 0 -104z"/>
    <path id="56" class="fil7" d="M236 188l0 104 128 0 0 -104 -128 0zm-2 -1l132 0 0 106 -132 0 0 -106z"/>
    <path id="57" class="fil7" d="M234 187l0 105 132 0 0 -105 -132 0zm-1 -1l134 0 0 108 -134 0 0 -108z"/>
    <path id="58" class="fil8" d="M233 187l0 106 134 0 0 -106 -134 0zm-2 -2l138 0 0 110 -138 0 0 -110z"/>
    <path id="59" class="fil8" d="M232 186l0 108 136 0 0 -108 -136 0zm-2 -2l140 0 0 112 -140 0 0 -112z"/>
    <path id="60" class="fil8" d="M231 185l0 110 138 0 0 -110 -138 0zm-2 -2l142 0 0 114 -142 0 0 -114z"/>
    <path id="61" class="fil8" d="M230 184l0 112 140 0 0 -112 -140 0zm-2 -2l144 0 0 116 -144 0 0 -116z"/>
    <path id="62" class="fil8" d="M229 183l0 114 142 0 0 -114 -142 0zm-2 -2l146 0 0 118 -146 0 0 -118z"/>
    <path id="63" class="fil8" d="M227 182l0 116 146 0 0 -116 -146 0zm-1 -2l148 0 0 120 -148 0 0 -120z"/>
    <path id="64" class="fil8" d="M226 181l0 118 148 0 0 -118 -148 0zm-2 -1l152 0 0 120 -152 0 0 -120z"/>
    <path id="65" class="fil8" d="M225 180l0 120 150 0 0 -120 -150 0zm-2 -1l154 0 0 122 -154 0 0 -122z"/>
    <path id="66" class="fil8" d="M224 179l0 122 152 0 0 -122 -152 0zm-2 -1l156 0 0 124 -156 0 0 -124z"/>
    <path id="67" class="fil9" d="M223 178l0 124 154 0 0 -124 -154 0zm-2 -1l158 0 0 126 -158 0 0 -126z"/>
    <path id="68" class="fil9" d="M221 177l0 126 158 0 0 -126 -158 0zm-1 -1l160 0 0 128 -160 0 0 -128z"/>
    <path id="69" class="fil9" d="M220 176l0 128 160 0 0 -128 -160 0zm-1 -1l162 0 0 130 -162 0 0 -130z"/>
    <path id="70" class="fil9" d="M219 175l0 130 162 0 0 -130 -162 0zm-2 -1l166 0 0 132 -166 0 0 -132z"/>
    <path id="71" class="fil9" d="M218 174l0 132 164 0 0 -132 -164 0zm-2 -1l168 0 0 134 -168 0 0 -134z"/>
    <path id="72" class="fil9" d="M217 173l0 134 166 0 0 -134 -166 0zm-2 -1l170 0 0 136 -170 0 0 -136z"/>
    <path id="73" class="fil9" d="M216 172l0 135 168 0 0 -135 -168 0zm-2 -1l172 0 0 138 -172 0 0 -138z"/>
    <path id="74" class="fil9" d="M214 172l0 136 172 0 0 -136 -172 0zm-1 -2l174 0 0 140 -174 0 0 -140z"/>
    <path id="75" class="fil9" d="M213 171l0 138 174 0 0 -138 -174 0zm-1 -2l176 0 0 142 -176 0 0 -142z"/>
    <path id="76" class="fil10" d="M212 170l0 140 176 0 0 -140 -176 0zm-2 -2l180 0 0 144 -180 0 0 -144z"/>
    <path id="77" class="fil10" d="M211 169l0 142 178 0 0 -142 -178 0zm-2 -2l182 0 0 146 -182 0 0 -146z"/>
    <path id="78" class="fil10" d="M210 168l0 144 180 0 0 -144 -180 0zm-2 -2l184 0 0 148 -184 0 0 -148z"/>
    <path id="79" class="fil10" d="M209 167l0 146 182 0 0 -146 -182 0zm-2 -2l186 0 0 150 -186 0 0 -150z"/>
    <path id="80" class="fil10" d="M207 166l0 148 186 0 0 -148 -186 0zm-1 -1l188 0 0 150 -188 0 0 -150z"/>
    <path id="81" class="fil10" d="M206 165l0 150 188 0 0 -150 -188 0zm-2 -1l192 0 0 152 -192 0 0 -152z"/>
    <path id="82" class="fil10" d="M205 164l0 152 190 0 0 -152 -190 0zm-2 -1l194 0 0 154 -194 0 0 -154z"/>
    <path id="83" class="fil10" d="M204 163l0 154 192 0 0 -154 -192 0zm-2 -1l196 0 0 156 -196 0 0 -156z"/>
    <path id="84" class="fil11" d="M203 162l0 156 194 0 0 -156 -194 0zm-2 -1l198 0 0 158 -198 0 0 -158z"/>
    <path id="85" class="fil11" d="M202 161l0 158 196 0 0 -158 -196 0zm-2 -1l200 0 0 160 -200 0 0 -160z"/>
    <path id="86" class="fil11" d="M200 160l0 160 200 0 0 -160 -200 0zm-1 -1l202 0 0 162 -202 0 0 -162z"/>
    <path id="87" class="fil11" d="M199 159l0 162 202 0 0 -162 -202 0zm-2 -1l206 0 0 164 -206 0 0 -164z"/>
    <path id="88" class="fil11" d="M198 158l0 164 204 0 0 -164 -204 0zm-2 -1l208 0 0 166 -208 0 0 -166z"/>
    <path id="89" class="fil11" d="M197 157l0 165 206 0 0 -165 -206 0zm-2 -1l210 0 0 168 -210 0 0 -168z"/>
    <path id="90" class="fil11" d="M196 157l0 166 208 0 0 -166 -208 0zm-2 -2l212 0 0 170 -212 0 0 -170z"/>
    <path id="91" class="fil11" d="M195 156l0 168 210 0 0 -168 -210 0zm-2 -2l214 0 0 172 -214 0 0 -172z"/>
    <path id="92" class="fil11" d="M193 155l0 170 214 0 0 -170 -214 0zm-1 -2l216 0 0 174 -216 0 0 -174z"/>
    <path id="93" class="fil12" d="M192 154l0 172 216 0 0 -172 -216 0zm-2 -2l220 0 0 176 -220 0 0 -176z"/>
    <path id="94" class="fil12" d="M191 153l0 174 218 0 0 -174 -218 0zm-2 -2l222 0 0 178 -222 0 0 -178z"/>
    <path id="95" class="fil12" d="M190 152l0 176 220 0 0 -176 -220 0zm-2 -2l224 0 0 180 -224 0 0 -180z"/>
    <path id="96" class="fil12" d="M189 151l0 178 222 0 0 -178 -222 0zm-2 -1l226 0 0 180 -226 0 0 -180z"/>
    <path id="97" class="fil12" d="M188 150l0 180 225 0 0 -180 -225 0zm-2 -1l228 0 0 182 -228 0 0 -182z"/>
    <path id="98" class="fil12" d="M186 149l0 182 228 0 0 -182 -228 0zm-1 -1l230 0 0 184 -230 0 0 -184z"/>
    <path id="99" class="fil12" d="M185 148l0 184 230 0 0 -184 -230 0zm-2 -1l234 0 0 186 -234 0 0 -186z"/>
    <path id="100" class="fil12" d="M184 147l0 186 232 0 0 -186 -232 0zm-2 -1l236 0 0 188 -236 0 0 -188z"/>
    <path id="101" class="fil12" d="M183 146l0 188 234 0 0 -188 -234 0zm-2 -1l238 0 0 190 -238 0 0 -190z"/>
    <path id="102" class="fil13" d="M182 145l0 190 236 0 0 -190 -236 0zm-2 -1l240 0 0 192 -240 0 0 -192z"/>
    <path id="103" class="fil13" d="M180 144l0 192 240 0 0 -192 -240 0zm-1 -1l242 0 0 194 -242 0 0 -194z"/>
    <path id="104" class="fil13" d="M179 143l0 194 242 0 0 -194 -242 0zm-1 -1l244 0 0 196 -244 0 0 -196z"/>
    <path id="105" class="fil13" d="M178 142l0 195 244 0 0 -195 -244 0zm-2 -1l248 0 0 198 -248 0 0 -198z"/>
    <path id="106" class="fil13" d="M177 142l0 196 246 0 0 -196 -246 0zm-2 -2l250 0 0 200 -250 0 0 -200z"/>
    <path id="107" class="fil13" d="M176 141l0 198 248 0 0 -198 -248 0zm-2 -2l252 0 0 202 -252 0 0 -202z"/>
    <path id="108" class="fil13" d="M175 140l0 200 250 0 0 -200 -250 0zm-2 -2l254 0 0 204 -254 0 0 -204z"/>
    <path id="109" class="fil13" d="M173 139l0 202 254 0 0 -202 -254 0zm-1 -2l256 0 0 206 -256 0 0 -206z"/>
    <path id="110" class="fil14" d="M172 138l0 204 256 0 0 -204 -256 0zm-1 -2l258 0 0 208 -258 0 0 -208z"/>
    <path id="111" class="fil14" d="M171 137l0 206 258 0 0 -206 -258 0zm-2 -2l262 0 0 210 -262 0 0 -210z"/>
    <path id="112" class="fil14" d="M170 136l0 208 260 0 0 -208 -260 0zm-2 -1l264 0 0 210 -264 0 0 -210z"/>
    <path id="113" class="fil14" d="M169 135l0 210 262 0 0 -210 -262 0zm-2 -1l266 0 0 212 -266 0 0 -212z"/>
    <path id="114" class="fil14" d="M168 134l0 212 264 0 0 -212 -264 0zm-2 -1l268 0 0 214 -268 0 0 -214z"/>
    <path id="115" class="fil14" d="M166 133l0 214 268 0 0 -214 -268 0zm-1 -1l270 0 0 216 -270 0 0 -216z"/>
    <path id="116" class="fil14" d="M165 132l0 216 270 0 0 -216 -270 0zm-2 -1l274 0 0 218 -274 0 0 -218z"/>
    <path id="117" class="fil14" d="M164 131l0 218 272 0 0 -218 -272 0zm-2 -1l276 0 0 220 -276 0 0 -220z"/>
    <path id="118" class="fil14" d="M163 130l0 220 274 0 0 -220 -274 0zm-2 -1l278 0 0 222 -278 0 0 -222z"/>
    <path id="119" class="fil15" d="M162 129l0 222 276 0 0 -222 -276 0zm-2 -1l280 0 0 224 -280 0 0 -224z"/>
    <path id="120" class="fil15" d="M161 128l0 224 278 0 0 -224 -278 0zm-2 -1l282 0 0 226 -282 0 0 -226z"/>
    <path id="121" class="fil15" d="M159 127l0 225 282 0 0 -225 -282 0zm-1 -1l284 0 0 228 -284 0 0 -228z"/>
    <path id="122" class="fil15" d="M158 127l0 226 284 0 0 -226 -284 0zm-2 -2l288 0 0 230 -288 0 0 -230z"/>
    <path id="123" class="fil15" d="M157 126l0 228 286 0 0 -228 -286 0zm-2 -2l290 0 0 232 -290 0 0 -232z"/>
    <path id="124" class="fil15" d="M156 125l0 230 288 0 0 -230 -288 0zm-2 -2l292 0 0 234 -292 0 0 -234z"/>
    <path id="125" class="fil15" d="M155 124l0 232 290 0 0 -232 -290 0zm-2 -2l294 0 0 236 -294 0 0 -236z"/>
    <path id="126" class="fil15" d="M154 123l0 234 292 0 0 -234 -292 0zm-2 -2l296 0 0 238 -296 0 0 -238z"/>
    <path id="127" class="fil15" d="M152 122l0 236 296 0 0 -236 -296 0zm-1 -2l298 0 0 240 -298 0 0 -240z"/>
    <path id="128" class="fil16" d="M151 121l0 238 298 0 0 -238 -298 0zm-2 -1l302 0 0 240 -302 0 0 -240z"/>
    <path id="129" class="fil16" d="M150 120l0 240 300 0 0 -240 -300 0zm-2 -1l304 0 0 242 -304 0 0 -242z"/>
    <path id="130" class="fil16" d="M149 119l0 242 302 0 0 -242 -302 0zm-2 -1l306 0 0 244 -306 0 0 -244z"/>
    <path id="131" class="fil16" d="M148 118l0 244 304 0 0 -244 -304 0zm-2 -1l308 0 0 246 -308 0 0 -246z"/>
    <path id="132" class="fil16" d="M146 117l0 246 308 0 0 -246 -308 0zm-1 -1l310 0 0 248 -310 0 0 -248z"/>
    <path id="133" class="fil16" d="M145 116l0 248 310 0 0 -248 -310 0zm-1 -1l312 0 0 250 -312 0 0 -250z"/>
    <path id="134" class="fil16" d="M144 115l0 250 312 0 0 -250 -312 0zm-2 -1l316 0 0 252 -316 0 0 -252z"/>
    <path id="135" class="fil16" d="M143 114l0 252 314 0 0 -252 -314 0zm-2 -1l318 0 0 254 -318 0 0 -254z"/>
    <path id="136" class="fil16" d="M142 113l0 254 316 0 0 -254 -316 0zm-2 -1l320 0 0 256 -320 0 0 -256z"/>
    <path id="137" class="fil17" d="M141 112l0 255 318 0 0 -255 -318 0zm-2 -1l322 0 0 258 -322 0 0 -258z"/>
    <path id="138" class="fil17" d="M139 112l0 256 322 0 0 -256 -322 0zm-1 -2l324 0 0 260 -324 0 0 -260z"/>
    <path id="139" class="fil17" d="M138 111l0 258 324 0 0 -258 -324 0zm-1 -2l326 0 0 262 -326 0 0 -262z"/>
    <path id="140" class="fil17" d="M137 110l0 260 326 0 0 -260 -326 0zm-2 -2l330 0 0 264 -330 0 0 -264z"/>
    <path id="141" class="fil17" d="M136 109l0 262 328 0 0 -262 -328 0zm-2 -2l332 0 0 266 -332 0 0 -266z"/>
    <path id="142" class="fil17" d="M135 108l0 264 330 0 0 -264 -330 0zm-2 -2l334 0 0 268 -334 0 0 -268z"/>
    <path id="143" class="fil17" d="M134 107l0 266 332 0 0 -266 -332 0zm-2 -2l336 0 0 270 -336 0 0 -270z"/>
    <path id="144" class="fil17" d="M132 106l0 268 336 0 0 -268 -336 0zm-1 -1l338 0 0 270 -338 0 0 -270z"/>
    <path id="145" class="fil18" d="M131 105l0 270 338 0 0 -270 -338 0zm-2 -1l342 0 0 272 -342 0 0 -272z"/>
    <path id="146" class="fil18" d="M130 104l0 272 340 0 0 -272 -340 0zm-2 -1l344 0 0 274 -344 0 0 -274z"/>
    <path id="147" class="fil18" d="M129 103l0 274 342 0 0 -274 -342 0zm-2 -1l346 0 0 276 -346 0 0 -276z"/>
    <path id="148" class="fil18" d="M128 102l0 276 344 0 0 -276 -344 0zm-2 -1l348 0 0 278 -348 0 0 -278z"/>
    <path id="149" class="fil18" d="M127 101l0 278 346 0 0 -278 -346 0zm-2 -1l350 0 0 280 -350 0 0 -280z"/>
    <path id="150" class="fil18" d="M125 100l0 280 350 0 0 -280 -350 0zm-1 -1l352 0 0 282 -352 0 0 -282z"/>
    <path id="151" class="fil18" d="M124 99l0 282 352 0 0 -282 -352 0zm-2 -1l356 0 0 284 -356 0 0 -284z"/>
    <path id="152" class="fil18" d="M123 98l0 284 354 0 0 -284 -354 0zm-2 -1l358 0 0 286 -358 0 0 -286z"/>
    <path id="153" class="fil18" d="M122 97l0 285 356 0 0 -285 -356 0zm-2 -1l360 0 0 288 -360 0 0 -288z"/>
    <path id="154" class="fil19" d="M121 97l0 286 358 0 0 -286 -358 0zm-2 -2l362 0 0 290 -362 0 0 -290z"/>
    <path id="155" class="fil19" d="M120 96l0 288 360 0 0 -288 -360 0zm-2 -2l364 0 0 292 -364 0 0 -292z"/>
    <path id="156" class="fil19" d="M118 95l0 290 364 0 0 -290 -364 0zm-1 -2l366 0 0 294 -366 0 0 -294z"/>
    <path id="157" class="fil19" d="M117 94l0 292 366 0 0 -292 -366 0zm-2 -2l370 0 0 296 -370 0 0 -296z"/>
    <path id="158" class="fil19" d="M116 93l0 294 368 0 0 -294 -368 0zm-2 -2l372 0 0 298 -372 0 0 -298z"/>
    <path id="159" class="fil19" d="M115 92l0 296 370 0 0 -296 -370 0zm-2 -2l374 0 0 300 -374 0 0 -300z"/>
    <path id="160" class="fil19" d="M114 91l0 298 372 0 0 -298 -372 0zm-2 -1l376 0 0 300 -376 0 0 -300z"/>
    <path id="161" class="fil19" d="M112 90l0 300 376 0 0 -300 -376 0zm-1 -1l378 0 0 302 -378 0 0 -302z"/>
    <path id="162" class="fil19" d="M111 89l0 302 378 0 0 -302 -378 0zm-1 -1l380 0 0 304 -380 0 0 -304z"/>
    <path id="163" class="fil20" d="M110 88l0 304 380 0 0 -304 -380 0zm-2 -1l384 0 0 306 -384 0 0 -306z"/>
    <path id="164" class="fil20" d="M109 87l0 306 382 0 0 -306 -382 0zm-2 -1l386 0 0 308 -386 0 0 -308z"/>
    <path id="165" class="fil20" d="M108 86l0 308 384 0 0 -308 -384 0zm-2 -1l388 0 0 310 -388 0 0 -310z"/>
    <path id="166" class="fil20" d="M107 85l0 310 386 0 0 -310 -386 0zm-2 -1l390 0 0 312 -390 0 0 -312z"/>
    <path id="167" class="fil20" d="M105 84l0 312 390 0 0 -312 -390 0zm-1 -1l392 0 0 314 -392 0 0 -314z"/>
    <path id="168" class="fil20" d="M104 83l0 314 392 0 0 -314 -392 0zm-1 -1l394 0 0 316 -394 0 0 -316z"/>
    <path id="169" class="fil20" d="M103 82l0 315 394 0 0 -315 -394 0zm-2 -1l398 0 0 318 -398 0 0 -318z"/>
    <path id="170" class="fil20" d="M102 82l0 316 396 0 0 -316 -396 0zm-2 -2l400 0 0 320 -400 0 0 -320z"/>
    <path id="171" class="fil21" d="M101 81l0 318 398 0 0 -318 -398 0zm-2 -2l402 0 0 322 -402 0 0 -322z"/>
    <path id="172" class="fil21" d="M100 80l0 320 400 0 0 -320 -400 0zm-2 -2l404 0 0 324 -404 0 0 -324z"/>
    <path id="173" class="fil21" d="M98 79l0 322 404 0 0 -322 -404 0zm-1 -2l406 0 0 326 -406 0 0 -326z"/>
    <path id="174" class="fil21" d="M97 78l0 324 406 0 0 -324 -406 0zm-1 -2l408 0 0 328 -408 0 0 -328z"/>
    <path id="175" class="fil21" d="M96 77l0 326 408 0 0 -326 -408 0zm-2 -2l412 0 0 330 -412 0 0 -330z"/>
    <path id="176" class="fil21" d="M95 76l0 328 410 0 0 -328 -410 0zm-2 -1l414 0 0 330 -414 0 0 -330z"/>
    <path id="177" class="fil21" d="M94 75l0 330 412 0 0 -330 -412 0zm-2 -1l416 0 0 332 -416 0 0 -332z"/>
    <path id="178" class="fil21" d="M93 74l0 332 414 0 0 -332 -414 0zm-2 -1l418 0 0 334 -418 0 0 -334z"/>
    <path id="179" class="fil21" d="M91 73l0 334 418 0 0 -334 -418 0zm-1 -1l420 0 0 336 -420 0 0 -336z"/>
    <path id="180" class="fil22" d="M90 72l0 336 420 0 0 -336 -420 0zm-2 -1l424 0 0 338 -424 0 0 -338z"/>
    <path id="181" class="fil22" d="M89 71l0 338 422 0 0 -338 -422 0zm-2 -1l426 0 0 340 -426 0 0 -340z"/>
    <path id="182" class="fil22" d="M88 70l0 340 424 0 0 -340 -424 0zm-2 -1l428 0 0 342 -428 0 0 -342z"/>
    <path id="183" class="fil22" d="M87 69l0 342 426 0 0 -342 -426 0zm-2 -1l430 0 0 344 -430 0 0 -344z"/>
    <path id="184" class="fil22" d="M86 68l0 344 428 0 0 -344 -428 0zm-2 -1l432 0 0 346 -432 0 0 -346z"/>
    <path id="185" class="fil22" d="M84 67l0 345 432 0 0 -345 -432 0zm-1 -1l434 0 0 348 -434 0 0 -348z"/>
    <path id="186" class="fil22" d="M83 67l0 346 434 0 0 -346 -434 0zm-2 -2l438 0 0 350 -438 0 0 -350z"/>
    <path id="187" class="fil22" d="M82 66l0 348 436 0 0 -348 -436 0zm-2 -2l440 0 0 352 -440 0 0 -352z"/>
    <path id="188" class="fil22" d="M81 65l0 350 438 0 0 -350 -438 0zm-2 -2l442 0 0 354 -442 0 0 -354z"/>
    <path id="189" class="fil23" d="M80 64l0 352 440 0 0 -352 -440 0zm-2 -2l444 0 0 356 -444 0 0 -356z"/>
    <path id="190" class="fil23" d="M79 63l0 354 442 0 0 -354 -442 0zm-2 -2l446 0 0 358 -446 0 0 -358z"/>
    <path id="191" class="fil23" d="M77 62l0 356 446 0 0 -356 -446 0zm-1 -2l448 0 0 360 -448 0 0 -360z"/>
    <path id="192" class="fil23" d="M76 61l0 358 448 0 0 -358 -448 0zm-2 -1l452 0 0 360 -452 0 0 -360z"/>
    <path id="193" class="fil23" d="M75 60l0 360 450 0 0 -360 -450 0zm-2 -1l454 0 0 362 -454 0 0 -362z"/>
    <path id="194" class="fil23" d="M74 59l0 362 452 0 0 -362 -452 0zm-2 -1l456 0 0 364 -456 0 0 -364z"/>
    <path id="195" class="fil23" d="M73 58l0 364 454 0 0 -364 -454 0zm-2 -1l458 0 0 366 -458 0 0 -366z"/>
    <path id="196" class="fil23" d="M71 57l0 366 458 0 0 -366 -458 0zm-1 -1l460 0 0 368 -460 0 0 -368z"/>
    <path id="197" class="fil23" d="M70 56l0 368 460 0 0 -368 -460 0zm-1 -1l462 0 0 370 -462 0 0 -370z"/>
    <path id="198" class="fil24" d="M69 55l0 370 462 0 0 -370 -462 0zm-2 -1l466 0 0 372 -466 0 0 -372z"/>
    <path id="199" class="fil24" d="M68 54l0 372 464 0 0 -372 -464 0zm-2 -1l468 0 0 374 -468 0 0 -374z"/>
    <path id="200" class="fil24" d="M67 53l0 374 466 0 0 -374 -466 0zm-2 -1l470 0 0 376 -470 0 0 -376z"/>
    <path id="201" class="fil24" d="M66 52l0 375 468 0 0 -375 -468 0zm-2 -1l472 0 0 378 -472 0 0 -378z"/>
    <path id="202" class="fil24" d="M64 52l0 376 472 0 0 -376 -472 0zm-1 -2l474 0 0 380 -474 0 0 -380z"/>
    <path id="203" class="fil24" d="M63 51l0 378 474 0 0 -378 -474 0zm-1 -2l476 0 0 382 -476 0 0 -382z"/>
    <path id="204" class="fil24" d="M62 50l0 380 476 0 0 -380 -476 0zm-2 -2l480 0 0 384 -480 0 0 -384z"/>
    <path id="205" class="fil24" d="M61 49l0 382 478 0 0 -382 -478 0zm-2 -2l482 0 0 386 -482 0 0 -386z"/>
    <path id="206" class="fil25" d="M60 48l0 384 480 0 0 -384 -480 0zm-2 -2l484 0 0 388 -484 0 0 -388z"/>
    <path id="207" class="fil25" d="M59 47l0 386 482 0 0 -386 -482 0zm-2 -2l486 0 0 390 -486 0 0 -390z"/>
    <path id="208" class="fil25" d="M57 46l0 388 486 0 0 -388 -486 0zm-1 -1l488 0 0 390 -488 0 0 -390z"/>
    <path id="209" class="fil25" d="M56 45l0 390 488 0 0 -390 -488 0zm-2 -1l492 0 0 392 -492 0 0 -392z"/>
    <path id="210" class="fil25" d="M55 44l0 392 490 0 0 -392 -490 0zm-2 -1l494 0 0 394 -494 0 0 -394z"/>
    <path id="211" class="fil26" d="M54 43l0 394 492 0 0 -394 -492 0zm-2 -1l496 0 0 396 -496 0 0 -396z"/>
    <path id="212" class="fil27" d="M53 42l0 396 494 0 0 -396 -494 0zm-2 -1l498 0 0 398 -498 0 0 -398z"/>
    <path id="213" class="fil28" d="M52 41l0 398 496 0 0 -398 -496 0zm-2 -1l500 0 0 400 -500 0 0 -400z"/>
    <path id="214" class="fil29" d="M50 40l0 400 500 0 0 -400 -500 0zm-1 -1l502 0 0 402 -502 0 0 -402z"/>
    <path id="215" class="fil30" d="M49 39l0 402 502 0 0 -402 -502 0zm-2 -1l506 0 0 404 -506 0 0 -404z"/>
    <path id="216" class="fil31" d="M48 38l0 404 504 0 0 -404 -504 0zm-2 -1l508 0 0 406 -508 0 0 -406z"/>
    <path id="217" class="fil32" d="M47 37l0 405 506 0 0 -405 -506 0zm-2 -1l510 0 0 408 -510 0 0 -408z"/>
    <path id="218" class="fil33" d="M46 37l0 406 508 0 0 -406 -508 0zm-2 -2l512 0 0 410 -512 0 0 -410z"/>
    <path id="219" class="fil34" d="M45 36l0 408 510 0 0 -408 -510 0zm-2 -2l514 0 0 412 -514 0 0 -412z"/>
    <path id="220" class="fil35" d="M43 35l0 410 514 0 0 -410 -514 0zm-1 -2l516 0 0 414 -516 0 0 -414z"/>
    <path id="221" class="fil36" d="M42 34l0 412 516 0 0 -412 -516 0zm-2 -2l520 0 0 416 -520 0 0 -416z"/>
    <path id="222" class="fil37" d="M41 33l0 414 518 0 0 -414 -518 0zm-2 -2l522 0 0 418 -522 0 0 -418z"/>
    <path id="223" class="fil38" d="M40 32l0 416 520 0 0 -416 -520 0zm-2 -2l524 0 0 420 -524 0 0 -420z"/>
    <path id="224" class="fil39" d="M39 31l0 418 522 0 0 -418 -522 0zm-2 -1l526 0 0 420 -526 0 0 -420z"/>
    <path id="225" class="fil40" d="M38 30l0 420 525 0 0 -420 -525 0zm-2 -1l528 0 0 422 -528 0 0 -422z"/>
    <path id="226" class="fil41" d="M36 29l0 422 528 0 0 -422 -528 0zm-1 -1l530 0 0 424 -530 0 0 -424z"/>
    <path id="227" class="fil42" d="M35 28l0 424 530 0 0 -424 -530 0zm-2 -1l534 0 0 426 -534 0 0 -426z"/>
    <path id="228" class="fil43" d="M34 27l0 426 532 0 0 -426 -532 0zm-2 -1l536 0 0 428 -536 0 0 -428z"/>
    <path id="229" class="fil44" d="M33 26l0 428 534 0 0 -428 -534 0zm-2 -1l538 0 0 430 -538 0 0 -430z"/>
    <path id="230" class="fil45" d="M32 25l0 430 536 0 0 -430 -536 0zm-2 -1l540 0 0 432 -540 0 0 -432z"/>
    <path id="231" class="fil46" d="M30 24l0 432 540 0 0 -432 -540 0zm-1 -1l542 0 0 434 -542 0 0 -434z"/>
    <path id="232" class="fil47" d="M29 23l0 434 542 0 0 -434 -542 0zm-1 -1l544 0 0 436 -544 0 0 -436z"/>
    <path id="233" class="fil48" d="M28 22l0 435 544 0 0 -435 -544 0zm-2 -1l548 0 0 438 -548 0 0 -438z"/>
    <path id="234" class="fil49" d="M27 22l0 436 546 0 0 -436 -546 0zm-2 -2l550 0 0 440 -550 0 0 -440z"/>
    <path id="235" class="fil50" d="M26 21l0 438 548 0 0 -438 -548 0zm-2 -2l552 0 0 442 -552 0 0 -442z"/>
    <path id="236" class="fil51" d="M25 20l0 440 550 0 0 -440 -550 0zm-2 -2l554 0 0 444 -554 0 0 -444z"/>
    <path id="237" class="fil52" d="M23 19l0 442 554 0 0 -442 -554 0zm-1 -2l556 0 0 446 -556 0 0 -446z"/>
    <path id="238" class="fil53" d="M22 18l0 444 556 0 0 -444 -556 0zm-1 -2l558 0 0 448 -558 0 0 -448z"/>
    <path id="239" class="fil54" d="M21 17l0 446 558 0 0 -446 -558 0zm-2 -2l562 0 0 450 -562 0 0 -450z"/>
    <path id="240" class="fil55" d="M20 16l0 448 560 0 0 -448 -560 0zm-2 -1l564 0 0 450 -564 0 0 -450z"/>
    <path id="241" class="fil56" d="M19 15l0 450 562 0 0 -450 -562 0zm-2 -1l566 0 0 452 -566 0 0 -452z"/>
    <path id="242" class="fil57" d="M18 14l0 452 564 0 0 -452 -564 0zm-2 -1l568 0 0 454 -568 0 0 -454z"/>
    <path id="243" class="fil58" d="M16 13l0 454 568 0 0 -454 -568 0zm-1 -1l570 0 0 456 -570 0 0 -456z"/>
    <path id="244" class="fil59" d="M15 12l0 456 570 0 0 -456 -570 0zm-2 -1l574 0 0 458 -574 0 0 -458z"/>
    <path id="245" class="fil60" d="M14 11l0 458 572 0 0 -458 -572 0zm-2 -1l576 0 0 460 -576 0 0 -460z"/>
    <path id="246" class="fil61" d="M13 10l0 460 574 0 0 -460 -574 0zm-2 -1l578 0 0 462 -578 0 0 -462z"/>
    <path id="247" class="fil62" d="M12 9l0 462 576 0 0 -462 -576 0zm-2 -1l580 0 0 464 -580 0 0 -464z"/>
    <path id="248" class="fil63" d="M11 8l0 464 578 0 0 -464 -578 0zm-2 -1l582 0 0 466 -582 0 0 -466z"/>
    <path id="249" class="fil64" d="M9 7l0 465 582 0 0 -465 -582 0zm-1 -1l584 0 0 468 -584 0 0 -468z"/>
    <path id="250" class="fil65" d="M8 7l0 466 584 0 0 -466 -584 0zm-2 -2l588 0 0 470 -588 0 0 -470z"/>
    <path id="251" class="fil66" d="M7 6l0 468 586 0 0 -468 -586 0zm-2 -2l590 0 0 472 -590 0 0 -472z"/>
    <path id="252" class="fil67" d="M6 5l0 470 588 0 0 -470 -588 0zm-2 -2l592 0 0 474 -592 0 0 -474z"/>
    <path id="253" class="fil68" d="M5 4l0 472 590 0 0 -472 -590 0zm-2 -2l594 0 0 476 -594 0 0 -476z"/>
    <path id="254" class="fil69" d="M4 3l0 474 592 0 0 -474 -592 0zm-2 -2l596 0 0 478 -596 0 0 -478z"/>
    <path id="255" class="fil70" d="M2 2l0 476 596 0 0 -476 -596 0zm-1 -2l598 0 0 480 -598 0 0 -480z"/>
    <path id="256" class="fil0" d="M1 1l0 478 598 0 0 -478 -598 0zm-1 -1l600 0 0 480 -600 0 0 -480z"/>
   </g>
   <path id="257" class="fil71 str0" d="M0 0l600 0 0 480 -600 0 0 -480z"/>
  </g>
  <path class="fil72" d="M86 148l0 -62 19 0 0 21 11 0 0 -21 19 0 0 62 -19 0 0 -24 -11 0 0 24 -19 0z"/>
  <path id="1" class="fil72" d="M161 117c0,3 1,6 4,9 2,2 5,4 8,4 3,0 6,-2 9,-4 2,-3 3,-6 3,-9 0,-4 -1,-6 -3,-9 -3,-2 -6,-4 -9,-4 -3,0 -6,2 -8,4 -3,3 -4,6 -4,9zm-20 0c0,-4 1,-8 3,-12 1,-4 4,-7 7,-10 3,-3 6,-6 10,-7 4,-2 8,-3 12,-3 4,0 8,1 12,3 4,1 7,4 10,7 4,3 6,6 7,10 2,4 3,8 3,12 0,4 -1,8 -3,12 -1,4 -4,8 -7,11 -3,3 -6,5 -10,7 -4,1 -8,2 -12,2 -4,0 -8,-1 -12,-2 -4,-2 -7,-4 -10,-7 -3,-3 -6,-7 -7,-11 -2,-4 -3,-8 -3,-12z"/>
  <path id="2" class="fil72" d="M211 148l0 -40c0,-7 2,-13 5,-16 4,-4 10,-6 17,-6l13 0 0 18 -10 0c-2,0 -3,0 -4,1 -1,1 -2,2 -2,4l0 2 16 0 0 16 -16 0 0 21 -19 0z"/>
  <path id="3" class="fil72" d="M253 148l0 -40c0,-7 2,-13 5,-16 4,-4 10,-6 18,-6l13 0 0 18 -11 0c-2,0 -3,0 -4,1 -1,1 -2,2 -2,4l0 2 17 0 0 16 -17 0 0 21 -19 0z"/>
  <path id="4" class="fil72" d="M295 148l0 -49c0,-5 1,-8 3,-10 2,-3 5,-4 8,-4 3,0 5,1 7,3 2,1 4,3 6,6l7 13c0,1 1,2 2,5l0 0 0 -26 19 0 0 50c0,4 -1,8 -2,10 -2,2 -5,3 -8,3 -3,0 -5,-1 -7,-2 -2,-1 -4,-3 -5,-6l-8 -14c0,0 -1,-1 -1,-2 -1,-2 -1,-3 -2,-4l0 27 -19 0z"/>
  <path id="5" class="fil72" d="M404 86l0 36c0,8 -2,15 -7,19 -4,5 -10,8 -18,8 -7,0 -13,-3 -17,-8 -5,-4 -7,-11 -7,-19l0 -36 19 0 0 38c0,2 1,3 2,4 1,2 2,2 3,2 2,0 3,0 4,-2 1,-1 2,-2 2,-4l0 -38 19 0z"/>
  <path id="6" class="fil72" d="M412 148l0 -49c0,-5 0,-8 2,-10 2,-3 5,-4 8,-4 3,0 5,1 7,3 3,1 4,3 6,6l7 13c0,1 1,2 2,5l0 0 0 -26 20 0 0 50c0,4 -1,8 -3,10 -2,2 -5,3 -8,3 -3,0 -5,-1 -7,-2 -2,-1 -4,-3 -5,-6l-8 -14c0,0 0,-1 -1,-2 0,-2 -1,-3 -1,-4l0 27 -19 0z"/>
  <path id="7" class="fil72" d="M534 109c0,1 0,1 0,2 0,0 0,1 0,2 0,3 -1,6 -1,9 -1,3 -1,5 -2,8 -3,6 -7,10 -12,14 -5,3 -11,5 -17,5 -5,0 -9,-1 -13,-3 -3,-1 -7,-3 -10,-6 -3,-3 -5,-7 -7,-11 -1,-4 -2,-8 -2,-12 0,-4 1,-8 2,-12 2,-4 4,-7 7,-10 3,-3 7,-6 11,-7 4,-2 8,-3 13,-3 4,0 8,1 12,3 4,1 8,4 11,7l-13 12c-2,-1 -3,-2 -5,-3 -2,0 -4,-1 -5,-1 -4,0 -8,2 -10,4 -3,3 -4,6 -4,10 0,4 1,7 4,9 2,3 5,4 9,4 2,0 4,0 6,-1 1,-1 3,-2 4,-4l-13 0 0 -16 35 0z"/>
  <path id="8" class="fil72" d="M163 258l0 -61 19 0 0 61 -19 0z"/>
  <path id="9" class="fil72" d="M189 258l0 -18 17 0c1,0 2,0 2,0 1,-1 1,-1 1,-2 0,0 0,-1 0,-1 -1,-1 -1,-1 -1,-1l-13 -10c-2,-2 -3,-4 -4,-6 -1,-2 -2,-4 -2,-7 0,-5 2,-9 6,-12 4,-3 9,-4 16,-4l18 0 0 17 -15 0c-1,0 -2,0 -2,1 -1,0 -1,0 -1,1 0,0 0,1 1,1 0,0 0,1 1,2l9 6c4,4 7,6 8,9 1,2 2,4 2,7 0,5 -2,10 -6,13 -4,3 -10,4 -17,4l-20 0z"/>
  <path id="10" class="fil72" d="M266 214l0 44 -19 0 0 -44 -12 0 0 -17 43 0 0 17 -12 0z"/>
  <path id="11" class="fil72" d="M348 214l-4 0c-5,0 -8,0 -11,1 -2,1 -4,3 -5,5l20 0 0 15 -20 0c1,2 3,4 5,5 3,1 6,1 11,1l4 0 0 17 -2 0c-6,0 -10,0 -14,-1 -5,-1 -8,-2 -11,-4 -4,-3 -8,-6 -10,-11 -3,-4 -4,-9 -4,-15 0,-5 1,-10 4,-14 2,-4 6,-8 10,-11 3,-2 6,-3 11,-4 4,-1 8,-1 14,-1l2 0 0 17z"/>
  <path id="12" class="fil72" d="M355 258l0 -61 19 0 0 61 -19 0z"/>
  <path id="13" class="fil72" d="M382 258l0 -49c0,-4 1,-7 3,-10 2,-2 5,-3 8,-3 3,0 5,0 7,2 2,1 4,4 6,7l7 13c0,0 1,2 2,5l0 0 0 -26 20 0 0 50c0,4 -1,7 -3,9 -2,2 -5,3 -8,3 -3,0 -5,0 -7,-2 -2,-1 -4,-3 -5,-6l-8 -14c0,0 0,-1 -1,-2 -1,-1 -1,-2 -1,-3l0 26 -20 0z"/>
  <path id="14" class="fil72" d="M481 214l-3 0c-5,0 -8,0 -11,1 -2,1 -4,3 -5,5l19 0 0 15 -19 0c1,2 3,4 5,5 3,1 6,1 11,1l3 0 0 17 -1 0c-6,0 -10,0 -15,-1 -4,-1 -7,-2 -10,-4 -4,-3 -8,-6 -10,-11 -3,-4 -4,-9 -4,-15 0,-5 1,-10 3,-14 3,-4 7,-8 11,-11 3,-2 6,-3 10,-4 5,-1 9,-1 15,-1l1 0 0 17z"/>
  <path id="15" class="fil72" d="M67 324l-4 0c-4,0 -8,1 -10,2 -3,1 -4,2 -6,4l20 0 0 15 -20 0c1,3 3,4 6,5 2,1 5,2 10,2l4 0 0 17 -2 0c-5,0 -10,-1 -14,-2 -4,0 -8,-2 -10,-3 -5,-3 -9,-7 -11,-11 -3,-5 -4,-10 -4,-15 0,-5 1,-10 4,-15 2,-4 6,-8 11,-11 2,-1 6,-3 10,-3 4,-1 9,-2 14,-2l2 0 0 17z"/>
  <path id="16" class="fil72" d="M74 307l19 0 0 39c0,2 0,3 1,4 1,1 2,2 3,2 1,0 2,-1 3,-2 1,-1 1,-2 1,-4l0 -39 19 0 0 39c0,2 1,3 1,4 1,1 2,2 3,2 2,0 3,-1 4,-2 0,-1 1,-2 1,-4l0 -39 19 0 0 37c0,8 -3,14 -7,19 -4,4 -9,7 -16,7 -3,0 -5,-1 -8,-2 -2,0 -4,-2 -6,-3 -2,1 -5,3 -7,3 -2,1 -4,2 -7,2 -7,0 -13,-3 -17,-7 -4,-5 -6,-11 -6,-19l0 -37z"/>
  <path id="17" class="fil72" d="M155 369l0 -62 20 0 0 62 -20 0z"/>
  <path id="18" class="fil72" d="M245 330c0,1 0,1 0,1 0,1 0,2 0,2 0,4 0,7 -1,10 0,3 -1,5 -2,8 -2,6 -6,10 -11,14 -6,3 -11,5 -18,5 -4,0 -8,-1 -12,-3 -4,-1 -7,-4 -10,-7 -3,-3 -6,-6 -7,-10 -2,-4 -3,-8 -3,-12 0,-4 1,-8 3,-12 1,-4 3,-7 7,-11 3,-3 6,-5 10,-7 4,-1 8,-2 13,-2 4,0 9,1 13,3 4,1 7,4 11,7l-13 12c-2,-1 -4,-2 -6,-3 -1,0 -3,-1 -5,-1 -4,0 -7,1 -10,4 -2,3 -4,6 -4,10 0,4 2,7 4,9 2,3 5,4 9,4 2,0 4,0 6,-1 2,-1 3,-3 5,-4l-14 0 0 -16 35 0z"/>
  <path id="19" class="fil72" d="M290 324l-4 0c-4,0 -8,1 -10,2 -3,1 -4,2 -6,4l20 0 0 15 -20 0c2,3 3,4 6,5 2,1 6,2 10,2l4 0 0 17 -2 0c-5,0 -10,-1 -14,-2 -4,0 -8,-2 -10,-3 -5,-3 -8,-7 -11,-11 -3,-5 -4,-10 -4,-15 0,-5 1,-10 4,-15 2,-4 6,-8 11,-11 2,-1 6,-3 10,-3 4,-1 9,-2 14,-2l2 0 0 17z"/>
  <path id="20" class="fil72" d="M323 369l0 -62 19 0 0 21c1,0 2,-1 3,-1 1,-1 1,-3 2,-4l5 -16 20 0 -7 18c0,2 -1,4 -2,5 -1,1 -2,2 -3,3 4,1 6,2 8,5 1,2 2,6 2,12l0 19 -19 0 0 -20c0,-2 -1,-4 -1,-5 -1,-1 -3,-1 -5,-1l-3 0 0 26 -19 0z"/>
  <path id="21" class="fil72" d="M416 324l-4 0c-5,0 -8,1 -10,2 -3,1 -4,2 -6,4l20 0 0 15 -20 0c1,3 3,4 6,5 2,1 5,2 10,2l4 0 0 17 -2 0c-5,0 -10,-1 -14,-2 -4,0 -8,-2 -10,-3 -5,-3 -9,-7 -11,-11 -3,-5 -4,-10 -4,-15 0,-5 1,-10 4,-15 2,-4 6,-8 11,-11 2,-1 6,-3 10,-3 4,-1 9,-2 14,-2l2 0 0 17z"/>
  <path id="22" class="fil72" d="M423 369l0 -38c0,-8 2,-14 6,-18 4,-5 10,-7 17,-7 7,0 12,2 17,6 5,3 7,8 7,14 0,2 -1,4 -2,6 -1,2 -3,4 -5,5 2,1 4,3 6,5 1,2 1,4 1,8l0 19 -19 0 0 -16c0,-2 0,-4 -1,-5 -1,0 -2,-1 -5,-1l-1 0 0 -15 1 0c2,0 4,0 5,-1 1,-1 2,-2 2,-4 0,-1 -1,-2 -2,-3 -1,-1 -2,-1 -3,-1 -2,0 -3,0 -4,1 0,2 -1,3 -1,6l0 39 -19 0z"/>
  <path id="23" class="fil72" d="M477 307l27 0c6,0 10,1 12,3 3,2 4,5 4,9 0,2 0,4 -1,6 -1,2 -2,4 -3,5l-18 21 22 0 0 18 -32 0c-5,0 -8,-1 -11,-3 -2,-2 -3,-5 -3,-9 0,-2 0,-4 1,-6 1,-1 2,-3 3,-5l19 -22 -20 0 0 -17z"/>
  <path id="24" class="fil72" d="M565 324l-4 0c-5,0 -8,1 -11,2 -2,1 -4,2 -5,4l20 0 0 15 -20 0c1,3 3,4 5,5 3,1 6,2 11,2l4 0 0 17 -2 0c-5,0 -10,-1 -14,-2 -4,0 -8,-2 -11,-3 -4,-3 -8,-7 -10,-11 -3,-5 -4,-10 -4,-15 0,-5 1,-10 4,-15 2,-4 6,-8 10,-11 3,-1 7,-3 11,-3 4,-1 9,-2 14,-2l2 0 0 17z"/>
  <path id="25" class="fil72" d="M571 359c0,-2 1,-5 3,-7 1,-2 4,-3 7,-3 3,0 5,1 7,3 2,2 3,5 3,7 0,3 -1,6 -3,8 -2,2 -5,3 -7,3 -3,0 -5,-1 -7,-3 -2,-2 -3,-5 -3,-8z"/>
  <path id="26" class="fil73 str1" d="M86 148l0 -62 19 0 0 21 11 0 0 -21 19 0 0 62 -19 0 0 -24 -11 0 0 24 -19 0z"/>
  <path id="27" class="fil73 str1" d="M161 117c0,3 1,6 4,9 2,2 5,4 8,4 3,0 6,-2 9,-4 2,-3 3,-6 3,-9 0,-4 -1,-6 -3,-9 -3,-2 -6,-4 -9,-4 -3,0 -6,2 -8,4 -3,3 -4,6 -4,9zm-20 0c0,-4 1,-8 3,-12 1,-4 4,-7 7,-10 3,-3 6,-6 10,-7 4,-2 8,-3 12,-3 4,0 8,1 12,3 4,1 7,4 10,7 4,3 6,6 7,10 2,4 3,8 3,12 0,4 -1,8 -3,12 -1,4 -4,8 -7,11 -3,3 -6,5 -10,7 -4,1 -8,2 -12,2 -4,0 -8,-1 -12,-2 -4,-2 -7,-4 -10,-7 -3,-3 -6,-7 -7,-11 -2,-4 -3,-8 -3,-12z"/>
  <path id="28" class="fil73 str1" d="M211 148l0 -40c0,-7 2,-13 5,-16 4,-4 10,-6 17,-6l13 0 0 18 -10 0c-2,0 -3,0 -4,1 -1,1 -2,2 -2,4l0 2 16 0 0 16 -16 0 0 21 -19 0z"/>
  <path id="29" class="fil73 str1" d="M253 148l0 -40c0,-7 2,-13 5,-16 4,-4 10,-6 18,-6l13 0 0 18 -11 0c-2,0 -3,0 -4,1 -1,1 -2,2 -2,4l0 2 17 0 0 16 -17 0 0 21 -19 0z"/>
  <path id="30" class="fil73 str1" d="M295 148l0 -49c0,-5 1,-8 3,-10 2,-3 5,-4 8,-4 3,0 5,1 7,3 2,1 4,3 6,6l7 13c0,1 1,2 2,5l0 0 0 -26 19 0 0 50c0,4 -1,8 -2,10 -2,2 -5,3 -8,3 -3,0 -5,-1 -7,-2 -2,-1 -4,-3 -5,-6l-8 -14c0,0 -1,-1 -1,-2 -1,-2 -1,-3 -2,-4l0 27 -19 0z"/>
  <path id="31" class="fil73 str1" d="M404 86l0 36c0,8 -2,15 -7,19 -4,5 -10,8 -18,8 -7,0 -13,-3 -17,-8 -5,-4 -7,-11 -7,-19l0 -36 19 0 0 38c0,2 1,3 2,4 1,2 2,2 3,2 2,0 3,0 4,-2 1,-1 2,-2 2,-4l0 -38 19 0z"/>
  <path id="32" class="fil73 str1" d="M412 148l0 -49c0,-5 0,-8 2,-10 2,-3 5,-4 8,-4 3,0 5,1 7,3 3,1 4,3 6,6l7 13c0,1 1,2 2,5l0 0 0 -26 20 0 0 50c0,4 -1,8 -3,10 -2,2 -5,3 -8,3 -3,0 -5,-1 -7,-2 -2,-1 -4,-3 -5,-6l-8 -14c0,0 0,-1 -1,-2 0,-2 -1,-3 -1,-4l0 27 -19 0z"/>
  <path id="33" class="fil73 str1" d="M534 109c0,1 0,1 0,2 0,0 0,1 0,2 0,3 -1,6 -1,9 -1,3 -1,5 -2,8 -3,6 -7,10 -12,14 -5,3 -11,5 -17,5 -5,0 -9,-1 -13,-3 -3,-1 -7,-3 -10,-6 -3,-3 -5,-7 -7,-11 -1,-4 -2,-8 -2,-12 0,-4 1,-8 2,-12 2,-4 4,-7 7,-10 3,-3 7,-6 11,-7 4,-2 8,-3 13,-3 4,0 8,1 12,3 4,1 8,4 11,7l-13 12c-2,-1 -3,-2 -5,-3 -2,0 -4,-1 -5,-1 -4,0 -8,2 -10,4 -3,3 -4,6 -4,10 0,4 1,7 4,9 2,3 5,4 9,4 2,0 4,0 6,-1 1,-1 3,-2 4,-4l-13 0 0 -16 35 0z"/>
  <path id="34" class="fil73 str1" d="M163 258l0 -61 19 0 0 61 -19 0z"/>
  <path id="35" class="fil73 str1" d="M189 258l0 -18 17 0c1,0 2,0 2,0 1,-1 1,-1 1,-2 0,0 0,-1 0,-1 -1,-1 -1,-1 -1,-1l-13 -10c-2,-2 -3,-4 -4,-6 -1,-2 -2,-4 -2,-7 0,-5 2,-9 6,-12 4,-3 9,-4 16,-4l18 0 0 17 -15 0c-1,0 -2,0 -2,1 -1,0 -1,0 -1,1 0,0 0,1 1,1 0,0 0,1 1,2l9 6c4,4 7,6 8,9 1,2 2,4 2,7 0,5 -2,10 -6,13 -4,3 -10,4 -17,4l-20 0z"/>
  <path id="36" class="fil73 str1" d="M266 214l0 44 -19 0 0 -44 -12 0 0 -17 43 0 0 17 -12 0z"/>
  <path id="37" class="fil73 str1" d="M348 214l-4 0c-5,0 -8,0 -11,1 -2,1 -4,3 -5,5l20 0 0 15 -20 0c1,2 3,4 5,5 3,1 6,1 11,1l4 0 0 17 -2 0c-6,0 -10,0 -14,-1 -5,-1 -8,-2 -11,-4 -4,-3 -8,-6 -10,-11 -3,-4 -4,-9 -4,-15 0,-5 1,-10 4,-14 2,-4 6,-8 10,-11 3,-2 6,-3 11,-4 4,-1 8,-1 14,-1l2 0 0 17z"/>
  <path id="38" class="fil73 str1" d="M355 258l0 -61 19 0 0 61 -19 0z"/>
  <path id="39" class="fil73 str1" d="M382 258l0 -49c0,-4 1,-7 3,-10 2,-2 5,-3 8,-3 3,0 5,0 7,2 2,1 4,4 6,7l7 13c0,0 1,2 2,5l0 0 0 -26 20 0 0 50c0,4 -1,7 -3,9 -2,2 -5,3 -8,3 -3,0 -5,0 -7,-2 -2,-1 -4,-3 -5,-6l-8 -14c0,0 0,-1 -1,-2 -1,-1 -1,-2 -1,-3l0 26 -20 0z"/>
  <path id="40" class="fil73 str1" d="M481 214l-3 0c-5,0 -8,0 -11,1 -2,1 -4,3 -5,5l19 0 0 15 -19 0c1,2 3,4 5,5 3,1 6,1 11,1l3 0 0 17 -1 0c-6,0 -10,0 -15,-1 -4,-1 -7,-2 -10,-4 -4,-3 -8,-6 -10,-11 -3,-4 -4,-9 -4,-15 0,-5 1,-10 3,-14 3,-4 7,-8 11,-11 3,-2 6,-3 10,-4 5,-1 9,-1 15,-1l1 0 0 17z"/>
  <path id="41" class="fil73 str1" d="M67 324l-4 0c-4,0 -8,1 -10,2 -3,1 -4,2 -6,4l20 0 0 15 -20 0c1,3 3,4 6,5 2,1 5,2 10,2l4 0 0 17 -2 0c-5,0 -10,-1 -14,-2 -4,0 -8,-2 -10,-3 -5,-3 -9,-7 -11,-11 -3,-5 -4,-10 -4,-15 0,-5 1,-10 4,-15 2,-4 6,-8 11,-11 2,-1 6,-3 10,-3 4,-1 9,-2 14,-2l2 0 0 17z"/>
  <path id="42" class="fil73 str1" d="M74 307l19 0 0 39c0,2 0,3 1,4 1,1 2,2 3,2 1,0 2,-1 3,-2 1,-1 1,-2 1,-4l0 -39 19 0 0 39c0,2 1,3 1,4 1,1 2,2 3,2 2,0 3,-1 4,-2 0,-1 1,-2 1,-4l0 -39 19 0 0 37c0,8 -3,14 -7,19 -4,4 -9,7 -16,7 -3,0 -5,-1 -8,-2 -2,0 -4,-2 -6,-3 -2,1 -5,3 -7,3 -2,1 -4,2 -7,2 -7,0 -13,-3 -17,-7 -4,-5 -6,-11 -6,-19l0 -37z"/>
  <path id="43" class="fil73 str1" d="M155 369l0 -62 20 0 0 62 -20 0z"/>
  <path id="44" class="fil73 str1" d="M245 330c0,1 0,1 0,1 0,1 0,2 0,2 0,4 0,7 -1,10 0,3 -1,5 -2,8 -2,6 -6,10 -11,14 -6,3 -11,5 -18,5 -4,0 -8,-1 -12,-3 -4,-1 -7,-4 -10,-7 -3,-3 -6,-6 -7,-10 -2,-4 -3,-8 -3,-12 0,-4 1,-8 3,-12 1,-4 3,-7 7,-11 3,-3 6,-5 10,-7 4,-1 8,-2 13,-2 4,0 9,1 13,3 4,1 7,4 11,7l-13 12c-2,-1 -4,-2 -6,-3 -1,0 -3,-1 -5,-1 -4,0 -7,1 -10,4 -2,3 -4,6 -4,10 0,4 2,7 4,9 2,3 5,4 9,4 2,0 4,0 6,-1 2,-1 3,-3 5,-4l-14 0 0 -16 35 0z"/>
  <path id="45" class="fil73 str1" d="M290 324l-4 0c-4,0 -8,1 -10,2 -3,1 -4,2 -6,4l20 0 0 15 -20 0c2,3 3,4 6,5 2,1 6,2 10,2l4 0 0 17 -2 0c-5,0 -10,-1 -14,-2 -4,0 -8,-2 -10,-3 -5,-3 -8,-7 -11,-11 -3,-5 -4,-10 -4,-15 0,-5 1,-10 4,-15 2,-4 6,-8 11,-11 2,-1 6,-3 10,-3 4,-1 9,-2 14,-2l2 0 0 17z"/>
  <path id="46" class="fil73 str1" d="M323 369l0 -62 19 0 0 21c1,0 2,-1 3,-1 1,-1 1,-3 2,-4l5 -16 20 0 -7 18c0,2 -1,4 -2,5 -1,1 -2,2 -3,3 4,1 6,2 8,5 1,2 2,6 2,12l0 19 -19 0 0 -20c0,-2 -1,-4 -1,-5 -1,-1 -3,-1 -5,-1l-3 0 0 26 -19 0z"/>
  <path id="47" class="fil73 str1" d="M416 324l-4 0c-5,0 -8,1 -10,2 -3,1 -4,2 -6,4l20 0 0 15 -20 0c1,3 3,4 6,5 2,1 5,2 10,2l4 0 0 17 -2 0c-5,0 -10,-1 -14,-2 -4,0 -8,-2 -10,-3 -5,-3 -9,-7 -11,-11 -3,-5 -4,-10 -4,-15 0,-5 1,-10 4,-15 2,-4 6,-8 11,-11 2,-1 6,-3 10,-3 4,-1 9,-2 14,-2l2 0 0 17z"/>
  <path id="48" class="fil73 str1" d="M423 369l0 -38c0,-8 2,-14 6,-18 4,-5 10,-7 17,-7 7,0 12,2 17,6 5,3 7,8 7,14 0,2 -1,4 -2,6 -1,2 -3,4 -5,5 2,1 4,3 6,5 1,2 1,4 1,8l0 19 -19 0 0 -16c0,-2 0,-4 -1,-5 -1,0 -2,-1 -5,-1l-1 0 0 -15 1 0c2,0 4,0 5,-1 1,-1 2,-2 2,-4 0,-1 -1,-2 -2,-3 -1,-1 -2,-1 -3,-1 -2,0 -3,0 -4,1 0,2 -1,3 -1,6l0 39 -19 0z"/>
  <path id="49" class="fil73 str1" d="M477 307l27 0c6,0 10,1 12,3 3,2 4,5 4,9 0,2 0,4 -1,6 -1,2 -2,4 -3,5l-18 21 22 0 0 18 -32 0c-5,0 -8,-1 -11,-3 -2,-2 -3,-5 -3,-9 0,-2 0,-4 1,-6 1,-1 2,-3 3,-5l19 -22 -20 0 0 -17z"/>
  <path id="50" class="fil73 str1" d="M565 324l-4 0c-5,0 -8,1 -11,2 -2,1 -4,2 -5,4l20 0 0 15 -20 0c1,3 3,4 5,5 3,1 6,2 11,2l4 0 0 17 -2 0c-5,0 -10,-1 -14,-2 -4,0 -8,-2 -11,-3 -4,-3 -8,-7 -10,-11 -3,-5 -4,-10 -4,-15 0,-5 1,-10 4,-15 2,-4 6,-8 10,-11 3,-1 7,-3 11,-3 4,-1 9,-2 14,-2l2 0 0 17z"/>
  <path id="51" class="fil73 str1" d="M571 359c0,-2 1,-5 3,-7 1,-2 4,-3 7,-3 3,0 5,1 7,3 2,2 3,5 3,7 0,3 -1,6 -3,8 -2,2 -5,3 -7,3 -3,0 -5,-1 -7,-3 -2,-2 -3,-5 -3,-8z"/>
 </g>
</svg>
