<?xml version="1.0" standalone="no"?>
<!DOCTYPE svg PUBLIC "-//W3C//DTD SVG 1.1//EN" "http://www.w3.org/Graphics/SVG/1.1/DTD/svg11.dtd" >
<svg xmlns="http://www.w3.org/2000/svg" xmlns:xlink="http://www.w3.org/1999/xlink" version="1.1">
<metadata></metadata>
<defs>
<font id="scriptina_proregular" horiz-adv-x="751" >
<font-face units-per-em="2048" ascent="1638" descent="-410" />
<missing-glyph horiz-adv-x="673" />
<glyph unicode="fi" horiz-adv-x="843" d="M-1456 -770q28 128 136 236.5t230 152.5q29 10 30 3t-27 -19q-108 -47 -191.5 -146.5t-116.5 -230.5q-20 -76 -11 -139t36 -113t76.5 -82.5t109 -46.5t134 -4t151.5 43q90 39 190 124.5t184 179t187.5 241t170.5 251t164.5 274t137.5 243.5t119 222q35 66 51 95 q22 41 -22 70l-12 6t-12.5 6t-11.5 6.5t-8.5 8t-4 9.5t1.5 11q2 6 6.5 9.5t12 4.5t13 1t14 -0.5t11.5 -0.5q9 0 27.5 -1t34 -1t30.5 2q194 289 336 397q99 75 214 118.5t214 27.5q23 -3 41 -22t18 -33q0 -10 -16 -33t-25 -15q-35 35 -81.5 53.5t-90.5 12.5 q-237 -35 -528 -506h305q40 -4 51.5 -29.5t-8.5 -60.5q-140 -263 -161.5 -304t-28 -58t-41.5 -87q-19 -39 -23.5 -66.5t2 -40.5t22 -19t31 -5t33.5 5q130 29 256 151q36 33 36 15q0 -16 -23 -40q-57 -57 -114.5 -99t-139.5 -79q-33 -14 -94 21t-60 100q1 58 55.5 188.5 t110.5 243.5t57 125q0 5 -69.5 10.5t-144.5 0.5t-87 -25q-29 -50 -94.5 -166t-127 -225.5t-150 -256.5t-171.5 -274.5t-184.5 -263.5t-195 -240t-197 -187t-197.5 -120q-207 -76 -343 -34.5t-197 155.5t-31 250zM784 776q0 29 47 76q46 49 76 55q22 5 42 -12.5t14 -36.5 q-6 -34 -58 -80q-46 -43 -76 -37q-45 9 -45 35z" />
<glyph unicode=" "  horiz-adv-x="673" />
<glyph unicode="&#x09;" horiz-adv-x="673" />
<glyph unicode="&#xa0;" horiz-adv-x="673" />
<glyph unicode="!" horiz-adv-x="444" d="M47 63q-9 50 0 62q8 11 40.5 26t51.5 15q9 0 13 -4q16 -16 16 -125q0 -12 -30.5 -25.5t-55.5 -13.5q-15 0 -21.5 10.5t-13.5 54.5zM209 295q0 8 2 14q262 521 381 842q6 18 43.5 28.5t58.5 2.5q13 -3 19 -56t-6 -71q-3 -9 -30 -13t-30 -8q-88 -150 -182 -334 q-151 -292 -217 -411q-8 -17 -21 -17q-18 0 -18 23z" />
<glyph unicode="&#x22;" horiz-adv-x="589" d="M420 840q0 8 2 10l164 305q8 16 28 16q48 0 48 -38q0 -5 -7 -15q-98 -126 -209 -282q-7 -10 -16 -7q-10 3 -10 11zM635 834q0 6 2 8l166 307q10 16 28 16q48 0 48 -39q0 -2 -7 -16q-60 -74 -210 -281q-7 -11 -15 -6q-12 3 -12 11z" />
<glyph unicode="#" horiz-adv-x="993" d="M8 367q0 9 26.5 24t37.5 15h180q18 27 67.5 106.5t83.5 132.5h-116q-28 0 -57 -2l-29 -2q-25 0 -25 10q0 8 25 23.5t37 15.5h194q156 225 230 322q13 10 34 10q17 0 18.5 -8t-12.5 -27q-29 -36 -215 -297h215q47 73 230 322q13 10 35 10q17 0 18.5 -8t-12.5 -27 q-40 -57 -215 -297h137q31 0 31 -12q0 -7 -20.5 -20t-28.5 -13h-66q-17 0 -46 -2t-40 -2q-74 -109 -158 -235h160q33 0 33 -11q0 -8 -20.5 -21.5t-30.5 -13.5h-72q-20 0 -53 -1t-45 -1q-96 -138 -181 -270q-24 -41 -39 -41q-4 0 -4 6q0 11 15 35q75 124 166 270h-228 q-80 -114 -180 -270q-27 -41 -39 -41q-4 0 -4 6q0 13 14 35q12 20 68.5 112t97.5 160h-112q-26 0 -52.5 -1t-27.5 -1q-25 0 -25 9zM297 406h223q28 48 152 239h-107q-27 0 -64 -2t-46 -2q-52 -77 -158 -235z" />
<glyph unicode="$" horiz-adv-x="950" d="M43 109q0 14 17.5 27.5t33.5 13.5q8 0 10 -5q77 -50 189 -59q15 0 20 8q94 140 236 379q15 15 2 21q-125 110 -125 219q0 87 84 159q126 108 377 158q6 0 14 8q40 56 72 103q16 16 33 16q12 0 12 -8q-1 -1 -2 -4t-2 -4q-11 -18 -68 -103q-2 -2 -2 -4q-2 -2 0 -2h6 q116 0 156 -57q6 -9 6 -23q0 -26 -25 -26q-17 0 -22 16q-22 52 -143 43q-4 5 -17 -8q-129 -195 -272 -436q-8 -11 2 -21q122 -117 147 -164q15 -30 15 -67q0 -94 -97 -160q-149 -104 -387 -104q5 0 -10 -11q-16 -30 -76 -120q-9 -15 -30 -15q-17 0 -17 8q0 5 6 17 q33 42 78 116q3 6 -8 9q-213 30 -213 80zM356 90q-3 -8 6 -8q79 -9 167.5 13t134.5 61q51 39 51 92q0 42 -37 106q-25 42 -84 101q-6 6 -12 -4q-29 -45 -226 -361zM514 735q0 -81 78 -168q8 -8 14 2q14 20 248 396q3 8 2 8q-3 3 -14 0q-206 -48 -287 -135q-41 -47 -41 -103z " />
<glyph unicode="%" horiz-adv-x="1386" d="M307 639q0 40 10 76q16 66 80 143q91 116 95 125q-3 8 6 37q5 16 65 16q37 37 70 37q35 0 67 -29q2 -2 24 -4.5t26 -1.5q83 -1 260 -2t268 -2q16 0 78 29q5 5 59 37q46 24 55 24q19 0 19 -16q0 -14 -25 -33q-300 -221 -684 -594q-407 -395 -444 -540q-9 -43 -23 -43 q-4 16 -4 51q14 116 363 481q314 323 635 584l-9 2h-20q-440 0 -449 -17q-2 -1 -7.5 -4.5t-8.5 -5.5t-7 -5.5t-5 -7.5t0 -9q6 -63 -8 -136q-32 -107 -113 -186q-95 -95 -199 -123q-27 -6 -53 -6q-121 0 -121 123zM365 672q0 -65 36.5 -98.5t85.5 -24.5q85 18 161 94t110 186 q12 43 12 78q0 100 -98 97q-100 -6 -160 -58q-120 -105 -143 -227q-4 -32 -4 -47zM852 133q0 30 10 72q28 94 88 172q72 91 152 117q65 41 121 47q131 12 131 -127q0 -32 -17 -92q-38 -112 -110 -187q-88 -94 -195 -121q-27 -8 -55 -8q-125 0 -125 127zM909 162 q0 -65 37 -98.5t86 -22.5q86 18 161.5 92.5t109.5 185.5q12 41 12 78q0 113 -103 107q-78 -3 -155 -68q-122 -107 -142 -227q-6 -42 -6 -47z" />
<glyph unicode="&#x26;" horiz-adv-x="1597" d="M123 610q7 28 20 33.5t56 7.5q90 0 182 2q90 120 238 214.5t292 127.5q18 6 26 21.5t-1 21.5q-54 57 -75 97q-41 81 -19 170q20 80 85.5 143.5t146 94.5t153.5 28q53 -1 93 -34.5t60 -78.5q18 -42 -5 -82q-17 -28 -32 -18q-9 5 -12 26q-6 45 -31.5 79.5t-66.5 47.5 q-30 10 -68.5 12t-80.5 -14.5t-77.5 -42t-59.5 -71t-27 -101.5q-3 -64 17.5 -119.5t57 -92.5t78.5 -62t88 -37q34 -9 27 -34q-7 -23 -37 -30q-11 -2 -23 -1q-48 7 -103.5 7.5t-136.5 -11t-154.5 -38.5t-151.5 -84t-133 -139q51 0 217.5 2t268.5 2.5t244 -0.5t242 -4 q18 0 48 0.5t44 0.5t35 -1.5t41 -5.5q5 -3 28.5 -9.5t24.5 -9.5q1 -1 -6 -3h-2q33 -26 54.5 -64t21.5 -76q0 -29 -10 -49q-19 -47 -119 -141q-19 -19 -27 -19q-4 0 -4 3q0 10 17 30q110 113 110 213q0 79 -92 88q-70 9 -135 4l-76 -4q-83 -194 -250 -516q-4 -9 -15 -33 t-21 -44t-21 -37q-19 -41 -43 -70q-110 -174 -227 -184q-77 -7 -126 69t-65 199q-25 -2 -71 -2q-102 5 -171 62t-93.5 143t-6 194.5t83.5 212.5q-91 -3 -102 -8q-8 -3 -15.5 -8.5t-12 -10.5t-12 -14.5t-11.5 -13.5q-17 -18 -47.5 9.5t-24.5 51.5zM350.5 396 q-9.5 -88 11 -158t70.5 -117.5t121 -54.5q6 -1 21.5 -2.5t21.5 -2.5q-8 91 5 180.5t42 147.5l16 -8q-40 -152 -30 -320q71 2 142 25.5t123 53t108 75.5t85 75.5t66 69.5q21 21 62 88t65 121q11 25 7.5 34t-25.5 9q-653 0 -842 -4q-3 -7 -19 -39q-41 -85 -50.5 -173zM633 -2 q13 -113 53 -181.5t107 -64.5q64 3 132 81t117 185l162 351q-125 -140 -219.5 -216t-170 -107t-181.5 -48zM643 389q8 17 12.5 22t5.5 -3t-2 -25z" />
<glyph unicode="'" horiz-adv-x="372" d="M420 840q0 8 2 10l164 305q8 16 28 16q48 0 48 -38q0 -5 -7 -15q-98 -126 -209 -282q-7 -10 -16 -7q-10 3 -10 11z" />
<glyph unicode="(" horiz-adv-x="780" d="M252 53q0 394 260 733q259 342 639 433q6 2 18 2q21 0 21 -11q0 -14 -31 -20q-350 -74 -596 -412q-237 -328 -237 -686q0 -98 26 -205l17 -15q17 -15 16 -30q-4 -26 -26 -45.5t-44 -19.5t-28 26q-35 125 -35 250z" />
<glyph unicode=")" horiz-adv-x="837" d="M-162 -195q0 15 29 21q347 74 596 412q235 319 235 684q0 107 -24 206l-18 16q-18 15 -17 30q6 26 27 45.5t43 19.5q24 0 30 -27q33 -118 33 -251q0 -397 -258 -734q-259 -339 -639 -430q-6 -2 -16 -2q-21 0 -21 10z" />
<glyph unicode="*" horiz-adv-x="743" d="M346.5 740q-6.5 24 20.5 46q21 17 66 39.5t108 50t96 44.5q-18 10 -68 43.5t-82 48.5l-4 -2q-4 -3 -8 -3t-8 5q-13 12 -9 29t20 24.5t40 -0.5q23 -10 46.5 -27.5t55.5 -46t46 -39.5q69 156 84 193q3 6 4 18t5.5 22t16.5 17q25 14 37 12t16 -10.5t0 -15.5 q-20 -42 -57 -119.5t-55 -114.5q42 15 138.5 55.5t143.5 57.5q18 10 21 -3q2 -9 -8 -15q-125 -67 -297 -140q57 -48 153 -135q25 -25 11 -34q-7 -4 -15 1q-44 33 -180 142q-95 -218 -99 -264q-2 -18 7 -19q9 0 -9 -10q-4 -3 -8 -4q-20 -6 -21 20q0 35 52 190q17 49 25 76 q-17 -10 -108 -57t-130 -76q-1 -1 -1 -5t-2 -8t-9 -5q-28 -5 -34.5 19z" />
<glyph unicode="+" horiz-adv-x="856" d="M31 588q-7 15 0 16q12 -11 73 -35q148 -21 310 -24q118 214 217 346q6 9 42 27.5t52 21.5q13 2 14 -6q0 -3 -2 -4q-35 -12 -67 -53q-112 -150 -219 -332q192 0 299 26q12 1 23 6t16.5 14t-9.5 21q-15 18 -35 27q-9 5 -7.5 8.5t12.5 3.5q12 -1 38.5 -20.5t36.5 -34.5 q15 -16 12 -27.5t-11 -17.5t-19 -8q-134 -27 -375 -31q-74 -134 -133 -285q-4 -11 -6 -19.5t-2.5 -20t6 -12.5t20.5 3q6 2 20.5 10t22.5 11q6 9 9 6t-4 -12q-7 -12 -38.5 -30.5t-50.5 -23.5q-21 -6 -29.5 2t-7.5 17.5t5 25.5q43 127 153 328q-184 0 -291 14q-15 2 -75 62z " />
<glyph unicode="," horiz-adv-x="337" d="M-82 -223q0 6 8 14q130 90 146 215q2 23 -27 86q-9 16 33 45q43 30 55 27q15 -4 28 -41t13 -70q0 -12 -2 -16q-38 -112 -227 -270q-3 -7 -13 -7q-14 0 -14 17z" />
<glyph unicode="-" horiz-adv-x="532" d="M143 358q0 37 66 37h289q34 0 34 -20q0 -16 -14 -25.5t-39 -9.5h-301q-35 0 -35 18z" />
<glyph unicode="." horiz-adv-x="329" d="M45 63q-6 53 0 62q6 11 39 26t53 15q5 0 13 -4q16 -16 16 -125q0 -12 -31 -25.5t-57 -13.5q-13 0 -19.5 10.5t-13.5 54.5z" />
<glyph unicode="/" horiz-adv-x="667" d="M-113 -154q15 137 539 652q487 477 797 704q23 17 41 17t18 -17q0 -15 -25 -33q-325 -241 -792 -690q-514 -492 -551 -639q-9 -43 -23 -43q-4 12 -4 49z" />
<glyph unicode="0" horiz-adv-x="999" d="M100 238q0 59 23 143q89 296 352 524q24 19 91 56.5t114 52.5q92 50 188 59q122 11 195.5 -58.5t73.5 -203.5q0 -79 -31 -188q-59 -203 -232 -385q-177 -192 -401 -250q-59 -15 -111 -15q-119 0 -190.5 70t-71.5 195zM211 274q0 -124 65 -198q56 -62 146 -62 q201 0 395 209q167 179 232 393q26 82 26 166q0 241 -217 238q-160 0 -338 -150q-115 -96 -198 -243q-81 -140 -101 -244q-10 -65 -10 -109z" />
<glyph unicode="1" horiz-adv-x="780" d="M-94 2q0 42 37 45q125 14 272 21q153 273 504 778q8 11 8 24q0 15 -14 15q-9 0 -21 -4q-106 -41 -330 -113q-21 -6 -30 -6q-10 0 -14.5 3t-2.5 9q5 10 37 23q404 147 609 266q12 6 22 6q25 0 25 -25q0 -19 -15 -28q-9 -6 -42.5 -27t-59.5 -37q-3 -2 -5 -5.5t-4 -10.5 t-3.5 -12t-3.5 -16.5t-3 -16.5q-78 -62 -278 -326q-205 -269 -279 -413q-12 -32 -12 -41q0 -39 80 -52q196 -26 244 -22q41 3 41 -14q0 -19 -44.5 -23t-187.5 -4h-35h-65q-291 0 -393 -12q-37 -3 -37 18z" />
<glyph unicode="2" horiz-adv-x="974" d="M2 4q0 51 74 66q149 28 305 98q182 85 336 205q228 179 258 366q12 67 -39 140q-60 82 -154 102q-36 8 -86 8q-136 0 -286 -84q-11 -7 -11 4q0 42 43 64q188 101 371 86q134 -9 209 -96q59 -71 59 -170q0 -197 -290 -416q-224 -174 -469 -262q-27 -9 -27 -23 q0 -41 512 -41q49 0 49 -28q0 -26 -47 -23q-79 6 -195 6q-264 0 -575 -24q-37 -3 -37 22z" />
<glyph unicode="3" horiz-adv-x="833" d="M-201 -98q0 23 15 45t34 22q30 0 33 -45q3 -63 119 -63q151 0 348 90q244 111 309 268q19 46 19 88q0 102 -78 162q-93 72 -279 63q-14 0 -14 9q0 13 15.5 26t33.5 13q117 0 264 84q142 84 187 161q29 47 29 93q0 88 -91 88q-143 0 -292 -70q-15 -9 -15 8q0 34 33 51 q136 80 324 80q161 0 161 -125q0 -51 -26 -90q-100 -151 -381 -256q-17 -6 -17 -18t19 -15q101 -8 170 -77t69 -164q0 -53 -30 -115q-82 -168 -355 -285q-224 -93 -401 -96q-203 -6 -203 68z" />
<glyph unicode="4" horiz-adv-x="946" d="M0 231q0 24 12 39q8 12 43 29q9 3 41 23q107 121 379 346q282 230 420 315q4 2 12 2q25 0 25 -24q0 -15 -17 -23q-151 -91 -444 -326q-287 -226 -334 -288q67 12 180 12q87 0 207 -6q107 -8 123 -8q188 262 502 682q38 47 121 47q22 0 22 -11q0 -4 -2 -6 q-96 -111 -313 -389q-174 -222 -242 -330q175 -9 201 -4q10 3 10 -4q0 -10 -22.5 -27.5t-40.5 -17.5q-124 0 -178 4q-29 -42 -63 -89.5t-51.5 -71.5t-23.5 -35q-105 -163 -114 -254q-3 -25 -17 -25q-19 0 -16 31q12 158 196 444q-61 6 -231 6q-208 3 -293 -10 q-23 -3 -45 -35q-22 -28 -31 -28q-16 0 -16 32z" />
<glyph unicode="5" horiz-adv-x="933" d="M-20 47q0 22 23.5 40.5t49.5 18.5q20 0 25 -10q77 -86 276 -86q189 0 312 74q102 65 102 186q0 66 -45 111q-113 110 -428 190q-23 9 -23 29q0 26 47 90q148 206 271 352q15 21 45 21q22 0 96 -29q20 -15 41 -22q96 -2 420 -2q20 0 20 -13q0 -28 -47 -28q-249 0 -590 -11 q-147 -138 -219 -258q-20 -35 9 -47q70 -25 217 -84q154 -69 213 -123q61 -55 61 -137q0 -83 -59 -151q-188 -215 -506 -215q-110 0 -209 30q-102 29 -102 74z" />
<glyph unicode="6" horiz-adv-x="952" d="M121 193q0 262 266 550q350 381 698 443q8 2 25 2q23 0 23 -10q0 -13 -39 -19q-214 -42 -430 -237q-171 -152 -316 -373q201 80 367 80q45 0 67 -11q138 -44 138 -190q0 -120 -82 -233q-69 -98 -183 -168q-141 -84 -268 -84q-50 0 -100 16q-166 52 -166 234zM209 176 q0 -112 57 -160q45 -39 119 -39q102 0 225 72q117 70 170 180q35 69 35 150q0 134 -78 172q-48 22 -131 22q-158 0 -274 -55q-123 -147 -123 -342z" />
<glyph unicode="7" horiz-adv-x="845" d="M41 -184q24 164 913 1106q9 6 9 16q0 19 -39 25q-68 9 -267 12q-175 3 -221 -4q-14 -1 -110 -35q-10 -10 -25 -10q-16 0 -16 16q0 25 61 53q55 25 84 31q220 3 578 12q11 -3 41 4q11 9 61 33q23 4 33 -7.5t10 -41.5q0 -32 -23 -55l-608 -594q-217 -211 -322 -359 t-91 -206q3 -15 -11 -29t-30 -14q-33 0 -27 47z" />
<glyph unicode="8" horiz-adv-x="1001" d="M35 145q0 65 22 119q51 127 258 275q103 71 344 217q-59 112 -59 194q0 65 35 103q49 60 166 106q104 40 200 43q46 3 91 -20q50 -20 47 -49q3 -41 -15 -41q-2 0 -20 6q-8 5 -25.5 17.5t-25.5 17.5q-43 30 -105 30q-92 0 -147 -41q-94 -72 -94 -178q0 -71 36 -147 q115 54 271 149q162 101 239 172q28 25 41 25q6 0 6 -8q0 -61 -538 -375q75 -131 104 -197q74 -155 80 -241q9 -150 -203 -297q-203 -142 -405 -142q-132 0 -217.5 70t-85.5 192zM104 133q0 -187 218 -225q126 -21 309 80q217 123 217 323q0 105 -62 221q-4 9 -110 181 q-430 -237 -543 -463q-29 -56 -29 -117z" />
<glyph unicode="9" horiz-adv-x="878" d="M33 -88q0 16 41 22q217 42 428 216q203 169 334 393q-155 -76 -347 -76q-57 0 -94 12q-135 41 -135 185q0 122 88 249q67 93 187 170q145 88 272 88q51 0 104 -16q168 -55 168 -240q0 -255 -284 -563q-353 -383 -717 -448q-8 -2 -23 -2q-22 0 -22 10zM367 702 q0 -115 71 -159q54 -31 144 -31q152 0 270 59q133 160 133 363q0 108 -57 162q-47 41 -123 41q-104 0 -223 -72q-120 -77 -172 -186q-43 -93 -43 -177z" />
<glyph unicode=":" horiz-adv-x="342" d="M4 63q-6 53 0 62q6 11 39 26t53 15q5 0 13 -4q16 -16 16 -125q0 -12 -31 -25.5t-57 -13.5q-13 0 -19.5 10.5t-13.5 54.5zM227 442q-7 55 0 60q6 12 39 27.5t53 15.5q7 0 11 -4q18 -18 18 -127q0 -11 -31 -25t-57 -14q-13 0 -19.5 11.5t-13.5 55.5z" />
<glyph unicode=";" horiz-adv-x="325" d="M-121 -223q0 6 8 14q130 90 146 215q2 23 -27 86q-9 16 33 45q43 30 55 27q15 -4 28 -41t13 -70q0 -12 -2 -16q-38 -112 -227 -270q-4 -7 -12 -7q-15 0 -15 17zM217 442q-7 55 0 60q6 12 39 27.5t53 15.5q6 0 10 -4q19 -19 19 -127q0 -11 -31 -25t-57 -14 q-13 0 -19.5 11.5t-13.5 55.5z" />
<glyph unicode="&#x3c;" horiz-adv-x="1468" d="M221 627q12 23 506 206t700 250l-155 -86q-8 -2 -424.5 -193.5t-417.5 -195.5q-5 -32 25 -53q111 -88 351 -251.5t327 -194.5q11 -5 28.5 -9.5t52 -11.5t48.5 -10q11 2 19.5 0.5t10.5 -0.5q19 -22 15 -33q-25 -25 -97 -20q-83 8 -102 16q-41 23 -337.5 212t-444.5 267 q-13 15 -41 21q-5 1 -52 -2q-47 23 -12 88z" />
<glyph unicode="=" horiz-adv-x="1105" d="M205 377q0 31 76 31h663q43 0 43 -17q0 -29 -61 -29q-127 -2 -684 -2q-37 0 -37 17zM283 584q0 30 77 30h662q43 0 43 -14q0 -31 -61 -31q-125 -2 -682 -2q-39 0 -39 17z" />
<glyph unicode="&#x3e;" horiz-adv-x="1470" d="M205 16l155 86q8 2 424.5 194t419.5 196q5 30 -26 53q-127 97 -359.5 256.5t-318.5 189.5q-20 10 -127 29q-10 -1 -20 0t-13 0q-2 3 -6 9.5t-5 8.5t-2.5 8.5t1.5 8.5q28 28 96 20q74 -7 100 -16q50 -28 344.5 -215t438.5 -264q15 -16 43 -21q4 -1 49 2q51 -24 14 -88 q-11 -24 -502 -205.5t-706 -251.5z" />
<glyph unicode="?" horiz-adv-x="802" d="M175 76.5q0 12.5 0.5 19.5t9.5 14.5t13.5 10l22.5 12.5q39 17 49 17t14.5 -2t10.5 -17t10 -47q5 -47 0 -68q-6 -11 -35.5 -22.5t-50.5 -11.5q-19 0 -27 11t-14 52q-3 19 -3 31.5zM238 362q0 16 12 19q297 85 489 184q310 163 310 379q0 54 -23 135q-36 114 -132.5 185 t-203.5 71t-158 -73q-17 -23 -26 -23q-8 0 -8 8q0 9 12 33q73 97 176 123q45 10 76 10q135 0 237 -102q83 -83 121 -199q25 -86 25 -158q0 -206 -203 -325q-87 -51 -285 -135q-194 -81 -290 -111q-25 -6 -35 -35q-5 -16 1 -39.5t14.5 -42.5t8.5 -22q0 -15 -14 -15 q-27 0 -66 50q-38 45 -38 83z" />
<glyph unicode="@" horiz-adv-x="2074" d="M205 219q0 178 52 343t147.5 297t223.5 230t287 151.5t330 53.5q232 0 411.5 -93.5t278.5 -264.5t99 -393q0 -169 -60 -331t-168 -275q-66 -66 -135 -115q-188 -133 -301 -174q-58 -21 -119 -21q-100 0 -166 54q-73 57 -67 159q6 171 121 416q71 158 137 256q13 23 -2 23 q-4 0 -8 -7q-88 -104 -277 -266q-170 -145 -309 -229q-21 -15 -47 -15q-51 0 -51 70q0 148 227 375q195 192 369 264q43 16 84 16q48 0 98 -18q35 -3 39 -2q29 5 55 27q6 6 10 6q8 0 14.5 -10t4.5 -17q-183 -284 -230 -362q-159 -267 -200 -527q-2 -14 -2 -39 q0 -137 159 -137q71 0 144 25q81 28 219 124t207 179q94 111 145 262.5t51 306.5q0 199 -92.5 354.5t-257.5 241.5t-373 86q-273 0 -487 -143q-94 -63 -168 -146q-69 -83 -90 -112q-75 -108 -111 -195q-60 -150 -78 -270q-14 -98 -14 -215q0 -69 23 -182q18 -101 59 -191 q89 -198 256 -321q225 -164 528 -164q197 0 372.5 53t287.5 127q-138 -116 -309 -179t-357 -63q-204 0 -382.5 74.5t-305 204t-199.5 310.5t-73 388zM705 160q0 -49 36 -49q14 0 31 10q233 150 514 489q6 6 6 17q0 23 -26.5 41t-67.5 18q-69 0 -135 -46t-156 -146 q-134 -148 -192 -287q-10 -18 -10 -47z" />
<glyph unicode="A" horiz-adv-x="2138" d="M78 246q0 110 53 243q99 240 322 297q88 23 229 23q317 0 795 -104q123 129 331 380q249 297 357 463q11 11 26 11q33 0 78 -29q44 -27 39 -43q-27 -82 -62.5 -188.5t-58 -176.5t-37.5 -118q-87 -284 -114 -439q105 -30 170 -30t65 32q0 51 -67 109q-17 11 -17 24 q-2 5 1 9t7 4q6 0 23 -13q77 -67 102 -133q6 -15 -8.5 -28t-50.5 -27q-12 -4 -34 -4q-59 0 -195 27q-47 -233 -47 -367q0 -72 14 -115q1 -2 8 -6t15 -8t14.5 -8t5.5 -6q-3 -31 -41 -31q-13 0 -16 8q-33 67 -33 238q0 135 20 305q-217 43 -493 108q-200 -210 -475 -403 q-392 -276 -656 -279h-3q-126 1 -196 73q-71 74 -71 202zM127 270q0 -115 53 -182q63 -78 168 -78h8q269 6 631 264q217 153 447 388q-392 98 -760 98q-144 0 -232 -21q-191 -44 -276 -262q-39 -101 -39 -207zM1518 692q234 -70 462 -114q24 244 211 817q4 20 4 26 q0 33 -18 33q-13 0 -33 -20q-312 -414 -626 -742z" />
<glyph unicode="B" horiz-adv-x="1019" d="M-393 1262q29 52 107.5 91t164 58.5t183 31.5t148 14.5t75.5 2.5q131 -2 219 -6t202 -18t200.5 -37t182 -64.5t179.5 -99.5q90 -63 112 -143q7 -28 8 -56q0 -50 -26 -100q-40 -76 -129 -135q-98 -66 -240.5 -121.5t-255 -84t-221.5 -46.5q-26 -4 -26.5 -17t24.5 -16 q116 -16 219 -63t144 -88q36 -36 46 -73q5 -19 6 -36q0 -15 -5 -29q-9 -28 -37 -59.5t-52 -50.5t-59 -43q-135 -92 -343 -92q-28 0 -58 2q-55 4 -54 21q1 13 25 19q7 1 14 1q15 0 29 -1q91 0 183 16q107 18 190 56q50 23 80 66q24 35 24 77q0 9 -2 18q-6 52 -59 91 q-48 37 -175.5 72t-213.5 47q-39 -46 -161.5 -231.5t-168.5 -286.5q-21 -44 -31 -43t4 47q39 125 299 520q-35 8 -49 14q-21 7 -28.5 21t-3 25t13.5 12q85 7 117 16q85 116 164.5 254.5t127.5 241.5q5 11 9 24t6 28t-3 25.5t-18 12.5q-16 3 15 22q40 26 71 26q5 0 10 -1 q26 -3 21 -35q-20 -116 -332 -592q80 14 204.5 45.5t285 92t233.5 120.5q42 35 72 75q30 42 46 90q7 21 6 41q0 29 -12 59q-21 52 -81 98q-91 68 -205 115.5t-241 71.5t-243 34.5t-255 13.5q-50 1 -94 1q-98 0 -160 -6q-296 -31 -373 -181q-9 -17 -9 -35q0 -24 15 -50 q26 -47 61.5 -76.5t67.5 -47.5q28 -16 29 -30t-26 -1q-6 3 -13 7q-106 66 -144 104q-51 51 -51 101q0 26 15 53z" />
<glyph unicode="C" horiz-adv-x="1640" d="M154 410q0 224 264 491q230 233 573 420q327 176 545 203q56 6 111 6q155 0 223 -62l26 27q3 10 15 6q10 -3 10 -14q0 -5 -27 -39q29 -36 29 -117q0 -82 -28.5 -152t-98.5 -151q-93 -107 -201 -168q-6 -3 -34 0q-33 7 -33 14q0 116 117 300q87 142 176 237 q-37 82 -203 82q-50 0 -102 -8q-348 -65 -752 -367q-428 -322 -522 -633q-15 -53 -15 -100q0 -151 129 -246q142 -102 394 -102h28q312 6 643 141q307 123 496 297q11 14 22 14q9 0 9 -10q0 -7 -15 -22q-188 -191 -508 -326q-336 -139 -625 -139h-24q-251 6 -426 112 q-196 120 -196 306zM1581 915q-3 -15 4 -18q8 -5 19 0q158 104 223 262q26 62 26 127q0 56 -20 92q-87 -90 -154 -219q-72 -139 -98 -244z" />
<glyph unicode="D" horiz-adv-x="1318" d="M-506 1104q22 119 109.5 209t211 140t269 78.5t289.5 30.5q15 0 30 -1q127 0 237 -11q122 -13 204 -39q139 -45 251.5 -111t189 -143.5t125.5 -167.5q48 -89 64 -183q8 -48 8 -97q0 -47 -8 -95q-15 -98 -59.5 -190.5t-121 -182t-179.5 -165.5q-54 -40 -134.5 -82.5 t-179 -84t-200.5 -65.5t-193 -26h-11q-84 0 -153 36q-73 38 -106 114q-8 18 -13.5 18t-14.5 -18q-4 -10 -12 -31t-12.5 -33.5t-11 -33t-10.5 -40.5q-6 -33 -19 -35q-13 -3 -11 27q1 7 2 15q9 50 61 192q4 13 -2 31q-12 30 -12 52q0 14 4 25q12 28 57 31h4t2 1q-1 3 1 7 q123 251 311.5 556t292.5 423q23 26 62 26q28 0 26 -16q-1 -5 -6 -12q-131 -165 -369.5 -533t-298.5 -513q-12 -28 -11 -64q0 -41 15 -69q42 -70 154 -91q53 -10 111 -10q65 1 135 13q134 24 277 83t243 140q119 95 193 211q75 114 99 232q12 59 12 120q0 59 -12 118 q-24 120 -92.5 224t-190.5 191.5t-284 140.5q-99 34 -237 52q-104 14 -222 13q-38 0 -77 -1q-161 -6 -305.5 -39.5t-259.5 -115.5t-156 -204q-15 -44 -16 -92q0 -5 -1 -10q1 -42 9 -79q8 -41 28.5 -87t40.5 -80t51 -75t50.5 -64.5t48.5 -55.5q37 -40 25 -51.5t-52 25.5 q-256 247 -256 460q0 31 6 62z" />
<glyph unicode="E" horiz-adv-x="1681" d="M309 692v17q-1 147 67 258q72 118 228 221q94 63 196 105t222.5 65t223 33.5t257.5 19.5q46 49 72 68q12 8 19 -1t11.5 -25.5t19.5 -31t38 -14.5q246 -2 504 -47q20 -6 32.5 -21t12.5 -34q3 -24 -19.5 -29.5t-46.5 4.5q-96 18 -280 33q-172 14 -299 14h-17 q-225 -219 -454 -577q164 13 370 15h63q168 0 302 -9q18 -3 25.5 -13t0.5 -19t-26 -9q-177 -2 -433 -22t-364 -48q-36 -64 -59.5 -109.5t-54.5 -117t-48 -144.5q-18 -77 -18 -146q0 -70 38 -112q40 -44 94 -56q38 -9 81 -8q17 0 35 1q136 12 323.5 67t333.5 138q14 7 20.5 3 t5 -13.5t-10.5 -14.5q-143 -114 -331 -179t-343 -65q-24 0 -57 6.5t-75.5 24t-78 44t-62.5 72t-32 101.5q-1 15 -1 30q0 93 42 217q48 144 104 232q-50 0 -63 21q-18 10 -28.5 33.5t5.5 44.5q9 9 36.5 15t63 10t50.5 8q216 325 426 579q-197 0 -413 -48.5t-378 -150.5 q-119 -76 -194.5 -187t-84.5 -249q-1 -17 -1 -35q0 -173 118 -362q8 -15 6 -24.5t-13.5 -7.5t-20.5 16q-58 82 -97.5 193.5t-42.5 219.5z" />
<glyph unicode="F" horiz-adv-x="878" d="M-611 1049q7 146 60 270q41 96 113 160.5t158 94.5q88 30 196 36q35 2 70 2q73 0 144 -8q106 -12 226 -42t219.5 -63t204.5 -74q436 -173 688 -178h14q177 0 186 96v9q0 37 -21 82q-17 39 -76 94q-27 22 -11 23q11 1 29 -9q55 -32 83 -87q25 -49 26 -97v-12 q-4 -54 -48 -97.5t-122 -52.5q-42 -5 -87 -5q-64 0 -134 10q-119 17 -229 52.5t-237.5 79.5t-247 86.5t-257.5 74.5q-138 30 -270 40q-40 3 -81 3q-96 0 -200 -15q-115 -18 -196.5 -95t-117.5 -185q-35 -108 -37 -238v-11q0 -125 30 -241q32 -122 101.5 -228t162.5 -166 q72 -46 160 -53l36 -2q68 0 132 22q80 27 144.5 91t90.5 151q2 7 18.5 9t16.5 -9q-10 -71 -56 -132.5t-112 -99t-139 -57.5q-58 -16 -114 -17q-15 -1 -30 1q-71 6 -121 37q-125 77 -212 201q-88 125 -124 264q-31 117 -30 238q0 24 1 47zM444 -86q-2 16 -2 36q0 90 36 269 q44 220 102 375q7 23 -8.5 33t-39.5 10q-6 0 -12.5 -0.5t-9.5 -1.5t-10 -3l-8 -3q-7 -3 -9 -3.5t-5.5 -0.5t-3 2.5t0.5 7.5q6 24 29.5 37t77.5 26q27 7 38 15t25 37q88 183 180 323q19 30 0 30q-13 0 -49 -16q-28 -13 -31 2q-2 12 13 19l6 2q71 35 199 150q21 18 38 -3 q19 -24 4 -53q-4 -8 -10 -14q-3 -4 -28 -36t-46 -59.5t-54 -74t-59.5 -89t-56 -96t-49.5 -102.5q-8 -22 -4.5 -27t27.5 -8q49 -8 125 -12q66 -3 118 -4h15q57 0 127 2t84 2q33 0 32 -8t-34 -14q-35 -11 -126.5 -16t-222 -6.5t-149.5 -2.5q-23 -2 -34.5 -11t-18.5 -34 q-148 -399 -148 -578q0 -12 1 -24q1 -16 13 -24.5t9 -30.5q-14 -49 -41 -59q-24 -9 -30 29z" />
<glyph unicode="G" horiz-adv-x="1892" d="M205 387q0 81 26 160q131 403 713 729q513 286 973 286q44 0 88 -3q125 -6 225 -95q90 -81 127 -202q6 -9 6 -21q0 -11 -10 -8q-9 3 -14 16q-25 65 -80 123q-91 94 -248 109q-29 2 -90 2q-479 0 -997 -295q-531 -302 -648 -651q-30 -95 -30 -168q0 -116 86.5 -177.5 t257.5 -62.5h7q285 0 742 229q395 196 543 338q2 1 10 13q82 192 131 256q32 25 97 84q6 6 10 6q13 0 16 -27q3 -29 -2 -47q-38 -146 -92 -203q-1 -1 -45 -16q-30 -56 -205 -402q36 -36 58 -110q-13 -21 -62 -78q-15 -8 -104 -33q-275 -493 -465 -620q-213 -141 -346 -144 h-12q-145 0 -230 70q-80 68 -80 176q0 106 78 193q122 134 459 229q168 47 542 115q51 117 203 436q10 22 10 31q0 4 -2 4l-24 -17q-266 -192 -578 -342q-384 -182 -651 -188h-13q-160 0 -266 72q-114 80 -114 233zM582 -395q0 -86 69 -135q72 -52 212 -52h16q182 6 335 129 q176 138 408 580l-182 -41q-235 -53 -404 -113q-253 -92 -370 -194q-84 -78 -84 -174zM1712 174q17 3 74 35q23 17 26 57v9q0 37 -22 59q-7 -17 -34 -69.5t-44 -90.5z" />
<glyph unicode="H" horiz-adv-x="2111" d="M31 -156q9 71 61 146.5t113 134.5q19 17 27 7q6 -8 -7 -21q-45 -50 -85 -125.5t-48 -145.5q-2 -16 -2 -29q0 -39 15 -65q20 -34 63 -41q20 -4 43 -4q26 0 55 5q55 9 129 34q122 42 260.5 135t264 211t236 245.5t194.5 250.5q-7 -1 -42 -7t-53 -6q-30 0 -49 35 q-17 33 1 49q7 5 18 6q25 4 87 5t91 4q57 71 119.5 198.5t79.5 210.5q13 63 13 116q1 127 -75 195q-67 59 -183 59q-70 0 -159 -22q-191 -46 -380.5 -175t-348.5 -314q0 -33 -16 -59q-48 -65 -97 -93q-16 -9 -30 8t-16.5 42t7.5 45q97 144 250 275t313.5 215.5t297.5 113.5 q83 18 152 18q43 0 82 -7q100 -18 163 -73t88 -145q15 -53 15 -115q0 -42 -7 -88q-13 -91 -63 -209.5t-103 -195.5q24 1 79 1q70 1 186 -1q96 -1 161 -2q78 0 113 2q70 149 197 351t217 318q9 12 3.5 19.5t-22.5 1.5q-11 -2 -15 5.5t3 14.5q29 35 73 80.5t94.5 95.5t65.5 66 q15 11 30.5 1t26.5 -33t7 -40q-168 -188 -334.5 -434t-261.5 -446q11 0 29.5 1t32 1t22.5 -2q24 -5 21 -24q-3 -18 -25 -20q-6 0 -13 1q-14 1 -44 -0.5t-46 -1.5q-33 -65 -66 -145t-66 -200q-31 -114 -31 -198v-10q1 -27 23.5 -38t37.5 1q13 7 17.5 -1t-3.5 -22 q-8 -11 -28 -24q-22 -9 -52.5 20t-35.5 57q-6 32 -6 70q0 82 28 195q41 165 102 295q-113 0 -290.5 -8t-276.5 -21q-114 -155 -231.5 -289t-252 -258t-281 -215.5t-290.5 -138.5q-95 -31 -166 -31q-27 0 -51 5q-84 17 -124 65q-33 41 -32 93q0 9 1 19z" />
<glyph unicode="I" horiz-adv-x="978" d="M82 164q-4 12 1.5 19t14 4t11.5 -15q18 -67 77 -115q36 -29 94 -35q15 -2 30 -2q46 0 99 14q71 19 134 62q99 68 206 191t199.5 263.5t184 306.5t160.5 311t128 286q-241 -45 -475 -146t-389 -221q-67 -52 -111 -105t-57 -124q-3 -15 -2 -31q0 -49 25 -106 q5 -11 -1.5 -16t-13.5 4q-18 23 -30.5 65t-14.5 82v9q0 63 40 125q42 66 128 138q140 119 394 227.5t534 170.5q31 6 45 24q18 17 41.5 0t15.5 -37q-532 -1150 -983 -1441q-113 -72 -235 -84q-22 -2 -42 -2q-92 0 -149 45q-37 30 -59 133z" />
<glyph unicode="J" horiz-adv-x="997" d="M-610 -742q-5 18 -5 40q0 31 11 69q18 64 65 135q97 144 274 293t378.5 268.5t402.5 213t371 145.5q356 675 502 1016h-7q-270 0 -526 -143q-259 -145 -407 -386q-34 -55 -59 -111.5t-44 -123.5q-15 -56 -15 -113q0 -12 1 -24q4 -69 33 -127q8 -16 0.5 -21.5t-17.5 12.5 q-39 69 -52 162q-5 39 -5 80q0 56 10 117q18 103 68 190q65 111 162 200t194 142t208.5 94t195 60t163.5 36.5t105 26.5q47 8 80 45q13 9 26 5t21.5 -15.5t3.5 -19.5q-45 -97 -99 -208t-118 -235.5t-107.5 -208t-113.5 -216t-89 -169.5q-9 -17 -5 -30t18 -13q17 0 16 -10.5 t-18 -13.5q-9 -2 -62 -23q-139 -236 -253 -407.5t-246 -323.5q-350 -411 -789 -516q-51 -10 -95 -10q-18 0 -36 2q-58 6 -93 38t-48 78zM-566 -742q9 -36 37.5 -59.5t78.5 -24.5h6q47 0 104 13q117 31 226.5 86t203.5 127.5t167.5 142.5t148.5 156q125 144 464 682 q-238 -79 -490 -212t-489.5 -318.5t-375.5 -376.5q-48 -67 -69 -123q-14 -40 -14 -69q0 -13 2 -24z" />
<glyph unicode="K" horiz-adv-x="743" d="M-510 827q1 3 2 12.5t2 12.5q72 216 443 459q334 217 527 218q8 0 15 -1q85 -6 135 -109q40 -64 40 -122q0 -9 -1 -17q-18 -182 -477 -891q-14 -14 -14 -33q0 -12 10 -12q8 0 33 21q63 63 151 139q13 70 33 84q18 9 35 -17q263 225 539 396q366 226 596 226q15 0 30 -1 q35 -4 35 -18q0 -6 -10.5 -10t-24.5 -1q-14 1 -28 1q-254 0 -643 -271q-150 -103 -469 -375q115 -337 192 -502q189 -405 399 -530q73 -45 158 -45q181 0 320 151q23 19 30 19q6 0 6 -10t-16 -29q-174 -160 -346 -160q-84 0 -174 41q-313 145 -641 1006q-51 -22 -211 -205 q-158 -181 -199 -246q-6 -12 -28 -12q-35 0 -35 18q0 9 4 13q115 159 350 577q271 485 338 680q12 30 12 68q0 109 -116 118q-10 1 -20 1q-195 0 -519 -214q-352 -234 -416 -419q-8 -24 -8 -41q0 -36 41 -49q27 -15 80 -15q26 -7 26 -14q0 -14 -22 -14q-53 -9 -76 -9 q-12 0 -16 2q-74 51 -74 111q0 9 2 18z" />
<glyph unicode="L" horiz-adv-x="1284" d="M2 323q0 30 47 68q49 36 72 41q28 4 45 4q111 0 299 -80q9 -3 272 -127q103 275 205 508q192 437 350 602q45 48 129 95q104 58 191 61h8q117 1 214 -89q100 -92 155 -263l3.5 -10.5t2.5 -10.5q0 -18 -13 -18q-12 0 -20 22q-46 123 -154 228q-102 97 -200 106q-9 1 -18 1 q-123 0 -257 -152q-158 -178 -356 -611q-70 -155 -203 -489q63 -33 178 -96.5t148 -81.5q320 -169 547 -256q338 -134 581 -140h11q179 0 303 95q55 42 98.5 133t50.5 186q6 35 14 35q13 0 13 -37q0 -91 -45 -203q-46 -106 -105 -151q-53 -30 -127 -49q-100 -28 -209 -31 h-21q-466 0 -1466 522q-30 -91 -106 -158q-75 -66 -150 -69h-6q-148 0 -313 153q-168 161 -168 262zM66 315q0 -18 10 -45q58 -133 188 -237q125 -96 228 -99h4q147 0 211 218q-373 180 -564 208q-11 1 -20 1q-57 0 -57 -46z" />
<glyph unicode="M" horiz-adv-x="1822" d="M-410 836q0 127 189 319q176 176 405 311q237 143 369 152h7q59 0 120 -47q63 -49 63 -102q0 -151 -153 -515q261 228 362 228q40 0 72 -34q27 -29 28 -62q0 -5 -1 -11q-30 -238 -285 -766q-15 -35 14 -35q17 0 29 21q212 280 541 598q422 413 604 422h5q49 0 81 -60 q28 -58 28 -114q0 -35 -10 -45q-231 -368 -309 -512q-207 -378 -244 -621q-2 -10 -2 -29q0 -67 45 -68q9 0 19 3q61 16 159 90q97 75 144 133q19 25 28 25q7 0 7 -6q0 -11 -17 -35q-43 -64 -133 -139q-100 -87 -186 -113q-6 -2 -12 -2q-30 0 -54 41q-33 51 -33 100v6 q0 185 181 559q152 318 348 623q29 47 29 76q0 45 -62 45q-26 0 -57 -8q-183 -48 -586 -445q-357 -349 -625 -704q-21 -27 -63 -27q-33 0 -33 21l4 16q354 674 404 954q2 11 2 21q0 47 -49 47q-80 0 -230 -117q-127 -97 -196 -182q-279 -554 -508 -801q-21 -26 -60 -41 q-38 -26 -63 -26q-17 0 -17 45q0 118 222 409q163 214 383 428q83 161 149 357q55 171 55 245q0 69 -32 94q-24 19 -73 19q-16 0 -34 -2q-218 -24 -575 -303q-369 -287 -369 -469q0 -36 51 -51q40 -14 61 -14q5 0 9 1q28 3 28 -4q0 -8 -32 -18q-17 -6 -34.5 -6t-35.5 6 q-24 8 -48 45t-24 74zM-31 104q-10 -25 -10 -39q0 -16 14 -16q15 0 31 23q100 111 248 348q157 247 201 354q-119 -104 -260 -293q-168 -219 -224 -377z" />
<glyph unicode="N" horiz-adv-x="1095" d="M-612 674q6 132 198 336q191 206 432 346q251 145 425 146q10 0 20 -1q85 -3 141 -84q47 -68 47 -174q0 -46 -10 -94q-59 -229 -379 -764q-14 -21 -14 -37q0 -8 8 -8q15 0 33 33q160 203 409 446q330 324 512 355q27 4 46.5 -8.5t46.5 -43.5q17 -19 25.5 -39.5t9.5 -33 t1 -36.5v-7q0 -30 -6 -45q-36 -67 -137.5 -251.5t-155.5 -287.5q-84 -156 -210 -437t-226 -565q-78 -221 -78 -306q0 -25 6 -38q4 -4 0 -21.5t-4 -21.5q0 -61 33 -61q85 0 299 211q24 24 31 24q4 -4 4 -8q0 -8 -18 -35q-36 -58 -136 -139q-109 -86 -163 -86q-40 0 -68 47 q-26 44 -25 88v6q4 98 186.5 612.5t282.5 717.5l297 602q23 45 23 78q0 43 -47 43q-28 0 -74 -19q-193 -81 -440 -317q-199 -188 -406 -449q-161 -204 -227 -309q-20 -33 -51 -33q-12 0 -19.5 7t-7.5 16q0 7 10 30q499 820 586 1098q20 72 20 123q0 87 -37 131.5t-112 50.5 q-9 1 -18 1q-145 0 -379 -136q-253 -144 -441 -338q-204 -210 -204 -364q0 -56 53 -66q37 -7 70 -7q28 0 53 5q24 3 24 -8q0 -10 -24 -17q-50 -15 -90 -15q-17 0 -33 3q-92 16 -92 139v15z" />
<glyph unicode="O" horiz-adv-x="1744" d="M225 475q0 83 25 178q52 198 244 387q-9 30 -9 60q0 118 107 243q124 146 317 224q179 73 387 73q80 0 154 -12q238 -37 381 -244q119 -172 119 -352q0 -23 -4 -51q-43 -301 -258 -547q-176 -204 -461 -336q-227 -105 -436 -105q-22 0 -43 1q-212 9 -357 127 q-166 135 -166 354zM260 481q0 -189 129.5 -301t358.5 -123q19 -1 38 -1q226 0 478 132q283 151 456 369q197 244 197 487q0 197 -115 345q-128 162 -379 200q-52 8 -118 8q-202 0 -394 -79q-183 -73 -295 -191q-98 -104 -98 -207q0 -21 4 -41q145 145 383 258 q271 131 502 131q55 0 117 -10q20 -3 20 -14q0 -20 -22 -14q-52 12 -115 12q-243 0 -543 -158q-260 -134 -338 -248q9 -68 84 -127q72 -57 160 -57q23 0 23 -14q0 -8 -9.5 -13t-23.5 -2q-89 3 -166 62q-72 54 -94 123q-65 -59 -127 -160q-72 -124 -90 -197q-23 -85 -23 -170 z" />
<glyph unicode="P" horiz-adv-x="1224" d="M-410 1454q0 33 7 68q15 112 143 190q127 77 302 77q19 0 38 -1q333 -18 649 -174q232 -113 438 -297q263 -235 263 -477q0 -222 -240 -320q-170 -67 -393 -67q-96 0 -168 15.5t-72 39.5q0 18 43 39q9 -26 43 -35q65 -33 182 -33q211 0 357 78q161 81 161 268 q0 231 -215 437q-241 224 -518 352q-314 141 -602 141q-321 0 -362 -233q-6 -40 -6 -80q0 -216 92 -355q10 -17 10 -24l-4 -4q-10 0 -21 16q-55 44 -96 172q-31 105 -31 207zM-258 33q0 12 10 12q9 0 27 -18q36 -45 94 -68q18 -7 44 -7q35 0 85 13q145 54 422 537 q252 437 362 766q2 2 3 4t2 3t2 1q7 0 10 -37q3 -40 -2 -53q-113 -319 -269 -625q-252 -493 -479 -618q-62 -35 -141 -35q-35 0 -62 10q-59 29 -96 84q-12 18 -12 31z" />
<glyph unicode="Q" horiz-adv-x="2101" d="M2 102q3 26 68 76q56 45 90 49h3q33 0 165 -43q149 -49 211 -82q-93 78 -93 283q0 71 11 127q47 257 278 518q208 239 463 377q18 12 33 12q14 0 14 -8q0 -14 -28 -31q-194 -104 -414 -368q-250 -296 -297 -525q-12 -56 -12 -141q0 -366 457 -366h30q310 6 633 165 q395 199 555 551q63 138 63 277q0 239 -168 407q-178 178 -473 187q-18 1 -37 1q-256 0 -483 -118q-222 -113 -283 -260l-3.5 -14t-5 -18.5t-5.5 -16.5q-10 -21 -16 -21q-4 0 -8 21q-3 26 8 59q83 174 313 295q233 124 485 124q18 0 35 -1q321 -12 496 -199 q172 -178 172 -454q0 -142 -45 -281q-90 -286 -459 -532q-371 -244 -725 -244q-74 0 -141 12q380 -195 518 -254q368 -162 548 -162h13q143 3 240 72q121 89 121 250q0 66 -21 139q-3 24 -2 29q0 6 1.5 7t4.5 -1q13 -5 23 -25q15 -20 37 -100q16 -56 16 -97q0 -14 -2 -26 q-12 -73 -141 -178q-121 -102 -189 -111q-46 -10 -114 -10q-227 0 -568 146q-29 13 -616 303q-341 168 -570 227q-40 8 -57 8q-72 0 -72 -55q0 -21 11 -39q11 -44 61 -88q32 -34 2 -35q-32 0 -86 72q-45 62 -45 102v8z" />
<glyph unicode="R" horiz-adv-x="1169" d="M-410 1317q0 185 222 256q216 69 493 69q286 0 539 -69q262 -71 413 -189q220 -171 220 -385q0 -243 -275 -397q-108 -63 -274 -113q-178 -56 -348 -65q-14 0 -11 -27q15 -93 86 -260q74 -173 142 -241q70 -70 131 -70q28 0 53 10q20 4 23 4q9 -3 6 -6q-2 -7 -17 -14 q-42 -23 -84 -23q-64 0 -153 68q-61 48 -176 276q-117 231 -117 303q0 43 41 43q7 0 24 -10.5t45 -19.5q13 -1 26 -1q114 0 280 46q182 53 305 129q215 132 215 346q0 205 -178 358q-139 124 -398 199q-254 74 -532 74q-259 0 -469 -64q-99 -29 -150 -85.5t-51 -135.5 q0 -58 29 -123l31 -65q0 -2 -7 -2q-6 0 -22 16q-62 68 -62 168zM100 72q-1 4 -1 10q0 130 659 1059q23 23 10 49q-4 8 -4 10q0 19 16 19q10 0 21 -11q31 -32 20 -43q-267 -399 -368 -553q-274 -415 -273 -534v-10q3 -21 -37 -21q-36 0 -43 25z" />
<glyph unicode="S" horiz-adv-x="1165" d="M84 215q0 120 180 199q300 130 727 166q-42 57 -153 206.5t-181 243.5q-118 154 -118 281q0 138 143 229q304 195 711 195q158 0 247 -31q69 -22 129 -92q52 -77 52 -166q0 -60 -23 -119q-8 -21 -16 -29q-5 -11 -8 0q-1 4 1 20t4.5 40t2.5 43q0 102 -58 176 q-54 66 -141 90q-102 29 -246 29q-371 0 -622 -183q-123 -91 -123 -208q0 -100 100 -248q155 -190 369 -473q115 0 199 2q22 0 22 -8q0 -10 -74 -13q-103 -3 -125 -6q58 -98 58 -197q0 -204 -219 -296q-196 -80 -400 -80q-158 0 -270 41q-168 58 -168 188zM119 188 q0 -43 53 -90q38 -32 84 -45q112 -28 242 -28q208 0 397 92q182 92 182 248q0 102 -69 186q-172 -21 -316 -51q-243 -50 -399 -131q-174 -86 -174 -181z" />
<glyph unicode="T" horiz-adv-x="448" d="M-614 1374q8 50 38 89t77.5 70.5t93.5 50.5t88 28q49 10 117 14q30 2 68 2q48 0 108 -3q109 -5 176 -8t223.5 -18.5t202.5 -20t223 -23.5q70 -7 104 -11q35 54 49 68q7 7 4.5 16.5t-10.5 7.5q-35 -6 -51 -14q-22 -8 -22 3q2 10 18 20q90 74 141 81q28 5 42 -17.5 t-3 -47.5q-43 -69 -84 -125q344 -37 441 -37q32 0 44.5 16.5t8.5 38.5q-5 33 -21 72q-15 41 -4 47t33 -31q43 -79 43 -123q-1 -20 -8 -36q-3 -4 -10.5 -16.5t-15.5 -24t-17 -19.5q-23 -20 -39 -27.5t-37 -6.5q-153 14 -467 67q-214 -350 -437 -790t-280 -656q-5 -20 -5 -41 q0 -41 20 -86q8 -25 -17 -41q-25 -17 -42 2q-10 12 -11 35v10q0 95 72 295q76 210 193 454.5t228.5 458t202.5 371.5q-378 60 -673 90q-174 18 -312 18q-97 0 -178 -9q-26 -3 -51.5 -8t-58.5 -14t-58.5 -22t-51 -32t-36.5 -43t-15 -56q-1 -5 0 -10q0 -27 15 -59 q30 -76 82.5 -159.5t105.5 -147.5q41 -50 24 -49q-12 2 -36 26q-139 139 -211 275q-25 44 -25 84q-1 12 1 22z" />
<glyph unicode="U" horiz-adv-x="1343" d="M-512 854q0 79 35 150q107 221 379 393q277 177 550 177q17 0 35 -1q76 -3 156 -92q74 -83 74 -158v-6q-6 -154 -129 -391q-1 -2 -27 -48t-83 -147t-124 -217q-145 -252 -170 -377q-6 -18 -6 -35q0 -57 58 -57q24 0 61 16q194 88 602 428q255 208 537 455q17 14 35 33.5 t46 51t46 50.5q10 13 26 13q19 0 31 -16t8 -36q-15 -56 -22 -79q-93 -126 -258 -449q-180 -354 -222 -510q9 -21 9 -82q-1 -13 -8.5 -21t-16.5 -8q-20 0 -23 35q0 72 15 133q29 115 176 437q45 100 85 188t56 124.5t17 37.5q18 53 -2 53q-14 0 -27 -16q-214 -201 -545 -465 q-460 -369 -618 -418q-12 -4 -25 -4q-51 0 -89 44q-31 36 -32 80q0 10 2 21q21 147 174 402q28 47 120 198t141 234q135 232 135 368q0 60 -45 117q-50 62 -138 68q-23 2 -47 2q-225 0 -477 -156q-269 -164 -397 -393q-35 -63 -35 -150q0 -131 127 -215q16 -8 16 -20 q0 -8 -12 -8q-9 0 -22 8q-116 89 -138 160q-14 46 -14 98z" />
<glyph unicode="V" horiz-adv-x="643" d="M-408 834q27 242 281 493q253 250 487 277q11 1 21 1q69 0 125 -53q63 -57 63 -138v-7q-3 -140 -204 -627q-219 -535 -240 -665q-3 -29 0 -58q5 -37 25 -37t43 33q442 570 729 860q467 467 759 467q56 0 105 -14q24 -14 24 -18q0 -12 -24 -5q-61 9 -76 9 q-213 0 -526 -260q-241 -195 -541 -547q-80 -94 -227 -270.5t-201 -241.5q-33 -39 -70 -39t-63 39q-25 36 -25 73v5q11 161 232 673q215 496 221 633q0 11 2 23v28q0 91 -90 91q-18 0 -39 -3q-258 -38 -502 -294q-228 -240 -246 -435q-1 -10 0 -19q0 -67 39 -89q6 -3 47 -10 q21 -3 21 -15q0 -17 -31 -24q-20 0 -39 16q-29 11 -55 57q-25 47 -25 83v8z" />
<glyph unicode="W" horiz-adv-x="1591" d="M-614 864q0 21 4 31q46 199 405 453q361 255 645 292q18 3 36 3q84 0 159 -58q87 -63 90 -155v-13q0 -183 -160 -553q-130 -299 -309 -596q-10 -23 -10 -30q0 -8 3 -11t9 -2q12 3 31 21q95 109 330.5 377.5t361.5 412.5q0 3 31 51q17 34 32 31q22 -7 41 -40t19 -62 q0 -13 -4 -21q-130 -246 -191 -428q-67 -207 -67 -406q0 -64 41 -105q42 -42 110 -42q23 0 33 2q111 14 336 224q226 211 381 456q186 293 192 504q1 16 1 31q0 119 -42 184q-14 14 -14 27q0 8 6 8q11 0 31 -23q63 -72 63 -227q0 -203 -184 -498q-153 -251 -391 -475 q-232 -215 -371 -245q-40 -5 -45 -5q-77 0 -132.5 52t-61.5 133q-2 25 -2 76q0 322 198 700q8 13 8 33q0 18 -12 18t-26 -14q-398 -458 -699 -811q-18 -21 -58.5 -77t-62.5 -85q-11 -14 -30 -14q-54 0 -54 37q0 8 4 20q626 1086 626 1363q0 11 -1 22q-15 163 -176 163 q-230 0 -608 -237q-386 -241 -463 -461q-12 -38 -13 -67q0 -41 25 -64q34 -27 121 -27q22 0 22 -4q0 -9 -24 -12q-36 -13 -67 -13t-56 13q-24 12 -42.5 56t-18.5 87z" />
<glyph unicode="X" horiz-adv-x="1540" d="M-27 -244q17 166 138 338q112 157 393 377q238 185 485 330q8 141 15 257t10.5 163.5t3.5 44.5q0 34 -4 84q-7 64 -65 64q-13 0 -29 -3q-209 -50 -394 -311l-5 -7.5l-5 -7.5t-4 -4q-7 -3 -10 0q-4 8 0 21q3 13 6 16q63 129 213 242q145 113 253 113h11q32 0 72 -37 q43 -37 43 -60q1 -32 1 -69q0 -177 -24 -459q443 254 703 467q22 18 22 49q0 9 -2 20q41 23 111 93q4 4 8 4q31 0 31 -78q0 -19 -8 -27q-82 -97 -426 -321q-235 -152 -447 -273q-12 -179 -12 -297q0 -283 63 -372q60 -85 164 -85q10 0 21 1q142 9 325 131q20 12 29 0 q5 -4 2 -11.5t-12 -11.5q-213 -147 -338 -164q-6 -1 -12 -1q-36 0 -96 29q-71 34 -118 81q-98 95 -98 461v110v29t0.5 24.5t1 18t0.5 11.5v5q-263 -155 -479 -329q-248 -195 -356 -346q-112 -151 -154 -308q-12 -43 -23 -43q-7 0 -4 41z" />
<glyph unicode="Y" horiz-adv-x="1355" d="M-512 842q0 65 23 129q81 207 354 389q292 195 538 201h7q115 0 215 -95q102 -99 102 -202q0 -145 -139 -373q-70 -120 -275 -414q-159 -229 -207 -336q-22 -52 -22 -75q0 -29 29 -29q17 0 67 12q244 67 649 346q366 251 572 463l4 10q49 71 78 115q22 31 59 31q4 0 8 -4 q9 -21 9 -36q0 -17 -11 -28q-20 -14 -71 -65q-146 -319 -254 -557q21 -21 43 -61t22 -54q0 -19 -39 -70q-40 -47 -59 -49q-8 -1 -103 -29q-122 -199 -217 -315q-126 -156 -249 -225q-191 -109 -339 -109h-8q-124 3 -198 64q-70 55 -70 137q0 102 100 180q265 204 938 309 q37 49 164 312q9 19 69.5 143.5t90.5 190.5q6 20 4 22q-2 8 -12 -2q-258 -229 -565 -438q-396 -267 -650 -338q-7 -2 -14 -2q-28 0 -55 30q-33 37 -33 89q0 22 8 41q37 114 203 360q177 261 272 416q138 237 138 385q0 180 -226 198q-16 1 -32 1q-190 0 -457 -162 q-302 -186 -391 -390q-33 -70 -33 -135q0 -50 18.5 -86.5t67.5 -68.5q50 -34 84 -37q29 -3 29 -15t-39 -6q-133 23 -174 113q-23 57 -23 119zM37 -408q0 -149 224 -149h9q173 3 332 108q133 90 240 232q39 50 176 266q-177 -24 -414 -88q-331 -90 -473 -203 q-94 -73 -94 -166zM1116 117l86 22q42 23 45 66v6q0 41 -37 90q-37 -75 -94 -184z" />
<glyph unicode="Z" horiz-adv-x="1144" d="M2 221q-1 10 -1 21q0 68 34 145q39 87 76 102q0 43 19 60.5t77 17.5q68 0 299 -139q37 -22 131.5 -81t148.5 -91q79 52 215 215q122 143 213 274q-30 27 -30 66q0 19 12 25q37 4 90 14q44 66 201 254q179 216 225 246q-48 14 -278 55q-285 49 -461 49q-123 0 -199 -18 q-116 -27 -131 -146q-4 -23 -4 -67q0 -164 66 -275q12 -24 12 -30q0 -9 -6 -9t-29 29q-38 51 -64 139q-30 91 -30 180q0 43 9.5 68.5t39.5 36.5q22 22 39 45q26 43 67 59q103 39 265 39q239 0 733 -100l37 19q37 20 53 20q37 0 37 -76q0 -29 -17 -43q-4 -2 -14 -2 q-20 0 -65 8q-235 -205 -422 -491h71q15 0 32.5 -1t19.5 -1q26 0 26 -9q0 -18 -47 -18q-18 0 -133 -14q-309 -405 -508 -570q269 -179 590 -362q549 -312 823 -367q74 -12 103 -12q316 0 319 422q0 31 14 31q12 0 15 -27q4 -53 4 -98q0 -127 -35 -189q-28 -49 -61 -83 t-51.5 -45.5t-45.5 -22.5l-28 -11q-39 -20 -101 -20q-59 0 -139 18q-278 62 -784 330q-299 163 -682 389q-134 -87 -172 -104q-90 -45 -215 -72q-30 -6 -80 -6q-268 0 -283 223zM45 219v-7q0 -92 82 -142q71 -41 166 -41q25 0 65 4q195 40 361 170q-93 69 -248 159 q-195 117 -278 117q-7 0 -23 -4q-122 -58 -125 -256z" />
<glyph unicode="[" horiz-adv-x="1202" d="M203 6q-6 96 54 293t130 336l391 784q28 57 60.5 102t52.5 56q15 3 33.5 4t36 -9.5t22.5 -31.5q92 17 213 19.5t176 -19.5q12 -3 15 -9.5t-0.5 -15t-9 -17t-11.5 -18.5t-8 -16q-89 28 -227.5 13t-235.5 -56q-201 -289 -384.5 -698.5t-252.5 -724.5q-6 -66 -2 -77 q5 -14 40 -27q4 -1 15 -5q113 -33 316.5 -21.5t269.5 46.5q33 19 44 3t-26 -46l-14 -10q-57 -36 -247 -61.5t-335 -20.5q-101 5 -116 227z" />
<glyph unicode="\" horiz-adv-x="1087" d="M-205 1202q0 17 19 17q15 0 39 -17q317 -233 798 -704q521 -515 539 -652q0 -37 -4 -49q-11 0 -23 43q-37 147 -551 639q-480 461 -792 690q-25 19 -25 33z" />
<glyph unicode="]" horiz-adv-x="970" d="M73 -169.5q-3 6.5 0.5 15t9 16.5t11.5 18t8 16q88 -27 228 -12t237 55q199 289 382.5 699.5t252.5 723.5q6 66 2 77q-5 13 -40 26l-15 5q-114 34 -316.5 22.5t-269.5 -46.5q-32 -18 -43 -3q-13 16 22 45q7 7 17 13q57 36 247.5 61t334.5 19q101 -5 116 -227 q6 -96 -54 -293t-130 -336l-391 -784q-28 -57 -60.5 -102t-52.5 -56q-14 -3 -32.5 -4t-36 9.5t-21.5 31.5q-92 -17 -215 -19t-176 19q-12 4 -15 10.5z" />
<glyph unicode="^" horiz-adv-x="770" d="M727 1114q0 7 12 19q104 54 176 94q119 64 121 63q13 -4 205 -164q8 -8 8 -16q0 -7 -10 -10q-9 -3 -18 6q-28 20 -103 65q-70 42 -88 39q-95 -22 -278 -100q-10 -6 -17.5 -5t-7.5 9z" />
<glyph unicode="_" horiz-adv-x="1054" d="M51 -72q0 15 60 15h870q37 0 37 -11q0 -16 -51 -16h-875q-41 0 -41 12z" />
<glyph unicode="`" horiz-adv-x="544" d="M94 1083q0 45 45 45q13 0 21 -8q197 -184 252 -237q11 -8 6 -19q-11 -5 -19 0q-42 28 -148 100.5t-145 98.5q-12 8 -12 20z" />
<glyph unicode="a" d="M14 82q0 145 228 373q207 204 368 266q40 16 84 16q40 0 99 -18q34 -3 38 -2q37 6 54 26q5 5 12 5t13.5 -10t4.5 -15q-175 -272 -231 -363q-82 -137 -156 -344t-94 -335q-2 -14 -2 -39q0 -68 42.5 -103t117.5 -35q72 0 145 25q109 37 283 176q138 112 266 275 q17 20 25 20q2 -2 2 -6q0 -10 -8 -23q-110 -165 -273 -303q-175 -143 -280 -180q-62 -20 -119 -20q-80 0 -164 53q-68 44 -68 151v9q3 84 57 264t111 305q70 153 138 254q14 22 -2 22q-3 0 -7 -4q-97 -114 -276 -268q-184 -154 -309 -227q-27 -17 -47 -17q-52 0 -52 72z M137 154q0 -50 37 -50q13 0 31 11q218 138 514 489q6 6 6 14q0 24 -27 43t-67 19q-23 0 -47 -6q-96 -23 -244 -187q-134 -149 -195 -286q-8 -21 -8 -47z" />
<glyph unicode="b" horiz-adv-x="835" d="M14 47q8 20 29 49q97 229 231 541q4 0 7 10v6q0 1 2 3t2 3l2 3v-5q3 6 6 15l-2 -4q4 8 6 10q4 12 7 17l-5 -13v14q763 1722 1628 1774q25 2 49 2q264 0 475 -180q209 -175 209 -393q0 -23 -2 -46q-6 -74 -45 -151q-194 -370 -1044 -692q-575 -221 -1209 -340 q-46 -82 -139 -334q-33 -87 -43 -119q46 42 271 191q247 162 364 210q18 9 41 9q68 0 68 -70v-6q-2 -9 -25 -62q-120 -200 -369 -348q-247 -147 -454 -147h-8q-5 0 -13 4q-15 5 -27 19.5t-12 29.5zM141 84l2 -8q-7 -28 11 -31q6 -2 18 -2q25 0 76 10q153 34 311 150 q164 119 221 250l8 32v7q0 57 -45 57q-44 0 -266 -148q-148 -99 -268 -192q-51 -42 -66 -113q0 -1 1 -2t1 -2q-1 -1 -2 -4t-2 -4zM373 700q759 155 1333 408q695 303 864 649q22 48 37 131q1 18 1 36q0 196 -183 347q-196 163 -461 163q-18 0 -37 -1q-488 -18 -1007 -741 q-324 -455 -547 -992z" />
<glyph unicode="c" horiz-adv-x="616" d="M84 123q5 106 61.5 224t136.5 211.5t170.5 163t163.5 91.5q23 7 44 7q28 0 52 -12q44 -20 52 -64q2 -9 2 -17q0 -37 -29 -84q-20 -28 -49 -30q-20 -1 -19 15q2 14 19 34q24 29 28 54.5t-10.5 37.5t-39 14t-56.5 -16q-127 -72 -299 -263l-24 -32q-30 -42 -50 -72t-46 -76 t-40.5 -93t-17.5 -93q-1 -9 0 -18q0 -69 35 -97q35 -27 85 -27q8 0 17 1q132 15 279 98q21 13 25 3q3 -7 -11 -17q-149 -107 -274 -129q-10 -2 -20 -2q-55 1 -117 51q-69 56 -68 129v8z" />
<glyph unicode="d" horiz-adv-x="811" d="M18 68q0 136 242 366q221 209 371 266q42 17 84 17q33 0 112 -21q80 141 148 254q-41 4 -62 11q-28 3 -50.5 33t-22.5 63q0 21 14 35q98 107 301 151h4q116 175 209 293q465 596 948 766q168 57 318 57q259 0 438 -147q168 -142 168 -342q0 -152 -105 -287 q-118 -152 -337 -254q-823 -385 -1612 -385q-99 0 -144 2q-131 -232 -180 -328q-190 -368 -190 -582v-7q0 -8 12 -23q18 -4 35 -6q9 -3 4 -16q-9 -13 -16 -15q-22 -13 -45 13q-25 41 -25 94q0 118 119 432q11 35 -11 35q-7 0 -12 -8q-126 -154 -282 -293 q-210 -189 -336 -240q-12 -4 -21 -4q-76 0 -76 70zM139 133q0 -45 35 -45q16 0 33 10q283 186 518 459q25 31 25 53q0 47 -74 47q-26 0 -53 -6q-98 -22 -263 -184q-150 -150 -210 -289q-11 -29 -11 -45zM872 1032q0 -35 46 -41q45 -8 77 -10q30 47 81 129t71 113 q-171 -47 -260 -154q-15 -15 -15 -37zM1061 975q37 -2 121 -2q856 0 1587 426q426 245 426 520q0 175 -172 295q-177 123 -402 123q-150 0 -292 -60q-666 -283 -1268 -1302z" />
<glyph unicode="e" horiz-adv-x="655" d="M82 127q5 107 62 225t137.5 212t169.5 166t161 99q31 10 56.5 3.5t44 -28t28 -48t9 -56.5t-14.5 -53q-32 -56 -111 -96t-182 -55q316 0 404 10q40 4 83.5 26t71.5 46q10 15 18 8q5 -6 -3 -17q-27 -30 -73 -58.5t-97 -35.5q-92 -14 -561 -14q-145 -195 -154 -334v-15 q0 -70 36 -100q33 -27 80 -28q10 0 21 2q64 7 140.5 35t136.5 63q21 11 26 2q4 -6 -10 -16q-55 -40 -131 -78.5t-143 -50.5q-10 -2 -20 -2q-57 -1 -117 51q-69 58 -68 131v6zM307 496q109 0 219.5 49t159.5 121q21 32 23.5 57.5t-10 38t-37 11.5t-54.5 -17 q-130 -74 -301 -260z" />
<glyph unicode="f" horiz-adv-x="413" d="M-1456 -770q28 128 136 236.5t230 152.5q29 10 30 3t-27 -19q-108 -47 -191.5 -146.5t-116.5 -230.5q-14 -52 -14 -99q0 -20 3 -40q9 -63 36 -113t76.5 -82.5t109.5 -46.5q34 -8 74 -8q28 0 60 4q74 10 151 43q90 39 190 124.5t184 179t187.5 241t170.5 251t164.5 274 t137.5 243.5t119 222q35 66 51 95q7 14 7 26q0 25 -29 44l-12 6t-12.5 6t-11.5 6.5t-8.5 8t-4 9.5t1.5 11q2 6 6.5 9.5t12 4.5t13 1t14 -0.5t11.5 -0.5q9 0 27.5 -1t34 -1t30.5 2q194 289 336 397q99 75 214 118q84 32 160 32q27 0 54 -4q23 -3 41 -22t18 -33q0 -10 -16 -33 t-25 -15q-35 35 -81 53q-36 14 -69 14q-11 0 -22 -1q-237 -35 -528 -506h336q16 0 16 -9q-1 -10 -24 -11q-47 -1 -100.5 -3.5t-121.5 -7t-108 -6.5q-26 -2 -33 -16q-28 -48 -94 -166t-126.5 -225.5t-150 -256t-172 -275t-184.5 -263.5t-195.5 -240.5t-197 -186.5 t-197.5 -120q-134 -49 -238 -49q-57 0 -105 14q-136 42 -197 156q-41 76 -41 163q0 42 10 87z" />
<glyph unicode="g" horiz-adv-x="800" d="M-1655 -1274q0 73 33 154q154 365 981 692q557 222 1176 340q45 102 110 334q7 25 17.5 64t15.5 55q-49 -46 -252 -191q-225 -159 -348 -213q-15 -6 -39 -6q-74 0 -74 74q0 27 19 63q98 198 335 348q237 148 441 148h8q8 0 12 -4q18 -6 30.5 -20t12.5 -29q-4 -27 -22 -50 q-126 -378 -189 -561q316 56 592 56q88 0 156 -11q48 -9 90.5 -55t42.5 -96q0 -25 -10 -45q-26 -51 -133 -135q-20 -17 -31 -17q-4 0 -4 2q0 13 20 27q121 112 121 203q0 72 -100 81q-98 5 -152 5q-380 0 -606 -50q-605 -1725 -1464 -1777q-25 -2 -49 -2q-265 0 -492 180 q-248 195 -248 436zM-1597 -1307q0 -216 215 -383q211 -162 475 -162q18 0 37 1q496 18 942 741q280 453 454 991q-751 -157 -1294 -407q-669 -308 -805 -650q-24 -65 -24 -131zM92 96q0 -65 49 -65q44 0 252 149q127 91 250 193q52 45 57 112q0 1 -1 2t-1 2q0 7 2 9 q0 36 -14 39q-6 2 -16 2q-25 0 -78 -13q-154 -36 -297 -147q-156 -123 -199 -250q-4 -24 -4 -33z" />
<glyph unicode="h" horiz-adv-x="813" d="M20 20q0 8 3 17q157 333 456 848q-7 1 -27 4.5t-32 5.5q-28 6 -51 36.5t-23 59.5q0 20 14 37q100 106 302 150q565 851 1161 1058q162 58 317 58q261 0 438 -148q168 -142 168 -342q0 -152 -104 -286q-113 -149 -338 -254q-824 -387 -1622 -387q-51 0 -137 4 q-199 -335 -430 -754q4 3 71 74q140 140 291 262q185 148 256 155q8 11 80 29q12 2 30.5 -14t18.5 -31q0 -8 -2 -10q-59 -71 -155 -240q-101 -183 -101 -256q0 -53 55 -53q54 0 98.5 20.5t153.5 102.5q5 3 11.5 6t7.5 4q1 -1 2 -3t2 -3l-14 -14q-130 -105 -188.5 -136.5 t-121.5 -31.5q-35 0 -75 37q-39 33 -39 68q0 8 2 16q36 157 219 399q8 11 8 27q0 28 -31 28q-19 0 -41 -14q-113 -61 -319 -258q-175 -168 -264 -277q-1 2 -4 1.5t-8 -5t-11 -12.5q-3 -10 -10 -10q-17 0 -17 32zM385 969q0 -35 45 -41q52 -8 70 -8q48 78 149 235 q-161 -47 -248 -147q-16 -16 -16 -39zM563 915q141 -6 152 -6q341 0 698 84q462 108 862 340q426 248 426 520q0 175 -172 295q-177 123 -401 123q-152 0 -291 -59q-679 -282 -1274 -1297z" />
<glyph unicode="i" horiz-adv-x="372" d="M149 298q54 130 110 243t58 123q5 31 36 38q32 7 49 -18q8 -12 8 -27q0 -20 -13 -45q-181 -341 -186 -357q-7 -20 -41 -91q-19 -39 -24 -66.5t2 -40.5t22.5 -18.5t31.5 -4.5t34 5q72 18 130.5 53t118.5 92q33 33 35.5 17t-22.5 -41q-57 -57 -112.5 -97t-137.5 -77 q-9 -4 -20 -4q-30 0 -74 26q-61 35 -60 99q0 59 55 191zM354 817q0 29 47 76q46 49 76 55q22 5 41.5 -12.5t13.5 -36.5q-6 -35 -57 -80q-40 -38 -68 -38q-4 0 -8 1q-45 9 -45 35z" />
<glyph unicode="j" horiz-adv-x="307" d="M-2132 -1194q2 72 31 139q50 116 170 229.5t274.5 205t347.5 178t379.5 151.5t380 121.5t339.5 91.5t267 58q45 104 111 334q55 192 55 233q0 8 -2 10q3 21 28.5 44t47.5 30q23 6 37 -2t12 -27q-3 -24 -22 -49q-19 -48 -88.5 -261t-100.5 -300q199 35 419 50q95 6 170 6 q97 0 159 -11q59 -12 107 -77q28 -39 28 -75q0 -24 -12 -47q-12 -22 -30.5 -43t-26.5 -29t-40.5 -34t-36.5 -29q-11 -8 -19 -12.5t-11 -4t-3 4t5 10.5t14 16q40 37 71.5 82.5t43.5 83.5q7 20 7 38q0 27 -17 45q-27 31 -84 36q-47 6 -134 6t-215 -6q-254 -13 -409 -47 q-40 -116 -81.5 -224t-101 -245t-120.5 -258t-140.5 -253t-161.5 -241t-182.5 -211t-204.5 -173.5t-226 -118t-249 -54.5q-21 -1 -42 -1q-62 0 -126 11q-86 15 -163.5 46t-148 77.5t-127 102t-98 121t-63.5 132.5q-19 60 -19 124q0 8 1 16zM-2076 -1232q-1 -4 -1 -9 q0 -57 17 -112q19 -59 55 -116t86 -105.5t114.5 -89.5t136 -69t153.5 -42q68 -12 136 -12q14 0 29 1q125 5 247.5 56t226.5 132.5t205 194t182.5 232t159 256.5t134.5 257t108.5 243.5t81.5 206.5t54 155q-267 -55 -529 -129.5t-523.5 -176t-471.5 -215t-365.5 -253 t-211.5 -283.5q-23 -59 -24 -122zM264 793q0 28 47 75q47 50 76 56q21 5 40.5 -13.5t12.5 -36.5q-6 -33 -55 -79q-43 -38 -69 -38q-5 0 -9 1q-43 9 -43 35z" />
<glyph unicode="k" horiz-adv-x="700" d="M18 -18q0 10 2 16q132 329 166 393q-8 25 -8 45q0 22 8 36q16 30 47 24q166 281 199 335h-8q-26 4 -59 9q-27 6 -50.5 37t-23.5 59q0 23 14 37q97 103 301 151q566 850 1161 1059q162 55 318 55q267 0 440 -145q166 -141 166 -344q0 -151 -104 -285q-112 -151 -338 -256 q-824 -387 -1622 -387q-80 0 -119 2q-5 -2 -17.5 -6t-17.5 -6q-53 -107 -184 -322q389 281 528 281q60 0 66 -47q0 -42 -27 -100q-50 -103 -223 -181q-157 -71 -307 -71q128 -222 354 -430q254 -237 457 -297q37 -11 63 -11q140 0 189 111q7 14 14 10q1 -1 1.5 -3.5t1 -6.5 t1.5 -6q-38 -90 -111 -137q-3 -2 -15 -2q-24 0 -85 8q-25 3 -46.5 7.5t-38.5 10t-21 6.5q-371 101 -861 707q-62 -99 -178 -379q-3 -10 -12 -10q-11 0 -21 33zM291 453q8 -28 28 -62q6 -2 27 -2q72 0 160 29q105 32 153 69q97 74 97 159v5q-3 50 -53 50q-8 0 -17 -1 q-69 -10 -219 -110q-121 -78 -176 -137zM330 913q0 -30 45 -39q65 -10 69 -10q29 47 81.5 130t68.5 108q-165 -51 -248 -150q-16 -13 -16 -39zM508 860q94 -4 151 -4q351 0 699 82q469 112 862 340q426 245 426 522q0 175 -172 295q-174 121 -399 121q-154 0 -293 -59 q-679 -282 -1274 -1297z" />
<glyph unicode="l" horiz-adv-x="403" d="M147 182q-1 13 -1 26q0 185 106 431v6q760 1722 1626 1774q25 2 49 2q266 0 475 -180q211 -177 212 -394q0 -22 -3 -45q-6 -74 -45 -151q-193 -368 -1046 -693q-596 -225 -1205 -340q-78 -220 -84 -391q0 -5 -1 -9q0 -56 12 -95q12 -42 35 -60.5t53 -23.5q10 -2 20 -2 q20 0 44 7q36 10 70 27t68 42q25 17 31.5 15.5t1 -13.5t-15.5 -21q-71 -64 -142 -94q-57 -24 -104 -23q-11 -1 -23 1q-56 8 -93 60t-40 144zM326 649q748 153 1331 408q699 307 866 649q29 62 35 131q3 22 3 44q0 187 -185 339q-194 163 -461 163q-18 0 -37 -1 q-487 -18 -1006 -742q-304 -425 -530 -950h2q-16 -38 -18 -41z" />
<glyph unicode="m" horiz-adv-x="1148" d="M-8 10q-3 16 0 27q1 5 22 47q52 98 179 278q119 171 186 238q13 12 36 20.5t31 2.5q9 -6 -8 -19q-14 -9 -84 -92q-79 -91 -141 -203q-26 -47 -4 -47q10 0 22 12q124 127 299 236q104 65 162 65q14 0 25 -4q20 -6 20 -30q0 -33 -92 -215q-12 -18 -12 -35q0 -23 18 -23 q13 0 21 8q280 253 495 357q12 6 23 6q19 0 25 -10t2 -33q-6 -6 -19.5 -22t-19.5 -23q-79 -178 -222 -410q-20 -33 -20 -49t14 -16q5 0 37 12q151 70 379 141q324 101 532 113q24 1 46 1q150 0 241 -52q113 -66 113 -162q0 -29 -8 -53q-13 -42 -52 -56q-17 -10 -26 -10 q-8 0 -8 6q0 4 6.5 9.5t19 21.5t23.5 41q14 35 14 57q0 71 -74 121q-77 53 -215 53q-21 0 -71 -4q-300 -30 -598 -137q-315 -112 -523 -270q-9 -6 -18 -6q-25 0 -25 22q0 8 7 15l49 49q-7 20 2 49q166 204 239 395q15 30 15 55q0 35 -29 35q-17 0 -41 -18 q-307 -246 -393 -369q-10 -16 -49 -29q-13 -6 -30 -13t-26 -11t-14 -8q-12 -6 -25.5 8.5t-5.5 23.5q126 183 174 334q9 21 9 39q0 37 -31 37q-9 0 -27 -6q-39 -17 -147 -109q-123 -102 -205 -196q-38 -40 -115 -152q-6 -9 -49 -26q-28 -10 -51 -25q-3 -2 -4.5 0t-3.5 8z" />
<glyph unicode="n" horiz-adv-x="698" d="M0 57q-8 8 4 33q47 99 160 272q100 152 188 261q14 21 51 26q12 3 15 0q0 -8 -6 -14q-151 -176 -232 -361q-8 -11 -8 -26q0 -23 16 -23q13 0 25 15q91 88 248 217q153 123 207 143q30 26 51 33q28 13 49 13q13 0 23 -5q27 -9 -3 -47q-147 -187 -262 -430 q-107 -232 -120 -385q-1 -12 0 -23q0 -82 38 -123q42 -45 113 -45q29 0 59 9q117 34 293 182q195 168 195 266q0 25 -15.5 34.5t-31 10.5t-15.5 6q0 11 17.5 20t32.5 9q34 0 34 -47q0 -23 -12 -60q-35 -113 -184 -262q-198 -195 -426 -219q-12 -1 -23 -1q-66 0 -112 46 q-48 53 -48 158q0 17 1 35q12 138 129 370q102 203 211 351q6 9 6 20q0 33 -37 33q-16 0 -33 -10q-220 -156 -469 -445q-21 -27 -104 -45q-22 -3 -25 8z" />
<glyph unicode="o" horiz-adv-x="724" d="M39 39q3 170 274 502q7 14 -4 18q-55 31 -55 49v6t2.5 6.5t8 8t18 5t30.5 3.5q58 2 73 2h5q10 0 23 8q45 42 90 45h3q27 0 89 -37q1 -1 6 -4t8 -4q18 -1 109.5 -3.5t157.5 -4.5q30 0 30 -8q0 -13 -30 -13q-64 0 -82 -24q-3 -6 0 -12q1 -3 2.5 -8t2.5 -8.5t1 -6.5 q-12 -156 -250 -360q-246 -211 -420 -234q-5 -1 -10 -1q-25 0 -51 20q-31 24 -31 55zM90 29q0 -39 43 -39q10 0 23 2q138 21 333 201q206 185 236 331q7 32 -13 49.5t-65 22.5q-25 3 -50 3q-64 0 -122 -21q-4 2 -35 -19q-218 -203 -338 -485q-12 -21 -12 -45z" />
<glyph unicode="p" horiz-adv-x="804" d="M-1933 -1331q0 368 325 647q337 294 834 428q383 101 698 104q13 24 55.5 111t79.5 152q32 56 90 164.5t84 154.5q-35 32 -35 55q0 4 1 7q12 34 108 73q17 27 55.5 87t120.5 184q11 16 74 41q27 9 27 -7q0 -4 -2.5 -6t-9 -8t-13.5 -16q-31 -44 -43.5 -64t-18.5 -31 t-27.5 -49.5t-53.5 -93.5q160 62 268 62q147 0 147 -136q0 -106 -94 -237q247 64 287 67q8 3 14 0q3 -3 0 -6q-5 -5 -14 -8q-158 -44 -352 -111q-178 -164 -436 -190q-5 -1 -10 -1q-33 0 -33 40q0 12 8 20q46 30 444 162q105 120 105 248q0 111 -123 111q-88 0 -246 -82 q-30 -51 -80.5 -127.5t-93 -141t-106 -178t-126.5 -246.5q84 0 121 -6q60 -9 96.5 -52.5t36.5 -98.5q0 -25 -10 -45q-26 -51 -133 -135q-20 -17 -31 -17q-4 0 -4 2q0 12 21 27q121 112 121 203q0 78 -93 86q-21 4 -40 5.5t-30 1.5t-32.5 -0.5t-32.5 -0.5q-13 -28 -34.5 -84 t-30.5 -78q-493 -1225 -1030 -1520q-138 -75 -281 -75q-224 0 -371 178q-151 179 -151 430zM-1909 -1376q0 -213 158 -371q147 -147 354 -147q134 0 248 63q229 124 469 473q196 282 348 621q70 154 180 401q7 16 29 68t37 86q-299 -3 -637 -103q-477 -143 -813 -430 q-373 -323 -373 -661z" />
<glyph unicode="q" horiz-adv-x="768" d="M-234 -1169q155 472 691 1263q8 12 56 80.5t84 121t38 56.5q8 8 8 21q0 14 -16 14q-22 0 -37 -18q-202 -199 -379 -312q-67 -43 -121 -43q-90 0 -90 95q0 20 6 41q76 225 350 430q220 163 373 206q91 27 137 27q39 0 70 -16q23 4 39 4q29 0 29 -15q0 -8 -13 -24 q-191 -216 -303 -395q-56 -91 -162.5 -255.5t-183.5 -286t-167 -273.5t-162.5 -296t-121.5 -274q-107 -274 -107 -447q0 -55 11 -100q45 -185 283 -194h29q274 0 647 162q124 54 268 137q-146 -106 -254 -156q-396 -180 -710 -180h-23q-330 7 -330 311q0 130 61 316zM98 135 q0 -51 45 -51q93 0 346 223q196 173 310 307q28 31 28 68q0 34 -19.5 53.5t-47.5 14.5q-179 -35 -406 -234q-256 -221 -256 -381z" />
<glyph unicode="r" horiz-adv-x="561" d="M-31 -27q-3 10 2 21q204 314 271 473q12 30 12 51q0 5 -6 23q-3 8 0 14q22 8 153 86q2 4 9 4q13 0 16 -10q8 -13 -2 -23q-135 -183 -180 -268q-6 -12 -6 -20q0 -10 22 -2q20 8 25 16q80 96 207 199q131 107 204 137h21q49 0 74 -12q2 -2 2 -5q0 -14 -24.5 -37t-35.5 -16 q-14 6 -31 6q-34 0 -79 -24q-303 -167 -541 -557q0 -7 -16 -15q-41 -16 -84 -41q-10 -13 -13 0z" />
<glyph unicode="s" horiz-adv-x="667" d="M4 -49q34 43 277 211l-66 88q-43 58 -49 110q-1 8 -1 16q0 129 279 294q288 170 515 170h8q12 0 22 -13q9 -17 0 -26q-14 -21 -46.5 -41.5t-45.5 -16.5q-88 29 -135 29q-21 0 -45 -4q-118 -28 -271 -137q-181 -124 -181 -219q0 -7 1 -15q5 -42 45 -104q43 -63 70 -76 q278 156 631 217l2 -2q-279 -54 -608 -244q49 -66 49 -96q0 -56 -136 -115q-114 -51 -186 -51q-25 0 -43 6q-52 -9 -68 -9q-4 0 -6 1q-27 3 -12 27zM109 -29q-16 -19 8 -22q8 -2 19 -2q38 0 106 24q88 32 106 58q8 11 8 22q0 32 -47 76q-31 -19 -100 -70q-87 -64 -100 -86z " />
<glyph unicode="t" horiz-adv-x="317" d="M-172 -719q0 292 235 828q194 446 418 770q25 28 25 61q0 38 -37 57q-60 24 -60 51q0 6 3 13q12 24 213 24q4 0 3 3t-3.5 7.5t0.5 8.5q31 49 70.5 104t72 97t86.5 107t83 99t94.5 110t90.5 105q13 15 115 54q18 6 40.5 14.5t31.5 12t21 6t24 2.5q22 0 22 -19 q0 -8 -20 -14q-194 -41 -637 -649q-14 -20 -14 -31q0 -17 28 -17h297q70 0 132 -0.5t97 -1t41 -0.5q19 0 25 -6q0 -6 -12.5 -23t-28.5 -18q-81 -3 -285 -14.5t-325 -17.5q-34 -6 -51 -33q-128 -190 -219.5 -341t-174.5 -319q-287 -584 -321 -960q-2 -35 -2 -99 q0 -356 252 -356q77 0 159 27q249 77 514 358q262 277 297 498q0 95 -34 138q-27 34 -77 34q-12 0 -26 -2q-23 -3 -52 -18t-34 -15q-9 0 -13.5 5t-2.5 13q9 17 29 30t73 34q8 2 25 2q66 0 125 -88q58 -87 58 -131q0 -4 -1 -8q-37 -268 -391 -588q-359 -324 -625 -324 q-156 0 -270 123q-50 55 -67 126t-17 171z" />
<glyph unicode="u" horiz-adv-x="921" d="M70 104q5 68 49 168.5t106 199t118.5 178.5t100.5 132q20 22 50 19q28 -3 22 -27q-4 -13 -16 -29q-102 -127 -204.5 -296t-131.5 -271q-12 -39 -12 -66q0 -28 13 -41q11 -12 29 -12q20 0 48 17q74 44 170 130t174 168t168 174.5t141 137.5q15 13 27 13q16 0 28 -23 q16 -32 7 -61q-1 -4 -3 -7q-66 -99 -135.5 -240t-81.5 -218q-7 -44 2 -63t26.5 -16.5t36.5 6.5q3 1 5 1q8 3 55.5 34t97.5 65t54 36q32 22 36 5q1 -16 -22 -40q-23 -23 -122 -91t-124 -77q-5 -1 -10 -1q-24 0 -54 29q-38 36 -38 75q0 19 3 41.5t6 39.5t11.5 44t12.5 40 t16 43t15 38t17 40t15 35q14 35 0 50.5t-49 -17.5q-93 -92 -183 -177t-202.5 -181t-151.5 -109q-18 -6 -35 -6q-31 0 -53 22q-32 31 -32 80v8z" />
<glyph unicode="v" horiz-adv-x="630" d="M37 74q52 229 305 577q5 8 20 8q33 0 33 -26q0 -2 -2.5 -7.5t-3.5 -7.5q-185 -293 -231 -458q-6 -24 -6 -43q0 -45 30 -45q20 0 51 24q74 61 240 283q10 13 205 283q3 5 7 19t10.5 38t13.5 45q66 49 84 59q6 3 19.5 -5.5t23.5 -20t6 -15.5q-56 -79 -56 -119q0 -27 27 -47 q6 -3 6 -10q0 -20 -28 -14q-48 13 -66 31q-7 7 -25 -17q-73 -110 -198 -258q-140 -167 -254 -266q-51 -45 -88 -45q-9 -6 -25 -12q-14 -5 -39 -2q-25 2 -45 19t-14 32z" />
<glyph unicode="w" horiz-adv-x="1079" d="M16 70q14 86 162 307q142 209 152 250q3 14 26 14q31 0 31 -25q0 -10 -6 -22q-10 -23 -141 -227q-99 -158 -125 -236q-4 -12 -4 -20q0 -29 22 -29q15 0 23 8q82 60 243 250q130 156 183 240q12 29 59 104q14 14 66 14q9 -2 12 -4t2 -8q-38 -59 -84 -211 q-49 -165 -49 -289q0 -37 2 -53q8 -87 65 -87q11 0 23 3q108 23 221 168q108 141 117 297q-24 6 -42.5 26.5t-15.5 32.5q2 14 21 28.5t37 14.5q33 0 67 -75q24 -9 80 -9q11 0 11 -8q0 -6 -11 -10q-40 -12 -67 -12q-34 -183 -189 -338q-151 -151 -321 -166q-22 -2 -51 23 t-43 65q-5 15 -5 35q0 169 52 321q6 14 -4 17q-11 5 -21 -8q-202 -277 -334 -385q-61 -53 -102 -53q-4 0 -8 1q-12 0 -33.5 21.5t-20.5 34.5z" />
<glyph unicode="x" horiz-adv-x="624" d="M-365 -507q-1 10 -1 19q0 50 21 100q25 60 60.5 113.5t89.5 118.5q141 169 463 437q-15 63 -33 169.5t-24 167.5q-1 24 17 39q19 14 26 -9q1 -4 2 -9q2 -12 14 -95.5t22 -137.5t21 -89q95 75 265.5 195t242.5 158q18 9 31.5 -2.5t11.5 -30.5t-22 -27q-25 -11 -58 -30 t-77.5 -48.5t-78 -52t-88.5 -62.5t-78 -56.5t-77 -56.5t-57 -42q16 -80 61 -204t84 -173q15 -19 15.5 -29t-11 -6t-24.5 19q-37 39 -89 156t-79 204q-94 -66 -216.5 -176.5t-230.5 -232.5q-29 -33 -54 -65t-55 -81q-29 -48 -45 -92q-15 -42 -16 -90q0 -52 25 -92 q47 -73 125 -90q16 -6 9 -15q-6 -8 -20 -2q-31 6 -69 32t-62 59q-36 51 -41 109z" />
<glyph unicode="y" horiz-adv-x="759" d="M-1645 -1188q0 78 31 154q158 366 983 692q575 224 1176 342q26 71 69 250q32 129 39 192q-98 -85 -250 -188q-195 -131 -313 -178q-12 -4 -18 -4q-18 0 -31 14.5t-8 28.5q12 42 186 356q3 5 1.5 35t2.5 39q10 16 78 45q77 33 90 35q30 3 33 -33q-40 -17 -143 -160 q-82 -121 -123 -201q-6 -15 -6 -26q0 -21 16 -27q20 -7 37 0q104 41 266 154q145 101 193 147q9 19 23.5 32.5t27.5 14.5q32 1 51 -16.5t14 -38.5q-18 -21 -32 -51q-37 -136 -130 -412q314 58 596 58q76 0 156 -13q47 -10 90 -54.5t43 -94.5q0 -27 -12 -45 q-26 -51 -133 -135q-17 -17 -29 -17q-4 0 -4 2q0 12 21 27q120 114 120 203q0 72 -100 81q-98 5 -152 5q-367 0 -606 -50q-604 -1721 -1464 -1777q-25 -2 -49 -2q-268 0 -492 180q-248 195 -248 436zM-1589 -1221q0 -215 217 -383q210 -162 475 -162q18 0 37 1 q495 18 942 739q278 449 455 991q-739 -151 -1297 -407q-668 -307 -803 -648q-26 -70 -26 -131z" />
<glyph unicode="z" horiz-adv-x="489" d="M-1849 -1061q0 79 30 152q157 364 983 692q166 65 344.5 119t451.5 124t362 95l22 6q-10 30 -42 42q-20 8 -40 8q-12 0 -24 -3q-12 -5 -17 10q-6 15 8 31q46 46 125.5 182t96.5 213q4 19 4 34q-1 19 -7 33q-12 24 -34 21q-62 -21 -191 -194q-17 -23 -18 -4q-1 15 8 30 q20 29 43 59t59 72.5t72.5 71.5t63.5 35q3 1 7 1q24 0 48 -39q22 -37 22 -73v-14q-4 -41 -32.5 -101t-55 -101t-69 -101.5t-47.5 -67.5q-4 -3 -5.5 -10.5t1.5 -14t10 -5.5q32 -21 43 -29.5t24 -26.5q9 -12 15 -43q260 47 598 47q93 0 155 -10q47 -10 90 -55.5t43 -95.5 q0 -17 -12 -45q-27 -53 -133 -136q-16 -16 -29 -16q-4 0 -4 2q0 11 21 29q121 112 121 203q0 70 -101 79q-97 5 -151 5q-381 0 -607 -50q-605 -1725 -1464 -1777q-25 -2 -49 -2q-267 0 -492 180q-247 194 -247 438zM-1794 -1096q0 -215 217 -383q211 -161 483 -162 q14 0 29 1q490 18 940 741q278 450 457 991q-739 -154 -1297 -407q-672 -309 -804 -650q-25 -67 -25 -131z" />
<glyph unicode="{" horiz-adv-x="1046" d="M205 659l4 13q41 8 75 20.5t61 26t50.5 36.5t40.5 43t33.5 55.5t28 63.5t25.5 77t23.5 87t24.5 101q39 169 77 261t114 163q46 45 99 67t87 25t82 0l-12 -58q-63 1 -112 -13t-87.5 -57.5t-63 -76t-52 -115.5t-39 -124.5t-39.5 -151.5q-5 -18 -7 -27q-22 -88 -39.5 -143 t-42.5 -107t-56.5 -82t-75.5 -52t-105 -34q24 -10 40 -17.5t41.5 -27.5t40 -44.5t24 -67t6.5 -94.5q1 12 -6 -15q-40 -146 -88 -400q-20 -108 -23 -149q-3 -58 6.5 -101.5t30.5 -72t42 -47.5t49 -40.5t42 -37.5q-116 14 -174 78q-80 92 -68 244l117 561q8 96 -34 145 t-140 88z" />
<glyph unicode="|" horiz-adv-x="237" d="M49 63q2 25 11.5 135t16.5 198t12 218t3 236q-2 93 -7.5 267.5t-7 236t0.5 176.5q2 30 32 44t58 -1t25 -55q-1 -17 -10.5 -133.5t-16 -201.5t-12 -216t-4.5 -238q0 -71 5.5 -197t6.5 -170v-26q3 -180 0 -285q-1 -30 -30.5 -44t-57.5 1t-25 55z" />
<glyph unicode="}" horiz-adv-x="862" d="M20 -455l11 58q63 -1 112.5 16t85.5 51.5t64 81t50 108.5t41 129.5t39 148.5q4 20 7 30q27 110 49.5 174t58.5 118.5t86 82.5t126 43q-24 10 -39.5 17.5t-41 28t-40 44.5t-24 65.5t-5.5 92.5q3 1 30 118.5t55 257.5t32 191q4 71 -14.5 123.5t-42 75.5t-62 53.5 t-53.5 48.5q33 -6 51 -9.5t57.5 -22.5t65.5 -48q79 -87 67 -244l-114 -561q-10 -96 32.5 -145t141.5 -88l-6 -13q-46 -9 -82.5 -22t-67 -34t-52.5 -41t-42.5 -56.5t-34 -65.5t-29.5 -83t-26.5 -94.5t-28.5 -113.5q-17 -73 -26.5 -110t-26.5 -90.5t-33.5 -86t-42.5 -69.5 t-59 -67q-35 -34 -72 -55t-75 -28.5t-62 -9t-60 -0.5z" />
<glyph unicode="~" horiz-adv-x="702" d="M33 555q0 9 18 41q105 147 166 147q24 0 131 -63q92 -55 146 -55q85 0 131 55q17 20 30 20q9 0 9 -6q0 -11 -15 -41q-102 -133 -155 -133q-34 0 -138 58q-109 61 -139 61q-59 0 -121 -47l-59 -45q-4 0 -4 8z" />
<glyph unicode="&#xa1;" horiz-adv-x="350" d="M-233 -350q-9 52 4 74q3 7 29.5 10.5t29.5 9.5q61 98 180 330q136 263 217 413q9 15 21 15q18 0 18 -23q0 -8 -2 -12q-254 -506 -379 -842q-6 -18 -42.5 -27.5t-59.5 -3.5q-13 3 -16 56zM307 739q0 12 31 26.5t57 14.5q14 0 17 -8q10 -10 16 -59q9 -53 0 -62 q-6 -12 -39 -27.5t-53 -15.5q-8 0 -12 4q-17 20 -17 127z" />
<glyph unicode="&#xa2;" horiz-adv-x="808" d="M117 248q20 168 198 358q169 175 359 250l6 6q74 94 115 152q4 4 20 12q8 0 12 -8q-1 2 -13 -14q-16 -20 -91 -123q-12 -15 0 -9q58 27 100 21q11 0 27.5 -11t13.5 -18q-2 -12 -14 -35q-17 -23 -35 -20q-59 18 -113 18q-22 0 -38 -4q-139 -61 -275 -221 q-127 -154 -170 -311q-8 -36 -8 -49q0 -89 96 -74q152 26 344 174q9 6 17 6t8 -8q0 -15 -14 -23q-235 -192 -410 -192q-12 0 -14 -4q-49 -79 -62 -101q-11 -16 -37 -10q-27 6 -14 19q16 31 68 108q5 8 -5 13q-26 11 -50 43.5t-21 54.5z" />
<glyph unicode="&#xa3;" horiz-adv-x="1429" d="M39 98q-17 45 0.5 91.5t57.5 73.5t83 22q20 -2 40 -7.5t43 -16.5t40.5 -20t45.5 -27t43 -28t49 -33.5t48 -33.5q23 -11 30 -9t22 17q48 44 116.5 171.5t124.5 289.5q0 14 -12 16q-65 6 -90 4q-10 0 -18 -5.5t-11 -6.5q-56 -8 -81 19q-20 20 5 36q8 5 21 8q33 7 195 -6 q10 0 13.5 3t6.5 12q71 194 143 323t157.5 202t178.5 69q14 -1 26 -3t28.5 -6.5t24.5 -13t14 -21.5t-3 -32q-4 -10 -12 11q-2 3 -4 9q-5 12 -6 13q-90 55 -231.5 -100t-268.5 -457q-8 -17 6 -17q250 -39 318 -61q18 -3 13 -15q-5 -11 -21 -10q-208 24 -334 35q-17 0 -17 -8 q-124 -379 -235 -490q-17 -18 -17.5 -28t13.5 -19q23 -16 70.5 -51.5t87.5 -65.5t97.5 -66.5t107 -61t109 -41t110.5 -15t104.5 25t97.5 72.5q12 18 20.5 9t-4.5 -27q-42 -56 -119 -83.5t-155.5 -24t-142.5 29.5q-93 39 -215 115.5t-207 150.5q-17 15 -35 2 q-72 -69 -150 -90t-141 0.5t-111 66.5t-69 103zM57 154q3 -64 61 -125q77 -80 176 -72q84 7 163 82q15 15 14 21t-16 14q-116 76 -174 108t-98.5 41t-73.5 0q-55 -9 -52 -69z" />
<glyph unicode="&#xa4;" horiz-adv-x="1280" d="M-106 492q0 57 145 110q19 0 104 -37v-2q14 23 41.5 65t38.5 60q-65 21 -73 21q-41 0 -97 -29l-47 -27q-2 0 -2 4q0 57 146 111q23 0 104 -35q153 205 352 363q136 107 233.5 151.5t213.5 55.5q69 7 114.5 -33t58.5 -107t6.5 -143.5t-37.5 -150.5t-77 -121q16 45 23.5 66 t20.5 62t18.5 68.5t10.5 64t4 70.5t-7 68q-24 68 -59.5 94.5t-96.5 26.5q-132 0 -274 -98.5t-305 -274.5q-91 -100 -150 -182q36 -15 64 -15q69 0 104 35q13 10 23 10q14 0 -5 -26q-83 -80 -122 -80q-21 0 -97 29q-42 -64 -71 -123q34 -11 57 -11q71 0 104 33q13 13 23 13 q6 0 7.5 -3t-1 -8t-5 -8t-5.5 -8q-80 -80 -123 -80q-23 0 -82 23q-53 -104 -76 -220q-10 -55 -10 -98q0 -164 103 -256.5t272 -87.5q195 6 442 137q348 186 307 150q-33 -28 -311 -195q-237 -143 -438 -137q-184 6 -299 107q-125 108 -125 307q0 147 80 315q-58 25 -80 25 q-43 0 -96 -27l-47 -27q-2 0 -2 5z" />
<glyph unicode="&#xa5;" horiz-adv-x="874" d="M-174 51q0 33 41 33h276q72 83 111 131q-6 57 -10 182q-55 -2 -191 -2q-16 0 -16 15q0 34 31 34h174q-1 103 3 227.5t9 211t11 174.5t7 102q3 45 44 69q37 22 60 1q19 -18 11 -62q-25 -139 -49.5 -432.5t-13.5 -447.5q536 582 925 923q33 28 72 18q30 -8 25 -30 q-2 -13 -19 -27q-145 -123 -358 -320.5t-420 -406.5h153q19 0 19 -16q0 -31 -25 -31q-55 -2 -192 -2h-4q-13 -14 -103 -110q-148 -165 -178 -201h230q24 0 24 -23q0 -36 -33 -36h-272q-189 -227 -274 -371q-30 -51 -48 -48q-17 3 -2 44l6 14q58 129 246 361h-243 q-12 0 -19.5 7.5t-7.5 18.5z" />
<glyph unicode="&#xa6;" horiz-adv-x="309" d="M51 1511q1 30 30.5 44t57.5 -0.5t25 -53.5q-1 -9 -7 -91.5t-9 -129t-9 -144.5t-9 -166.5t-6 -165t-2.5 -169.5t3.5 -150.5t10 -136.5q6 -52 -9 -58q-7 -3 -14 14q-6 14 -8 36q-29 270 -44 630.5t-9 540.5zM150 66q1 9 6 79.5t7.5 110.5t8 123.5t8 144t6.5 145t4.5 153 t0.5 142t-3.5 137.5t-9.5 116t9 58q7 4 14 -14q6 -13 8 -36q29 -268 44 -630t9 -542q-1 -29 -30 -43t-57 1t-25 55z" />
<glyph unicode="&#xa7;" horiz-adv-x="905" d="M27 -242q-12 74 88 121q160 77 420 98q-21 23 -106.5 116.5t-141.5 154.5q-89 95 -101 170q-6 29 0 57q-3 66 90 109q156 70 287 84q15 1 60.5 6.5t72.5 7.5q-140 156 -247 270q-91 97 -103 170q-15 80 64 138q159 116 403 116q93 0 154 -18q44 -13 86 -55 q40 -46 49 -101q6 -34 0 -72q-2 -4 -3.5 -9t-2.5 -7q-6 -6 -9 0q-1 3 -1.5 25t-2.5 37q-8 58 -53 106q-41 41 -92 53q-71 19 -152 19q-227 0 -356 -111q-61 -49 -49 -125q8 -50 84 -149q45 -45 274 -285q78 4 79 -5q2 -7 -44 -7q-9 -1 -18 0q0 -2 2 -4q10 -10 12 -21 q32 -45 39 -92q21 -125 -100 -180q-111 -49 -232 -49q-90 0 -166 26q-59 14 -90 49q14 -67 82 -137q22 -23 114 -117t161 -167h260q14 0 14 -5q0 -6 -45 -6q-27 -4 -215 -4q42 -53 55 -117q21 -125 -100 -180q-106 -47 -232 -47q-81 0 -165 25q-108 33 -123 112zM51 -256 q11 -32 43 -55q33 -22 58 -27q65 -16 145 -16q123 0 227 55q100 54 84 147q-9 62 -63 113q-107 -14 -183 -31q-126 -25 -225 -80q-94 -54 -86 -106zM215 490q-22 -49 64 -88q96 -43 231 -40q117 3 182 46q55 36 77.5 68.5t14.5 80.5q-1 33 -22.5 57t-54.5 33q-33 7 -76 -2 q-377 -66 -416 -155z" />
<glyph unicode="&#xa8;" horiz-adv-x="608" d="M78 899q0 29 47 76q46 49 76 55q22 5 41.5 -12.5t13.5 -36.5q-6 -35 -57 -80q-46 -43 -76 -37q-45 9 -45 35zM365 879q0 28 47 75q47 50 75 56q22 5 42 -12.5t14 -36.5q-6 -34 -58 -80q-46 -43 -75 -37q-45 9 -45 35z" />
<glyph unicode="&#xa9;" horiz-adv-x="1509" d="M229 637q-12 136 31 265.5t126 227.5t203.5 162.5t256.5 75.5q137 12 266 -31t226.5 -126t162 -203.5t76.5 -257.5q11 -136 -32 -264.5t-125.5 -226t-202.5 -161.5t-256 -75q-182 -16 -345.5 61t-267.5 224.5t-119 328.5zM276 645q15 -170 111.5 -307.5t248 -209.5 t320.5 -58q170 14 307.5 110.5t209 247.5t57.5 320q-15 170 -111 307.5t-247 209.5t-320 58q-127 -11 -239.5 -70.5t-189.5 -150t-117.5 -210.5t-29.5 -247zM428 453q12 102 91.5 225.5t184.5 224.5t216 177.5t188 97.5q56 17 95.5 -14.5t31.5 -76.5q-3 -16 -7 -31 t-11.5 -31.5t-10.5 -24t-13 -26t-11 -20.5q-25 -43 -40 -37.5t-12 50.5q1 8 3 26.5t3 31t1 29.5t-4.5 27t-12.5 18t-23.5 7.5t-37.5 -8.5q-105 -42 -225.5 -151t-206.5 -230.5t-111 -208.5q-29 -103 3 -155t128 -42q161 17 362.5 114t295.5 193q24 24 32 16q11 -10 -24 -46 q-75 -76 -291.5 -194.5t-370.5 -145.5q-51 -8 -105.5 18.5t-89.5 78t-28 108.5z" />
<glyph unicode="&#xaa;" horiz-adv-x="573" d="M307 780q0 83 137 199q129 114 226 143q16 6 49 6q36 0 61 -10h23q23 8 33 15q1 0 3.5 1t4.5 1q4 0 7 -4.5t3 -8.5q-17 -24 -66 -90t-73 -102q-96 -143 -123 -283q-2 -6 -2 -18q0 -74 98 -74q42 0 88 12q53 12 172 95q110 79 160 139q10 10 16 10l2 -2q0 -5 -6 -14 q-69 -88 -164 -154q-106 -74 -172 -94q-38 -10 -71 -10q-59 0 -101 26q-42 29 -39 84q6 89 72 221q54 102 84 138q6 12 -4 12l-2 -2q-77 -77 -168 -144q-104 -77 -186 -120q-18 -9 -31 -9q-31 0 -31 37zM381 819q0 -26 22 -26q12 0 21 6q132 72 311 260q4 4 4 8 q0 13 -16.5 23t-42.5 10q-17 0 -27 -6q-60 -15 -147 -99q-86 -86 -119 -151q-6 -12 -6 -25z" />
<glyph unicode="&#xab;" horiz-adv-x="684" d="M39 338q22 45 309 225q19 10 27 2q6 -6 -8 -20q-220 -178 -250 -236q-16 -40 8 -250q3 -22 -12 -22q-9 0 -15 16q-71 268 -59 285zM322 338q25 45 309 223q17 10 24 4q6 -10 -4 -20q-218 -173 -250 -236q-17 -36 7 -250q3 -22 -11 -22q-11 0 -14 16q-70 266 -61 285z" />
<glyph unicode="&#xac;" horiz-adv-x="2160" d="M46.5 652.5q2.5 6.5 31.5 11.5q38 0 124 10t204.5 25t185.5 22q42 4 150.5 15.5t161 16.5t154 14.5t160 14t144.5 10.5t142.5 7.5t120.5 1.5t111 -4t83 -11q41 -8 87 -27.5t92.5 -50.5t76.5 -70.5t38.5 -89t-22.5 -104.5q-20 -37 -36.5 -59t-28 -33t-40.5 -36.5 t-57 -53.5q-20 -5 -19 4q1 10 51 71q83 103 95 161q18 38 14 69.5t-15 55.5t-36.5 42.5t-50.5 31.5t-58 22t-58.5 14t-51.5 8q-349 37 -1163 -96q-57 -9 -193 -32t-219.5 -36t-122.5 -16l-8 2q21 19 15 33t-20.5 24.5t-29.5 18t-12.5 14z" />
<glyph unicode="&#xad;" horiz-adv-x="468" d="M41 539q0 34 65 34h289q35 0 35 -18q0 -16 -14 -25.5t-39 -9.5h-301q-35 0 -35 19z" />
<glyph unicode="&#xae;" horiz-adv-x="1183" d="M688 1204q-10 123 41.5 233t148.5 179.5t216 79.5q120 11 227.5 -41.5t175.5 -153t78 -223.5q9 -122 -41 -230.5t-143 -177.5q37 -27 63 -36q87 -22 123 26l-9 -12t-11.5 -12.5t-16 -11t-22 -7.5t-29.5 -3t-39 3q-26 5 -82 39q-89 -59 -199 -68q-183 -15 -324.5 107 t-156.5 309zM719 1206q14 -173 145 -286.5t303 -100.5q98 10 170 55q-54 38 -119.5 92t-140.5 120.5t-76 66.5q-73 -97 -86 -186q-4 -15 9 -35q5 -7 -1 -9q-5 -2 -10 3q-14 12 -14 45q-3 51 19 98t65 107q-12 15 0 30q7 5 25 2q37 53 97 118t103 99q16 3 21 -10.5t-4 -21.5 q-100 -87 -183 -191q64 -6 176 12t173 62q60 44 26 92q-28 48 -118 90t-199 51q-211 14 -250 -102q-20 -63 12 -125q3 -4 -0.5 -5t-5.5 1q-43 61 -27 131q18 69 89 102.5t188 24.5q101 -8 191.5 -51.5t129.5 -91.5q25 -27 20 -64t-40 -63q-56 -43 -168.5 -67t-189.5 -21 q-9 1 -10 -3t5 -12q38 -40 139.5 -127.5t178.5 -144.5q92 64 140.5 166t39.5 221q-10 114 -73.5 207t-162 142t-208.5 40q-172 -15 -283 -149.5t-96 -311.5z" />
<glyph unicode="&#xaf;" horiz-adv-x="677" d="M78 893q0 31 78 31h430q43 0 43 -17q0 -28 -62 -28q-125 -2 -450 -2q-39 0 -39 16z" />
<glyph unicode="&#xb0;" horiz-adv-x="411" d="M338 1010q0 54 38.5 90.5t92.5 36.5q56 0 94.5 -36.5t38.5 -90.5t-38.5 -91.5t-94.5 -37.5q-54 0 -92.5 37.5t-38.5 91.5zM365 1010q0 -43 30.5 -74t73.5 -31q42 0 74 31.5t32 73.5q0 41 -32 71.5t-74 30.5q-43 0 -73.5 -30.5t-30.5 -71.5z" />
<glyph unicode="&#xb1;" horiz-adv-x="856" d="M27 164q0 33 77 33h662q43 0 43 -17q0 -28 -61 -28q-125 -2 -682 -2q-39 0 -39 14zM39 758q1 1 2 0q23 -20 72 -35q134 -22 311 -25q115 210 215 344q7 10 43.5 28.5t52.5 21.5q10 3 12 -4q1 -4 -2 -5q-17 -6 -36.5 -21.5t-30.5 -31.5q-70 -89 -219 -332q188 0 301 27 q12 1 22.5 6t15.5 14t-10 21q-13 18 -32 27q-7 2 -9 5t1.5 5t11.5 2q11 -2 37.5 -21t36.5 -34q15 -16 12 -28t-11.5 -18t-19.5 -8q-117 -24 -373 -32q-87 -149 -133 -283q-12 -19 -10 -40t27 -9q19 6 43 20q10 12 10 4q0 -4 -4 -12q-9 -11 -39.5 -29t-48.5 -22 q-21 -6 -31 0.5t-8.5 19.5t4.5 25q39 117 154 326q-165 0 -291 16q-8 1 -35.5 24.5t-38.5 36.5q-10 14 -2 17z" />
<glyph unicode="&#xb2;" horiz-adv-x="489" d="M27 770q0 22 32 25q66 17 121 41q75 35 133 82q93 72 105 145q3 27 -17 57q-23 33 -61 39q-15 6 -33 6q-55 0 -114 -35q-7 -4 -7 3q0 14 17 24q70 41 149 35q56 -3 84 -39q23 -33 23 -68q0 -79 -117 -165q-105 -77 -186 -107q-13 -4 -13 -8q0 -17 205 -17q21 0 21 -10 t-17 -10q-23 2 -80 2q-117 0 -229 -8q-16 -3 -16 8z" />
<glyph unicode="&#xb3;" horiz-adv-x="509" d="M18 723q0 11 6 19t15 8t12 -17q0 -26 45 -26q62 0 142 36q95 45 122 109q7 18 7 33q0 45 -29 65q-42 34 -113 25q-4 0 -4 6q0 5 6 9.5t15 4.5q46 0 102 35q60 32 78 62q8 19 8 38q0 35 -35 35q-55 0 -119 -28q-3 0 -4 6q0 8 15 20q60 31 127 31q65 0 65 -49 q0 -17 -10 -37q-34 -56 -152 -102q-6 -3 -6 -9q0 -4 6 -4q41 -3 68 -31t27 -67q0 -26 -11 -45q-36 -71 -141 -113q-97 -41 -162 -41q-80 -3 -80 27z" />
<glyph unicode="&#xb4;" horiz-adv-x="544" d="M106 874q-7 11 3 21q17 11 151 137q127 115 135 117q34 9 45 -35q7 -20 -12 -33q-193 -127 -301 -207q-14 -7 -21 0z" />
<glyph unicode="&#xb5;" horiz-adv-x="917" d="M-188 -428q2 9 28.5 17.5t28.5 11.5q43 105 120 331t109 342q39 138 114.5 306.5t129.5 257.5q18 28 49 32q27 4 27 -20q-1 -13 -12 -33q-94 -164 -171.5 -331.5t-89.5 -266.5q-14 -48 -8.5 -78.5t22 -44t42.5 -9t53 27.5q84 71 187.5 203t211.5 287.5t152 209.5 q25 25 43.5 15.5t28 -36.5t2.5 -44q-153 -335 -196 -468q-26 -82 -26 -120q-1 -43 14.5 -58.5t40 -6t45.5 24t40 32.5q26 26 35 10q9 -17 -13 -45q-47 -63 -94 -86q-26 -13 -70 17t-47 69q-8 46 15.5 129.5t58.5 178t43 128.5q10 33 -4.5 46t-44.5 -23q-377 -507 -455 -547 q-48 -23 -80.5 -12.5t-50.5 47.5q-102 -356 -151 -570q-1 -20 -37 -35.5t-60 -9.5q-6 -2 -11 6t-8 21.5t-5.5 29t-3.5 30.5t-1.5 23.5t-0.5 10.5z" />
<glyph unicode="&#xb6;" horiz-adv-x="1325" d="M73 753q-8 82 7.5 178t47.5 192.5t91 195.5t137 180q125 133 262.5 188.5t311.5 38.5q135 -8 194 -18l68 135q22 45 39.5 89t30 87.5t11.5 75t-18 41.5q51 49 76 53q8 1 14.5 -3.5t8.5 -9.5l2 -5q19 -60 -139 -330q-14 -31 -98 -219.5t-146.5 -330t-159.5 -363.5 t-165 -388.5t-133 -332.5t-94.5 -267.5t-19.5 -125.5q0 -6 23 -60q-37 34 -64 62q0 4 -6.5 46t-1.5 68q13 57 110.5 313.5t149.5 352.5q-211 -168 -346 -127q-55 1 -97.5 38t-65 100.5t-30.5 145.5zM324 1172q12 -58 59 -64q162 -19 455 371l16 21v-1q-42 -89 -62 -295 q-17 -167 2 -185q6 -6 15 9q24 57 42 96t37 76.5t78 161.5t144 309q-18 5 -61.5 10t-59.5 5q-142 23 -298 -11.5t-261 -140.5l-39 -53q-41 -87 -60 -169t-7 -140z" />
<glyph unicode="&#xb7;" horiz-adv-x="231" d="M65 350.5q-5 41.5 1 52.5q9 14 44 29.5t46 5.5q12 -14 12 -106q0 -14 -40 -29.5t-50 -5.5q-8 12 -13 53.5z" />
<glyph unicode="&#xb8;" horiz-adv-x="403" d="M51 -345q-1 9 13 14l6 1q53 1 112.5 39t79.5 76q23 37 1 67.5t-79 45.5q-29 9 -14 24q71 66 117 96q17 10 26 2q6 -7 -6 -16q-31 -16 -61 -59q-7 -4 -6.5 -14t14.5 -13q15 -5 32 -15t35 -29t19 -43.5t-14 -57.5q-21 -38 -101.5 -81.5t-148.5 -47.5q-23 -1 -25 11z" />
<glyph unicode="&#xb9;" horiz-adv-x="405" d="M43 805q-2 8 2.5 13t11.5 5q18 5 105 8q55 151 135 312q2 4 2 8q-3 6 -8 6q-4 0 -6 -2q-18 -6 -60 -21.5t-65 -23.5q-2 0 -4.5 -1t-3.5 -1q-11 0 -11 6q1 2 6 5t7 5q163 63 221 107q4 2 8 2q9 0 14 -10q0 -9 -6 -13q-17 -13 -35 -24v-27q-24 -19 -84 -129 q-63 -111 -75 -166q-2 -6 -2 -14q3 -17 34 -23q61 -10 101 -10q14 3 14 -4q2 -5 -8 -7q-15 -3 -92 -3h-25q-117 0 -158 -6q-14 0 -18 8z" />
<glyph unicode="&#xba;" horiz-adv-x="530" d="M295 797q0 82 164 252q4 8 -2 8q-3 2 -8.5 5t-9 5t-7.5 4.5t-6 5t-2 4.5q0 4 0.5 6t9 5.5t25.5 3.5q31 2 47 2q8 0 14 4q24 19 53 22q15 0 56 -18q4 -4 8 -4q21 -1 77 -2t83 -2q18 0 18 -4q0 -7 -18 -7q-37 0 -49 -12v-6q4 -8 4 -12q-6 -75 -150 -180 q-149 -106 -252 -117q-19 -2 -37 10t-18 27zM326 793q0 -25 39 -19q80 9 200 100q124 92 142 166q4 15 -9 24t-39 11q-53 5 -102 -8q-2 0 -22 -10q-131 -103 -203 -242q-6 -12 -6 -22z" />
<glyph unicode="&#xbb;" horiz-adv-x="796" d="M84 59q-6 7 6 19q222 180 250 237q18 35 -6 250q-3 23 8 23q7 0 45 -146q40 -144 33 -157q-10 -19 -127 -101q-35 -24 -100 -66t-87 -57q-19 -15 -22 -2zM369 59q-10 6 6 19q118 97 177.5 152.5t72.5 84.5q15 31 -7 250q-3 23 11 23q11 0 14 -19q71 -267 59 -282 q-10 -26 -124 -103q-30 -21 -93.5 -60.5t-93.5 -60.5q-19 -16 -22 -4z" />
<glyph unicode="&#xbc;" horiz-adv-x="1036" d="M39 43q12 110 379 522q332 375 559 565q18 15 29 15q12 0 12 -15q0 -8 -14 -26q-230 -190 -560 -553q-359 -392 -387 -512q-6 -35 -14 -35q-4 8 -4 39zM43 594q0 21 14 24q53 9 117 13q56 134 205 430q6 6 6 16q0 8 -6 8l-6 -2q-79 -44 -142 -65q-8 -4 -12 -4 q-3 0 -5 2.5t1 5.5q5 10 12 12q175 88 254 148q9 6 11 6q8 0 8 -14q0 -13 -4 -17t-10.5 -9t-17.5 -13t-17 -13q-1 -1 -2 -6t-2 -13.5t-3 -15.5q-46 -59 -114 -180q-95 -166 -115 -231q-8 -11 -8 -23q0 -23 35 -26q73 -18 102 -15q6 1 11 -1t5 -5q0 -11 -21 -13.5t-89 -2.5 h-27q-123 0 -166 -6q-14 0 -14 10zM381 227q0 12 6 21l23 20q11 6 18 19q56 79 178 215q91 106 199 205q2 2 6 2q12 0 12 -17q0 -8 -6 -14q-61 -46 -213 -211q-120 -125 -158 -180q40 4 82 4q16 0 49.5 -1t51.5 -1l61 -2q128 236 238 434q12 29 55 29q10 0 10 -7v-2 q-70 -110 -147 -252q-25 -45 -52.5 -93t-43.5 -76t-23 -41q83 -9 98 -5q4 4 4 -2t-10.5 -17t-17.5 -11q-76 0 -86 2q-48 -100 -64 -127q-54 -108 -57 -164q0 -16 -6 -16q-9 0 -6 20q3 98 92 287q-18 2 -111 2q-95 3 -137 -4q-9 -3 -20 -21q-12 -22 -17 -22q-8 0 -8 26z" />
<glyph unicode="&#xbd;" horiz-adv-x="1036" d="M39 43q12 110 379 522q332 375 559 565q18 15 29 15q12 0 12 -15q0 -8 -14 -26q-230 -190 -560 -553q-359 -392 -387 -512q-6 -35 -14 -35q-4 8 -4 39zM43 594q0 21 14 24q53 9 117 13q56 134 205 430q6 6 6 16q0 8 -6 8l-6 -2q-79 -44 -142 -65q-8 -4 -12 -4 q-3 0 -5 2.5t1 5.5q5 10 12 12q175 88 254 148q9 6 11 6q8 0 8 -14q0 -13 -4 -17t-10.5 -9t-17.5 -13t-17 -13q-1 -1 -2 -6t-2 -13.5t-3 -15.5q-46 -59 -114 -180q-95 -166 -115 -231q-8 -11 -8 -23q0 -23 35 -26q73 -18 102 -15q6 1 11 -1t5 -5q0 -11 -21 -13.5t-89 -2.5 h-27q-123 0 -166 -6q-14 0 -14 10zM424 51q0 32 31 41q79 19 131 51q86 54 143 113q99 99 111 203q8 36 -17 80q-24 44 -65 57h-37q-67 0 -125 -45q-4 0 -4 4q0 27 16 35q90 59 162 51q64 -13 88 -55q23 -42 23 -97q0 -114 -119 -227q-105 -105 -201 -147q-14 -9 -14 -13 q0 -26 221 -26q18 0 18 -15q0 -12 -16 -12q-50 4 -88 4q-114 0 -240 -12q-18 -3 -18 10z" />
<glyph unicode="&#xbe;" horiz-adv-x="1036" d="M39 43q12 110 379 522q332 375 559 565q18 15 29 15q12 0 12 -15q0 -8 -14 -26q-230 -190 -560 -553q-359 -392 -387 -512q-6 -35 -14 -35q-4 8 -4 39zM57 614q0 13 6.5 27t14.5 14q14 0 14 -26q0 -41 53 -41q69 0 154 57q100 64 141 168q6 30 6 57q0 69 -34 103 q-39 45 -123 39q-10 0 -10 6q0 8 8.5 16t15.5 8q48 0 119 58q68 57 82 98q12 22 12 57q0 56 -41 56q-68 0 -129 -45q-6 -3 -6 6q0 25 16 33q66 51 142 51q75 0 75 -78q0 -29 -14 -57q-46 -97 -170 -164q-4 -2 -4 -13q0 -4 6 -6q45 -6 75 -49.5t30 -105.5q0 -33 -9 -70 q-47 -113 -163 -182q-94 -57 -179 -60q-88 -3 -88 43zM381 227q0 12 6 21l23 20q11 6 18 19q56 79 178 215q91 106 199 205q2 2 6 2q12 0 12 -17q0 -8 -6 -14q-61 -46 -213 -211q-120 -125 -158 -180q40 4 82 4q16 0 49.5 -1t51.5 -1l61 -2q128 236 238 434q12 29 55 29 q10 0 10 -7v-2q-70 -110 -147 -252q-25 -45 -52.5 -93t-43.5 -76t-23 -41q83 -9 98 -5q4 4 4 -2t-10.5 -17t-17.5 -11q-76 0 -86 2q-48 -100 -64 -127q-54 -108 -57 -164q0 -16 -6 -16q-9 0 -6 20q3 98 92 287q-18 2 -111 2q-95 3 -137 -4q-9 -3 -20 -21q-12 -22 -17 -22 q-8 0 -8 26z" />
<glyph unicode="&#xbf;" horiz-adv-x="673" d="M-147 -25q0 186 180 289q66 39 260 117q213 85 264 98q22 10 31 33q5 15 -0.5 35.5t-14 37.5t-8.5 21q0 12 15 12q22 0 57 -49q37 -46 37 -69q0 -13 -15 -19q-281 -79 -440 -162q-278 -146 -278 -333q0 -49 20 -121q28 -99 123 -166q89 -61 180 -61q98 0 142 65 q21 21 24 21q6 0 6 -11q0 -13 -10 -26q-68 -88 -158 -111q-33 -8 -69 -8q-123 0 -213 90q-83 83 -111 178q-22 77 -22 139zM612 748q-5 41 0 61q5 8 31.5 19.5t46.5 11.5q15 0 22 -10.5t13 -47.5q6 -41 -1 -52.5t-38 -27.5q-27 -12 -45 -12h-6.5t-6 3t-7 8.5t-5 17.5 t-4.5 29z" />
<glyph unicode="&#xc0;" horiz-adv-x="2138" d="M78 246q0 110 53 243q99 240 322 297q88 23 229 23q317 0 795 -104q123 129 331 380q249 297 357 463q11 11 26 11q33 0 78 -29q44 -27 39 -43q-27 -82 -62.5 -188.5t-58 -176.5t-37.5 -118q-87 -284 -114 -439q105 -30 170 -30t65 32q0 51 -67 109q-17 11 -17 24 q-2 5 1 9t7 4q6 0 23 -13q77 -67 102 -133q6 -15 -8.5 -28t-50.5 -27q-42 -14 -229 23q-47 -233 -47 -367q0 -72 14 -115q1 -2 8 -6t15 -8t14.5 -8t5.5 -6q-3 -31 -41 -31q-13 0 -16 8q-33 67 -33 238q0 135 20 305q-217 43 -493 108q-200 -210 -475 -403 q-392 -276 -656 -279q-128 -1 -199 72.5t-71 202.5zM127 270q0 -115 53 -182q65 -81 176 -78q269 6 631 264q217 153 447 388q-392 98 -760 98q-144 0 -232 -21q-191 -44 -276 -262q-39 -101 -39 -207zM1518 692q234 -70 462 -114q24 244 211 817q4 20 4 26q0 33 -18 33 q-13 0 -33 -20q-312 -414 -626 -742zM1991 1841q0 45 45 45q12 0 20 -8q161 -151 252 -238q11 -8 6 -18q-10 -5 -18 0q-42 28 -148 100.5t-145 98.5q-12 8 -12 20z" />
<glyph unicode="&#xc1;" horiz-adv-x="2138" d="M78 246q0 110 53 243q99 240 322 297q88 23 229 23q317 0 795 -104q123 129 331 380q249 297 357 463q11 11 26 11q33 0 78 -29q44 -27 39 -43q-27 -82 -62.5 -188.5t-58 -176.5t-37.5 -118q-87 -284 -114 -439q105 -30 170 -30t65 32q0 51 -67 109q-17 11 -17 24 q-2 5 1 9t7 4q6 0 23 -13q77 -67 102 -133q6 -15 -8.5 -28t-50.5 -27q-42 -14 -229 23q-47 -233 -47 -367q0 -72 14 -115q1 -2 8 -6t15 -8t14.5 -8t5.5 -6q-3 -31 -41 -31q-13 0 -16 8q-33 67 -33 238q0 135 20 305q-217 43 -493 108q-200 -210 -475 -403 q-392 -276 -656 -279q-128 -1 -199 72.5t-71 202.5zM127 270q0 -115 53 -182q65 -81 176 -78q269 6 631 264q217 153 447 388q-392 98 -760 98q-144 0 -232 -21q-191 -44 -276 -262q-39 -101 -39 -207zM1518 692q234 -70 462 -114q24 244 211 817q4 20 4 26q0 33 -18 33 q-13 0 -33 -20q-312 -414 -626 -742zM2191 1653q-7 11 2 20q20 14 152 137q127 115 135 117q34 9 45 -35q7 -20 -12 -32q-193 -127 -301 -207q-14 -7 -21 0z" />
<glyph unicode="&#xc2;" horiz-adv-x="2138" d="M78 246q0 110 53 243q99 240 322 297q88 23 229 23q317 0 795 -104q123 129 331 380q249 297 357 463q11 11 26 11q33 0 78 -29q44 -27 39 -43q-27 -82 -62.5 -188.5t-58 -176.5t-37.5 -118q-87 -284 -114 -439q105 -30 170 -30t65 32q0 51 -67 109q-17 11 -17 24 q-2 5 1 9t7 4q6 0 23 -13q77 -67 102 -133q6 -15 -8.5 -28t-50.5 -27q-42 -14 -229 23q-47 -233 -47 -367q0 -72 14 -115q1 -2 8 -6t15 -8t14.5 -8t5.5 -6q-3 -31 -41 -31q-13 0 -16 8q-33 67 -33 238q0 135 20 305q-217 43 -493 108q-200 -210 -475 -403 q-392 -276 -656 -279q-128 -1 -199 72.5t-71 202.5zM127 270q0 -115 53 -182q65 -81 176 -78q269 6 631 264q217 153 447 388q-392 98 -760 98q-144 0 -232 -21q-191 -44 -276 -262q-39 -101 -39 -207zM1518 692q234 -70 462 -114q24 244 211 817q4 20 4 26q0 33 -18 33 q-13 0 -33 -20q-312 -414 -626 -742zM2071 1659q3 13 12 24q30 16 166 127q18 14 38.5 29.5t31.5 24.5t21 16.5t14 10t5 1.5q13 -9 121 -219q6 -15 6 -20q-2 -8 -12 -17q-8 -3 -14 11q-39 56 -64 88q-23 25 -38.5 38.5t-24.5 12.5q-102 -42 -244 -133q-24 -21 -18 6z" />
<glyph unicode="&#xc3;" horiz-adv-x="2138" d="M78 246q0 110 53 243q99 240 322 297q88 23 229 23q317 0 795 -104q123 129 331 380q249 297 357 463q11 11 26 11q33 0 78 -29q44 -27 39 -43q-27 -82 -62.5 -188.5t-58 -176.5t-37.5 -118q-87 -284 -114 -439q105 -30 170 -30t65 32q0 51 -67 109q-17 11 -17 24 q-2 5 1 9t7 4q6 0 23 -13q77 -67 102 -133q6 -15 -8.5 -28t-50.5 -27q-42 -14 -229 23q-47 -233 -47 -367q0 -72 14 -115q1 -2 8 -6t15 -8t14.5 -8t5.5 -6q-3 -31 -41 -31q-13 0 -16 8q-33 67 -33 238q0 135 20 305q-217 43 -493 108q-200 -210 -475 -403 q-392 -276 -656 -279q-128 -1 -199 72.5t-71 202.5zM127 270q0 -115 53 -182q65 -81 176 -78q269 6 631 264q217 153 447 388q-392 98 -760 98q-144 0 -232 -21q-191 -44 -276 -262q-39 -101 -39 -207zM1518 692q234 -70 462 -114q24 244 211 817q4 20 4 26q0 33 -18 33 q-13 0 -33 -20q-312 -414 -626 -742zM2030 1667q0 4 14 25q89 86 131 86q19 0 104 -37q75 -33 115 -33q70 0 103 33q16 12 22 12t6 -6t-10 -23q-77 -77 -121 -77q-34 0 -108 32q-81 37 -111 37q-46 0 -94 -26l-47 -27q-4 0 -4 4z" />
<glyph unicode="&#xc4;" horiz-adv-x="2138" d="M78 246q0 110 53 243q99 240 322 297q88 23 229 23q317 0 795 -104q123 129 331 380q249 297 357 463q11 11 26 11q33 0 78 -29q44 -27 39 -43q-27 -82 -62.5 -188.5t-58 -176.5t-37.5 -118q-87 -284 -114 -439q105 -30 170 -30t65 32q0 51 -67 109q-17 11 -17 24 q-2 5 1 9t7 4q6 0 23 -13q77 -67 102 -133q6 -15 -8.5 -28t-50.5 -27q-42 -14 -229 23q-47 -233 -47 -367q0 -72 14 -115q1 -2 8 -6t15 -8t14.5 -8t5.5 -6q-3 -31 -41 -31q-13 0 -16 8q-33 67 -33 238q0 135 20 305q-217 43 -493 108q-200 -210 -475 -403 q-392 -276 -656 -279q-128 -1 -199 72.5t-71 202.5zM127 270q0 -115 53 -182q65 -81 176 -78q269 6 631 264q217 153 447 388q-392 98 -760 98q-144 0 -232 -21q-191 -44 -276 -262q-39 -101 -39 -207zM1518 692q234 -70 462 -114q24 244 211 817q4 20 4 26q0 33 -18 33 q-13 0 -33 -20q-312 -414 -626 -742zM2081 1677q0 29 47 76q46 49 76 55q22 5 41.5 -12.5t13.5 -36.5q-6 -35 -57 -80q-46 -43 -76 -37q-45 9 -45 35zM2367 1657q0 28 48 76q46 49 75 55q22 5 42 -12.5t14 -36.5q-6 -34 -58 -80q-46 -43 -75 -37q-46 9 -46 35z" />
<glyph unicode="&#xc5;" horiz-adv-x="2138" d="M78 246q0 110 53 243q99 240 322 297q88 23 229 23q317 0 795 -104q123 129 331 380q249 297 357 463q11 11 26 11q33 0 78 -29q44 -27 39 -43q-27 -82 -62.5 -188.5t-58 -176.5t-37.5 -118q-87 -284 -114 -439q105 -30 170 -30t65 32q0 51 -67 109q-17 11 -17 24 q-2 5 1 9t7 4q6 0 23 -13q77 -67 102 -133q6 -15 -8.5 -28t-50.5 -27q-42 -14 -229 23q-47 -233 -47 -367q0 -72 14 -115q1 -2 8 -6t15 -8t14.5 -8t5.5 -6q-3 -31 -41 -31q-13 0 -16 8q-33 67 -33 238q0 135 20 305q-217 43 -493 108q-200 -210 -475 -403 q-392 -276 -656 -279q-128 -1 -199 72.5t-71 202.5zM127 270q0 -115 53 -182q65 -81 176 -78q269 6 631 264q217 153 447 388q-392 98 -760 98q-144 0 -232 -21q-191 -44 -276 -262q-39 -101 -39 -207zM1518 692q234 -70 462 -114q24 244 211 817q4 20 4 26q0 33 -18 33 q-13 0 -33 -20q-312 -414 -626 -742zM2189 1722q0 14 9 50q19 66 59 114q48 63 100 80q52 29 82 31q88 9 88 -86q0 -20 -10 -62q-26 -72 -76 -125q-62 -65 -131 -82q-12 -4 -37 -4q-84 0 -84 84zM2255 1755q0 -35 19.5 -53t45.5 -12q48 11 89 51.5t59 99.5q6 21 6 43 q0 61 -53 58q-49 -3 -86 -37q-66 -54 -78 -123q0 -4 -1 -13t-1 -14z" />
<glyph unicode="&#xc6;" horiz-adv-x="1583" d="M-55 6q0 17 6 35q74 170 239 428v12q-14 17 -14 56q0 44 35 67q45 38 119 72l4 4q272 373 520 622t371 277q3 0 8 1t8 1q37 0 78.5 -15.5t73.5 -49t32 -74.5q0 -13 -6 -31l19 -10q82 141 104 153q6 1 17 4t14 3q43 0 51 -33l12 -8q106 18 234 18q114 0 147 -16 q24 -14 51 -50t27 -71q0 -19 -10 -39v2q-24 -30 -35 -33q0 8 8 27t8 41q0 44 -53 65q-55 19 -137 19q-85 0 -178 -17.5t-156 -44.5l-4 -4q-40 -40 -77 -91t-73 -117t-58.5 -110t-59 -123t-47.5 -102l10 -14q43 2 151 2q159 0 215 -12q31 -5 31 -16q0 -7 -14 -7q-6 0 -12 2 h-2q-50 15 -136 15q-149 0 -272 -29l-8 -6q-204 -446 -223 -641v-2q0 -2 -1 -6t-1 -6q-3 -27 -3 -43q0 -30 11 -39.5t53 -22.5q86 -26 223 -26q113 0 222 15.5t149 37.5h2q12 6 22 6q7 0 7 -4q0 -18 -37 -41q-51 -30 -211.5 -55t-302.5 -25q-12 0 -32 1t-30 1 q-28 1 -49.5 23t-33 55.5t-17.5 68.5t-6 70v17q0 156 184 608l-10 14q-146 -7 -376.5 -72t-381.5 -139l-4 -2q-105 -152 -199.5 -320t-144.5 -300q-16 -41 -27 -41q-10 0 -17 19.5t-7 45.5zM434 729l12 -16q211 87 633 129q7 1 22 2t21 2l8 6q34 79 95 203q44 89 67.5 140 t49 121t34.5 128v2q0 3 1 9t1 9q0 74 -84 74q-43 0 -104 -27q-285 -127 -756 -782z" />
<glyph unicode="&#xc7;" horiz-adv-x="1640" d="M154 410q0 224 264 491q230 233 573 420q327 176 545 203q56 6 111 6q155 0 223 -62l26 27q3 10 15 6q10 -3 10 -14q0 -5 -27 -39q29 -36 29 -117q0 -82 -28.5 -152t-98.5 -151q-93 -107 -201 -168q-6 -3 -34 0q-33 7 -33 14q0 116 117 300q87 142 176 237 q-37 82 -203 82q-50 0 -102 -8q-348 -65 -752 -367q-428 -322 -522 -633q-15 -53 -15 -100q0 -151 129 -246q150 -108 422 -102q312 6 643 141q307 123 496 297q11 14 22 14q9 0 9 -10q0 -7 -15 -22q-188 -191 -508 -326q-350 -145 -649 -139l-92 6q-25 -16 -49 -53 q-7 -4 -6.5 -14t14.5 -13q15 -5 32 -15t35 -29t19 -43.5t-14 -57.5q-21 -38 -101.5 -81.5t-148.5 -47.5q-23 -1 -25 11q-1 9 13 14l6 1q53 1 112.5 39t79.5 76q23 37 1 67.5t-79 45.5q-29 9 -14 24q55 55 92 80q-170 21 -301 102q-196 120 -196 306zM1581 915q-3 -15 4 -18 q8 -5 19 0q158 104 223 262q26 62 26 127q0 56 -20 92q-87 -90 -154 -219q-72 -139 -98 -244z" />
<glyph unicode="&#xc8;" horiz-adv-x="1681" d="M309 692q-4 157 67.5 275t227.5 221q94 63 196 105t222.5 65t223 33.5t257.5 19.5q46 49 72 68q12 8 19 -1t11.5 -25.5t19.5 -31t38 -14.5q246 -2 504 -47q20 -6 32.5 -21t12.5 -34q3 -24 -19.5 -29.5t-46.5 4.5q-96 18 -280 33t-316 14q-225 -219 -454 -577 q165 13 370.5 15t364.5 -9q18 -3 25.5 -13t0.5 -19t-26 -9q-177 -2 -433 -22t-364 -48q-36 -64 -59.5 -109.5t-54.5 -117t-48 -144.5t-18 -143q-1 -71 38.5 -114.5t93 -56t116.5 -7.5q136 12 323.5 67t333.5 138q14 7 20.5 3t5 -13.5t-10.5 -14.5q-143 -114 -331 -179 t-343 -65q-24 0 -57 6.5t-75.5 24t-78 44t-62.5 72t-32 101.5q-8 103 40.5 246.5t104.5 232.5q-50 0 -63 21q-18 10 -28.5 33.5t5.5 44.5q9 9 36.5 14.5t63 10t50.5 8.5q216 325 426 579q-197 0 -413 -48.5t-378 -150.5q-119 -76 -194.5 -187t-84.5 -249q-13 -189 117 -397 q8 -15 6 -24.5t-13.5 -7.5t-20.5 16q-58 82 -97.5 193.5t-42.5 219.5zM1661 1800q0 45 45 45q12 0 20 -8q161 -151 252 -238q12 -9 7 -18q-11 -5 -19 0q-42 28 -148 100.5t-145 98.5q-12 8 -12 20z" />
<glyph unicode="&#xc9;" horiz-adv-x="1681" d="M309 692q-4 157 67.5 275t227.5 221q94 63 196 105t222.5 65t223 33.5t257.5 19.5q46 49 72 68q12 8 19 -1t11.5 -25.5t19.5 -31t38 -14.5q246 -2 504 -47q20 -6 32.5 -21t12.5 -34q3 -24 -19.5 -29.5t-46.5 4.5q-96 18 -280 33t-316 14q-225 -219 -454 -577 q165 13 370.5 15t364.5 -9q18 -3 25.5 -13t0.5 -19t-26 -9q-177 -2 -433 -22t-364 -48q-36 -64 -59.5 -109.5t-54.5 -117t-48 -144.5t-18 -143q-1 -71 38.5 -114.5t93 -56t116.5 -7.5q136 12 323.5 67t333.5 138q14 7 20.5 3t5 -13.5t-10.5 -14.5q-143 -114 -331 -179 t-343 -65q-24 0 -57 6.5t-75.5 24t-78 44t-62.5 72t-32 101.5q-8 103 40.5 246.5t104.5 232.5q-50 0 -63 21q-18 10 -28.5 33.5t5.5 44.5q9 9 36.5 14.5t63 10t50.5 8.5q216 325 426 579q-197 0 -413 -48.5t-378 -150.5q-119 -76 -194.5 -187t-84.5 -249q-13 -189 117 -397 q8 -15 6 -24.5t-13.5 -7.5t-20.5 16q-58 82 -97.5 193.5t-42.5 219.5zM1821 1591q-8 11 2 21q17 11 151 137q127 115 135 117q34 9 45 -35q7 -20 -12 -33q-193 -127 -301 -207q-13 -7 -20 0z" />
<glyph unicode="&#xca;" horiz-adv-x="1681" d="M309 692q-4 157 67.5 275t227.5 221q94 63 196 105t222.5 65t223 33.5t257.5 19.5q46 49 72 68q12 8 19 -1t11.5 -25.5t19.5 -31t38 -14.5q246 -2 504 -47q20 -6 32.5 -21t12.5 -34q3 -24 -19.5 -29.5t-46.5 4.5q-96 18 -280 33t-316 14q-225 -219 -454 -577 q165 13 370.5 15t364.5 -9q18 -3 25.5 -13t0.5 -19t-26 -9q-177 -2 -433 -22t-364 -48q-36 -64 -59.5 -109.5t-54.5 -117t-48 -144.5t-18 -143q-1 -71 38.5 -114.5t93 -56t116.5 -7.5q136 12 323.5 67t333.5 138q14 7 20.5 3t5 -13.5t-10.5 -14.5q-143 -114 -331 -179 t-343 -65q-24 0 -57 6.5t-75.5 24t-78 44t-62.5 72t-32 101.5q-8 103 40.5 246.5t104.5 232.5q-50 0 -63 21q-18 10 -28.5 33.5t5.5 44.5q9 9 36.5 14.5t63 10t50.5 8.5q216 325 426 579q-197 0 -413 -48.5t-378 -150.5q-119 -76 -194.5 -187t-84.5 -249q-13 -189 117 -397 q8 -15 6 -24.5t-13.5 -7.5t-20.5 16q-58 82 -97.5 193.5t-42.5 219.5zM1720 1597q3 13 13 25q27 14 165 127q18 14 38.5 30t31.5 24.5t21.5 16t14.5 10t5 1.5q13 -9 121 -219q6 -15 6 -21q-2 -6 -12 -16q-10 -3 -15 10q-45 66 -63 88q-4 4 -10 10.5t-9.5 10t-8.5 8t-8 7 t-6.5 5.5t-6 5t-5.5 3.5t-5.5 1.5h-4.5q-100 -41 -243 -133q-25 -22 -19 6z" />
<glyph unicode="&#xcb;" horiz-adv-x="1681" d="M309 692q-4 157 67.5 275t227.5 221q94 63 196 105t222.5 65t223 33.5t257.5 19.5q46 49 72 68q12 8 19 -1t11.5 -25.5t19.5 -31t38 -14.5q246 -2 504 -47q20 -6 32.5 -21t12.5 -34q3 -24 -19.5 -29.5t-46.5 4.5q-96 18 -280 33t-316 14q-225 -219 -454 -577 q165 13 370.5 15t364.5 -9q18 -3 25.5 -13t0.5 -19t-26 -9q-177 -2 -433 -22t-364 -48q-36 -64 -59.5 -109.5t-54.5 -117t-48 -144.5t-18 -143q-1 -71 38.5 -114.5t93 -56t116.5 -7.5q136 12 323.5 67t333.5 138q14 7 20.5 3t5 -13.5t-10.5 -14.5q-143 -114 -331 -179 t-343 -65q-24 0 -57 6.5t-75.5 24t-78 44t-62.5 72t-32 101.5q-8 103 40.5 246.5t104.5 232.5q-50 0 -63 21q-18 10 -28.5 33.5t5.5 44.5q9 9 36.5 14.5t63 10t50.5 8.5q216 325 426 579q-197 0 -413 -48.5t-378 -150.5q-119 -76 -194.5 -187t-84.5 -249q-13 -189 117 -397 q8 -15 6 -24.5t-13.5 -7.5t-20.5 16q-58 82 -97.5 193.5t-42.5 219.5zM1751 1616q0 29 47 76q46 49 76 55q22 5 41.5 -12.5t13.5 -36.5q-6 -35 -57 -80q-46 -43 -76 -37q-45 9 -45 35zM2038 1595q0 29 47 76q46 49 76 55q22 5 41.5 -12.5t13.5 -36.5q-6 -35 -57 -80 q-45 -42 -76 -36q-45 9 -45 34z" />
<glyph unicode="&#xcc;" horiz-adv-x="978" d="M82 164q-4 12 1.5 19t14 4t11.5 -15q18 -67 77 -115q35 -29 93.5 -35.5t129.5 12.5t134 62q99 68 206 191t199.5 263.5t184 306.5t160.5 311t128 286q-241 -45 -475 -146t-389 -221q-67 -52 -111 -105t-57 -124q-11 -61 23 -137q5 -11 -1.5 -16t-13.5 4q-18 23 -30.5 65 t-14.5 82q-3 68 39.5 134t128.5 138q140 119 394 227.5t534 170.5q31 6 45 24q18 17 41.5 0t15.5 -37q-532 -1150 -983 -1441q-113 -72 -235 -84t-191 43q-37 30 -59 133zM1268 1841q0 45 45 45q12 0 20 -8q161 -151 252 -238q11 -8 6 -18q-10 -5 -18 0q-42 28 -148 100.5 t-145 98.5q-12 8 -12 20z" />
<glyph unicode="&#xcd;" horiz-adv-x="978" d="M82 164q-4 12 1.5 19t14 4t11.5 -15q18 -67 77 -115q35 -29 93.5 -35.5t129.5 12.5t134 62q99 68 206 191t199.5 263.5t184 306.5t160.5 311t128 286q-241 -45 -475 -146t-389 -221q-67 -52 -111 -105t-57 -124q-11 -61 23 -137q5 -11 -1.5 -16t-13.5 4q-18 23 -30.5 65 t-14.5 82q-3 68 39.5 134t128.5 138q140 119 394 227.5t534 170.5q31 6 45 24q18 17 41.5 0t15.5 -37q-532 -1150 -983 -1441q-113 -72 -235 -84t-191 43q-37 30 -59 133zM1427 1632q-7 11 3 21q17 11 151 137q127 115 135 117q34 9 45 -35q7 -20 -12 -33 q-193 -127 -301 -207q-14 -7 -21 0z" />
<glyph unicode="&#xce;" horiz-adv-x="978" d="M82 164q-4 12 1.5 19t14 4t11.5 -15q18 -67 77 -115q35 -29 93.5 -35.5t129.5 12.5t134 62q99 68 206 191t199.5 263.5t184 306.5t160.5 311t128 286q-241 -45 -475 -146t-389 -221q-67 -52 -111 -105t-57 -124q-11 -61 23 -137q5 -11 -1.5 -16t-13.5 4q-18 23 -30.5 65 t-14.5 82q-3 68 39.5 134t128.5 138q140 119 394 227.5t534 170.5q31 6 45 24q18 17 41.5 0t15.5 -37q-532 -1150 -983 -1441q-113 -72 -235 -84t-191 43q-37 30 -59 133zM1307 1638q4 15 12 25q30 16 166 127q18 14 38.5 29.5t31.5 24.5t21 16.5t14 10t5 1.5 q13 -9 121 -219q6 -15 6 -21q-2 -6 -12 -16q-9 -3 -14 10q-39 56 -64 88q-23 25 -38.5 38.5t-24.5 12.5q-102 -42 -244 -133q-24 -21 -18 6z" />
<glyph unicode="&#xcf;" horiz-adv-x="978" d="M82 164q-4 12 1.5 19t14 4t11.5 -15q18 -67 77 -115q35 -29 93.5 -35.5t129.5 12.5t134 62q99 68 206 191t199.5 263.5t184 306.5t160.5 311t128 286q-241 -45 -475 -146t-389 -221q-67 -52 -111 -105t-57 -124q-11 -61 23 -137q5 -11 -1.5 -16t-13.5 4q-18 23 -30.5 65 t-14.5 82q-3 68 39.5 134t128.5 138q140 119 394 227.5t534 170.5q31 6 45 24q18 17 41.5 0t15.5 -37q-532 -1150 -983 -1441q-113 -72 -235 -84t-191 43q-37 30 -59 133zM1317 1657q0 29 47 76q46 49 76 55q22 5 41.5 -12.5t13.5 -36.5q-6 -35 -57 -80q-46 -43 -76 -37 q-45 9 -45 35zM1604 1636q0 29 47 76q46 49 75 55q22 5 42 -12.5t14 -36.5q-6 -34 -58 -80q-45 -42 -75 -36q-45 9 -45 34z" />
<glyph unicode="&#xd0;" horiz-adv-x="1120" d="M-0.5 255q12.5 22 35.5 26t41 -13q1 -4 3 -8q1 -3 4 -4q10 -4 26 -14q3 0 5.5 -1t4.5 -2t3.5 -1.5t2.5 1t2 5.5q92 229 240 540q-57 17 -82 13q-68 -11 -154 -74q-31 -27 -32 -17.5t26 35.5q117 117 174 129q22 3 98 -20v-2h2v2h-2q230 475 318 616q65 100 157 183 q33 29 48 22q15 -8 -18 -44l-3 -3q-4 -6 -6 -9.5t-3 -5.5t1.5 -3t4 -1.5t7.5 -1t10 -1.5q54 6 117 -31q66 -57 118.5 -160t83 -240.5t20 -316t-69.5 -360.5q-25 -77 -69.5 -151.5t-110 -146t-160 -124t-203.5 -72.5q-56 -10 -113.5 -9.5t-97 6t-96 22.5t-79.5 26t-79 31 q-5 9 -35 -4q-14 -11 -33 -13t-32 3.5t-13 13.5q-1 11 0.5 16t3.5 5.5t5 6.5t6 17q-4 6 -4 24q-42 33 -68 70q-17 18 -4.5 40zM202 178.5q1 -1.5 11 -6.5q63 -52 202.5 -82.5t256.5 0.5q81 21 148.5 63.5t116.5 100.5t80.5 107.5t63.5 113.5q64 127 90 270.5t16 267.5 t-40 232.5t-74.5 180.5t-91.5 96q-87 46 -197 -68q-58 -84 -119 -195.5t-102 -198t-106 -229.5q53 -15 78 -6q48 4 73 16.5t58 41.5q31 29 34 18q3 -10 -20 -33q-2 -2 -15.5 -15t-19.5 -18.5t-20 -18t-22 -19t-21 -16.5t-23 -15.5t-21 -10.5t-20 -7l-92 16 q-122 -282 -223 -576q-2 -8 -1 -9.5z" />
<glyph unicode="&#xd1;" horiz-adv-x="1095" d="M-612 674q6 132 198 336q191 206 432 346q266 154 445 145q85 -3 141 -84q47 -68 47 -174q0 -46 -10 -94q-59 -229 -379 -764q-14 -21 -14 -37q0 -8 8 -8q15 0 33 33q160 203 409 446q330 324 512 355q27 4 46.5 -8.5t46.5 -43.5q17 -19 25.5 -39.5t9.5 -33t1 -36.5v-7 q0 -30 -6 -45q-36 -67 -137.5 -251.5t-155.5 -287.5q-84 -156 -210 -437t-226.5 -565.5t-71.5 -343.5q4 -4 0 -21.5t-4 -21.5q0 -61 33 -61q85 0 299 211q24 24 31 24q4 -4 4 -8q0 -8 -18 -35q-36 -58 -136 -139q-109 -86 -163 -86q-40 0 -67.5 47t-25.5 94 q4 98 186.5 612.5t282.5 717.5l297 602q23 45 23 78q0 43 -47 43q-28 0 -74 -19q-193 -81 -440 -317q-199 -188 -406 -449q-161 -204 -227 -309q-20 -33 -51 -33q-12 0 -19.5 7t-7.5 16q0 7 10 30q499 820 586 1098q20 72 20 123q0 87 -37 131.5t-112 50.5q-148 9 -397 -135 q-253 -144 -441 -338q-204 -210 -204 -364q0 -56 53 -66q68 -13 123 -2q24 3 24 -8q0 -10 -24 -17q-71 -21 -123 -12q-98 17 -92 154zM850 1503q0 4 14 25q89 86 131 86q20 0 105 -37q75 -33 114 -33q70 0 103 33q16 12 22 12q7 0 7 -6q0 -4 -11 -22q-78 -78 -121 -78 q-32 0 -108 33q-79 36 -111 36q-46 0 -94 -26l-47 -27q-4 0 -4 4z" />
<glyph unicode="&#xd2;" horiz-adv-x="1744" d="M225 475q0 83 25 178q52 198 244 387q-9 30 -9 60q0 118 107 243q124 146 317 224q179 73 387 73q80 0 154 -12q238 -37 381 -244q119 -172 119 -352q0 -23 -4 -51q-43 -301 -258 -547q-176 -204 -461 -336q-250 -116 -479 -104q-212 9 -357 127q-166 135 -166 354z M260 481q0 -189 129.5 -301t358.5 -123q242 -12 516 131q283 151 456 369q197 244 197 487q0 197 -115 345q-128 162 -379 200q-52 8 -118 8q-202 0 -394 -79q-183 -73 -295 -191q-98 -104 -98 -207q0 -21 4 -41q145 145 383 258q271 131 502 131q55 0 117 -10q20 -3 20 -14 q0 -20 -22 -14q-52 12 -115 12q-243 0 -543 -158q-260 -134 -338 -248q9 -68 84 -127q72 -57 160 -57q23 0 23 -14q0 -8 -9.5 -13t-23.5 -2q-89 3 -166 62q-72 54 -94 123q-65 -59 -127 -160q-72 -124 -90 -197q-23 -85 -23 -170zM1323 1903q0 45 45 45q12 0 21 -9 q163 -152 251 -237q12 -9 7 -19q-11 -5 -19 0q-42 28 -148 100.5t-145 98.5q-12 8 -12 21z" />
<glyph unicode="&#xd3;" horiz-adv-x="1744" d="M225 475q0 83 25 178q52 198 244 387q-9 30 -9 60q0 118 107 243q124 146 317 224q179 73 387 73q80 0 154 -12q238 -37 381 -244q119 -172 119 -352q0 -23 -4 -51q-43 -301 -258 -547q-176 -204 -461 -336q-250 -116 -479 -104q-212 9 -357 127q-166 135 -166 354z M260 481q0 -189 129.5 -301t358.5 -123q242 -12 516 131q283 151 456 369q197 244 197 487q0 197 -115 345q-128 162 -379 200q-52 8 -118 8q-202 0 -394 -79q-183 -73 -295 -191q-98 -104 -98 -207q0 -21 4 -41q145 145 383 258q271 131 502 131q55 0 117 -10q20 -3 20 -14 q0 -20 -22 -14q-52 12 -115 12q-243 0 -543 -158q-260 -134 -338 -248q9 -68 84 -127q72 -57 160 -57q23 0 23 -14q0 -8 -9.5 -13t-23.5 -2q-89 3 -166 62q-72 54 -94 123q-65 -59 -127 -160q-72 -124 -90 -197q-23 -85 -23 -170zM1339 1694q-7 11 2 20q20 14 152 137 q127 115 135 117q34 9 45 -35q7 -20 -12 -32q-193 -127 -301 -207q-14 -7 -21 0z" />
<glyph unicode="&#xd4;" horiz-adv-x="1744" d="M225 475q0 83 25 178q52 198 244 387q-9 30 -9 60q0 118 107 243q124 146 317 224q179 73 387 73q80 0 154 -12q238 -37 381 -244q119 -172 119 -352q0 -23 -4 -51q-43 -301 -258 -547q-176 -204 -461 -336q-250 -116 -479 -104q-212 9 -357 127q-166 135 -166 354z M260 481q0 -189 129.5 -301t358.5 -123q242 -12 516 131q283 151 456 369q197 244 197 487q0 197 -115 345q-128 162 -379 200q-52 8 -118 8q-202 0 -394 -79q-183 -73 -295 -191q-98 -104 -98 -207q0 -21 4 -41q145 145 383 258q271 131 502 131q55 0 117 -10q20 -3 20 -14 q0 -20 -22 -14q-52 12 -115 12q-243 0 -543 -158q-260 -134 -338 -248q9 -68 84 -127q72 -57 160 -57q23 0 23 -14q0 -8 -9.5 -13t-23.5 -2q-89 3 -166 62q-72 54 -94 123q-65 -59 -127 -160q-72 -124 -90 -197q-23 -85 -23 -170zM1280 1700q3 13 12 24q30 16 166 127 q18 14 38.5 30t31.5 24.5t21.5 16t14.5 10t5 1.5q13 -9 121 -219q6 -15 6 -20q-2 -6 -13 -17q-8 -3 -14 11q-45 66 -63 88q-4 4 -10 10.5t-9.5 10t-8.5 8t-8 7t-6.5 5.5t-6 5t-5.5 3.5t-5.5 1.5h-4.5q-102 -42 -244 -133q-24 -21 -18 6z" />
<glyph unicode="&#xd5;" horiz-adv-x="1744" d="M225 475q0 83 25 178q52 198 244 387q-9 30 -9 60q0 118 107 243q124 146 317 224q179 73 387 73q80 0 154 -12q238 -37 381 -244q119 -172 119 -352q0 -23 -4 -51q-43 -301 -258 -547q-176 -204 -461 -336q-250 -116 -479 -104q-212 9 -357 127q-166 135 -166 354z M260 481q0 -189 129.5 -301t358.5 -123q242 -12 516 131q283 151 456 369q197 244 197 487q0 197 -115 345q-128 162 -379 200q-52 8 -118 8q-202 0 -394 -79q-183 -73 -295 -191q-98 -104 -98 -207q0 -21 4 -41q145 145 383 258q271 131 502 131q55 0 117 -10q20 -3 20 -14 q0 -20 -22 -14q-52 12 -115 12q-243 0 -543 -158q-260 -134 -338 -248q9 -68 84 -127q72 -57 160 -57q23 0 23 -14q0 -8 -9.5 -13t-23.5 -2q-89 3 -166 62q-72 54 -94 123q-65 -59 -127 -160q-72 -124 -90 -197q-23 -85 -23 -170zM1239 1708q0 4 14 25q89 86 131 86 q20 0 105 -37q75 -33 115 -33q69 0 102 33q16 12 23 12q6 0 6 -6q0 -5 -11 -23q-77 -77 -120 -77q-35 0 -109 32q-81 37 -111 37q-46 0 -94 -26l-47 -27q-4 0 -4 4z" />
<glyph unicode="&#xd6;" horiz-adv-x="1744" d="M225 475q0 83 25 178q52 198 244 387q-9 30 -9 60q0 118 107 243q124 146 317 224q179 73 387 73q80 0 154 -12q238 -37 381 -244q119 -172 119 -352q0 -23 -4 -51q-43 -301 -258 -547q-176 -204 -461 -336q-250 -116 -479 -104q-212 9 -357 127q-166 135 -166 354z M260 481q0 -189 129.5 -301t358.5 -123q242 -12 516 131q283 151 456 369q197 244 197 487q0 197 -115 345q-128 162 -379 200q-52 8 -118 8q-202 0 -394 -79q-183 -73 -295 -191q-98 -104 -98 -207q0 -21 4 -41q145 145 383 258q271 131 502 131q55 0 117 -10q20 -3 20 -14 q0 -20 -22 -14q-52 12 -115 12q-243 0 -543 -158q-260 -134 -338 -248q9 -68 84 -127q72 -57 160 -57q23 0 23 -14q0 -8 -9.5 -13t-23.5 -2q-89 3 -166 62q-72 54 -94 123q-65 -59 -127 -160q-72 -124 -90 -197q-23 -85 -23 -170zM1229 1739q0 29 47 76q46 49 76 55 q22 5 41.5 -12.5t13.5 -36.5q-6 -35 -57 -80q-46 -43 -76 -37q-45 9 -45 35zM1516 1718q0 29 47 76q46 49 75 55q22 5 42 -12.5t14 -36.5q-6 -34 -58 -80q-46 -43 -75 -37q-45 9 -45 35z" />
<glyph unicode="&#xd7;" horiz-adv-x="1253" d="M18 320.5q-9 33.5 9 78.5q36 74 169.5 206.5t278.5 252.5q-20 81 -28.5 170.5t-0.5 140.5q4 27 34 42q32 16 43 -9q3 -9 3 -22q-3 -51 4 -133.5t19 -133.5q255 185 383 254q20 9 30 1.5t7.5 -23t-15.5 -21.5q-193 -115 -393 -264q22 -141 96 -296t156 -232 q78 -74 161 -97.5t145 -0.5t93 81q5 9 12.5 10t10.5 -5.5t-2 -18.5q-38 -61 -98 -87t-124 -17t-124 35.5t-107 66.5q-102 89 -176.5 222t-116.5 284q-76 -53 -209 -179t-212 -227q-17 -23 -23.5 -48.5t8.5 -37.5q20 -14 37 -14q19 -1 18 -14q0 -11 -14 -11q-18 0 -47 5 q-18 8 -27 41.5z" />
<glyph unicode="&#xd8;" horiz-adv-x="1632" d="M411 458q-2 83 14.5 155t47 142t65.5 124t74 98q16 17 6 27q-65 50 -103 102t-46.5 108.5t27.5 108.5q48 73 219 115t392 29.5t388 -85.5q92 -42 158 -102q43 38 151 123q21 18 45 18t27 -18q3 -17 -23 -37q-99 -80 -157 -131q140 -165 96 -412q-20 -115 -102 -243.5 t-197.5 -239t-265 -193.5t-295.5 -108q-174 -31 -314 43q-75 -120 -81 -188q-3 -48 -19 -48q-7 11 -16 56q-6 63 82 202q-102 64 -146 193q-25 78 -27 161zM518 480q4 -96 39 -185q25 -67 78 -117q146 203 366 445q344 379 603 612q-66 59 -117 86q-106 56 -263 81 t-297.5 17.5t-248.5 -43t-127 -90.5q-19 -58 13.5 -119.5t90.5 -113.5q14 -17 29 -2q109 98 259 149t251 14q32 -12 35.5 -27t-15.5 -25t-45 -9q-24 1 -59.5 20t-52.5 17q-100 -13 -195.5 -74t-132.5 -110q-7 -14 2 -21q55 -46 137 -86q45 -24 42 -32q-2 -6 -44 5 q-57 16 -166 74q-15 7 -24 -2q-45 -57 -80 -128t-58.5 -155.5t-19.5 -180.5zM668 154q116 -73 333 -41q101 15 219 78.5t225 156.5t190.5 220.5t111.5 258.5q20 93 -8 189t-94 174q-278 -247 -594 -586q-219 -232 -383 -450z" />
<glyph unicode="&#xd9;" horiz-adv-x="1343" d="M-512 854q0 79 35 150q107 221 379 393q295 188 585 176q76 -3 156 -92q77 -86 74 -164q-6 -154 -129 -391q-1 -2 -27 -48t-83 -147t-124 -217q-145 -252 -170 -377q-6 -18 -6 -35q0 -57 58 -57q24 0 61 16q194 88 602 428q255 208 537 455q17 14 35 33.5t46 51t46 50.5 q10 13 26 13q19 0 31 -16t8 -36q-15 -56 -22 -79q-93 -126 -258 -449q-180 -354 -222 -510q9 -21 9 -82q-1 -13 -8.5 -21t-16.5 -8q-20 0 -23 35q0 72 15 133q29 115 176 437q45 100 85 188t56 124.5t17 37.5q18 53 -2 53q-14 0 -27 -16q-214 -201 -545 -465 q-460 -369 -618 -418q-12 -4 -25 -4q-51 0 -89.5 44t-29.5 101q21 147 174 402q28 47 120 198t141 234q135 232 135 368q0 60 -45 117q-50 62 -138 68q-246 18 -524 -154q-269 -164 -397 -393q-35 -63 -35 -150q0 -131 127 -215q16 -8 16 -20q0 -8 -12 -8q-9 0 -22 8 q-116 89 -138 160q-14 46 -14 98zM1040 1698q0 45 45 45q13 0 21 -8q161 -151 252 -238q11 -8 6 -18q-10 -5 -18 0q-36 24 -293 198q-13 9 -13 21z" />
<glyph unicode="&#xda;" horiz-adv-x="1343" d="M-512 854q0 79 35 150q107 221 379 393q295 188 585 176q76 -3 156 -92q77 -86 74 -164q-6 -154 -129 -391q-1 -2 -27 -48t-83 -147t-124 -217q-145 -252 -170 -377q-6 -18 -6 -35q0 -57 58 -57q24 0 61 16q194 88 602 428q255 208 537 455q17 14 35 33.5t46 51t46 50.5 q10 13 26 13q19 0 31 -16t8 -36q-15 -56 -22 -79q-93 -126 -258 -449q-180 -354 -222 -510q9 -21 9 -82q-1 -13 -8.5 -21t-16.5 -8q-20 0 -23 35q0 72 15 133q29 115 176 437q45 100 85 188t56 124.5t17 37.5q18 53 -2 53q-14 0 -27 -16q-214 -201 -545 -465 q-460 -369 -618 -418q-12 -4 -25 -4q-51 0 -89.5 44t-29.5 101q21 147 174 402q28 47 120 198t141 234q135 232 135 368q0 60 -45 117q-50 62 -138 68q-246 18 -524 -154q-269 -164 -397 -393q-35 -63 -35 -150q0 -131 127 -215q16 -8 16 -20q0 -8 -12 -8q-9 0 -22 8 q-116 89 -138 160q-14 46 -14 98zM1202 1489q-7 11 2 20q17 11 152 138q126 114 135 116q34 9 45 -34q7 -20 -12 -33q-193 -127 -301 -207q-14 -7 -21 0z" />
<glyph unicode="&#xdb;" horiz-adv-x="1343" d="M-512 854q0 79 35 150q107 221 379 393q295 188 585 176q76 -3 156 -92q77 -86 74 -164q-6 -154 -129 -391q-1 -2 -27 -48t-83 -147t-124 -217q-145 -252 -170 -377q-6 -18 -6 -35q0 -57 58 -57q24 0 61 16q194 88 602 428q255 208 537 455q17 14 35 33.5t46 51t46 50.5 q10 13 26 13q19 0 31 -16t8 -36q-15 -56 -22 -79q-93 -126 -258 -449q-180 -354 -222 -510q9 -21 9 -82q-1 -13 -8.5 -21t-16.5 -8q-20 0 -23 35q0 72 15 133q29 115 176 437q45 100 85 188t56 124.5t17 37.5q18 53 -2 53q-14 0 -27 -16q-214 -201 -545 -465 q-460 -369 -618 -418q-12 -4 -25 -4q-51 0 -89.5 44t-29.5 101q21 147 174 402q28 47 120 198t141 234q135 232 135 368q0 60 -45 117q-50 62 -138 68q-246 18 -524 -154q-269 -164 -397 -393q-35 -63 -35 -150q0 -131 127 -215q16 -8 16 -20q0 -8 -12 -8q-9 0 -22 8 q-116 89 -138 160q-14 46 -14 98zM1020 1495q4 15 12 25q30 16 166 127q18 14 38.5 30t31.5 24.5t21.5 16t14.5 10t5 1.5q12 -9 121 -220q6 -15 6 -20q-2 -5 -4.5 -8.5t-5.5 -5.5l-3 -2q-9 -3 -14 10q-45 66 -63 88q-4 4 -10 10.5t-9.5 10t-8.5 8t-8 7t-6.5 5.5t-6 5 t-5.5 3.5t-5.5 1.5h-4.5q-102 -42 -244 -133q-24 -21 -18 6z" />
<glyph unicode="&#xdc;" horiz-adv-x="1343" d="M-512 854q0 79 35 150q107 221 379 393q295 188 585 176q76 -3 156 -92q77 -86 74 -164q-6 -154 -129 -391q-1 -2 -27 -48t-83 -147t-124 -217q-145 -252 -170 -377q-6 -18 -6 -35q0 -57 58 -57q24 0 61 16q194 88 602 428q255 208 537 455q17 14 35 33.5t46 51t46 50.5 q10 13 26 13q19 0 31 -16t8 -36q-15 -56 -22 -79q-93 -126 -258 -449q-180 -354 -222 -510q9 -21 9 -82q-1 -13 -8.5 -21t-16.5 -8q-20 0 -23 35q0 72 15 133q29 115 176 437q45 100 85 188t56 124.5t17 37.5q18 53 -2 53q-14 0 -27 -16q-214 -201 -545 -465 q-460 -369 -618 -418q-12 -4 -25 -4q-51 0 -89.5 44t-29.5 101q21 147 174 402q28 47 120 198t141 234q135 232 135 368q0 60 -45 117q-50 62 -138 68q-246 18 -524 -154q-269 -164 -397 -393q-35 -63 -35 -150q0 -131 127 -215q16 -8 16 -20q0 -8 -12 -8q-9 0 -22 8 q-116 89 -138 160q-14 46 -14 98zM1010 1513q0 29 47 76q47 50 76 56q22 4 41.5 -13.5t13.5 -36.5q-6 -33 -58 -79q-46 -43 -75 -37q-45 9 -45 34zM1296 1493q0 29 47 76q46 49 76 55q22 5 42 -12.5t14 -36.5q-6 -34 -58 -80q-46 -43 -76 -37q-45 9 -45 35z" />
<glyph unicode="&#xdd;" horiz-adv-x="1355" d="M-512 842q0 65 23 129q81 207 354 389q292 195 538 201q119 3 222 -95q102 -99 102 -202q0 -145 -139 -373q-70 -120 -275 -414q-159 -229 -207 -336q-22 -52 -22 -75q0 -29 29 -29q17 0 67 12q244 67 649 346q366 251 572 463l4 10q49 71 78 115q22 31 59 31q4 0 8 -4 q18 -44 -2 -64q-20 -14 -71 -65q-146 -319 -254 -557q21 -21 43 -61t22 -54q0 -19 -39 -70q-40 -47 -59 -49q-8 -1 -103 -29q-122 -199 -217 -315q-126 -156 -249 -225q-196 -112 -347 -109q-124 3 -198 64q-70 55 -70 137q0 102 100 180q265 204 938 309q37 49 164 312 q9 19 69.5 143.5t90.5 190.5q6 20 4 22q-2 8 -12 -2q-258 -229 -565 -438q-396 -267 -650 -338q-36 -9 -69 28t-33 89q0 22 8 41q37 114 203 360q177 261 272 416q138 237 138 385q0 180 -226 198q-199 15 -489 -161q-302 -186 -391 -390q-33 -70 -33 -135q0 -50 18.5 -86.5 t67.5 -68.5q50 -34 84 -37q29 -3 29 -15t-39 -6q-133 23 -174 113q-23 57 -23 119zM37 -408q0 -152 233 -149q173 3 332 108q133 90 240 232q39 50 176 266q-177 -24 -414 -88q-331 -90 -473 -203q-94 -73 -94 -166zM1116 117l86 22q42 23 45 66t-37 96q-37 -75 -94 -184z M1126 1489q-7 11 2 20q17 11 152 138q126 114 135 116q34 9 45 -34q7 -20 -12 -33q-193 -127 -301 -207q-14 -7 -21 0z" />
<glyph unicode="&#xde;" horiz-adv-x="1058" d="M246 -82q29 102 150.5 476t154.5 493q-72 43 -72 80q11 59 135 137q20 48 71 164t130 317l4 17q4 16 17 31.5t41 33.5q38 27 41 -6q1 -5 -9 -15.5t-16 -31.5q-71 -149 -91 -203q-1 -3 -77 -223q220 140 379 176q59 11 107 0.5t85.5 -36t59 -49t26.5 -38.5 q12 -72 8.5 -137t-13.5 -119.5t-32.5 -104.5t-50 -92t-65.5 -81t-79 -72t-90.5 -65t-99.5 -60.5t-106.5 -58.5t-112.5 -58q-110 -56 -166 -86q-61 -20 -79 41q-7 11 8 33q10 14 50.5 26t103.5 30.5t139.5 49t178 95.5t198.5 155q36 23 80.5 116.5t69 202t7.5 163.5 q-7 37 -36 59t-71.5 27t-88.5 1t-95 -16q-140 -35 -348 -196q-46 -141 -220 -614t-200 -552q-5 8 -6 3t-6.5 -11.5t-13.5 -1.5z" />
<glyph unicode="&#xdf;" horiz-adv-x="987" d="M-41 -486q0 10 2 23q49 257 154 574.5t215 560.5q-6 -1 -27 -2.5t-34 -3.5t-33.5 -8t-36.5 -15q-25 -12 -36 -4.5t-8 25.5t17 26q34 20 110.5 35.5t77.5 15.5q9 16 62 109t91.5 155.5t80.5 122.5q72 101 158.5 162t150.5 64q82 3 151.5 -40t97.5 -117.5t-7 -172.5 q-20 -52 -76.5 -113.5t-126.5 -114.5t-136 -95t-118 -68q-44 -22 -56 -40t4.5 -33t61.5 -32q21 -7 77.5 -27.5t70.5 -25.5q30 -13 64 -51.5t50.5 -88t-12.5 -93.5q-54 -74 -161 -132t-212 -86.5t-196 -33.5q-52 -4 -82.5 26t-17.5 54q3 17 16.5 32t30.5 21q47 15 59 1 q7 -9 -10 -18q-22 -14 -22.5 -26.5t16 -19t39.5 -3.5q150 18 268.5 63t202.5 142q47 56 23.5 103t-105.5 69q-21 5 -64 19.5t-61 19.5q-61 17 -97 40.5t-45 50.5t16.5 59t86.5 63q366 187 457 367q14 27 17 62.5t-7 70.5t-32 62.5t-64 40t-97 1.5q-128 -24 -258 -209 q-192 -269 -366 -687t-283 -873q-10 -42 -26 -41q-16 0 -15 34z" />
<glyph unicode="&#xe0;" d="M14 82q0 145 228 373q207 204 368 266q40 16 84 16q40 0 99 -18q34 -3 38 -2q37 6 54 26q5 5 12 5t13.5 -10t4.5 -15q-175 -272 -231 -363q-82 -137 -156 -344t-94 -335q-2 -14 -2 -39q0 -68 42.5 -103t117.5 -35q72 0 145 25q109 37 283 176q138 112 266 275 q17 20 25 20q2 -2 2 -6q0 -10 -8 -23q-110 -165 -273 -303q-175 -143 -280 -180q-62 -20 -119 -20q-80 0 -164 53q-71 46 -68 160q3 84 57 264t111 305q70 153 138 254q14 22 -2 22q-3 0 -7 -4q-97 -114 -276 -268q-184 -154 -309 -227q-27 -17 -47 -17q-52 0 -52 72z M137 154q0 -50 37 -50q13 0 31 11q218 138 514 489q6 6 6 14q0 24 -27 43t-67 19q-23 0 -47 -6q-96 -23 -244 -187q-134 -149 -195 -286q-8 -21 -8 -47zM518 1083q0 45 45 45q13 0 21 -8q197 -184 252 -237q11 -8 6 -19q-11 -5 -19 0q-42 28 -148 100.5t-145 98.5 q-12 8 -12 20z" />
<glyph unicode="&#xe1;" d="M14 82q0 145 228 373q207 204 368 266q40 16 84 16q40 0 99 -18q34 -3 38 -2q37 6 54 26q5 5 12 5t13.5 -10t4.5 -15q-175 -272 -231 -363q-82 -137 -156 -344t-94 -335q-2 -14 -2 -39q0 -68 42.5 -103t117.5 -35q72 0 145 25q109 37 283 176q138 112 266 275 q17 20 25 20q2 -2 2 -6q0 -10 -8 -23q-110 -165 -273 -303q-175 -143 -280 -180q-62 -20 -119 -20q-80 0 -164 53q-71 46 -68 160q3 84 57 264t111 305q70 153 138 254q14 22 -2 22q-3 0 -7 -4q-97 -114 -276 -268q-184 -154 -309 -227q-27 -17 -47 -17q-52 0 -52 72z M137 154q0 -50 37 -50q13 0 31 11q218 138 514 489q6 6 6 14q0 24 -27 43t-67 19q-23 0 -47 -6q-96 -23 -244 -187q-134 -149 -195 -286q-8 -21 -8 -47zM680 874q-8 11 2 21q20 14 152 137q127 115 135 117q34 9 45 -35q7 -20 -13 -33q-193 -127 -301 -207q-13 -7 -20 0z " />
<glyph unicode="&#xe2;" d="M14 82q0 145 228 373q207 204 368 266q40 16 84 16q40 0 99 -18q34 -3 38 -2q37 6 54 26q5 5 12 5t13.5 -10t4.5 -15q-175 -272 -231 -363q-82 -137 -156 -344t-94 -335q-2 -14 -2 -39q0 -68 42.5 -103t117.5 -35q72 0 145 25q109 37 283 176q138 112 266 275 q17 20 25 20q2 -2 2 -6q0 -10 -8 -23q-110 -165 -273 -303q-175 -143 -280 -180q-62 -20 -119 -20q-80 0 -164 53q-71 46 -68 160q3 84 57 264t111 305q70 153 138 254q14 22 -2 22q-3 0 -7 -4q-97 -114 -276 -268q-184 -154 -309 -227q-27 -17 -47 -17q-52 0 -52 72z M137 154q0 -50 37 -50q13 0 31 11q218 138 514 489q6 6 6 14q0 24 -27 43t-67 19q-23 0 -47 -6q-96 -23 -244 -187q-134 -149 -195 -286q-8 -21 -8 -47zM563 881q3 13 12 24q30 16 166 127q18 14 38.5 30t31.5 24.5t21.5 16t14.5 10t5 1.5q13 -9 121 -219q6 -15 6 -21 q-2 -6 -12 -16q-10 -3 -15 10q-45 66 -63 88q-23 25 -39 39t-25 13q-95 -39 -243 -134q-12 -10 -17 -8.5t-2 15.5z" />
<glyph unicode="&#xe3;" d="M14 82q0 145 228 373q207 204 368 266q40 16 84 16q40 0 99 -18q34 -3 38 -2q37 6 54 26q5 5 12 5t13.5 -10t4.5 -15q-175 -272 -231 -363q-82 -137 -156 -344t-94 -335q-2 -14 -2 -39q0 -68 42.5 -103t117.5 -35q72 0 145 25q109 37 283 176q138 112 266 275 q17 20 25 20q2 -2 2 -6q0 -10 -8 -23q-110 -165 -273 -303q-175 -143 -280 -180q-62 -20 -119 -20q-80 0 -164 53q-71 46 -68 160q3 84 57 264t111 305q70 153 138 254q14 22 -2 22q-3 0 -7 -4q-97 -114 -276 -268q-184 -154 -309 -227q-27 -17 -47 -17q-52 0 -52 72z M137 154q0 -50 37 -50q13 0 31 11q218 138 514 489q6 6 6 14q0 24 -27 43t-67 19q-23 0 -47 -6q-96 -23 -244 -187q-134 -149 -195 -286q-8 -21 -8 -47zM578 889q0 3 14 24q89 86 131 86q21 0 104 -36q75 -33 115 -33q69 0 102 33q16 12 23 12q6 0 6 -6t-10 -23 q-78 -78 -121 -78q-32 0 -108 33q-81 37 -111 37q-45 0 -94 -27l-47 -26q-4 0 -4 4z" />
<glyph unicode="&#xe4;" d="M14 82q0 145 228 373q207 204 368 266q40 16 84 16q40 0 99 -18q34 -3 38 -2q37 6 54 26q5 5 12 5t13.5 -10t4.5 -15q-175 -272 -231 -363q-82 -137 -156 -344t-94 -335q-2 -14 -2 -39q0 -68 42.5 -103t117.5 -35q72 0 145 25q109 37 283 176q138 112 266 275 q17 20 25 20q2 -2 2 -6q0 -10 -8 -23q-110 -165 -273 -303q-175 -143 -280 -180q-62 -20 -119 -20q-80 0 -164 53q-71 46 -68 160q3 84 57 264t111 305q70 153 138 254q14 22 -2 22q-3 0 -7 -4q-97 -114 -276 -268q-184 -154 -309 -227q-27 -17 -47 -17q-52 0 -52 72z M137 154q0 -50 37 -50q13 0 31 11q218 138 514 489q6 6 6 14q0 24 -27 43t-67 19q-23 0 -47 -6q-96 -23 -244 -187q-134 -149 -195 -286q-8 -21 -8 -47zM590 899q0 29 47 76q46 49 76 55q22 5 41.5 -12.5t13.5 -36.5q-6 -35 -57 -80q-46 -43 -76 -37q-45 9 -45 35zM877 879 q0 28 47 75q47 50 75 56q22 5 42 -12.5t14 -36.5q-6 -34 -58 -80q-46 -43 -75 -37q-45 9 -45 35z" />
<glyph unicode="&#xe5;" d="M14 82q0 145 228 373q207 204 368 266q40 16 84 16q40 0 99 -18q34 -3 38 -2q37 6 54 26q5 5 12 5t13.5 -10t4.5 -15q-175 -272 -231 -363q-82 -137 -156 -344t-94 -335q-2 -14 -2 -39q0 -68 42.5 -103t117.5 -35q72 0 145 25q109 37 283 176q138 112 266 275 q17 20 25 20q2 -2 2 -6q0 -10 -8 -23q-110 -165 -273 -303q-175 -143 -280 -180q-62 -20 -119 -20q-80 0 -164 53q-71 46 -68 160q3 84 57 264t111 305q70 153 138 254q14 22 -2 22q-3 0 -7 -4q-97 -114 -276 -268q-184 -154 -309 -227q-27 -17 -47 -17q-52 0 -52 72z M137 154q0 -50 37 -50q13 0 31 11q218 138 514 489q6 6 6 14q0 24 -27 43t-67 19q-23 0 -47 -6q-96 -23 -244 -187q-134 -149 -195 -286q-8 -21 -8 -47zM698 944q0 13 9 49q20 68 59 115q48 63 100 80q52 29 82 31q88 9 88 -86q0 -20 -10 -62q-26 -72 -76 -125 q-62 -65 -131 -82q-12 -4 -37 -4q-84 0 -84 84zM764 977q0 -35 19.5 -53.5t45.5 -12.5q48 11 89 51.5t59 100.5q6 21 6 43q0 60 -53 57q-49 -3 -86 -37q-66 -54 -78 -122q0 -4 -1 -13t-1 -14z" />
<glyph unicode="&#xe6;" horiz-adv-x="1069" d="M14 82q0 145 228 373q207 204 368 266q40 16 84 16q40 0 99 -18q34 -3 38 -2q7 0 23 4q91 76 172 108q31 10 56.5 3.5t44 -28t28 -48t8.5 -56.5t-14 -53q-32 -56 -111 -96t-182 -55q316 0 404 10q40 4 83.5 26t71.5 46q10 15 18 8q5 -6 -3 -17q-27 -30 -73 -58.5 t-97 -35.5q-92 -14 -562 -14q-144 -194 -153 -334q-4 -83 36 -115.5t101 -25.5q64 7 140 35t136 63q22 12 27 2q2 -7 -10 -16q-55 -39 -131.5 -78t-143.5 -51q-65 -11 -136 49.5t-68 136.5q6 116 67 238q-63 -69 -141 -138q-42 -35 -89 -68t-74 -49t-80.5 -46t-65.5 -37 q-27 -17 -47 -17q-52 0 -52 72zM137 154q0 -50 37 -50q13 0 31 11q218 138 514 489q6 6 6 14q0 24 -27 43t-67 19q-23 0 -47 -6q-96 -23 -244 -187q-134 -149 -195 -286q-8 -21 -8 -47zM721 496q109 0 219.5 49t159.5 121q21 32 23.5 57.5t-10 38t-37 11.5t-54.5 -17 q-130 -74 -301 -260z" />
<glyph unicode="&#xe7;" horiz-adv-x="616" d="M27.5 -400q4.5 7 17.5 9q53 1 113 39t80 76q23 37 1 67t-79 45q-31 9 -15 25q43 43 91 80q-60 15 -108 67.5t-44 114.5q5 106 61.5 224t136.5 211.5t170.5 163t163.5 91.5q52 16 95.5 -4.5t52.5 -64t-27 -101.5q-20 -28 -49 -30q-20 -1 -19 15q2 14 19 34q24 29 28 54.5 t-10.5 37.5t-39 14t-56.5 -16q-127 -72 -299 -263l-24 -32q-30 -42 -50 -72t-46 -76t-40.5 -93t-17.5 -93q-5 -83 35 -114.5t102 -26.5q132 15 279 98q21 13 25 3q3 -7 -11 -17q-149 -107 -274 -129h-19q-27 -21 -49 -54q-7 -4 -6.5 -13.5t14.5 -12.5q15 -5 32 -15t35 -29.5 t19.5 -44t-14.5 -57.5q-21 -38 -101.5 -81.5t-148.5 -47.5q-15 -1 -21.5 5t-2 13z" />
<glyph unicode="&#xe8;" horiz-adv-x="655" d="M82 127q5 107 62 225t137.5 212t169.5 166t161 99q31 10 56.5 3.5t44 -28t28 -48t8.5 -56.5t-14 -53q-32 -56 -111 -96t-182 -55q316 0 404 10q40 4 83.5 26t71.5 46q10 15 18 8q5 -6 -3 -17q-27 -30 -73 -58.5t-97 -35.5q-92 -14 -561 -14q-145 -195 -154 -334 q-4 -83 36 -115.5t101 -25.5q64 7 140.5 35t136.5 63q21 11 26 2q4 -6 -10 -16q-55 -40 -131 -78.5t-143 -50.5q-65 -11 -136.5 49.5t-68.5 136.5zM307 496q109 0 219.5 49t159.5 121q21 32 23.5 57.5t-10 38t-37 11.5t-54.5 -17q-130 -74 -301 -260zM451 1145q0 45 45 45 q12 0 20 -8q161 -151 252 -238q11 -8 6 -18q-10 -5 -18 0q-36 24 -293 198q-12 8 -12 21z" />
<glyph unicode="&#xe9;" horiz-adv-x="655" d="M82 127q5 107 62 225t137.5 212t169.5 166t161 99q31 10 56.5 3.5t44 -28t28 -48t8.5 -56.5t-14 -53q-32 -56 -111 -96t-182 -55q316 0 404 10q40 4 83.5 26t71.5 46q10 15 18 8q5 -6 -3 -17q-27 -30 -73 -58.5t-97 -35.5q-92 -14 -561 -14q-145 -195 -154 -334 q-4 -83 36 -115.5t101 -25.5q64 7 140.5 35t136.5 63q21 11 26 2q4 -6 -10 -16q-55 -40 -131 -78.5t-143 -50.5q-65 -11 -136.5 49.5t-68.5 136.5zM307 496q109 0 219.5 49t159.5 121q21 32 23.5 57.5t-10 38t-37 11.5t-54.5 -17q-130 -74 -301 -260zM590 936q-7 11 2 20 q13 9 151 138q125 113 136 116q34 9 45 -34q7 -20 -13 -33q-193 -127 -301 -207q-13 -7 -20 0z" />
<glyph unicode="&#xea;" horiz-adv-x="655" d="M82 127q5 107 62 225t137.5 212t169.5 166t161 99q31 10 56.5 3.5t44 -28t28 -48t8.5 -56.5t-14 -53q-32 -56 -111 -96t-182 -55q316 0 404 10q40 4 83.5 26t71.5 46q10 15 18 8q5 -6 -3 -17q-27 -30 -73 -58.5t-97 -35.5q-92 -14 -561 -14q-145 -195 -154 -334 q-4 -83 36 -115.5t101 -25.5q64 7 140.5 35t136.5 63q21 11 26 2q4 -6 -10 -16q-55 -40 -131 -78.5t-143 -50.5q-65 -11 -136.5 49.5t-68.5 136.5zM307 496q109 0 219.5 49t159.5 121q21 32 23.5 57.5t-10 38t-37 11.5t-54.5 -17q-130 -74 -301 -260zM475 942q4 15 12 25 q30 16 166 127q18 14 38.5 30t31.5 24.5t21.5 16t14.5 10t5 1.5q12 -9 121 -220q6 -15 6 -20q-2 -6 -12 -16q-10 -3 -15 10q-45 66 -63 88q-4 4 -10 10.5t-9.5 10t-8.5 8t-8 7t-6.5 5.5t-6 5t-5.5 3.5t-5.5 1.5h-4.5q-100 -41 -243 -133q-25 -22 -19 6z" />
<glyph unicode="&#xeb;" horiz-adv-x="655" d="M82 127q5 107 62 225t137.5 212t169.5 166t161 99q31 10 56.5 3.5t44 -28t28 -48t8.5 -56.5t-14 -53q-32 -56 -111 -96t-182 -55q316 0 404 10q40 4 83.5 26t71.5 46q10 15 18 8q5 -6 -3 -17q-27 -30 -73 -58.5t-97 -35.5q-92 -14 -561 -14q-145 -195 -154 -334 q-4 -83 36 -115.5t101 -25.5q64 7 140.5 35t136.5 63q21 11 26 2q4 -6 -10 -16q-55 -40 -131 -78.5t-143 -50.5q-65 -11 -136.5 49.5t-68.5 136.5zM307 496q109 0 219.5 49t159.5 121q21 32 23.5 57.5t-10 38t-37 11.5t-54.5 -17q-130 -74 -301 -260zM500 961q0 28 47 75 q47 50 76 56q22 4 41.5 -13.5t13.5 -36.5q-6 -34 -57 -79q-46 -43 -76 -37q-45 9 -45 35zM786 940q0 28 48 76q46 49 75 55q22 5 42 -12.5t14 -36.5q-6 -34 -58 -80q-46 -43 -76 -37q-45 9 -45 35z" />
<glyph unicode="&#xec;" horiz-adv-x="372" d="M94 109q1 59 55 189t110 243t58 123q5 31 36 38q32 7 49 -18q19 -27 -5 -72q-181 -341 -186 -357q-7 -20 -41 -91q-19 -39 -24 -66.5t2 -40.5t22.5 -18.5t31.5 -4.5t34 5q72 18 130.5 53t118.5 92q33 33 35.5 17t-22.5 -41q-57 -57 -112.5 -97t-137.5 -77 q-32 -14 -93.5 21.5t-60.5 101.5zM227 1042q0 45 45 45q13 0 21 -8q197 -184 252 -237q11 -8 6 -19q-11 -5 -19 0q-41 27 -141.5 96t-150.5 103q-13 9 -13 20z" />
<glyph unicode="&#xed;" horiz-adv-x="372" d="M94 109q1 59 55 189t110 243t58 123q5 31 36 38q32 7 49 -18q19 -27 -5 -72q-181 -341 -186 -357q-7 -20 -41 -91q-19 -39 -24 -66.5t2 -40.5t22.5 -18.5t31.5 -4.5t34 5q72 18 130.5 53t118.5 92q33 33 35.5 17t-22.5 -41q-57 -57 -112.5 -97t-137.5 -77 q-32 -14 -93.5 21.5t-60.5 101.5zM369 834q-7 11 2 20q17 11 151 137q127 115 135 117q34 9 45 -35q7 -20 -12 -33q-204 -134 -301 -206q-13 -7 -20 0z" />
<glyph unicode="&#xee;" horiz-adv-x="372" d="M94 109q1 59 55 189t110 243t58 123q5 31 36 38q32 7 49 -18q19 -27 -5 -72q-181 -341 -186 -357q-7 -20 -41 -91q-19 -39 -24 -66.5t2 -40.5t22.5 -18.5t31.5 -4.5t34 5q72 18 130.5 53t118.5 92q33 33 35.5 17t-22.5 -41q-57 -57 -112.5 -97t-137.5 -77 q-32 -14 -93.5 21.5t-60.5 101.5zM231 840q3 11 13 24q30 16 166 127q18 14 38.5 29.5t31.5 24.5t21 16.5t14 10t5 1.5q13 -9 121 -219q6 -15 6 -20q-3 -8 -12 -17q-9 -3 -14 10q-39 56 -64 88q-7 7 -17.5 18t-15 15.5t-11 10t-11 7.5t-8.5 1q-102 -42 -244 -133 q-25 -22 -19 6z" />
<glyph unicode="&#xef;" horiz-adv-x="372" d="M94 109q1 59 55 189t110 243t58 123q5 31 36 38q32 7 49 -18q19 -27 -5 -72q-181 -341 -186 -357q-7 -20 -41 -91q-19 -39 -24 -66.5t2 -40.5t22.5 -18.5t31.5 -4.5t34 5q72 18 130.5 53t118.5 92q33 33 35.5 17t-22.5 -41q-57 -57 -112.5 -97t-137.5 -77 q-32 -14 -93.5 21.5t-60.5 101.5zM238 858q0 29 47 76q46 49 75 55q22 5 42 -12.5t14 -36.5q-6 -34 -58 -80q-46 -43 -75 -37q-45 9 -45 35zM524 838q0 28 47 75q47 50 76 56q22 5 41.5 -12.5t13.5 -36.5q-6 -35 -57 -80q-46 -43 -76 -37q-45 9 -45 35z" />
<glyph unicode="&#xf0;" horiz-adv-x="731" d="M-184 1942q9 21 34 18q130 -15 246 -66q370 -149 584 -514q3 -6 16 -29t19 -36q47 19 69 37q55 46 58 92q5 18 10 22q3 5 8 0q2 -2 6 -24q-9 -111 -43 -137q-17 -14 -84 -39q147 -309 101 -631q-1 -47 -35.5 -110.5t-88.5 -125.5t-98.5 -106.5t-85.5 -81.5 q-33 -29 -70 -55.5t-63.5 -43t-67.5 -36.5t-56 -26.5t-57.5 -23.5t-45.5 -18q-4 -1 -38 -5.5t-40 -4.5q-76 0 -76 70q0 136 242 366q221 209 371 266q42 17 84 17q56 0 88 -39q29 324 -105 575q-64 -17 -88 -34q-35 -31 -53 -82l-20 -52q-3 -3 -7 2l-4 27q12 124 45 152 q13 11 101 34l-21 37q-208 338 -545 475q-110 42 -202 56q-1 1 -10.5 -5.5t-22 -11t-21.5 -0.5q-23 15 -33 42.5t-1 48.5zM139 133q0 -45 35 -45q32 0 62 10q163 49 281.5 149.5t213.5 284.5q19 36 19 78q0 47 -74 47q-26 0 -53 -6q-98 -22 -263 -184q-150 -150 -210 -289 q-11 -29 -11 -45z" />
<glyph unicode="&#xf1;" horiz-adv-x="698" d="M0 57q-8 8 4 33q47 99 160 272q100 152 188 261q14 21 51 26q12 3 15 0q0 -8 -6 -14q-151 -176 -232 -361q-8 -11 -8 -26q0 -23 16 -23q13 0 25 15q91 88 248 217q153 123 207 143q30 26 51 33q46 21 72 8q27 -9 -3 -47q-147 -187 -262 -430q-107 -232 -120 -385 q-6 -99 38 -146q42 -45 113 -45q29 0 59 9q117 34 293 182q195 168 195 266q0 25 -15.5 34.5t-31 10.5t-15.5 6q0 11 17.5 20t32.5 9q34 0 34 -47q0 -23 -12 -60q-35 -113 -184 -262q-198 -195 -426 -219q-81 -9 -135 45q-56 62 -47 193q12 138 129 370q102 203 211 351 q6 9 6 20q0 33 -37 33q-16 0 -33 -10q-220 -156 -469 -445q-21 -27 -104 -45q-22 -3 -25 8zM479 827q0 3 15 25q89 86 131 86q19 0 104 -37q75 -33 115 -33q69 0 102 33q16 12 23 12q6 0 6 -6q0 -5 -10 -22q-78 -78 -121 -78q-33 0 -109 33q-81 37 -110 37q-45 0 -95 -27 l-47 -27q-4 0 -4 4z" />
<glyph unicode="&#xf2;" horiz-adv-x="724" d="M39 39q3 170 274 502q7 14 -4 18q-55 31 -55 49v6t2.5 6.5t8 8t18 5t30.5 3.5q77 3 78 2q10 0 23 8q45 42 90 45q26 2 92 -37q1 -1 6 -4t8 -4q18 -1 109.5 -3.5t157.5 -4.5q30 0 30 -8q0 -13 -30 -13q-64 0 -82 -24q-3 -6 0 -12q1 -3 2.5 -8t2.5 -8.5t1 -6.5 q-12 -156 -250 -360q-246 -211 -420 -234q-30 -5 -61 19t-31 55zM90 29q0 -49 66 -37q138 21 333 201q206 185 236 331q7 32 -13 49.5t-65 22.5q-92 11 -172 -18q-4 2 -35 -19q-218 -203 -338 -485q-12 -21 -12 -45zM465 1022q0 45 45 45q12 0 20 -8q161 -151 252 -238 q11 -8 6 -18q-10 -5 -18 0q-36 24 -293 198q-12 8 -12 21z" />
<glyph unicode="&#xf3;" horiz-adv-x="724" d="M39 39q3 170 274 502q7 14 -4 18q-55 31 -55 49v6t2.5 6.5t8 8t18 5t30.5 3.5q77 3 78 2q10 0 23 8q45 42 90 45q26 2 92 -37q1 -1 6 -4t8 -4q18 -1 109.5 -3.5t157.5 -4.5q30 0 30 -8q0 -13 -30 -13q-64 0 -82 -24q-3 -6 0 -12q1 -3 2.5 -8t2.5 -8.5t1 -6.5 q-12 -156 -250 -360q-246 -211 -420 -234q-30 -5 -61 19t-31 55zM90 29q0 -49 66 -37q138 21 333 201q206 185 236 331q7 32 -13 49.5t-65 22.5q-92 11 -172 -18q-4 2 -35 -19q-218 -203 -338 -485q-12 -21 -12 -45zM604 813q-8 11 2 21q20 14 152 137q126 114 135 116 q34 9 45 -34q7 -20 -12 -33q-193 -127 -301 -207q-14 -7 -21 0z" />
<glyph unicode="&#xf4;" horiz-adv-x="724" d="M39 39q3 170 274 502q7 14 -4 18q-55 31 -55 49v6t2.5 6.5t8 8t18 5t30.5 3.5q77 3 78 2q10 0 23 8q45 42 90 45q26 2 92 -37q1 -1 6 -4t8 -4q18 -1 109.5 -3.5t157.5 -4.5q30 0 30 -8q0 -13 -30 -13q-64 0 -82 -24q-3 -6 0 -12q1 -3 2.5 -8t2.5 -8.5t1 -6.5 q-12 -156 -250 -360q-246 -211 -420 -234q-30 -5 -61 19t-31 55zM90 29q0 -49 66 -37q138 21 333 201q206 185 236 331q7 32 -13 49.5t-65 22.5q-92 11 -172 -18q-4 2 -35 -19q-218 -203 -338 -485q-12 -21 -12 -45zM487 819q3 13 13 25q30 16 166 127q18 14 38.5 29.5 t31.5 24.5t21 16.5t14 10t5 1.5q13 -9 121 -219q6 -15 6 -21q-2 -6 -12 -16q-9 -3 -14 10q-39 56 -64 88l-13.5 13.5l-11.5 11.5l-9.5 9.5t-8.5 8t-7 5t-7 3t-6 0.5q-102 -42 -244 -133q-25 -22 -19 6z" />
<glyph unicode="&#xf5;" horiz-adv-x="724" d="M39 39q3 170 274 502q7 14 -4 18q-55 31 -55 49v6t2.5 6.5t8 8t18 5t30.5 3.5q77 3 78 2q10 0 23 8q45 42 90 45q26 2 92 -37q1 -1 6 -4t8 -4q18 -1 109.5 -3.5t157.5 -4.5q30 0 30 -8q0 -13 -30 -13q-64 0 -82 -24q-3 -6 0 -12q1 -3 2.5 -8t2.5 -8.5t1 -6.5 q-12 -156 -250 -360q-246 -211 -420 -234q-30 -5 -61 19t-31 55zM90 29q0 -49 66 -37q138 21 333 201q206 185 236 331q7 32 -13 49.5t-65 22.5q-92 11 -172 -18q-4 2 -35 -19q-218 -203 -338 -485q-12 -21 -12 -45zM463 827q0 4 14 25q89 86 131 86q20 0 105 -37 q75 -33 114 -33q70 0 103 33q16 12 22 12t6 -6q0 -5 -10 -22q-78 -78 -121 -78q-32 0 -108 33q-81 37 -111 37q-44 0 -94 -27l-47 -27q-4 0 -4 4z" />
<glyph unicode="&#xf6;" horiz-adv-x="724" d="M39 39q3 170 274 502q7 14 -4 18q-55 31 -55 49v6t2.5 6.5t8 8t18 5t30.5 3.5q77 3 78 2q10 0 23 8q45 42 90 45q26 2 92 -37q1 -1 6 -4t8 -4q18 -1 109.5 -3.5t157.5 -4.5q30 0 30 -8q0 -13 -30 -13q-64 0 -82 -24q-3 -6 0 -12q1 -3 2.5 -8t2.5 -8.5t1 -6.5 q-12 -156 -250 -360q-246 -211 -420 -234q-30 -5 -61 19t-31 55zM90 29q0 -49 66 -37q138 21 333 201q206 185 236 331q7 32 -13 49.5t-65 22.5q-92 11 -172 -18q-4 2 -35 -19q-218 -203 -338 -485q-12 -21 -12 -45zM494 838q0 28 47 75q47 50 75 56q22 5 42 -12.5t14 -36.5 q-6 -34 -58 -80q-46 -43 -75 -37q-45 9 -45 35zM780 817q0 29 47 76q46 49 76 55q22 5 41.5 -12.5t13.5 -36.5q-6 -35 -57 -80q-46 -43 -76 -37q-45 9 -45 35z" />
<glyph unicode="&#xf7;" horiz-adv-x="909" d="M29 657q-3 19 4 19q10 -14 31.5 -24.5t39.5 -14.5q129 -20 279 -29l39 -2q235 -11 373 35q72 20 43 55q-2 2 -14 12t-19 15q-7 7 -8.5 11t2 4.5t10.5 -1.5q14 -1 38.5 -22t35.5 -39q28 -48 -31 -72q-151 -43 -406 -43h-32q-182 0 -310 21q-12 4 -39 31.5t-36 43.5z M377 786q6 12 45.5 18.5t62.5 6.5q13 0 29.5 -54.5t3.5 -72.5q-15 -9 -54 -16t-54 2q-12 10 -27.5 57.5t-5.5 58.5zM385 475q14 19 109 19q14 0 28.5 -53.5t1.5 -65.5q-9 -11 -51 -19.5t-53 0.5q-14 14 -30 59.5t-5 59.5z" />
<glyph unicode="&#xf8;" horiz-adv-x="710" d="M-18 -119q10 57 108 178q-6 18 -6 25q-14 89 29.5 206.5t116 220t150 185t134.5 119.5q29 19 40.5 0.5t-1.5 -43.5q31 10 76 13t57 -1q47 -16 82 -51q93 76 123 98q18 11 27 11q14 0 14 -11q0 -16 -19 -22q-62 -47 -125 -104q23 -38 15 -78q-28 -119 -113 -254.5 t-196.5 -243.5t-214.5 -152q-31 -14 -87 5t-88 57q-89 -108 -104 -164q-6 -29 -14 -29l-2 12q-2 12 -2 23zM147 125q88 98 203 213q218 221 381 362q-20 25 -86 19q-112 -14 -172 -39q-107 -96 -207 -256.5t-116 -280.5q-3 -9 -3 -18zM150 88q6 -64 57.5 -73.5t118.5 30.5 q71 39 164 144t165.5 229t85.5 209q2 14 2 43q-162 -143 -368 -346q-155 -155 -225 -236z" />
<glyph unicode="&#xf9;" horiz-adv-x="921" d="M70 104q5 68 49 168.5t106 199t118.5 178.5t100.5 132q20 22 50 19q28 -3 22 -27q-4 -13 -16 -29q-102 -127 -204.5 -296t-131.5 -271q-24 -80 1 -107t77 5q74 44 170 130t174 168t168 174.5t141 137.5q34 31 55 -10q16 -32 7 -61q-1 -4 -3 -7q-66 -99 -135.5 -240 t-81.5 -218q-7 -44 2 -63t26.5 -16.5t36.5 6.5q3 1 5 1q8 3 55.5 34t97.5 65t54 36q32 22 36 5q1 -16 -22 -40q-23 -23 -122 -91t-124 -77q-27 -8 -64.5 28t-37.5 75q0 19 3 41.5t6 39.5t11.5 44t12.5 40t16 43t15 38t17 40t15 35q14 35 0 50.5t-49 -17.5q-93 -92 -183 -177 t-202.5 -181t-151.5 -109q-53 -18 -88 16t-32 88zM522 1083q0 45 45 45q13 0 21 -8q197 -184 252 -237q11 -8 6 -19q-11 -5 -19 0q-41 27 -141.5 96t-150.5 103q-13 9 -13 20z" />
<glyph unicode="&#xfa;" horiz-adv-x="921" d="M70 104q5 68 49 168.5t106 199t118.5 178.5t100.5 132q20 22 50 19q28 -3 22 -27q-4 -13 -16 -29q-102 -127 -204.5 -296t-131.5 -271q-24 -80 1 -107t77 5q74 44 170 130t174 168t168 174.5t141 137.5q34 31 55 -10q16 -32 7 -61q-1 -4 -3 -7q-66 -99 -135.5 -240 t-81.5 -218q-7 -44 2 -63t26.5 -16.5t36.5 6.5q3 1 5 1q8 3 55.5 34t97.5 65t54 36q32 22 36 5q1 -16 -22 -40q-23 -23 -122 -91t-124 -77q-27 -8 -64.5 28t-37.5 75q0 19 3 41.5t6 39.5t11.5 44t12.5 40t16 43t15 38t17 40t15 35q14 35 0 50.5t-49 -17.5q-93 -92 -183 -177 t-202.5 -181t-151.5 -109q-53 -18 -88 16t-32 88zM702 874q-7 11 3 21q17 11 151 137q127 115 135 117q34 9 45 -35q7 -20 -12 -33q-193 -127 -301 -207q-14 -7 -21 0z" />
<glyph unicode="&#xfb;" horiz-adv-x="921" d="M70 104q5 68 49 168.5t106 199t118.5 178.5t100.5 132q20 22 50 19q28 -3 22 -27q-4 -13 -16 -29q-102 -127 -204.5 -296t-131.5 -271q-24 -80 1 -107t77 5q74 44 170 130t174 168t168 174.5t141 137.5q34 31 55 -10q16 -32 7 -61q-1 -4 -3 -7q-66 -99 -135.5 -240 t-81.5 -218q-7 -44 2 -63t26.5 -16.5t36.5 6.5q3 1 5 1q8 3 55.5 34t97.5 65t54 36q32 22 36 5q1 -16 -22 -40q-23 -23 -122 -91t-124 -77q-27 -8 -64.5 28t-37.5 75q0 19 3 41.5t6 39.5t11.5 44t12.5 40t16 43t15 38t17 40t15 35q14 35 0 50.5t-49 -17.5q-93 -92 -183 -177 t-202.5 -181t-151.5 -109q-53 -18 -88 16t-32 88zM565 881q3 11 13 24q27 14 165 127q18 14 38.5 30t31.5 24.5t21.5 16t14.5 10t5 1.5q13 -9 121 -219q6 -15 6 -21q-2 -6 -12 -16q-10 -3 -15 10q-45 66 -63 88l-13.5 13.5l-11.5 11.5l-9.5 9.5t-9 8.5t-7.5 5.5t-7 3t-6 0.5 q-95 -39 -243 -134q-12 -10 -17 -8.5t-2 15.5z" />
<glyph unicode="&#xfc;" horiz-adv-x="921" d="M70 104q5 68 49 168.5t106 199t118.5 178.5t100.5 132q20 22 50 19q28 -3 22 -27q-4 -13 -16 -29q-102 -127 -204.5 -296t-131.5 -271q-24 -80 1 -107t77 5q74 44 170 130t174 168t168 174.5t141 137.5q34 31 55 -10q16 -32 7 -61q-1 -4 -3 -7q-66 -99 -135.5 -240 t-81.5 -218q-7 -44 2 -63t26.5 -16.5t36.5 6.5q3 1 5 1q8 3 55.5 34t97.5 65t54 36q32 22 36 5q1 -16 -22 -40q-23 -23 -122 -91t-124 -77q-27 -8 -64.5 28t-37.5 75q0 19 3 41.5t6 39.5t11.5 44t12.5 40t16 43t15 38t17 40t15 35q14 35 0 50.5t-49 -17.5q-93 -92 -183 -177 t-202.5 -181t-151.5 -109q-53 -18 -88 16t-32 88zM592 899q0 29 47 76q46 49 76 55q22 5 41.5 -12.5t13.5 -36.5q-6 -35 -57 -80q-46 -43 -76 -37q-45 9 -45 35zM879 879q0 28 47 75q47 50 75 56q22 5 42 -12.5t14 -36.5q-6 -34 -58 -80q-46 -43 -75 -37q-45 9 -45 35z" />
<glyph unicode="&#xfd;" horiz-adv-x="759" d="M-1645 -1188q0 78 31 154q158 366 983 692q575 224 1176 342q26 71 69 250q32 129 39 192q-98 -85 -250 -188q-195 -131 -313 -178q-12 -4 -18 -4q-18 0 -31 14.5t-8 28.5q12 42 186 356q3 5 1.5 35t2.5 39q10 16 78 45q77 33 90 35q30 3 33 -33q-40 -17 -143 -160 q-82 -121 -123 -201q-6 -15 -6 -26q0 -21 16 -27q20 -7 37 0q104 41 266 154q145 101 193 147q9 19 23.5 32.5t27.5 14.5q32 1 51 -16.5t14 -38.5q-18 -21 -32 -51q-37 -136 -130 -412q314 58 596 58q76 0 156 -13q47 -10 90 -54.5t43 -94.5q0 -27 -12 -45 q-26 -51 -133 -135q-17 -17 -29 -17q-4 0 -4 2q0 12 21 27q120 114 120 203q0 72 -100 81q-98 5 -152 5q-367 0 -606 -50q-604 -1721 -1464 -1777q-296 -18 -541 178q-248 195 -248 436zM-1589 -1221q0 -215 217 -383q225 -173 512 -161q495 18 942 739q278 449 455 991 q-739 -151 -1297 -407q-668 -307 -803 -648q-26 -70 -26 -131zM524 772q-8 11 2 21q20 14 152 137q127 115 135 117q34 9 45 -35q7 -20 -12 -33q-193 -127 -301 -207q-14 -7 -21 0z" />
<glyph unicode="&#xfe;" horiz-adv-x="804" d="M-1933 -1331q0 368 325 647q337 294 834 428q383 101 698 104q13 24 55.5 111t79.5 152q32 56 90 164.5t84 154.5q-40 37 -34 62q12 34 108 73q19 29 284 450t347 544q10 15 74 40q26 9 26 -6q0 -4 -2.5 -6t-8.5 -8t-13 -16q-60 -87 -288.5 -455t-309.5 -506 q160 62 268 62q147 0 147 -136q0 -106 -94 -237q247 64 287 67q8 3 14 0q3 -3 0 -6q-5 -5 -14 -8q-158 -44 -352 -111q-178 -164 -436 -190q-43 -6 -43 39q0 12 8 20q46 30 444 162q105 120 105 248q0 111 -123 111q-88 0 -246 -82q-30 -51 -79.5 -123.5t-91.5 -133.5 t-106 -176.5t-129 -259.5q84 0 121 -6q60 -9 96.5 -52.5t36.5 -98.5q0 -25 -10 -45q-26 -51 -133 -135q-20 -17 -31 -17q-4 0 -4 2q0 12 21 27q121 112 121 203q0 78 -93 86q-21 4 -40 5.5t-30 1.5t-32.5 -0.5t-32.5 -0.5q-13 -28 -34.5 -84t-30.5 -78 q-493 -1225 -1030 -1520q-138 -75 -281 -75q-224 0 -371 178q-151 179 -151 430zM-1909 -1376q0 -213 158 -371q147 -147 354 -147q134 0 248 63q229 124 469 473q196 282 348 621q70 154 180 401q7 16 29 68t37 86q-299 -3 -637 -103q-477 -143 -813 -430 q-373 -323 -373 -661z" />
<glyph unicode="&#xff;" horiz-adv-x="759" d="M-1645 -1188q0 78 31 154q158 366 983 692q575 224 1176 342q26 71 69 250q32 129 39 192q-98 -85 -250 -188q-195 -131 -313 -178q-12 -4 -18 -4q-18 0 -31 14.5t-8 28.5q12 42 186 356q3 5 1.5 35t2.5 39q10 16 78 45q77 33 90 35q30 3 33 -33q-40 -17 -143 -160 q-82 -121 -123 -201q-6 -15 -6 -26q0 -21 16 -27q20 -7 37 0q104 41 266 154q145 101 193 147q9 19 23.5 32.5t27.5 14.5q32 1 51 -16.5t14 -38.5q-18 -21 -32 -51q-37 -136 -130 -412q314 58 596 58q76 0 156 -13q47 -10 90 -54.5t43 -94.5q0 -27 -12 -45 q-26 -51 -133 -135q-17 -17 -29 -17q-4 0 -4 2q0 12 21 27q120 114 120 203q0 72 -100 81q-98 5 -152 5q-367 0 -606 -50q-604 -1721 -1464 -1777q-296 -18 -541 178q-248 195 -248 436zM-1589 -1221q0 -215 217 -383q225 -173 512 -161q495 18 942 739q278 449 455 991 q-739 -151 -1297 -407q-668 -307 -803 -648q-26 -70 -26 -131zM393 797q0 28 47 75q47 50 76 56q22 5 41.5 -12.5t13.5 -36.5q-6 -35 -57 -80q-46 -43 -76 -37q-45 9 -45 35zM680 776q0 29 47 76q46 49 76 55q22 5 41.5 -12.5t13.5 -36.5q-6 -35 -57 -80q-46 -43 -76 -37 q-45 9 -45 35z" />
<glyph unicode="&#x100;" horiz-adv-x="2138" d="M78 246q0 110 53 243q99 240 322 297q88 23 229 23q317 0 795 -104q123 129 331 380q249 297 357 463q11 11 26 11q33 0 78 -29q44 -27 39 -43q-27 -82 -62.5 -188.5t-58 -176.5t-37.5 -118q-87 -284 -114 -439q105 -30 170 -30t65 32q0 51 -67 109q-17 11 -17 24 q-2 5 1 9t7 4q6 0 23 -13q77 -67 102 -133q6 -15 -8.5 -28t-50.5 -27q-42 -14 -229 23q-47 -233 -47 -367q0 -72 14 -115q1 -2 8 -6t15 -8t14.5 -8t5.5 -6q-3 -31 -41 -31q-13 0 -16 8q-33 67 -33 238q0 135 20 305q-217 43 -493 108q-200 -210 -475 -403 q-392 -276 -656 -279q-128 -1 -199 72.5t-71 202.5zM127 270q0 -115 53 -182q65 -81 176 -78q269 6 631 264q217 153 447 388q-392 98 -760 98q-144 0 -232 -21q-191 -44 -276 -262q-39 -101 -39 -207zM1518 692q234 -70 462 -114q24 244 211 817q4 20 4 26q0 33 -18 33 q-13 0 -33 -20q-312 -414 -626 -742zM2021 1671q0 31 78 31h430q43 0 43 -16q0 -29 -61 -29q-125 -2 -451 -2q-39 0 -39 16z" />
<glyph unicode="&#x101;" d="M14 82q0 145 228 373q207 204 368 266q40 16 84 16q40 0 99 -18q34 -3 38 -2q37 6 54 26q5 5 12 5t13.5 -10t4.5 -15q-175 -272 -231 -363q-82 -137 -156 -344t-94 -335q-2 -14 -2 -39q0 -68 42.5 -103t117.5 -35q72 0 145 25q109 37 283 176q138 112 266 275 q17 20 25 20q2 -2 2 -6q0 -10 -8 -23q-110 -165 -273 -303q-175 -143 -280 -180q-62 -20 -119 -20q-80 0 -164 53q-71 46 -68 160q3 84 57 264t111 305q70 153 138 254q14 22 -2 22q-3 0 -7 -4q-97 -114 -276 -268q-184 -154 -309 -227q-27 -17 -47 -17q-52 0 -52 72z M137 154q0 -50 37 -50q13 0 31 11q218 138 514 489q6 6 6 14q0 24 -27 43t-67 19q-23 0 -47 -6q-96 -23 -244 -187q-134 -149 -195 -286q-8 -21 -8 -47zM530 893q0 31 78 31h430q43 0 43 -17q0 -28 -61 -28q-125 -2 -451 -2q-39 0 -39 16z" />
<glyph unicode="&#x102;" horiz-adv-x="2138" d="M78 246q0 110 53 243q99 240 322 297q88 23 229 23q317 0 795 -104q123 129 331 380q249 297 357 463q11 11 26 11q33 0 78 -29q44 -27 39 -43q-27 -82 -62.5 -188.5t-58 -176.5t-37.5 -118q-87 -284 -114 -439q105 -30 170 -30t65 32q0 51 -67 109q-17 11 -17 24 q-2 5 1 9t7 4q6 0 23 -13q77 -67 102 -133q6 -15 -8.5 -28t-50.5 -27q-42 -14 -229 23q-47 -233 -47 -367q0 -72 14 -115q1 -2 8 -6t15 -8t14.5 -8t5.5 -6q-3 -31 -41 -31q-13 0 -16 8q-33 67 -33 238q0 135 20 305q-217 43 -493 108q-200 -210 -475 -403 q-392 -276 -656 -279q-128 -1 -199 72.5t-71 202.5zM127 270q0 -115 53 -182q65 -81 176 -78q269 6 631 264q217 153 447 388q-392 98 -760 98q-144 0 -232 -21q-191 -44 -276 -262q-39 -101 -39 -207zM1518 692q234 -70 462 -114q24 244 211 817q4 20 4 26q0 33 -18 33 q-13 0 -33 -20q-312 -414 -626 -742zM2168.5 1731.5q-30.5 70.5 14.5 144.5q5 9 17 8.5t14 -8.5q5 -48 13.5 -78t21.5 -43t24 -16.5t29 -3.5q28 0 67 7.5t106 41t118 88.5q12 12 29 9q9 -2 4 -9q-60 -97 -159.5 -154t-185.5 -57q-82 0 -112.5 70.5z" />
<glyph unicode="&#x103;" d="M14 82q0 145 228 373q207 204 368 266q40 16 84 16q40 0 99 -18q34 -3 38 -2q37 6 54 26q5 5 12 5t13.5 -10t4.5 -15q-175 -272 -231 -363q-82 -137 -156 -344t-94 -335q-2 -14 -2 -39q0 -68 42.5 -103t117.5 -35q72 0 145 25q109 37 283 176q138 112 266 275 q17 20 25 20q2 -2 2 -6q0 -10 -8 -23q-110 -165 -273 -303q-175 -143 -280 -180q-62 -20 -119 -20q-80 0 -164 53q-71 46 -68 160q3 84 57 264t111 305q70 153 138 254q14 22 -2 22q-3 0 -7 -4q-97 -114 -276 -268q-184 -154 -309 -227q-27 -17 -47 -17q-52 0 -52 72z M137 154q0 -50 37 -50q13 0 31 11q218 138 514 489q6 6 6 14q0 24 -27 43t-67 19q-23 0 -47 -6q-96 -23 -244 -187q-134 -149 -195 -286q-8 -21 -8 -47zM616.5 953.5q-30.5 70.5 14.5 144.5q5 9 17 8.5t14 -8.5q7 -63 21.5 -95.5t28.5 -39.5t38 -7q28 0 67 8t105.5 41.5 t117.5 88.5q12 12 29 9q9 -2 4 -9q-60 -97 -159 -154t-185 -57q-82 0 -112.5 70.5z" />
<glyph unicode="&#x104;" horiz-adv-x="2138" d="M78 246q0 110 53 243q99 240 322 297q88 23 229 23q317 0 795 -104q123 129 331 380q249 297 357 463q11 11 26 11q33 0 78 -29q44 -27 39 -43q-27 -82 -62.5 -188.5t-58 -176.5t-37.5 -118q-87 -284 -114 -439q105 -30 170 -30t65 32q0 51 -67 109q-17 11 -17 24 q-2 5 1 9t7 4q6 0 23 -13q77 -67 102 -133q6 -15 -8.5 -28t-50.5 -27q-42 -14 -229 23q-47 -233 -47 -367q0 -72 14 -115q1 -2 8 -6t15 -8t14.5 -8t5.5 -6q-3 -16 -21 -31q-58 -36 -107.5 -100.5t-55.5 -104.5q-6 -44 31 -55.5t108 10.5q22 13 24 2q0 -4 -4 -10 q-20 -30 -38 -42t-50 -22q-17 -7 -42.5 -5.5t-49.5 7.5t-38 28t-7 54q5 42 65 117.5t130 126.5q-2 0 -2 2q-33 67 -33 238q0 135 20 305q-217 43 -493 108q-200 -210 -475 -403q-392 -276 -656 -279q-128 -1 -199 72.5t-71 202.5zM127 270q0 -115 53 -182q65 -81 176 -78 q269 6 631 264q217 153 447 388q-392 98 -760 98q-144 0 -232 -21q-191 -44 -276 -262q-39 -101 -39 -207zM1518 692q234 -70 462 -114q24 244 211 817q4 20 4 26q0 33 -18 33q-13 0 -33 -20q-312 -414 -626 -742z" />
<glyph unicode="&#x105;" d="M14 82q0 145 228 373q207 204 368 266q40 16 84 16q40 0 99 -18q34 -3 38 -2q37 6 54 26q5 5 12 5t13.5 -10t4.5 -15q-28 -44 -117.5 -170t-127.5 -193q-72 -125 -98.5 -183.5t-36.5 -123.5q-9 -61 4.5 -86.5t56.5 -13.5q14 3 42.5 16t45.5 25q25 19 29 2q4 -18 -17 -37 q-38 -33 -80 -51q-55 -38 -100 -98.5t-51 -98.5q-6 -44 31 -55.5t108 10.5q21 13 24 3q2 -4 -3 -11q-20 -30 -38 -42t-50 -22q-17 -7 -42.5 -5.5t-50 7.5t-38.5 28t-7 54q3 36 53 102.5t113 119.5q-39 9 -59 37.5t-17 64.5q0 91 69 237.5t149 264.5q14 22 -2 22q-3 0 -7 -4 q-97 -114 -276 -268q-184 -154 -309 -227q-27 -17 -47 -17q-52 0 -52 72zM137 154q0 -50 37 -50q13 0 31 11q218 138 514 489q6 6 6 14q0 24 -27 43t-67 19q-23 0 -47 -6q-96 -23 -244 -187q-134 -149 -195 -286q-8 -21 -8 -47z" />
<glyph unicode="&#x106;" horiz-adv-x="1640" d="M154 410q0 224 264 491q230 233 573 420q327 176 545 203q56 6 111 6q155 0 223 -62l26 27q3 10 15 6q10 -3 10 -14q0 -5 -27 -39q29 -36 29 -117q0 -82 -28.5 -152t-98.5 -151q-93 -107 -201 -168q-6 -3 -34 0q-33 7 -33 14q0 116 117 300q87 142 176 237 q-37 82 -203 82q-50 0 -102 -8q-348 -65 -752 -367q-428 -322 -522 -633q-15 -53 -15 -100q0 -151 129 -246q150 -108 422 -102q312 6 643 141q307 123 496 297q11 14 22 14q9 0 9 -10q0 -7 -15 -22q-188 -191 -508 -326q-350 -145 -649 -139q-251 6 -426 112 q-196 120 -196 306zM1493 1591q-8 11 2 21q20 14 152 137q127 115 135 117q34 9 45 -35q7 -20 -12 -33q-201 -132 -302 -207q-13 -7 -20 0zM1581 915q-3 -15 4 -18q8 -5 19 0q158 104 223 262q26 62 26 127q0 56 -20 92q-87 -90 -154 -219q-72 -139 -98 -244z" />
<glyph unicode="&#x107;" horiz-adv-x="616" d="M84 123q5 106 61.5 224t136.5 211.5t170.5 163t163.5 91.5q52 16 95.5 -4.5t52.5 -64t-27 -101.5q-20 -28 -49 -30q-20 -1 -19 15q2 14 19 34q24 29 28 54.5t-10.5 37.5t-39 14t-56.5 -16q-127 -72 -299 -263l-24 -32q-30 -42 -50 -72t-46 -76t-40.5 -93t-17.5 -93 q-5 -83 35 -114.5t102 -26.5q132 15 279 98q21 13 25 3q3 -7 -11 -17q-149 -107 -274 -129q-64 -11 -136.5 48.5t-68.5 137.5zM551 874q-8 11 2 21q20 14 152 137q127 115 135 117q34 9 45 -35q7 -20 -13 -33q-193 -127 -301 -207q-13 -7 -20 0z" />
<glyph unicode="&#x108;" horiz-adv-x="1640" d="M154 410q0 224 264 491q230 233 573 420q327 176 545 203q56 6 111 6q155 0 223 -62l26 27q3 10 15 6q10 -3 10 -14q0 -5 -27 -39q29 -36 29 -117q0 -82 -28.5 -152t-98.5 -151q-93 -107 -201 -168q-6 -3 -34 0q-33 7 -33 14q0 116 117 300q87 142 176 237 q-37 82 -203 82q-50 0 -102 -8q-348 -65 -752 -367q-428 -322 -522 -633q-15 -53 -15 -100q0 -151 129 -246q150 -108 422 -102q312 6 643 141q307 123 496 297q11 14 22 14q9 0 9 -10q0 -7 -15 -22q-188 -191 -508 -326q-350 -145 -649 -139q-251 6 -426 112 q-196 120 -196 306zM1434 1597q4 15 12 25q30 16 166 127q18 14 38.5 29.5t31.5 24.5t21 16.5t14 10t5 1.5q13 -9 121 -219q6 -15 6 -21q-2 -6 -12 -16q-9 -3 -14 10q-39 56 -64 88q-23 25 -38.5 38.5t-24.5 12.5q-102 -42 -244 -133q-24 -21 -18 6zM1581 915q-3 -15 4 -18 q8 -5 19 0q158 104 223 262q26 62 26 127q0 56 -20 92q-87 -90 -154 -219q-72 -139 -98 -244z" />
<glyph unicode="&#x109;" horiz-adv-x="616" d="M84 123q5 106 61.5 224t136.5 211.5t170.5 163t163.5 91.5q52 16 95.5 -4.5t52.5 -64t-27 -101.5q-20 -28 -49 -30q-20 -1 -19 15q2 14 19 34q24 29 28 54.5t-10.5 37.5t-39 14t-56.5 -16q-127 -72 -299 -263l-24 -32q-30 -42 -50 -72t-46 -76t-40.5 -93t-17.5 -93 q-5 -83 35 -114.5t102 -26.5q132 15 279 98q21 13 25 3q3 -7 -11 -17q-149 -107 -274 -129q-64 -11 -136.5 48.5t-68.5 137.5zM492 881q3 13 12 24q30 16 166 127q18 14 38.5 29.5t31.5 24.5t21 16.5t14 10t5 1.5q13 -9 121 -219q6 -15 6 -21q-2 -6 -12 -16q-9 -3 -14 10 q-39 56 -64 88q-7 7 -17.5 18t-15 15.5t-11 10t-11 7.5t-8.5 1q-98 -40 -244 -134q-24 -21 -18 7z" />
<glyph unicode="&#x10a;" horiz-adv-x="1640" d="M154 410q0 224 264 491q230 233 573 420q327 176 545 203q56 6 111 6q155 0 223 -62l26 27q3 10 15 6q10 -3 10 -14q0 -5 -27 -39q29 -36 29 -117q0 -82 -28.5 -152t-98.5 -151q-93 -107 -201 -168q-6 -3 -34 0q-33 7 -33 14q0 116 117 300q87 142 176 237 q-37 82 -203 82q-50 0 -102 -8q-348 -65 -752 -367q-428 -322 -522 -633q-15 -53 -15 -100q0 -151 129 -246q150 -108 422 -102q312 6 643 141q307 123 496 297q11 14 22 14q9 0 9 -10q0 -7 -15 -22q-188 -191 -508 -326q-350 -145 -649 -139q-251 6 -426 112 q-196 120 -196 306zM1581 915q-3 -15 4 -18q8 -5 19 0q158 104 223 262q26 62 26 127q0 56 -20 92q-87 -90 -154 -219q-72 -139 -98 -244zM1628 1636q0 29 47 76q46 49 76 55q22 5 41.5 -12.5t13.5 -36.5q-6 -35 -57 -80q-45 -42 -76 -36q-45 9 -45 34z" />
<glyph unicode="&#x10b;" horiz-adv-x="616" d="M84 123q5 106 61.5 224t136.5 211.5t170.5 163t163.5 91.5q52 16 95.5 -4.5t52.5 -64t-27 -101.5q-20 -28 -49 -30q-20 -1 -19 15q2 14 19 34q24 29 28 54.5t-10.5 37.5t-39 14t-56.5 -16q-127 -72 -299 -263l-24 -32q-30 -42 -50 -72t-46 -76t-40.5 -93t-17.5 -93 q-5 -83 35 -114.5t102 -26.5q132 15 279 98q21 13 25 3q3 -7 -11 -17q-149 -107 -274 -129q-64 -11 -136.5 48.5t-68.5 137.5zM645 920q0 28 47 75q47 50 76 56q22 4 41.5 -13.5t13.5 -36.5q-6 -34 -57 -79q-46 -43 -76 -37q-45 9 -45 35z" />
<glyph unicode="&#x10c;" horiz-adv-x="1640" d="M154 410q0 224 264 491q230 233 573 420q327 176 545 203q56 6 111 6q155 0 223 -62l26 27q3 10 15 6q10 -3 10 -14q0 -5 -27 -39q29 -36 29 -117q0 -82 -28.5 -152t-98.5 -151q-93 -107 -201 -168q-6 -3 -34 0q-33 7 -33 14q0 116 117 300q87 142 176 237 q-37 82 -203 82q-50 0 -102 -8q-348 -65 -752 -367q-428 -322 -522 -633q-15 -53 -15 -100q0 -151 129 -246q150 -108 422 -102q312 6 643 141q307 123 496 297q11 14 22 14q9 0 9 -10q0 -7 -15 -22q-188 -191 -508 -326q-350 -145 -649 -139q-251 6 -426 112 q-196 120 -196 306zM1477 1839q0 12 8 16q7 2 14 -10q54 -62 82 -90q53 -53 70 -51q110 50 213 135q12 10 16 9t4 -15q0 -12 -6 -27q-30 -21 -139 -127q-16 -15 -32.5 -31t-26 -25t-18 -17t-12.5 -11t-5 -2q-2 0 -6 5t-12 15.5t-16.5 22.5t-23.5 33t-28.5 40t-35.5 50.5 t-40 57.5q-1 2 -3.5 10t-2.5 12zM1581 915q-3 -15 4 -18q8 -5 19 0q158 104 223 262q26 62 26 127q0 56 -20 92q-87 -90 -154 -219q-72 -139 -98 -244z" />
<glyph unicode="&#x10d;" horiz-adv-x="616" d="M84 123q5 106 61.5 224t136.5 211.5t170.5 163t163.5 91.5q52 16 95.5 -4.5t52.5 -64t-27 -101.5q-20 -28 -49 -30q-20 -1 -19 15q2 14 19 34q24 29 28 54.5t-10.5 37.5t-39 14t-56.5 -16q-127 -72 -299 -263l-24 -32q-30 -42 -50 -72t-46 -76t-40.5 -93t-17.5 -93 q-5 -83 35 -114.5t102 -26.5q132 15 279 98q21 13 25 3q3 -7 -11 -17q-149 -107 -274 -129q-64 -11 -136.5 48.5t-68.5 137.5zM494 1102q0 12 8 16q7 2 14 -10q54 -62 82 -90q53 -53 70 -51q110 50 213 135q12 10 16 9t4 -15q0 -12 -6 -27q-30 -21 -139 -127 q-16 -15 -32.5 -31t-26 -25t-18 -17t-12.5 -11t-5 -2q-7 2 -115 156q-30 43 -47 67q-1 3 -2.5 8t-2.5 8.5t-1 6.5z" />
<glyph unicode="&#x10e;" horiz-adv-x="1318" d="M-506 1104q22 119 109.5 209t211 140t269 78.5t289.5 30t266.5 -11.5t204.5 -39q139 -45 251.5 -111t189 -143.5t125 -167.5t64 -183.5t0.5 -191t-59.5 -190.5t-121 -182.5t-179.5 -165.5q-54 -40 -134.5 -82.5t-179 -84t-200.5 -65t-193 -26t-164 35t-106 114.5 q-8 18 -13.5 18t-14.5 -18q-4 -10 -12 -31t-12.5 -33.5t-11 -33t-10.5 -40.5q-6 -33 -19 -35q-13 -3 -11 27q1 7 2 15q9 50 61 192q4 13 -2 31q-20 49 -7.5 77t56.5 31h4t2 1q-1 3 1 7q123 251 311.5 556t292.5 423q23 26 62 26q28 0 26 -16q-1 -5 -6 -12 q-131 -165 -369.5 -533t-298.5 -513q-12 -29 -11.5 -67.5t15.5 -65.5q41 -70 153.5 -91t247 2.5t277 83t242.5 140.5q119 95 193 210.5t98.5 233t0.5 237.5t-92.5 224t-190.5 191.5t-284 140.5q-99 33 -237 51.5t-299 12.5t-305.5 -39.5t-259.5 -115.5t-156 -204 q-15 -44 -16 -92t7.5 -89t29 -87t40.5 -80t51 -75t50.5 -64.5t48.5 -55.5q37 -40 25 -51.5t-52 25.5q-293 283 -250 522zM1028 1819q0 12 8 16q8 3 15 -10q54 -62 82 -90q54 -54 69 -52q107 49 213 136q12 10 16.5 8.5t4.5 -15.5q0 -11 -6 -26q-34 -24 -140 -127 q-16 -15 -32.5 -31t-26 -25t-18 -17t-12.5 -11t-5 -2q-7 2 -115 156q-30 43 -47 67q-1 3 -2.5 8t-2.5 8.5t-1 6.5z" />
<glyph unicode="&#x10f;" horiz-adv-x="811" d="M18 68q0 136 242 366q221 209 371 266q42 17 84 17q33 0 112 -21q80 141 148 254q-41 4 -62 11q-28 3 -50.5 33t-22.5 63q0 21 14 35q98 107 301 151h4q116 175 209 293q465 596 948 766q168 57 318 57q259 0 438 -147q168 -142 168 -342q0 -152 -105 -287 q-118 -152 -337 -254q-823 -385 -1612 -385q-99 0 -144 2q-131 -232 -180 -328q-193 -374 -190 -589q0 -8 12 -23q18 -4 35 -6q9 -3 4 -16q-9 -13 -16 -15q-22 -13 -45 13q-25 41 -25 94q0 118 119 432q11 35 -11 35q-7 0 -12 -8q-126 -154 -282 -293q-210 -189 -336 -240 q-12 -4 -21 -4q-76 0 -76 70zM139 133q0 -45 35 -45q16 0 33 10q283 186 518 459q25 31 25 53q0 47 -74 47q-26 0 -53 -6q-98 -22 -263 -184q-150 -150 -210 -289q-11 -29 -11 -45zM872 1032q0 -35 46 -41q45 -8 77 -10q30 47 81 129t71 113q-171 -47 -260 -154 q-15 -15 -15 -37zM1061 975q37 -2 121 -2q856 0 1587 426q426 245 426 520q0 175 -172 295q-177 123 -402 123q-150 0 -292 -60q-666 -283 -1268 -1302zM1333 1106q0 8 2 10l164 305q9 17 29 17q47 0 47 -39q0 -6 -6 -15q-98 -126 -209 -282q-6 -10 -17 -6q-10 3 -10 10z " />
<glyph unicode="&#x110;" horiz-adv-x="1318" d="M-506 1104q22 119 109.5 209t211 140t269 78.5t289.5 30t266.5 -11.5t204.5 -39q139 -45 251.5 -111t189 -143.5t125 -167.5t64 -183.5t0.5 -191t-59.5 -190.5t-121 -182.5t-179.5 -165.5q-54 -40 -134.5 -82.5t-179 -84t-200.5 -65t-193 -26t-164 35t-106 114.5 q-8 18 -13.5 18t-14.5 -18q-4 -10 -12 -31t-12.5 -33.5t-11 -33t-10.5 -40.5q-6 -33 -19 -35q-13 -3 -11 27q1 7 2 15q9 50 61 192q4 13 -2 31q-20 49 -7.5 77t56.5 31h4t2 1q-1 3 1 7q82 169 215 396h-127q-39 0 -39 16q0 31 77 31h115q235 393 363 536q23 26 62 26 q28 0 26 -16q-1 -5 -6 -12q-134 -168 -371 -534h242q43 0 43 -17q0 -28 -62 -28q-74 -2 -252 -2q-212 -333 -268 -465q-12 -29 -11.5 -67.5t15.5 -65.5q41 -70 153.5 -91t247 2.5t277 83t242.5 140.5q119 95 193 210.5t98.5 233t0.5 237.5t-92.5 224t-190.5 191.5 t-284 140.5q-99 33 -237 51.5t-299 12.5t-305.5 -39.5t-259.5 -115.5t-156 -204q-15 -44 -16 -92t7.5 -89t29 -87t40.5 -80t51 -75t50.5 -64.5t48.5 -55.5q37 -40 25 -51.5t-52 25.5q-293 283 -250 522z" />
<glyph unicode="&#x111;" horiz-adv-x="811" d="M18 68q0 136 242 366q221 209 371 266q42 17 84 17q33 0 112 -21q80 141 148 254q-41 4 -62 11q-28 3 -50.5 33t-22.5 63q0 21 14 35q98 107 301 151h4l98 146h-198q-39 0 -39 16q0 31 78 31h194q44 61 76 100q465 596 948 766q168 57 318 57q259 0 438 -147 q168 -142 168 -342q0 -152 -105 -287q-118 -152 -337 -254q-823 -385 -1612 -385q-99 0 -144 2q-131 -232 -180 -328q-193 -374 -190 -589q0 -8 12 -23l35 -6q9 -3 4 -16q-9 -13 -16 -15q-22 -13 -45 13q-25 41 -25 94q0 118 119 432q11 35 -11 35q-7 0 -12 -8 q-126 -154 -282 -293q-210 -189 -336 -240q-12 -4 -21 -4q-76 0 -76 70zM139 133q0 -45 35 -45q16 0 33 10q283 186 518 459q25 31 25 53q0 47 -74 47q-26 0 -53 -6q-98 -22 -263 -184q-150 -150 -210 -289q-11 -29 -11 -45zM872 1032q0 -35 46 -41q45 -8 77 -10 q30 47 81 129t71 113q-171 -47 -260 -154q-15 -15 -15 -37zM1061 975q37 -2 121 -2q856 0 1587 426q426 245 426 520q0 175 -172 295q-177 123 -402 123q-150 0 -292 -60q-502 -212 -965 -841h164q43 0 43 -17q0 -28 -62 -28q-55 -2 -180 -2q-146 -206 -268 -414z" />
<glyph unicode="&#x112;" horiz-adv-x="1681" d="M309 692q-4 157 67.5 275t227.5 221q94 63 196 105t222.5 65t223 33.5t257.5 19.5q46 49 72 68q12 8 19 -1t11.5 -25.5t19.5 -31t38 -14.5q246 -2 504 -47q20 -6 32.5 -21t12.5 -34q3 -24 -19.5 -29.5t-46.5 4.5q-96 18 -280 33t-316 14q-225 -219 -454 -577 q165 13 370.5 15t364.5 -9q18 -3 25.5 -13t0.5 -19t-26 -9q-177 -2 -433 -22t-364 -48q-36 -64 -59.5 -109.5t-54.5 -117t-48 -144.5t-18 -143q-1 -71 38.5 -114.5t93 -56t116.5 -7.5q136 12 323.5 67t333.5 138q14 7 20.5 3t5 -13.5t-10.5 -14.5q-143 -114 -331 -179 t-343 -65q-24 0 -57 6.5t-75.5 24t-78 44t-62.5 72t-32 101.5q-8 103 40.5 246.5t104.5 232.5q-50 0 -63 21q-18 10 -28.5 33.5t5.5 44.5q9 9 36.5 14.5t63 10t50.5 8.5q216 325 426 579q-197 0 -413 -48.5t-378 -150.5q-119 -76 -194.5 -187t-84.5 -249q-13 -189 117 -397 q8 -15 6 -24.5t-13.5 -7.5t-20.5 16q-58 82 -97.5 193.5t-42.5 219.5zM1651 1610q0 30 78 30h430q43 0 43 -16q0 -29 -62 -29q-125 -2 -450 -2q-39 0 -39 17z" />
<glyph unicode="&#x113;" horiz-adv-x="655" d="M82 127q5 107 62 225t137.5 212t169.5 166t161 99q31 10 56.5 3.5t44 -28t28 -48t8.5 -56.5t-14 -53q-32 -56 -111 -96t-182 -55q316 0 404 10q40 4 83.5 26t71.5 46q10 15 18 8q5 -6 -3 -17q-27 -30 -73 -58.5t-97 -35.5q-92 -14 -561 -14q-145 -195 -154 -334 q-4 -83 36 -115.5t101 -25.5q64 7 140.5 35t136.5 63q21 11 26 2q4 -6 -10 -16q-55 -40 -131 -78.5t-143 -50.5q-65 -11 -136.5 49.5t-68.5 136.5zM307 496q109 0 219.5 49t159.5 121q21 32 23.5 57.5t-10 38t-37 11.5t-54.5 -17q-130 -74 -301 -260zM463 954q0 31 78 31 h430q43 0 43 -16q0 -29 -62 -29q-125 -2 -450 -2q-39 0 -39 16z" />
<glyph unicode="&#x114;" horiz-adv-x="1681" d="M309 692q-4 157 67.5 275t227.5 221q94 63 196 105t222.5 65t223 33.5t257.5 19.5q46 49 72 68q12 8 19 -1t11.5 -25.5t19.5 -31t38 -14.5q246 -2 504 -47q20 -6 32.5 -21t12.5 -34q3 -24 -19.5 -29.5t-46.5 4.5q-96 18 -280 33t-316 14q-225 -219 -454 -577 q165 13 370.5 15t364.5 -9q18 -3 25.5 -13t0.5 -19t-26 -9q-177 -2 -433 -22t-364 -48q-36 -64 -59.5 -109.5t-54.5 -117t-48 -144.5t-18 -143q-1 -71 38.5 -114.5t93 -56t116.5 -7.5q136 12 323.5 67t333.5 138q14 7 20.5 3t5 -13.5t-10.5 -14.5q-143 -114 -331 -179 t-343 -65q-24 0 -57 6.5t-75.5 24t-78 44t-62.5 72t-32 101.5q-8 103 40.5 246.5t104.5 232.5q-50 0 -63 21q-18 10 -28.5 33.5t5.5 44.5q9 9 36.5 14.5t63 10t50.5 8.5q216 325 426 579q-197 0 -413 -48.5t-378 -150.5q-119 -76 -194.5 -187t-84.5 -249q-13 -189 117 -397 q8 -15 6 -24.5t-13.5 -7.5t-20.5 16q-58 82 -97.5 193.5t-42.5 219.5zM1798 1670.5q-31 71.5 14 144.5q5 9 17 8.5t14 -8.5q7 -63 21.5 -95.5t28.5 -39.5t38 -7q28 0 67 7.5t106 41t118 88.5q12 12 29 9q9 -2 4 -9q-60 -97 -159 -154t-185 -57q-82 0 -113 71.5z" />
<glyph unicode="&#x115;" horiz-adv-x="655" d="M82 127q5 107 62 225t137.5 212t169.5 166t161 99q31 10 56.5 3.5t44 -28t28 -48t8.5 -56.5t-14 -53q-32 -56 -111 -96t-182 -55q316 0 404 10q40 4 83.5 26t71.5 46q10 15 18 8q5 -6 -3 -17q-27 -30 -73 -58.5t-97 -35.5q-92 -14 -561 -14q-145 -195 -154 -334 q-4 -83 36 -115.5t101 -25.5q64 7 140.5 35t136.5 63q21 11 26 2q4 -6 -10 -16q-55 -40 -131 -78.5t-143 -50.5q-65 -11 -136.5 49.5t-68.5 136.5zM307 496q109 0 219.5 49t159.5 121q21 32 23.5 57.5t-10 38t-37 11.5t-54.5 -17q-130 -74 -301 -260zM569.5 1015 q-30.5 71 14.5 144q5 9 16.5 8.5t13.5 -8.5q5 -48 13.5 -78t21.5 -43t24 -16.5t29 -3.5q28 0 67 7.5t106 41t118 88.5q12 12 29 9q9 -2 4 -9q-60 -97 -159 -154t-185 -57q-82 0 -112.5 71z" />
<glyph unicode="&#x116;" horiz-adv-x="1681" d="M309 692q-4 157 67.5 275t227.5 221q94 63 196 105t222.5 65t223 33.5t257.5 19.5q46 49 72 68q12 8 19 -1t11.5 -25.5t19.5 -31t38 -14.5q246 -2 504 -47q20 -6 32.5 -21t12.5 -34q3 -24 -19.5 -29.5t-46.5 4.5q-96 18 -280 33t-316 14q-225 -219 -454 -577 q165 13 370.5 15t364.5 -9q18 -3 25.5 -13t0.5 -19t-26 -9q-177 -2 -433 -22t-364 -48q-36 -64 -59.5 -109.5t-54.5 -117t-48 -144.5t-18 -143q-1 -71 38.5 -114.5t93 -56t116.5 -7.5q136 12 323.5 67t333.5 138q14 7 20.5 3t5 -13.5t-10.5 -14.5q-143 -114 -331 -179 t-343 -65q-24 0 -57 6.5t-75.5 24t-78 44t-62.5 72t-32 101.5q-8 103 40.5 246.5t104.5 232.5q-50 0 -63 21q-18 10 -28.5 33.5t5.5 44.5q9 9 36.5 14.5t63 10t50.5 8.5q216 325 426 579q-197 0 -413 -48.5t-378 -150.5q-119 -76 -194.5 -187t-84.5 -249q-13 -189 117 -397 q8 -15 6 -24.5t-13.5 -7.5t-20.5 16q-58 82 -97.5 193.5t-42.5 219.5zM1874 1595q0 29 47 76q46 49 76 55q22 5 41.5 -12.5t13.5 -36.5q-6 -35 -57 -80q-45 -42 -76 -36q-45 9 -45 34z" />
<glyph unicode="&#x117;" horiz-adv-x="655" d="M82 127q5 107 62 225t137.5 212t169.5 166t161 99q31 10 56.5 3.5t44 -28t28 -48t8.5 -56.5t-14 -53q-32 -56 -111 -96t-182 -55q316 0 404 10q40 4 83.5 26t71.5 46q10 15 18 8q5 -6 -3 -17q-27 -30 -73 -58.5t-97 -35.5q-92 -14 -561 -14q-145 -195 -154 -334 q-4 -83 36 -115.5t101 -25.5q64 7 140.5 35t136.5 63q21 11 26 2q4 -6 -10 -16q-55 -40 -131 -78.5t-143 -50.5q-65 -11 -136.5 49.5t-68.5 136.5zM307 496q109 0 219.5 49t159.5 121q21 32 23.5 57.5t-10 38t-37 11.5t-54.5 -17q-130 -74 -301 -260zM643 940q0 29 47 76 q46 49 76 55q22 5 41.5 -12.5t13.5 -36.5q-6 -35 -57 -80q-46 -43 -76 -37q-45 9 -45 35z" />
<glyph unicode="&#x118;" horiz-adv-x="1681" d="M309 692q-4 157 67.5 275t227.5 221q94 63 196 105t222.5 65t223 33.5t257.5 19.5q46 49 72 68q12 8 19 -1t11.5 -25.5t19.5 -31t38 -14.5q246 -2 504 -47q20 -6 32.5 -21t12.5 -34q3 -24 -19.5 -29.5t-46.5 4.5q-96 18 -280 33t-316 14q-225 -219 -454 -577 q165 13 370.5 15t364.5 -9q18 -3 25.5 -13t0.5 -19t-26 -9q-177 -2 -433 -22t-364 -48q-36 -64 -59.5 -109.5t-54.5 -117t-48 -144.5t-18 -143q-1 -71 38.5 -114.5t93 -56t116.5 -7.5q136 12 323.5 67t333.5 138q14 7 20.5 3t5 -13.5t-10.5 -14.5q-85 -67 -185 -117 q-55 -36 -99.5 -97t-51.5 -99q-6 -44 31 -55.5t108 10.5q22 13 24 2q0 -4 -4 -10q-20 -30 -38 -42t-50 -22q-17 -7 -42.5 -5.5t-49.5 7.5t-38 28t-7 54q3 32 40.5 86.5t90.5 106.5q-217 -91 -403 -91q-24 0 -57 6.5t-75.5 24t-78 44t-62.5 72t-32 101.5q-8 103 40.5 246.5 t104.5 232.5q-50 0 -63 21q-18 10 -28.5 33.5t5.5 44.5q9 9 36.5 14.5t63 10t50.5 8.5q216 325 426 579q-197 0 -413 -48.5t-378 -150.5q-119 -76 -194.5 -187t-84.5 -249q-13 -189 117 -397q8 -15 6 -24.5t-13.5 -7.5t-20.5 16q-58 82 -97.5 193.5t-42.5 219.5z" />
<glyph unicode="&#x119;" horiz-adv-x="655" d="M82 127q5 107 62 225t137.5 212t169.5 166t161 99q31 10 56.5 3.5t44 -28t28 -48t8.5 -56.5t-14 -53q-32 -56 -111 -96t-182 -55q316 0 404 10q40 4 83.5 26t71.5 46q10 15 18 8q5 -6 -3 -17q-27 -30 -73 -58.5t-97 -35.5q-92 -14 -561 -14q-145 -195 -154 -334 q-4 -83 36 -115.5t101 -25.5q64 7 140.5 35t136.5 63q21 11 26 2q4 -6 -10 -16q-22 -16 -59 -39q-57 -36 -104.5 -99t-53.5 -102q-6 -44 31 -55.5t108 10.5q21 13 24 3q1 -5 -3 -11q-20 -30 -38 -42t-50 -22q-17 -7 -42.5 -5.5t-49.5 7.5t-38 28t-7 54q3 30 36.5 81t81.5 99 q-66 -28 -110 -36q-65 -11 -136.5 49.5t-68.5 136.5zM307 496q109 0 219.5 49t159.5 121q21 32 23.5 57.5t-10 38t-37 11.5t-54.5 -17q-130 -74 -301 -260z" />
<glyph unicode="&#x11a;" horiz-adv-x="1681" d="M309 692q-4 157 67.5 275t227.5 221q94 63 196 105t222.5 65t223 33.5t257.5 19.5q46 49 72 68q12 8 19 -1t11.5 -25.5t19.5 -31t38 -14.5q246 -2 504 -47q20 -6 32.5 -21t12.5 -34q3 -24 -19.5 -29.5t-46.5 4.5q-96 18 -280 33t-316 14q-225 -219 -454 -577 q165 13 370.5 15t364.5 -9q18 -3 25.5 -13t0.5 -19t-26 -9q-177 -2 -433 -22t-364 -48q-36 -64 -59.5 -109.5t-54.5 -117t-48 -144.5t-18 -143q-1 -71 38.5 -114.5t93 -56t116.5 -7.5q136 12 323.5 67t333.5 138q14 7 20.5 3t5 -13.5t-10.5 -14.5q-143 -114 -331 -179 t-343 -65q-24 0 -57 6.5t-75.5 24t-78 44t-62.5 72t-32 101.5q-8 103 40.5 246.5t104.5 232.5q-50 0 -63 21q-18 10 -28.5 33.5t5.5 44.5q9 9 36.5 14.5t63 10t50.5 8.5q216 325 426 579q-197 0 -413 -48.5t-378 -150.5q-119 -76 -194.5 -187t-84.5 -249q-13 -189 117 -397 q8 -15 6 -24.5t-13.5 -7.5t-20.5 16q-58 82 -97.5 193.5t-42.5 219.5zM1743 1819q0 12 8 16q7 2 14 -10q54 -62 82 -90q54 -54 70 -52q107 49 213 136q12 10 16 8.5t4 -15.5q0 -11 -6 -26q-30 -21 -139 -127q-16 -15 -32.5 -31t-26 -25t-18 -17t-12.5 -11t-5 -2 q-7 2 -115 156q-30 43 -47 67q-1 3 -2.5 8t-2.5 8.5t-1 6.5z" />
<glyph unicode="&#x11b;" horiz-adv-x="655" d="M82 127q5 107 62 225t137.5 212t169.5 166t161 99q31 10 56.5 3.5t44 -28t28 -48t8.5 -56.5t-14 -53q-32 -56 -111 -96t-182 -55q316 0 404 10q40 4 83.5 26t71.5 46q10 15 18 8q5 -6 -3 -17q-27 -30 -73 -58.5t-97 -35.5q-92 -14 -561 -14q-145 -195 -154 -334 q-4 -83 36 -115.5t101 -25.5q64 7 140.5 35t136.5 63q21 11 26 2q4 -6 -10 -16q-55 -40 -131 -78.5t-143 -50.5q-65 -11 -136.5 49.5t-68.5 136.5zM307 496q109 0 219.5 49t159.5 121q21 32 23.5 57.5t-10 38t-37 11.5t-54.5 -17q-130 -74 -301 -260zM532 1163q0 13 9 17 q6 2 14 -11q54 -62 82 -90q53 -53 70 -51q110 50 213 135q12 10 16 9t4 -15q0 -12 -6 -27q-34 -24 -139 -126q-15 -14 -32.5 -30.5t-26.5 -25.5t-18 -17t-13 -11t-5 -2q-2 0 -6 5t-12 15.5t-16.5 22.5t-23 32.5t-28 40t-35 50t-40.5 57.5q-1 3 -4 11t-3 11z" />
<glyph unicode="&#x11c;" horiz-adv-x="1892" d="M205 387q0 81 26 160q131 403 713 729q562 313 1061 283q125 -6 225 -95q90 -81 127 -202q6 -9 6 -21q0 -11 -10 -8q-9 3 -14 16q-25 65 -80 123q-91 94 -248 109q-29 2 -90 2q-479 0 -997 -295q-531 -302 -648 -651q-30 -95 -30 -168q0 -116 86.5 -177.5t257.5 -62.5 q286 -3 749 229q395 196 543 338q2 1 10 13q82 192 131 256q32 25 97 84q6 6 10 6q13 0 16 -27q3 -29 -2 -47q-38 -146 -92 -203q-1 -1 -45 -16q-30 -56 -205 -402q36 -36 58 -110q-13 -21 -62 -78q-15 -8 -104 -33q-275 -493 -465 -620q-213 -141 -346 -144 q-154 -3 -242 70q-80 68 -80 176q0 106 78 193q122 134 459 229q168 47 542 115q51 117 203 436q10 22 10 31q0 4 -2 4l-24 -17q-266 -192 -578 -342q-384 -182 -651 -188q-169 -3 -279 72q-114 80 -114 233zM582 -395q0 -86 69 -135q76 -55 228 -52q182 6 335 129 q176 138 408 580l-182 -41q-235 -53 -404 -113q-253 -92 -370 -194q-84 -78 -84 -174zM1712 174q17 3 74 35q23 17 26 57q3 43 -22 68q-7 -17 -34 -69.5t-44 -90.5zM1722 1659q3 11 13 24q30 16 166 127q18 14 38.5 29.5t31.5 24.5t21 16.5t14 10t5 1.5q13 -9 121 -219 q6 -15 6 -20q-2 -8 -12 -17q-9 -3 -15 11q-45 66 -63 88q-23 25 -38.5 38.5t-24.5 12.5q-102 -42 -244 -133q-25 -22 -19 6z" />
<glyph unicode="&#x11d;" horiz-adv-x="800" d="M-1655 -1274q0 73 33 154q154 365 981 692q557 222 1176 340q45 102 110 334q7 25 17.5 64t15.5 55q-49 -46 -252 -191q-225 -159 -348 -213q-15 -6 -39 -6q-74 0 -74 74q0 27 19 63q98 198 335 348q242 151 449 148q8 0 12 -4q18 -6 30.5 -20t12.5 -29q-4 -27 -22 -50 q-126 -378 -189 -561q316 56 592 56q88 0 156 -11q48 -9 90.5 -55t42.5 -96q0 -25 -10 -45q-26 -51 -133 -135q-20 -17 -31 -17q-4 0 -4 2q0 13 20 27q121 112 121 203q0 72 -100 81q-98 5 -152 5q-380 0 -606 -50q-605 -1725 -1464 -1777q-293 -18 -541 178 q-248 195 -248 436zM-1597 -1307q0 -216 215 -383q226 -173 512 -161q496 18 942 741q280 453 454 991q-751 -157 -1294 -407q-669 -308 -805 -650q-24 -65 -24 -131zM92 96q0 -65 49 -65q44 0 252 149q127 91 250 193q52 45 57 112q0 1 -1 2t-1 2q0 7 2 9q0 36 -14 39 q-21 7 -94 -11q-154 -36 -297 -147q-156 -123 -199 -250q-4 -24 -4 -33zM399 778q3 13 13 25q30 16 166 127q18 14 38.5 29.5t31.5 24.5t21 16.5t14 10t5 1.5q13 -9 121 -219q6 -15 6 -21q-2 -6 -12 -16q-10 -3 -15 10q-45 66 -63 88l-13.5 13.5l-11.5 11.5l-9.5 9.5t-8.5 8 t-7 5t-7 3t-6 0.5q-102 -42 -244 -133q-25 -22 -19 6z" />
<glyph unicode="&#x11e;" horiz-adv-x="1892" d="M205 387q0 81 26 160q131 403 713 729q562 313 1061 283q125 -6 225 -95q90 -81 127 -202q6 -9 6 -21q0 -11 -10 -8q-9 3 -14 16q-25 65 -80 123q-91 94 -248 109q-29 2 -90 2q-479 0 -997 -295q-531 -302 -648 -651q-30 -95 -30 -168q0 -116 86.5 -177.5t257.5 -62.5 q286 -3 749 229q395 196 543 338q2 1 10 13q82 192 131 256q32 25 97 84q6 6 10 6q13 0 16 -27q3 -29 -2 -47q-38 -146 -92 -203q-1 -1 -45 -16q-30 -56 -205 -402q36 -36 58 -110q-13 -21 -62 -78q-15 -8 -104 -33q-275 -493 -465 -620q-213 -141 -346 -144 q-154 -3 -242 70q-80 68 -80 176q0 106 78 193q122 134 459 229q168 47 542 115q51 117 203 436q10 22 10 31q0 4 -2 4l-24 -17q-266 -192 -578 -342q-384 -182 -651 -188q-169 -3 -279 72q-114 80 -114 233zM582 -395q0 -86 69 -135q76 -55 228 -52q182 6 335 129 q176 138 408 580l-182 -41q-235 -53 -404 -113q-253 -92 -370 -194q-84 -78 -84 -174zM1712 174q17 3 74 35q23 17 26 57q3 43 -22 68q-7 -17 -34 -69.5t-44 -90.5zM1779.5 1731.5q-30.5 70.5 14.5 144.5q5 9 17 8.5t14 -8.5q5 -48 13.5 -78t21.5 -43t24 -16.5t29 -3.5 q28 0 67 7.5t106 41t118 88.5q13 13 29 8q7 -2 3 -8q-60 -97 -159 -154t-185 -57q-82 0 -112.5 70.5z" />
<glyph unicode="&#x11f;" horiz-adv-x="800" d="M-1655 -1274q0 73 33 154q154 365 981 692q557 222 1176 340q45 102 110 334q7 25 17.5 64t15.5 55q-49 -46 -252 -191q-225 -159 -348 -213q-15 -6 -39 -6q-74 0 -74 74q0 27 19 63q98 198 335 348q242 151 449 148q8 0 12 -4q18 -6 30.5 -20t12.5 -29q-4 -27 -22 -50 q-126 -378 -189 -561q316 56 592 56q88 0 156 -11q48 -9 90.5 -55t42.5 -96q0 -25 -10 -45q-26 -51 -133 -135q-20 -17 -31 -17q-4 0 -4 2q0 13 20 27q121 112 121 203q0 72 -100 81q-98 5 -152 5q-380 0 -606 -50q-605 -1725 -1464 -1777q-293 -18 -541 178 q-248 195 -248 436zM-1597 -1307q0 -216 215 -383q226 -173 512 -161q496 18 942 741q280 453 454 991q-751 -157 -1294 -407q-669 -308 -805 -650q-24 -65 -24 -131zM92 96q0 -65 49 -65q44 0 252 149q127 91 250 193q52 45 57 112q0 1 -1 2t-1 2q0 7 2 9q0 36 -14 39 q-21 7 -94 -11q-154 -36 -297 -147q-156 -123 -199 -250q-4 -24 -4 -33zM456.5 851q-30.5 71 14.5 144q5 9 17 8.5t14 -8.5q5 -48 13.5 -78t21.5 -43t24 -16.5t29 -3.5q28 0 67 7.5t106 41t118 88.5q13 13 29 8q7 -2 3 -8q-60 -97 -159 -154t-185 -57q-82 0 -112.5 71z" />
<glyph unicode="&#x120;" horiz-adv-x="1892" d="M205 387q0 81 26 160q131 403 713 729q562 313 1061 283q125 -6 225 -95q90 -81 127 -202q6 -9 6 -21q0 -11 -10 -8q-9 3 -14 16q-25 65 -80 123q-91 94 -248 109q-29 2 -90 2q-479 0 -997 -295q-531 -302 -648 -651q-30 -95 -30 -168q0 -116 86.5 -177.5t257.5 -62.5 q286 -3 749 229q395 196 543 338q2 1 10 13q82 192 131 256q32 25 97 84q6 6 10 6q13 0 16 -27q3 -29 -2 -47q-38 -146 -92 -203q-1 -1 -45 -16q-30 -56 -205 -402q36 -36 58 -110q-13 -21 -62 -78q-15 -8 -104 -33q-275 -493 -465 -620q-213 -141 -346 -144 q-154 -3 -242 70q-80 68 -80 176q0 106 78 193q122 134 459 229q168 47 542 115q51 117 203 436q10 22 10 31q0 4 -2 4l-24 -17q-266 -192 -578 -342q-384 -182 -651 -188q-169 -3 -279 72q-114 80 -114 233zM582 -395q0 -86 69 -135q76 -55 228 -52q182 6 335 129 q176 138 408 580l-182 -41q-235 -53 -404 -113q-253 -92 -370 -194q-84 -78 -84 -174zM1712 174q17 3 74 35q23 17 26 57q3 43 -22 68q-7 -17 -34 -69.5t-44 -90.5zM1876 1657q0 29 47 76q46 49 76 55q22 5 41.5 -12.5t13.5 -36.5q-6 -35 -57 -80q-46 -43 -76 -37 q-45 9 -45 35z" />
<glyph unicode="&#x121;" horiz-adv-x="800" d="M-1655 -1274q0 73 33 154q154 365 981 692q557 222 1176 340q45 102 110 334q7 25 17.5 64t15.5 55q-49 -46 -252 -191q-225 -159 -348 -213q-15 -6 -39 -6q-74 0 -74 74q0 27 19 63q98 198 335 348q242 151 449 148q8 0 12 -4q18 -6 30.5 -20t12.5 -29q-4 -27 -22 -50 q-126 -378 -189 -561q316 56 592 56q88 0 156 -11q48 -9 90.5 -55t42.5 -96q0 -25 -10 -45q-26 -51 -133 -135q-20 -17 -31 -17q-4 0 -4 2q0 13 20 27q121 112 121 203q0 72 -100 81q-98 5 -152 5q-380 0 -606 -50q-605 -1725 -1464 -1777q-293 -18 -541 178 q-248 195 -248 436zM-1597 -1307q0 -216 215 -383q226 -173 512 -161q496 18 942 741q280 453 454 991q-751 -157 -1294 -407q-669 -308 -805 -650q-24 -65 -24 -131zM92 96q0 -65 49 -65q44 0 252 149q127 91 250 193q52 45 57 112q0 1 -1 2t-1 2q0 7 2 9q0 36 -14 39 q-21 7 -94 -11q-154 -36 -297 -147q-156 -123 -199 -250q-4 -24 -4 -33zM573 776q0 28 48 76q46 49 75 55q22 5 42 -12.5t14 -36.5q-6 -34 -58 -80q-46 -43 -76 -37q-45 9 -45 35z" />
<glyph unicode="&#x122;" horiz-adv-x="1892" d="M205 387q0 81 26 160q131 403 713 729q562 313 1061 283q125 -6 225 -95q90 -81 127 -202q6 -9 6 -21q0 -11 -10 -8q-9 3 -14 16q-25 65 -80 123q-91 94 -248 109q-29 2 -90 2q-479 0 -997 -295q-531 -302 -648 -651q-30 -95 -30 -168q0 -116 86.5 -177.5t257.5 -62.5 q286 -3 749 229q395 196 543 338q2 1 10 13q82 192 131 256q32 25 97 84q6 6 10 6q13 0 16 -27q3 -29 -2 -47q-38 -146 -92 -203q-1 -1 -45 -16q-30 -56 -205 -402q36 -36 58 -110q-13 -21 -62 -78q-15 -8 -104 -33q-275 -493 -465 -620q-213 -141 -346 -144 q-154 -3 -242 70q-80 68 -80 176q0 106 78 193q122 134 459 229q168 47 542 115q51 117 203 436q10 22 10 31q0 4 -2 4l-24 -17q-266 -192 -578 -342q-384 -182 -651 -188q-169 -3 -279 72q-114 80 -114 233zM582 -395q0 -86 69 -135q76 -55 228 -52q182 6 335 129 q176 138 408 580l-182 -41q-235 -53 -404 -113q-253 -92 -370 -194q-84 -78 -84 -174zM948 -430q0 8 2 10l164 305q8 17 29 17q47 0 47 -39q0 -6 -6 -15q-98 -126 -209 -282q-6 -10 -17 -6q-10 3 -10 10zM1712 174q17 3 74 35q23 17 26 57q3 43 -22 68q-7 -17 -34 -69.5 t-44 -90.5z" />
<glyph unicode="&#x123;" horiz-adv-x="800" d="M-1655 -1274q0 73 33 154q154 365 981 692q557 222 1176 340q45 102 110 334q7 25 17.5 64t15.5 55q-49 -46 -252 -191q-225 -159 -348 -213q-15 -6 -39 -6q-74 0 -74 74q0 27 19 63q98 198 335 348q242 151 449 148q8 0 12 -4q18 -6 30.5 -20t12.5 -29q-4 -27 -22 -50 q-126 -378 -189 -561q316 56 592 56q88 0 156 -11q48 -9 90.5 -55t42.5 -96q0 -25 -10 -45q-26 -51 -133 -135q-20 -17 -31 -17q-4 0 -4 2q0 13 20 27q121 112 121 203q0 72 -100 81q-98 5 -152 5q-380 0 -606 -50q-605 -1725 -1464 -1777q-293 -18 -541 178 q-248 195 -248 436zM-1597 -1307q0 -216 215 -383q226 -173 512 -161q496 18 942 741q280 453 454 991q-751 -157 -1294 -407q-669 -308 -805 -650q-24 -65 -24 -131zM92 96q0 -65 49 -65q44 0 252 149q127 91 250 193q52 45 57 112q0 1 -1 2t-1 2q0 7 2 9q0 36 -14 39 q-21 7 -94 -11q-154 -36 -297 -147q-156 -123 -199 -250q-4 -24 -4 -33zM559 764q0 5 6 14q88 114 209 283q6 10 17 6q10 -3 10 -10q0 -8 -2 -10l-164 -306q-8 -16 -29 -16q-47 0 -47 39z" />
<glyph unicode="&#x124;" horiz-adv-x="2111" d="M31 -156q9 71 61 146.5t113 134.5q19 17 27 7q6 -8 -7 -21q-45 -50 -85 -125.5t-48 -145.5q-7 -60 13 -93.5t63 -41.5t98 1t129 34q122 42 260.5 135t264 211t236 245.5t194.5 250.5q-7 -1 -42 -7t-53 -6q-30 0 -49 35q-17 33 1 49q7 5 18 6q25 4 87 5t91 4 q57 71 119.5 198.5t79.5 210.5q45 215 -62.5 310.5t-341.5 37.5q-191 -46 -380.5 -175t-348.5 -314q0 -33 -16 -59q-48 -65 -97 -93q-16 -9 -30 8t-16.5 42t7.5 45q97 144 250 275t313.5 215.5t297.5 113.5q134 29 234 11t163 -73t88 -144.5t8 -203.5q-13 -91 -63 -209.5 t-103 -195.5q54 2 264.5 -0.5t274.5 0.5q70 149 197 351t217 318q9 12 3.5 19.5t-22.5 1.5q-11 -2 -15 5.5t3 14.5q29 35 73 80.5t94.5 95.5t65.5 66q15 11 30.5 1t26.5 -33t7 -40q-168 -188 -334.5 -434t-261.5 -446q11 0 29.5 1t32 1t22.5 -2q24 -5 21 -24q-3 -18 -25 -20 q-6 0 -13 1q-14 1 -44 -0.5t-46 -1.5q-33 -65 -66 -144.5t-66 -200t-31 -208.5q1 -27 23.5 -38t37.5 1q13 7 17.5 -1t-3.5 -22q-8 -11 -28 -24q-22 -9 -52.5 20t-35.5 57q-19 100 22 265t102 295q-113 0 -290.5 -8t-276.5 -21q-114 -155 -231.5 -289t-252 -258t-281 -215.5 t-290.5 -138.5q-133 -43 -217.5 -26t-123 65t-31.5 112zM1874 1597q4 15 12 25q30 16 166 127q18 14 38.5 30t31.5 24.5t21.5 16t14.5 10t5 1.5q13 -9 121 -219q6 -15 6 -21q-2 -5 -4.5 -8.5t-5.5 -5.5l-3 -2q-9 -3 -14 10q-45 66 -63 88q-4 4 -10 10.5t-9.5 10t-8.5 8t-8 7 t-6.5 5.5t-6 5t-5.5 3.5t-5.5 1.5h-4.5q-102 -42 -244 -133q-24 -21 -18 6z" />
<glyph unicode="&#x125;" horiz-adv-x="813" d="M20 20q0 8 3 17q157 333 456 848q-7 1 -27 4.5t-32 5.5q-28 6 -51 36.5t-23 59.5q0 20 14 37q100 106 302 150q565 851 1161 1058q162 58 317 58q261 0 438 -148q168 -142 168 -342q0 -152 -104 -286q-113 -149 -338 -254q-824 -387 -1622 -387q-51 0 -137 4 q-199 -335 -430 -754q4 3 71 74q140 140 291 262q185 148 256 155q8 11 80 29q12 2 30.5 -14t18.5 -31q0 -8 -2 -10q-59 -71 -155 -240q-101 -183 -101 -256q0 -53 55 -53q54 0 98.5 20.5t153.5 102.5q5 3 11.5 6t7.5 4q1 -1 2 -3t2 -3l-14 -14q-130 -105 -188.5 -136.5 t-121.5 -31.5q-35 0 -75 37q-48 40 -37 84q36 157 219 399q8 11 8 27q0 28 -31 28q-19 0 -41 -14q-113 -61 -319 -258q-175 -168 -264 -277q-1 2 -4 1.5t-8 -5t-11 -12.5q-3 -10 -10 -10q-17 0 -17 32zM385 969q0 -35 45 -41q52 -8 70 -8q48 78 149 235q-161 -47 -248 -147 q-16 -16 -16 -39zM563 915q141 -6 152 -6q341 0 698 84q462 108 862 340q426 248 426 520q0 175 -172 295q-177 123 -401 123q-152 0 -291 -59q-679 -282 -1274 -1297zM713 1024q4 15 12 25q30 16 166 127q17 13 38 29.5t31.5 24.5t21 15.5t14.5 10t5 1.5q13 -9 121 -219 q6 -15 6 -20q-2 -8 -12 -17q-8 -3 -14 11q-39 56 -64 88q-23 25 -38.5 38.5t-24.5 12.5q-102 -42 -244 -133q-24 -21 -18 6z" />
<glyph unicode="&#x126;" horiz-adv-x="2111" d="M31 -156q9 71 61 146.5t113 134.5q19 17 27 7q6 -8 -7 -21q-45 -50 -85 -125.5t-48 -145.5q-7 -60 13 -93.5t63 -41.5t98 1t129 34q122 42 260.5 135t264 211t236 245.5t194.5 250.5q-7 -1 -42 -7t-53 -6q-30 0 -49 35q-17 33 1 49q7 5 18 6q25 4 87 5t91 4 q44 54 104 168h-149q-18 0 -29.5 7t-11.5 13q0 16 59 16h150q58 123 76 205q45 215 -62.5 310.5t-341.5 37.5q-191 -46 -380.5 -175t-348.5 -314q0 -33 -16 -59q-48 -65 -97 -93q-16 -9 -30 8t-16.5 42t7.5 45q97 144 250 275t313.5 215.5t297.5 113.5q134 29 234 11 t163 -73t88 -144.5t8 -203.5q-12 -87 -59 -201h540q164 283 306 465q9 12 3.5 19.5t-22.5 1.5q-11 -2 -15 5.5t3 14.5q29 35 73 80.5t94.5 95.5t65.5 66q15 11 30.5 1t26.5 -33t7 -40q-127 -142 -257.5 -323t-230.5 -353h52q36 0 36 -12q0 -8 -13.5 -16t-37.5 -8h-59 q-30 -53 -86 -168q11 0 29.5 1t32 1t22.5 -2q24 -5 21 -24q-3 -18 -25 -20q-6 0 -13 1q-14 1 -44 -0.5t-46 -1.5q-33 -65 -66 -144.5t-66 -200t-31 -208.5q1 -27 23.5 -38t37.5 1q13 7 17.5 -1t-3.5 -22q-8 -11 -28 -24q-22 -9 -52.5 20t-35.5 57q-19 100 22 265t102 295 q-113 0 -290.5 -8t-276.5 -21q-114 -155 -231.5 -289t-252 -258t-281 -215.5t-290.5 -138.5q-133 -43 -217.5 -26t-123 65t-31.5 112zM1505 668q54 2 264.5 -0.5t274.5 0.5q55 113 88 168h-537q-44 -99 -90 -168z" />
<glyph unicode="&#x127;" horiz-adv-x="813" d="M20 20q0 8 3 17q157 333 456 848l-59 10q-28 6 -51 36.5t-23 59.5q0 20 14 37q100 106 302 150q57 86 147 211h-168q-39 0 -39 16q0 31 78 31h164q481 628 979 800q162 58 317 58q261 0 438 -148q168 -142 168 -342q0 -152 -104 -286q-113 -149 -338 -254 q-824 -387 -1622 -387q-51 0 -137 4q-199 -335 -430 -754q4 3 71 74q140 140 291 262q185 148 256 155q8 11 80 29q12 2 30.5 -14t18.5 -31q0 -8 -2 -10q-59 -71 -155 -240q-101 -183 -101 -256q0 -53 55 -53q54 0 98.5 20.5t153.5 102.5q5 3 11.5 6t7.5 4l4 -6l-14 -14 q-130 -105 -188.5 -136.5t-121.5 -31.5q-35 0 -75 37q-48 40 -37 84q36 157 219 399q8 11 8 27q0 28 -31 28q-19 0 -41 -14q-113 -61 -319 -258q-175 -168 -264 -277q-1 2 -4 1.5t-8 -5t-11 -12.5q-3 -10 -10 -10q-17 0 -17 32zM385 969q0 -35 45 -41q52 -8 70 -8 q48 78 149 235q-161 -47 -248 -147q-16 -16 -16 -39zM563 915q141 -6 152 -6q341 0 698 84q462 108 862 340q426 248 426 520q0 175 -172 295q-177 123 -401 123q-152 0 -291 -59q-486 -204 -926 -776h199q43 0 43 -17q0 -28 -61 -28q-63 -2 -218 -2q-161 -219 -311 -474z " />
<glyph unicode="&#x128;" horiz-adv-x="978" d="M82 164q-4 12 1.5 19t14 4t11.5 -15q18 -67 77 -115q35 -29 93.5 -35.5t129.5 12.5t134 62q99 68 206 191t199.5 263.5t184 306.5t160.5 311t128 286q-241 -45 -475 -146t-389 -221q-67 -52 -111 -105t-57 -124q-11 -61 23 -137q5 -11 -1.5 -16t-13.5 4q-18 23 -30.5 65 t-14.5 82q-3 68 39.5 134t128.5 138q140 119 394 227.5t534 170.5q31 6 45 24q18 17 41.5 0t15.5 -37q-532 -1150 -983 -1441q-113 -72 -235 -84t-191 43q-37 30 -59 133zM1266 1647q0 3 14 24q89 86 131 86q20 0 105 -37q73 -32 114 -32q71 0 103 32q17 13 22 13q6 0 6 -7 q0 -5 -10 -22q-78 -78 -121 -78q-32 0 -108 33q-81 37 -111 37q-45 0 -94 -27l-47 -27q-4 0 -4 5z" />
<glyph unicode="&#x129;" horiz-adv-x="372" d="M94 109q1 59 55 189t110 243t58 123q5 31 36 38q32 7 49 -18q19 -27 -5 -72q-181 -341 -186 -357q-7 -20 -41 -91q-19 -39 -24 -66.5t2 -40.5t22.5 -18.5t31.5 -4.5t34 5q72 18 130.5 53t118.5 92q33 33 35.5 17t-22.5 -41q-57 -57 -112.5 -97t-137.5 -77 q-32 -14 -93.5 21.5t-60.5 101.5zM184 848q0 1 15 24q89 86 131 86q21 0 104 -36q75 -33 115 -33q69 0 102 33q16 12 23 12q6 0 6 -6t-10 -23q-78 -78 -121 -78q-33 0 -109 33q-81 37 -110 37q-44 0 -94 -27l-48 -26q-4 0 -4 4z" />
<glyph unicode="&#x12a;" horiz-adv-x="978" d="M82 164q-4 12 1.5 19t14 4t11.5 -15q18 -67 77 -115q35 -29 93.5 -35.5t129.5 12.5t134 62q99 68 206 191t199.5 263.5t184 306.5t160.5 311t128 286q-241 -45 -475 -146t-389 -221q-67 -52 -111 -105t-57 -124q-11 -61 23 -137q5 -11 -1.5 -16t-13.5 4q-18 23 -30.5 65 t-14.5 82q-3 68 39.5 134t128.5 138q140 119 394 227.5t534 170.5q31 6 45 24q18 17 41.5 0t15.5 -37q-532 -1150 -983 -1441q-113 -72 -235 -84t-191 43q-37 30 -59 133zM1237 1651q0 30 78 30h430q43 0 43 -16q0 -29 -62 -29q-125 -2 -450 -2q-39 0 -39 17z" />
<glyph unicode="&#x12b;" horiz-adv-x="372" d="M94 109q1 59 55 189t110 243t58 123q5 31 36 38q32 7 49 -18q19 -27 -5 -72q-181 -341 -186 -357q-7 -20 -41 -91q-19 -39 -24 -66.5t2 -40.5t22.5 -18.5t31.5 -4.5t34 5q72 18 130.5 53t118.5 92q33 33 35.5 17t-22.5 -41q-57 -57 -112.5 -97t-137.5 -77 q-32 -14 -93.5 21.5t-60.5 101.5zM158 852q0 31 78 31h430q43 0 43 -17q0 -28 -62 -28q-125 -2 -450 -2q-39 0 -39 16z" />
<glyph unicode="&#x12c;" horiz-adv-x="978" d="M82 164q-4 12 1.5 19t14 4t11.5 -15q18 -67 77 -115q35 -29 93.5 -35.5t129.5 12.5t134 62q99 68 206 191t199.5 263.5t184 306.5t160.5 311t128 286q-241 -45 -475 -146t-389 -221q-67 -52 -111 -105t-57 -124q-11 -61 23 -137q5 -11 -1.5 -16t-13.5 4q-18 23 -30.5 65 t-14.5 82q-3 68 39.5 134t128.5 138q140 119 394 227.5t534 170.5q31 6 45 24q18 17 41.5 0t15.5 -37q-532 -1150 -983 -1441q-113 -72 -235 -84t-191 43q-37 30 -59 133zM1302.5 1711q-30.5 71 14.5 144q5 9 17 8.5t14 -8.5q5 -48 13.5 -78t21.5 -43t24 -16.5t29 -3.5 q28 0 67 7.5t105.5 41t117.5 88.5q12 12 29 9q9 -2 4 -9q-60 -97 -159 -154t-185 -57q-82 0 -112.5 71z" />
<glyph unicode="&#x12d;" horiz-adv-x="372" d="M94 109q1 59 55 189t110 243t58 123q5 31 36 38q32 7 49 -18q19 -27 -5 -72q-181 -341 -186 -357q-7 -20 -41 -91q-19 -39 -24 -66.5t2 -40.5t22.5 -18.5t31.5 -4.5t34 5q72 18 130.5 53t118.5 92q33 33 35.5 17t-22.5 -41q-57 -57 -112.5 -97t-137.5 -77 q-32 -14 -93.5 21.5t-60.5 101.5zM305 913q-31 71 14 144q5 9 17 8.5t14 -8.5q7 -63 21.5 -95.5t28.5 -39.5t38 -7q28 0 67 8t106 41.5t118 88.5q12 12 29 9q9 -2 4 -9q-60 -97 -159 -154t-185 -57q-82 0 -113 71z" />
<glyph unicode="&#x12e;" horiz-adv-x="978" d="M82 164q-4 12 1.5 19t14 4t11.5 -15q18 -67 77 -115q35 -29 93.5 -35.5t129.5 12.5t134 62q99 68 206 191t199.5 263.5t184 306.5t160.5 311t128 286q-241 -45 -475 -146t-389 -221q-67 -52 -111 -105t-57 -124q-11 -61 23 -137q5 -11 -1.5 -16t-13.5 4q-18 23 -30.5 65 t-14.5 82q-3 68 39.5 134t128.5 138q140 119 394 227.5t534 170.5q31 6 45 24q18 17 41.5 0t15.5 -37q-532 -1150 -983 -1441q-86 -57 -184 -76q-56 -38 -102 -99.5t-52 -99.5q-6 -44 31.5 -55.5t108.5 10.5q22 13 24 2q0 -4 -4 -10q-14 -21 -28.5 -33t-26 -17.5 t-33.5 -12.5q-18 -6 -42.5 -5.5t-49.5 7t-38.5 28t-6.5 53.5q3 38 53.5 104t114.5 120q-127 -10 -191 43q-37 30 -59 133z" />
<glyph unicode="&#x12f;" horiz-adv-x="372" d="M35 -244q3 38 56 107.5t118 122.5q-43 7 -79.5 39t-35.5 84q1 59 55 189t110 243t58 123q5 31 36 38q32 7 49 -18q19 -27 -5 -72q-181 -341 -186 -357q-7 -20 -41 -91q-19 -39 -24 -66.5t2 -40.5t22.5 -18.5t31.5 -4.5t34 5q72 18 130.5 53t118.5 92q33 33 35.5 17 t-22.5 -41q-54 -54 -107.5 -93.5t-130.5 -74.5q-57 -36 -105.5 -100t-54.5 -103q-6 -44 31.5 -55.5t108.5 10.5q22 13 24 2q0 -4 -4 -10q-20 -30 -38 -42t-50 -22q-17 -7 -42.5 -5.5t-49.5 7.5t-38 28t-7 54zM354 817q0 29 47 76q46 49 76 55q22 5 41.5 -12.5t13.5 -36.5 q-6 -35 -57 -80q-46 -43 -76 -37q-45 9 -45 35z" />
<glyph unicode="&#x130;" horiz-adv-x="978" d="M82 164q-4 12 1.5 19t14 4t11.5 -15q18 -67 77 -115q35 -29 93.5 -35.5t129.5 12.5t134 62q99 68 206 191t199.5 263.5t184 306.5t160.5 311t128 286q-241 -45 -475 -146t-389 -221q-67 -52 -111 -105t-57 -124q-11 -61 23 -137q5 -11 -1.5 -16t-13.5 4q-18 23 -30.5 65 t-14.5 82q-3 68 39.5 134t128.5 138q140 119 394 227.5t534 170.5q31 6 45 24q18 17 41.5 0t15.5 -37q-532 -1150 -983 -1441q-113 -72 -235 -84t-191 43q-37 30 -59 133zM1419 1636q0 29 47 76q46 49 76 55q22 5 41.5 -12.5t13.5 -36.5q-6 -35 -57 -80q-45 -42 -76 -36 q-45 9 -45 34z" />
<glyph unicode="&#x131;" horiz-adv-x="372" d="M94 109q1 59 55 189t110 243t58 123q5 31 36 38q32 7 49 -18q19 -27 -5 -72q-181 -341 -186 -357q-7 -20 -41 -91q-19 -39 -24 -66.5t2 -40.5t22.5 -18.5t31.5 -4.5t34 5q72 18 130.5 53t118.5 92q33 33 35.5 17t-22.5 -41q-57 -57 -112.5 -97t-137.5 -77 q-32 -14 -93.5 21.5t-60.5 101.5z" />
<glyph unicode="&#x132;" horiz-adv-x="1566" d="M-39.5 -742.5q-12.5 45.5 5.5 109.5t65 135q97 144 274 293t378 268.5t402 213t371 145.5q144 274 301 591.5t238 506.5q-272 -73 -504 -125q-82 -177 -154 -320t-166 -302.5t-184 -282.5t-199 -234.5t-221 -183.5q-113 -72 -235 -84t-191 43q-37 30 -59 133 q-4 12 1.5 19t14 4t11.5 -15q18 -67 77 -115q35 -29 93.5 -35.5t129.5 12.5t134 62q123 84 248.5 234.5t234 333t195 355.5t161.5 353q-242 -45 -475.5 -145.5t-388.5 -220.5q-66 -51 -110.5 -105t-57.5 -125q-11 -61 23 -137q5 -11 -1.5 -16t-13.5 4q-18 23 -30.5 65 t-14.5 82q-5 127 168 273q140 119 393.5 227t534.5 170q455 98 594 147q47 8 80 45q13 9 26 5t21.5 -15.5t3.5 -19.5q-168 -363 -563 -1119q-9 -17 -5.5 -30t17.5 -13q17 0 16 -10.5t-18 -13.5q-7 -1 -61 -23q-138 -233 -253 -405.5t-247 -325.5q-350 -411 -789 -516 q-73 -15 -131 -8.5t-92.5 38.5t-47 77.5zM3.5 -741.5q8.5 -36.5 37 -60t78 -24.5t110.5 13q117 31 226.5 86t203.5 127.5t167.5 142.5t148.5 156q129 149 465 682q-238 -79 -490.5 -212t-490 -318.5t-375.5 -376.5q-48 -67 -68.5 -123t-12 -92.5z" />
<glyph unicode="&#x133;" horiz-adv-x="638" d="M-1800.5 -1194.5q2.5 72.5 31.5 139.5q50 116 170 229.5t274.5 205t347.5 178t379.5 151.5t380 121.5t339.5 91.5t267 58q28 67 45 120q-78 -65 -186 -114q-32 -14 -93.5 21.5t-60.5 101.5q1 59 55 189t110 243t58 123q5 31 36 38q32 7 49 -18q19 -27 -5 -72 q-181 -341 -186 -357q-7 -20 -41 -91q-19 -39 -24 -66.5t2 -40.5t22.5 -18.5t31.5 -4.5t34 5q116 27 217 115q44 137 76.5 265t23.5 138q3 21 28.5 44t47.5 30q23 6 37 -2t12 -27q-3 -22 -23 -49q-18 -48 -87 -260.5t-101 -300.5q199 35 418.5 49.5t328.5 -4.5 q59 -12 106.5 -76.5t16.5 -122.5q-10 -18 -21 -33t-26.5 -30t-24 -22.5t-31 -25t-30.5 -24.5q-32 -25 -33 -14q-1 8 19 28q40 37 71.5 82.5t43.5 83.5q17 53 -10.5 83.5t-84.5 35.5q-94 13 -348 0t-409 -47q-40 -116 -81.5 -224t-101 -245t-120.5 -258t-140.5 -253 t-161.5 -241t-182.5 -211t-204.5 -173.5t-226 -118t-249 -54.5q-83 -5 -168.5 10t-163 46t-148 77.5t-127 102t-98 121t-63 132.5t-19 139.5zM-1744.5 -1231.5q-1.5 -62.5 17 -121.5t54.5 -116t86 -105.5t114.5 -89.5t136 -69t153.5 -42t165 -11q125 5 247.5 56t226.5 132.5 t205 194t182.5 232t159 256.5t134.5 257t108.5 243.5t81.5 206.5t54 155q-267 -55 -529 -129.5t-523.5 -176t-471.5 -215t-365.5 -253t-211.5 -283.5q-23 -59 -24.5 -121.5zM354 817q0 29 47 76q46 49 76 55q22 5 41.5 -12.5t13.5 -36.5q-6 -35 -57 -80q-46 -43 -76 -37 q-45 9 -45 35zM596 793q0 28 47 75q47 50 76 56q21 5 40.5 -13.5t12.5 -36.5q-6 -33 -55 -79q-51 -45 -78 -37q-43 9 -43 35z" />
<glyph unicode="&#x134;" horiz-adv-x="997" d="M-609.5 -742.5q-12.5 45.5 5.5 109.5t65 135q97 144 274 293t378.5 268.5t402.5 213t371 145.5q356 675 502 1016q-273 2 -532.5 -143t-407.5 -386q-34 -55 -59 -111.5t-43.5 -124t-14.5 -136.5t33 -127q8 -16 0.5 -21.5t-17.5 12.5q-39 69 -52 162t5 196.5t68 190.5 q65 111 162 200t194 142t208.5 94t195 60t163.5 36.5t105 26.5q47 8 80 45q13 9 26 5t21.5 -15.5t3.5 -19.5q-45 -97 -99 -208t-118 -235.5t-107.5 -208t-113.5 -216t-89 -169.5q-9 -17 -5 -30t18 -13q17 0 16 -10.5t-18 -13.5q-9 -2 -62 -23q-139 -236 -253 -407.5 t-246 -323.5q-350 -411 -789 -516q-73 -15 -131 -8.5t-93 38.5t-47.5 77.5zM-565.5 -741.5q8.5 -36.5 37 -60t78 -24.5t110.5 13q117 31 226.5 86t203.5 127.5t167.5 142.5t148.5 156q125 144 464 682q-238 -79 -490 -212t-489.5 -318.5t-375.5 -376.5q-48 -67 -68.5 -123 t-12 -92.5zM1153 1659q3 13 12 24q30 16 166 127q18 14 38.5 30t31.5 24.5t21.5 16t14.5 10t5 1.5q13 -9 121 -219q6 -15 6 -20q-2 -6 -13 -17q-8 -3 -14 11q-45 66 -63 88q-4 4 -10 10.5t-9.5 10t-8.5 8t-8 7t-6.5 5.5t-6 5t-5.5 3.5t-5.5 1.5h-4.5q-102 -42 -244 -133 q-24 -21 -18 6z" />
<glyph unicode="&#x135;" horiz-adv-x="307" d="M-2132.5 -1194.5q2.5 72.5 31.5 139.5q50 116 170 229.5t274.5 205t347.5 178t379.5 151.5t380 121.5t339.5 91.5t267 58q45 104 111 334t53 243q3 21 28.5 44t47.5 30q23 6 37 -2t12 -27q-3 -24 -22 -49q-19 -48 -88.5 -261t-100.5 -300q199 35 419 49.5t329 -4.5 q59 -12 106.5 -76.5t16.5 -122.5q-12 -22 -30.5 -43t-26.5 -29t-40.5 -34t-36.5 -29q-11 -8 -19 -12.5t-11 -4t-3 4t5 10.5t14 16q40 37 71.5 82.5t43.5 83.5q17 53 -10 83.5t-84 35.5q-94 13 -348.5 0t-409.5 -47q-40 -116 -81.5 -224t-101 -245t-120.5 -258t-140.5 -253 t-161.5 -241t-182.5 -211t-204.5 -173.5t-226 -118t-249 -54.5q-83 -5 -168.5 10t-163 46t-148 77.5t-127 102t-98 121t-63 132.5t-19 139.5zM-2076.5 -1231.5q-1.5 -62.5 17 -121.5t54.5 -116t86 -105.5t114.5 -89.5t136 -69t153.5 -42t165 -11q125 5 247.5 56t226.5 132.5 t205 194t182.5 232t159 256.5t134.5 257t108.5 243.5t81.5 206.5t54 155q-267 -55 -529 -129.5t-523.5 -176t-471.5 -215t-365.5 -253t-211.5 -283.5q-23 -59 -24.5 -121.5zM133 778q4 15 12 25q30 16 166 127q18 14 38.5 30t31.5 24.5t21.5 16t14.5 10t5 1.5 q13 -9 121 -219q6 -15 6 -21q-2 -6 -12 -16q-10 -3 -15 10q-45 66 -63 88q-4 4 -10 10.5t-9.5 10t-8.5 8t-8 7t-6.5 5.5t-6 5t-5.5 3.5t-5.5 1.5h-4.5q-100 -41 -243 -133q-25 -22 -19 6z" />
<glyph unicode="&#x136;" horiz-adv-x="743" d="M-510 827q1 3 2 12.5t2 12.5q72 216 443 459q347 226 542 217q85 -6 135 -109q46 -74 39 -139q-18 -182 -477 -891q-14 -14 -14 -33q0 -12 10 -12q8 0 33 21q63 63 151 139q13 70 33 84q18 9 35 -17q263 225 539 396q390 241 626 225q35 -4 35 -18q0 -6 -10.5 -10 t-24.5 -1q-260 16 -671 -270q-150 -103 -469 -375q115 -337 192 -502q189 -405 399 -530q73 -45 158 -45q181 0 320 151q23 19 30 19q6 0 6 -10t-16 -29q-174 -160 -346 -160q-84 0 -174 41q-313 145 -641 1006q-51 -22 -211 -205q-158 -181 -199 -246q-6 -12 -28 -12 q-35 0 -35 18q0 9 4 13q115 159 350 577q271 485 338 680q12 30 12 68q0 109 -116 118q-198 12 -539 -213q-352 -234 -416 -419q-8 -24 -8 -41q0 -36 41 -49q27 -15 80 -15q26 -7 26 -14q0 -14 -22 -14q-80 -14 -92 -7q-85 59 -72 129zM45 -430q0 8 2 10l164 305q9 17 29 17 q47 0 47 -39q0 -6 -6 -15q-98 -126 -209 -282q-6 -10 -17 -6q-10 3 -10 10z" />
<glyph unicode="&#x137;" horiz-adv-x="700" d="M18 -18q0 10 2 16q132 329 166 393q-16 50 0.5 80.5t46.5 24.5q166 281 199 335h-8q-26 4 -59 9q-27 6 -50.5 37t-23.5 59q0 23 14 37q97 103 301 151q566 850 1161 1059q162 55 318 55q267 0 440 -145q166 -141 166 -344q0 -151 -104 -285q-112 -151 -338 -256 q-824 -387 -1622 -387q-80 0 -119 2q-5 -2 -17.5 -6t-17.5 -6q-53 -107 -184 -322q389 281 528 281q60 0 66 -47q0 -42 -27 -100q-50 -103 -223 -181q-157 -71 -307 -71q128 -222 354 -430q254 -237 457 -297q37 -11 63 -11q140 0 189 111q7 14 14 10q1 -1 1.5 -3.5t1 -6.5 t1.5 -6q-38 -90 -111 -137q-9 -6 -100 6q-25 3 -46.5 7.5t-38.5 10t-21 6.5q-371 101 -861 707q-62 -99 -178 -379q-3 -10 -12 -10q-11 0 -21 33zM86 -430q0 8 2 10l164 305q8 17 29 17q47 0 47 -39q0 -6 -6 -15q-98 -126 -209 -282q-6 -10 -17 -6q-10 3 -10 10zM291 453 q8 -28 28 -62q6 -2 27 -2q72 0 160 29q105 32 153 69q100 76 97 164q-3 58 -70 49q-69 -10 -219 -110q-121 -78 -176 -137zM330 913q0 -30 45 -39q65 -10 69 -10q29 47 81.5 130t68.5 108q-165 -51 -248 -150q-16 -13 -16 -39zM508 860q94 -4 151 -4q351 0 699 82 q469 112 862 340q426 245 426 522q0 175 -172 295q-174 121 -399 121q-154 0 -293 -59q-679 -282 -1274 -1297z" />
<glyph unicode="&#x138;" horiz-adv-x="700" d="M18 -18q0 10 2 16q132 329 166 393q-16 50 0.5 80.5t46.5 24.5q23 52 85 170t110 212t51 109q5 32 33 38q27 6 39 -18q14 -27 -12 -71q-28 -50 -81.5 -139.5t-88.5 -153t-80 -154.5q389 281 528 281q60 0 66 -47q0 -42 -27 -100q-50 -103 -223 -181q-157 -71 -307 -71 q66 -76 150.5 -194t147.5 -193.5t128 -116.5q62 -34 116.5 -23.5t100.5 54.5q12 12 16 4q1 -2 0.5 -4t-1.5 -6.5t-1 -6.5q-2 -2 -12.5 -12t-14 -13t-14 -12.5t-16 -13t-16 -11t-19 -10.5t-19 -7t-21.5 -5.5t-22 -1.5q-55 0 -105.5 24t-90 62t-87 94t-89.5 112t-104 124.5 t-124 122.5q-62 -99 -178 -379q-3 -10 -12 -10q-11 0 -21 33zM291 453q8 -28 28 -62q6 -2 27 -2q72 0 160 29q105 32 153 69q100 76 97 164q-3 58 -70 49q-69 -10 -219 -110q-121 -78 -176 -137z" />
<glyph unicode="&#x139;" horiz-adv-x="1284" d="M2 319q-3 31 47 72q49 36 72 41q28 4 45 4q111 0 299 -80q9 -3 272 -127q103 275 205 508q192 437 350 602q45 48 129 95q104 58 191 61q122 3 222 -89.5t155 -262.5l3.5 -10.5t2.5 -10.5q0 -18 -13 -18q-12 0 -20 22q-46 123 -154 228q-102 97 -200 106 q-131 12 -275 -151q-158 -178 -356 -611q-70 -155 -203 -489q63 -33 178 -96.5t148 -81.5q320 -169 547 -256q338 -134 581 -140q186 -3 314 95q55 42 98.5 133t50.5 186q6 35 14 35q13 0 13 -37q0 -91 -45 -203q-46 -106 -105 -151q-53 -30 -127 -49q-100 -28 -209 -31 q-464 -12 -1487 522q-30 -91 -106 -158q-75 -66 -150 -69q-150 -3 -319 153q-160 153 -168 258zM66 315q0 -18 10 -45q58 -133 188 -237q125 -96 228 -99q150 -3 215 218q-373 180 -564 208q-77 9 -77 -45zM1704 1591q-8 11 2 21q20 14 152 137q127 115 135 117q34 9 45 -35 q7 -20 -13 -33q-193 -127 -301 -207q-13 -7 -20 0z" />
<glyph unicode="&#x13a;" horiz-adv-x="403" d="M147 182q-8 194 105 457v6q760 1722 1626 1774q296 18 524 -178q233 -195 209 -439q-6 -74 -45 -151q-193 -368 -1046 -693q-596 -225 -1205 -340q-78 -220 -84 -391q-1 -62 11 -104t35 -60.5t52.5 -23.5t65 5t69.5 27t68 42q25 17 31.5 15.5t1 -13.5t-15.5 -21 q-71 -64 -142 -93.5t-127.5 -22t-93 59.5t-39.5 144zM326 649q748 153 1331 408q699 307 866 649q29 62 35 131q24 214 -182 383q-207 174 -498 162q-487 -18 -1006 -742q-304 -425 -530 -950h2q-16 -38 -18 -41zM936 2042q-7 11 2 20q17 11 152 138q126 114 135 116 q34 9 45 -35q6 -19 -13 -32q-193 -127 -301 -207q-13 -7 -20 0z" />
<glyph unicode="&#x13b;" horiz-adv-x="1284" d="M2 319q-3 31 47 72q49 36 72 41q28 4 45 4q111 0 299 -80q9 -3 272 -127q103 275 205 508q192 437 350 602q45 48 129 95q104 58 191 61q122 3 222 -89.5t155 -262.5l3.5 -10.5t2.5 -10.5q0 -18 -13 -18q-12 0 -20 22q-46 123 -154 228q-102 97 -200 106 q-131 12 -275 -151q-158 -178 -356 -611q-70 -155 -203 -489q63 -33 178 -96.5t148 -81.5q320 -169 547 -256q338 -134 581 -140q186 -3 314 95q55 42 98.5 133t50.5 186q6 35 14 35q13 0 13 -37q0 -91 -45 -203q-46 -106 -105 -151q-53 -30 -127 -49q-100 -28 -209 -31 q-464 -12 -1487 522q-30 -91 -106 -158q-75 -66 -150 -69q-150 -3 -319 153q-160 153 -168 258zM66 315q0 -18 10 -45q58 -133 188 -237q125 -96 228 -99q150 -3 215 218q-373 180 -564 208q-77 9 -77 -45zM664 -430q0 8 2 10l163 305q9 17 29 17q47 0 47 -39q0 -6 -6 -15 q-98 -126 -209 -282q-6 -9 -16 -6t-10 10z" />
<glyph unicode="&#x13c;" horiz-adv-x="403" d="M39 -430q0 8 2 10l164 305q9 17 28 17q48 0 48 -39q0 -5 -7 -15q-84 -109 -208 -282q-6 -10 -17 -6q-10 3 -10 10zM147 182q-8 194 105 457v6q760 1722 1626 1774q296 18 524 -178q233 -195 209 -439q-6 -74 -45 -151q-193 -368 -1046 -693q-596 -225 -1205 -340 q-78 -220 -84 -391q-1 -62 11 -104t35 -60.5t52.5 -23.5t65 5t69.5 27t68 42q25 17 31.5 15.5t1 -13.5t-15.5 -21q-71 -64 -142 -93.5t-127.5 -22t-93 59.5t-39.5 144zM326 649q748 153 1331 408q699 307 866 649q29 62 35 131q24 214 -182 383q-207 174 -498 162 q-487 -18 -1006 -742q-304 -425 -530 -950h2q-16 -38 -18 -41z" />
<glyph unicode="&#x13d;" horiz-adv-x="1284" d="M2 319q-3 31 47 72q49 36 72 41q28 4 45 4q111 0 299 -80q9 -3 272 -127q103 275 205 508q192 437 350 602q45 48 129 95q104 58 191 61q122 3 222 -89.5t155 -262.5l3.5 -10.5t2.5 -10.5q0 -18 -13 -18q-12 0 -20 22q-46 123 -154 228q-102 97 -200 106 q-131 12 -275 -151q-158 -178 -356 -611q-70 -155 -203 -489q63 -33 178 -96.5t148 -81.5q320 -169 547 -256q338 -134 581 -140q186 -3 314 95q55 42 98.5 133t50.5 186q6 35 14 35q13 0 13 -37q0 -91 -45 -203q-46 -106 -105 -151q-53 -30 -127 -49q-100 -28 -209 -31 q-464 -12 -1487 522q-30 -91 -106 -158q-75 -66 -150 -69q-150 -3 -319 153q-160 153 -168 258zM66 315q0 -18 10 -45q58 -133 188 -237q125 -96 228 -99q150 -3 215 218q-373 180 -564 208q-77 9 -77 -45zM1319 1024q0 8 2 10l164 305q9 17 28 17q48 0 48 -39q0 -3 -7 -14 q-75 -97 -208 -283q-6 -10 -17 -6q-10 3 -10 10z" />
<glyph unicode="&#x13e;" horiz-adv-x="403" d="M147 182q-8 194 105 457v6q760 1722 1626 1774q296 18 524 -178q233 -195 209 -439q-6 -74 -45 -151q-193 -368 -1046 -693q-596 -225 -1205 -340q-78 -220 -84 -391q-1 -62 11 -104t35 -60.5t52.5 -23.5t65 5t69.5 27t68 42q25 17 31.5 15.5t1 -13.5t-15.5 -21 q-71 -64 -142 -93.5t-127.5 -22t-93 59.5t-39.5 144zM326 649q748 153 1331 408q699 307 866 649q29 62 35 131q24 214 -182 383q-207 174 -498 162q-487 -18 -1006 -742q-304 -425 -530 -950h2q-16 -38 -18 -41zM721 1106q0 8 2 10l164 305q9 17 28 17q48 0 48 -39 q0 -5 -7 -15q-84 -109 -208 -282q-6 -10 -17 -6q-10 3 -10 10z" />
<glyph unicode="&#x13f;" horiz-adv-x="1284" d="M2 319q-3 31 47 72q49 36 72 41q28 4 45 4q111 0 299 -80q9 -3 272 -127q103 275 205 508q192 437 350 602q45 48 129 95q104 58 191 61q122 3 222 -89.5t155 -262.5l3.5 -10.5t2.5 -10.5q0 -18 -13 -18q-12 0 -20 22q-46 123 -154 228q-102 97 -200 106 q-131 12 -275 -151q-158 -178 -356 -611q-70 -155 -203 -489q63 -33 178 -96.5t148 -81.5q320 -169 547 -256q338 -134 581 -140q186 -3 314 95q55 42 98.5 133t50.5 186q6 35 14 35q13 0 13 -37q0 -91 -45 -203q-46 -106 -105 -151q-53 -30 -127 -49q-100 -28 -209 -31 q-464 -12 -1487 522q-30 -91 -106 -158q-75 -66 -150 -69q-150 -3 -319 153q-160 153 -168 258zM66 315q0 -18 10 -45q58 -133 188 -237q125 -96 228 -99q150 -3 215 218q-373 180 -564 208q-77 9 -77 -45zM1003 350.5q-5 41.5 1 52.5q9 14 44 29.5t46 5.5q12 -14 12 -106 q0 -14 -40 -29.5t-50 -5.5q-8 12 -13 53.5z" />
<glyph unicode="&#x140;" horiz-adv-x="403" d="M147 182q-8 194 105 457v6q760 1722 1626 1774q296 18 524 -178q233 -195 209 -439q-6 -74 -45 -151q-193 -368 -1046 -693q-596 -225 -1205 -340q-78 -220 -84 -391q-1 -62 11 -104t35 -60.5t52.5 -23.5t65 5t69.5 27t68 42q25 17 31.5 15.5t1 -13.5t-15.5 -21 q-71 -64 -142 -93.5t-127.5 -22t-93 59.5t-39.5 144zM326 649q748 153 1331 408q699 307 866 649q29 62 35 131q24 214 -182 383q-207 174 -498 162q-487 -18 -1006 -742q-304 -425 -530 -950h2q-16 -38 -18 -41zM366 350.5q-5 41.5 1 52.5q9 14 44 29.5t46 5.5 q12 -14 12 -106q0 -14 -40 -29.5t-50 -5.5q-8 12 -13 53.5z" />
<glyph unicode="&#x141;" horiz-adv-x="1284" d="M2 319q-3 31 47 72q49 36 72 41q28 4 45 4q111 0 299 -80q9 -3 272 -127q53 143 150 379l-170 -47q-42 -9 -45 6q-5 15 12 28t55 23l172 48q4 12 9.5 24t12 25.5t9.5 21.5q192 437 350 602q45 48 129 95q104 58 191 61q122 3 222 -89.5t155 -262.5l3.5 -10.5t2.5 -10.5 q0 -18 -13 -18q-12 0 -20 22q-46 123 -154 228q-102 97 -200 106q-131 12 -275 -151q-158 -178 -356 -611l-8 -16l219 61q43 17 47 -2q7 -14 -6 -25t-45 -20l-240 -71q-55 -127 -170 -416q63 -33 178 -96.5t148 -81.5q320 -169 547 -256q338 -134 581 -140q186 -3 314 95 q55 42 98.5 133t50.5 186q6 35 14 35q13 0 13 -37q0 -91 -45 -203q-46 -106 -105 -151q-53 -30 -127 -49q-100 -28 -209 -31q-464 -12 -1487 522q-30 -91 -106 -158q-75 -66 -150 -69q-150 -3 -319 153q-160 153 -168 258zM66 315q0 -18 10 -45q58 -133 188 -237 q125 -96 228 -99q150 -3 215 218q-373 180 -564 208q-77 9 -77 -45z" />
<glyph unicode="&#x142;" horiz-adv-x="403" d="M119 731q-5 15 12 28t55 23l146 41q89 172 291 486q24 37 52.5 77t52.5 72.5t62 79.5t59.5 74.5t67 81t64.5 75.5t71 83t68 79q13 15 115 54q17 6 40 14.5t32 11.5t21 5.5t24 2.5q22 0 22 -18q0 -8 -20 -14q-193 -40 -637 -650q-172 -254 -293 -489l211 59q43 17 47 -2 q7 -14 -6 -25t-45 -20l-238 -72q-2 -4 -78 -170q-78 -220 -84 -391q-1 -62 11 -104t35 -60.5t52.5 -23.5t65 5t69.5 27t68 42q25 17 31.5 15.5t1 -13.5t-15.5 -21q-71 -64 -142 -93.5t-127.5 -22t-93 59.5t-39.5 144q-10 232 154 580l-137 -37q-42 -9 -45 6z" />
<glyph unicode="&#x143;" horiz-adv-x="1095" d="M-612 674q6 132 198 336q191 206 432 346q266 154 445 145q85 -3 141 -84q47 -68 47 -174q0 -46 -10 -94q-59 -229 -379 -764q-14 -21 -14 -37q0 -8 8 -8q15 0 33 33q160 203 409 446q330 324 512 355q27 4 46.5 -8.5t46.5 -43.5q17 -19 25.5 -39.5t9.5 -33t1 -36.5v-7 q0 -30 -6 -45q-36 -67 -137.5 -251.5t-155.5 -287.5q-84 -156 -210 -437t-226.5 -565.5t-71.5 -343.5q4 -4 0 -21.5t-4 -21.5q0 -61 33 -61q85 0 299 211q24 24 31 24q4 -4 4 -8q0 -8 -18 -35q-36 -58 -136 -139q-109 -86 -163 -86q-40 0 -67.5 47t-25.5 94 q4 98 186.5 612.5t282.5 717.5l297 602q23 45 23 78q0 43 -47 43q-28 0 -74 -19q-193 -81 -440 -317q-199 -188 -406 -449q-161 -204 -227 -309q-20 -33 -51 -33q-12 0 -19.5 7t-7.5 16q0 7 10 30q499 820 586 1098q20 72 20 123q0 87 -37 131.5t-112 50.5q-148 9 -397 -135 q-253 -144 -441 -338q-204 -210 -204 -364q0 -56 53 -66q68 -13 123 -2q24 3 24 -8q0 -10 -24 -17q-71 -21 -123 -12q-98 17 -92 154zM995 1489q-7 11 2 20q17 11 152 138q126 114 135 116q34 9 45 -34q7 -20 -12 -33q-193 -127 -301 -207q-14 -7 -21 0z" />
<glyph unicode="&#x144;" horiz-adv-x="698" d="M0 57q-8 8 4 33q47 99 160 272q100 152 188 261q14 21 51 26q12 3 15 0q0 -8 -6 -14q-151 -176 -232 -361q-8 -11 -8 -26q0 -23 16 -23q13 0 25 15q91 88 248 217q153 123 207 143q30 26 51 33q46 21 72 8q27 -9 -3 -47q-147 -187 -262 -430q-107 -232 -120 -385 q-6 -99 38 -146q42 -45 113 -45q29 0 59 9q117 34 293 182q195 168 195 266q0 25 -15.5 34.5t-31 10.5t-15.5 6q0 11 17.5 20t32.5 9q34 0 34 -47q0 -23 -12 -60q-35 -113 -184 -262q-198 -195 -426 -219q-81 -9 -135 45q-56 62 -47 193q12 138 129 370q102 203 211 351 q6 9 6 20q0 33 -37 33q-16 0 -33 -10q-220 -156 -469 -445q-21 -27 -104 -45q-22 -3 -25 8zM592 813q-8 11 2 21q17 11 151 137q125 113 136 116q34 9 45 -34q7 -20 -13 -33q-193 -127 -301 -207q-13 -7 -20 0z" />
<glyph unicode="&#x145;" horiz-adv-x="1095" d="M-612 674q6 132 198 336q191 206 432 346q266 154 445 145q85 -3 141 -84q47 -68 47 -174q0 -46 -10 -94q-59 -229 -379 -764q-14 -21 -14 -37q0 -8 8 -8q15 0 33 33q160 203 409 446q330 324 512 355q27 4 46.5 -8.5t46.5 -43.5q17 -19 25.5 -39.5t9.5 -33t1 -36.5v-7 q0 -30 -6 -45q-36 -67 -137.5 -251.5t-155.5 -287.5q-84 -156 -210 -437t-226.5 -565.5t-71.5 -343.5q4 -4 0 -21.5t-4 -21.5q0 -61 33 -61q85 0 299 211q24 24 31 24q4 -4 4 -8q0 -8 -18 -35q-36 -58 -136 -139q-109 -86 -163 -86q-40 0 -67.5 47t-25.5 94 q4 98 186.5 612.5t282.5 717.5l297 602q23 45 23 78q0 43 -47 43q-28 0 -74 -19q-193 -81 -440 -317q-199 -188 -406 -449q-161 -204 -227 -309q-20 -33 -51 -33q-12 0 -19.5 7t-7.5 16q0 7 10 30q499 820 586 1098q20 72 20 123q0 87 -37 131.5t-112 50.5q-148 9 -397 -135 q-253 -144 -441 -338q-204 -210 -204 -364q0 -56 53 -66q68 -13 123 -2q24 3 24 -8q0 -10 -24 -17q-71 -21 -123 -12q-98 17 -92 154zM201 -430q0 8 2 10l164 305q9 17 28 17q47 0 47 -39q0 -6 -6 -15q-98 -126 -209 -282q-6 -9 -16 -6t-10 10z" />
<glyph unicode="&#x146;" horiz-adv-x="698" d="M-39 -430q0 8 2 10l164 305q9 17 29 17q47 0 47 -39q0 -6 -6 -15q-98 -126 -209 -282q-6 -10 -17 -6q-10 3 -10 10zM0 57q-8 8 4 33q47 99 160 272q100 152 188 261q14 21 51 26q12 3 15 0q0 -8 -6 -14q-151 -176 -232 -361q-8 -11 -8 -26q0 -23 16 -23q13 0 25 15 q91 88 248 217q153 123 207 143q30 26 51 33q46 21 72 8q27 -9 -3 -47q-147 -187 -262 -430q-107 -232 -120 -385q-6 -99 38 -146q42 -45 113 -45q29 0 59 9q117 34 293 182q195 168 195 266q0 25 -15.5 34.5t-31 10.5t-15.5 6q0 11 17.5 20t32.5 9q34 0 34 -47 q0 -23 -12 -60q-35 -113 -184 -262q-198 -195 -426 -219q-81 -9 -135 45q-56 62 -47 193q12 138 129 370q102 203 211 351q6 9 6 20q0 33 -37 33q-16 0 -33 -10q-220 -156 -469 -445q-21 -27 -104 -45q-22 -3 -25 8z" />
<glyph unicode="&#x147;" horiz-adv-x="1095" d="M-612 674q6 132 198 336q191 206 432 346q266 154 445 145q85 -3 141 -84q47 -68 47 -174q0 -46 -10 -94q-59 -229 -379 -764q-14 -21 -14 -37q0 -8 8 -8q15 0 33 33q160 203 409 446q330 324 512 355q27 4 46.5 -8.5t46.5 -43.5q17 -19 25.5 -39.5t9.5 -33t1 -36.5v-7 q0 -30 -6 -45q-36 -67 -137.5 -251.5t-155.5 -287.5q-84 -156 -210 -437t-226.5 -565.5t-71.5 -343.5q4 -4 0 -21.5t-4 -21.5q0 -61 33 -61q85 0 299 211q24 24 31 24q4 -4 4 -8q0 -8 -18 -35q-36 -58 -136 -139q-109 -86 -163 -86q-40 0 -67.5 47t-25.5 94 q4 98 186.5 612.5t282.5 717.5l297 602q23 45 23 78q0 43 -47 43q-28 0 -74 -19q-193 -81 -440 -317q-199 -188 -406 -449q-161 -204 -227 -309q-20 -33 -51 -33q-12 0 -19.5 7t-7.5 16q0 7 10 30q499 820 586 1098q20 72 20 123q0 87 -37 131.5t-112 50.5q-148 9 -397 -135 q-253 -144 -441 -338q-204 -210 -204 -364q0 -56 53 -66q68 -13 123 -2q24 3 24 -8q0 -10 -24 -17q-71 -21 -123 -12q-98 17 -92 154zM918 1716q0 13 8 17q6 2 14 -11q54 -62 82 -90q53 -53 70 -51q110 50 213 135q12 10 16 9t4 -15q0 -12 -6 -27q-30 -21 -139 -127 q-15 -14 -32.5 -30.5t-26.5 -25.5t-18 -17t-13 -11t-5 -2q-2 1 -9 9.5t-22.5 29.5t-30.5 43t-44.5 64.5t-54.5 77.5q0 2 -3 10t-3 12z" />
<glyph unicode="&#x148;" horiz-adv-x="698" d="M0 57q-8 8 4 33q47 99 160 272q100 152 188 261q14 21 51 26q12 3 15 0q0 -8 -6 -14q-151 -176 -232 -361q-8 -11 -8 -26q0 -23 16 -23q13 0 25 15q91 88 248 217q153 123 207 143q30 26 51 33q46 21 72 8q27 -9 -3 -47q-147 -187 -262 -430q-107 -232 -120 -385 q-6 -99 38 -146q42 -45 113 -45q29 0 59 9q117 34 293 182q195 168 195 266q0 25 -15.5 34.5t-31 10.5t-15.5 6q0 11 17.5 20t32.5 9q34 0 34 -47q0 -23 -12 -60q-35 -113 -184 -262q-198 -195 -426 -219q-81 -9 -135 45q-56 62 -47 193q12 138 129 370q102 203 211 351 q6 9 6 20q0 33 -37 33q-16 0 -33 -10q-220 -156 -469 -445q-21 -27 -104 -45q-22 -3 -25 8zM494 1040q0 13 8 17q7 2 14 -10q61 -70 82 -91q53 -53 70 -51q110 50 213 135q12 10 16 9t4 -15q0 -11 -6 -26q-30 -21 -139 -127q-16 -15 -32.5 -31t-26 -25t-18 -17t-12.5 -11 t-5 -2q-7 2 -115 156q-10 14 -15.5 22t-14.5 21t-17 24q0 2 -3 10t-3 12z" />
<glyph unicode="&#x149;" horiz-adv-x="698" d="M0 57q-8 8 4 33q47 99 160 272q100 152 188 261q14 21 51 26q12 3 15 0q0 -8 -6 -14q-151 -176 -232 -361q-8 -11 -8 -26q0 -23 16 -23q13 0 25 15q91 88 248 217q153 123 207 143q30 26 51 33q46 21 72 8q27 -9 -3 -47q-147 -187 -262 -430q-107 -232 -120 -385 q-6 -99 38 -146q42 -45 113 -45q29 0 59 9q117 34 293 182q195 168 195 266q0 25 -15.5 34.5t-31 10.5t-15.5 6q0 11 17.5 20t32.5 9q34 0 34 -47q0 -23 -12 -60q-35 -113 -184 -262q-198 -195 -426 -219q-81 -9 -135 45q-56 62 -47 193q12 138 129 370q102 203 211 351 q6 9 6 20q0 33 -37 33q-16 0 -33 -10q-220 -156 -469 -445q-21 -27 -104 -45q-22 -3 -25 8zM424 778q0 8 2 10l164 306q8 16 28 16q48 0 48 -39q0 -3 -7 -14q-75 -97 -208 -283q-6 -10 -17 -6q-10 3 -10 10z" />
<glyph unicode="&#x14a;" horiz-adv-x="1095" d="M-1077 -1065q0 96 22 96q6 0 12 -10t7 -27q3 -71 20.5 -139t53 -133.5t86 -115t125 -80.5t163.5 -33q125 5 246 46.5t222.5 106.5t199.5 157.5t176 188t153 210t129.5 212.5t106.5 206.5t82.5 181t58.5 145.5l465 1065q23 51 23 78q0 43 -47 43q-28 0 -74 -19 q-193 -81 -440 -317q-199 -188 -406 -449q-161 -204 -227 -309q-20 -33 -51 -33q-12 0 -19.5 7t-7.5 16q0 7 10 30q499 820 586 1098q20 72 20 123q0 87 -37 131.5t-112 50.5q-148 9 -397 -135q-253 -144 -441 -338q-204 -210 -204 -364q0 -56 53 -66q68 -13 123 -2 q24 3 24 -8q0 -10 -24 -17q-71 -21 -123 -12q-98 17 -92 154q6 132 198 336q191 206 432 346q266 154 445 145q85 -3 141 -84q47 -68 47 -174q0 -46 -10 -94q-59 -229 -379 -764q-14 -21 -14 -37q0 -8 8 -8q15 0 33 33q160 203 409 446q330 324 512 355q27 4 46.5 -8.5 t46.5 -43.5q17 -19 25.5 -39.5t9.5 -33t1 -36.5v-7q0 -30 -6 -45q-65 -121 -226.5 -466.5t-248.5 -539.5q-80 -179 -130.5 -285t-143 -279.5t-169.5 -281t-192.5 -239.5t-230 -209.5t-264 -135.5t-312.5 -69q-116 0 -211 40t-155.5 107.5t-93.5 153t-33 178.5z" />
<glyph unicode="&#x14b;" horiz-adv-x="698" d="M-1446 -1065q0 96 23 96q15 0 18 -37q3 -71 20.5 -139t53.5 -133.5t86 -115t125 -80.5t164 -33q125 5 242.5 40.5t213 90.5t185.5 132.5t159.5 159.5t134 179.5t111 183.5t89 181t68 162t48.5 136q35 104 172 381.5t195 356.5q6 9 6 20q0 33 -37 33q-16 0 -33 -10 q-220 -156 -469 -445q-21 -27 -104 -45q-22 -3 -25 8q-8 8 4 33q47 99 160 272q100 152 188 261q14 21 51 26q12 3 15 0q0 -8 -6 -14q-151 -176 -232 -361q-8 -11 -8 -26q0 -23 16 -23q13 0 25 15q91 88 248 217q153 123 207 143q30 26 51 33q46 21 72 8q27 -9 -3 -47 q-69 -88 -219 -387.5t-202 -439.5q-35 -95 -68.5 -177.5t-82.5 -185.5t-99.5 -191t-118.5 -183.5t-139.5 -172.5t-162 -150t-188 -124t-215.5 -85t-245 -42q-116 0 -211 40t-156 107.5t-94 153t-33 178.5z" />
<glyph unicode="&#x14c;" horiz-adv-x="1744" d="M225 475q0 83 25 178q52 198 244 387q-9 30 -9 60q0 118 107 243q124 146 317 224q179 73 387 73q80 0 154 -12q238 -37 381 -244q119 -172 119 -352q0 -23 -4 -51q-43 -301 -258 -547q-176 -204 -461 -336q-250 -116 -479 -104q-212 9 -357 127q-166 135 -166 354z M260 481q0 -189 129.5 -301t358.5 -123q242 -12 516 131q283 151 456 369q197 244 197 487q0 197 -115 345q-128 162 -379 200q-52 8 -118 8q-202 0 -394 -79q-183 -73 -295 -191q-98 -104 -98 -207q0 -21 4 -41q145 145 383 258q271 131 502 131q55 0 117 -10q20 -3 20 -14 q0 -20 -22 -14q-52 12 -115 12q-243 0 -543 -158q-260 -134 -338 -248q9 -68 84 -127q72 -57 160 -57q23 0 23 -14q0 -8 -9.5 -13t-23.5 -2q-89 3 -166 62q-72 54 -94 123q-65 -59 -127 -160q-72 -124 -90 -197q-23 -85 -23 -170zM1149 1733q0 30 78 30h430q43 0 43 -16 q0 -29 -62 -29q-125 -2 -450 -2q-39 0 -39 17z" />
<glyph unicode="&#x14d;" horiz-adv-x="724" d="M39 39q3 170 274 502q7 14 -4 18q-55 31 -55 49v6t2.5 6.5t8 8t18 5t30.5 3.5q77 3 78 2q10 0 23 8q45 42 90 45q26 2 92 -37q1 -1 6 -4t8 -4q18 -1 109.5 -3.5t157.5 -4.5q30 0 30 -8q0 -13 -30 -13q-64 0 -82 -24q-3 -6 0 -12q1 -3 2.5 -8t2.5 -8.5t1 -6.5 q-12 -156 -250 -360q-246 -211 -420 -234q-30 -5 -61 19t-31 55zM90 29q0 -49 66 -37q138 21 333 201q206 185 236 331q7 32 -13 49.5t-65 22.5q-92 11 -172 -18q-4 2 -35 -19q-218 -203 -338 -485q-12 -21 -12 -45zM414 831q0 31 78 31h430q43 0 43 -16q0 -29 -62 -29 q-125 -2 -450 -2q-39 0 -39 16z" />
<glyph unicode="&#x14e;" horiz-adv-x="1744" d="M225 475q0 83 25 178q52 198 244 387q-9 30 -9 60q0 118 107 243q124 146 317 224q179 73 387 73q80 0 154 -12q238 -37 381 -244q119 -172 119 -352q0 -23 -4 -51q-43 -301 -258 -547q-176 -204 -461 -336q-250 -116 -479 -104q-212 9 -357 127q-166 135 -166 354z M260 481q0 -189 129.5 -301t358.5 -123q242 -12 516 131q283 151 456 369q197 244 197 487q0 197 -115 345q-128 162 -379 200q-52 8 -118 8q-202 0 -394 -79q-183 -73 -295 -191q-98 -104 -98 -207q0 -21 4 -41q145 145 383 258q271 131 502 131q55 0 117 -10q20 -3 20 -14 q0 -20 -22 -14q-52 12 -115 12q-243 0 -543 -158q-260 -134 -338 -248q9 -68 84 -127q72 -57 160 -57q23 0 23 -14q0 -8 -9.5 -13t-23.5 -2q-89 3 -166 62q-72 54 -94 123q-65 -59 -127 -160q-72 -124 -90 -197q-23 -85 -23 -170zM1235 1793q-31 71 14 144q5 9 17 8.5 t14 -8.5q5 -48 13.5 -78t21.5 -43t24 -16.5t29 -3.5q28 0 67 7.5t106 41t118 88.5q12 12 29 9q9 -2 4 -9q-60 -97 -159 -154t-185 -57q-82 0 -113 71z" />
</font>
</defs>
</svg>
